<svg xmlns="http://www.w3.org/2000/svg" xmlns:xlink="http://www.w3.org/1999/xlink" xmlns:lucid="lucid" width="894.34" height="510.75"><g transform="translate(-1.497037919936588 -40.25)" lucid:page-tab-id="0_0"><path d="M21.5 160.25h160v40h-160z" fill="none"/><use xlink:href="#a" transform="matrix(1,0,0,1,21.497037919936588,160.25) translate(13.388888888888914 14.666666666666668)"/><use xlink:href="#b" transform="matrix(1,0,0,1,21.497037919936588,160.25) translate(58.57407407407408 14.666666666666668)"/><use xlink:href="#c" transform="matrix(1,0,0,1,21.497037919936588,160.25) translate(28.388888888888914 30.666666666666664)"/><use xlink:href="#d" transform="matrix(1,0,0,1,21.497037919936588,160.25) translate(68.09259259259261 30.666666666666664)"/><path d="M213.17 175.16h120v40h-120z" fill="none"/><use xlink:href="#e" transform="matrix(1,0,0,1,213.16666666666663,175.16314622257588) translate(31.975308641975325 21.77777777777778)"/><path d="M113.17 66.25c0-3.3 2.68-6 6-6h188c3.3 0 6 2.7 6 6v28c0 3.3-2.7 6-6 6h-188c-3.32 0-6-2.7-6-6z" stroke="#99d2f2" stroke-width="3" fill="#fff"/><use xlink:href="#f" transform="matrix(1,0,0,1,125.16666666666663,72.25) translate(17.72222222222223 17.77777777777778)"/><path d="M353.17 66.25c0-3.3 2.68-6 6-6h188c3.3 0 6 2.7 6 6v28c0 3.3-2.7 6-6 6h-188c-3.32 0-6-2.7-6-6z" stroke="#99d2f2" stroke-width="3" fill="#fff"/><use xlink:href="#g" transform="matrix(1,0,0,1,365.16666666666663,72.25) translate(30.65432098765431 17.77777777777778)"/><path d="M213.17 102.75v9.17m0 9.16v19.17" stroke="#5e5e5e" stroke-width="2" fill="none"/><path d="M214.17 102.78h-2v-1.03h2z" fill="#5e5e5e"/><path d="M213.17 155.5l-4.64-14.25h9.27z" stroke="#5e5e5e" stroke-width="2" fill="#5e5e5e"/><path d="M453.17 102.75v9.13m0 9.14v18.26m0 9.14v18.26m0 9.14v18.26m0 9.14v18.26m0 9.13v9.15" stroke="#5e5e5e" stroke-width="2" fill="none"/><path d="M454.17 102.78h-2v-1.03h2z" fill="#5e5e5e"/><path d="M453.17 255l-4.64-14.25h9.27z" stroke="#5e5e5e" stroke-width="2" fill="#5e5e5e"/><path d="M453.17 342.25v10.43m0 10.44v20.86m0 10.44v20.86m0 10.44v20.86m0 10.44v20.86m0 10.43v10.45" stroke="#5e5e5e" stroke-width="2" fill="none"/><path d="M454.17 342.28h-2v-1.03h2z" fill="#5e5e5e"/><path d="M453.17 514l-4.64-14.25h9.27z" stroke="#5e5e5e" stroke-width="2" fill="#5e5e5e"/><path d="M193.17 166.25c0-3.3 2.68-6 6-6h28c3.3 0 6 2.7 6 6v261.5c0 3.3-2.7 6-6 6h-28c-3.32 0-6-2.7-6-6zM433.17 265.75c0-3.3 2.68-6 6-6h28c3.3 0 6 2.7 6 6v68c0 3.3-2.7 6-6 6h-28c-3.32 0-6-2.7-6-6zM493.17 125.75c0-3.3 2.68-6 6-6h188c3.3 0 6 2.7 6 6v28c0 3.3-2.7 6-6 6h-188c-3.32 0-6-2.7-6-6z" stroke="#99d2f2" stroke-width="3" fill="#fff"/><use xlink:href="#h" transform="matrix(1,0,0,1,505.16666666666663,131.75) translate(18.339506172839506 17.77777777777778)"/><path d="M593.17 162.25v10.83m0 10.84v21.66m0 10.84v21.66m0 10.83v10.85" stroke="#5e5e5e" stroke-width="2" fill="none"/><path d="M594.17 162.28h-2v-1.03h2z" fill="#5e5e5e"/><path d="M593.17 275l-4.64-14.25h9.27z" stroke="#5e5e5e" stroke-width="2" fill="#5e5e5e"/><path d="M593.17 342.25v10.6m0 10.6v21.2m0 10.6v21.2m0 10.6v21.2m0 10.6v21.2m0 10.6v10.6" stroke="#5e5e5e" stroke-width="2" fill="none"/><path d="M594.17 342.28h-2v-1.03h2z" fill="#5e5e5e"/><path d="M593.17 516.5l-4.64-14.25h9.27z" stroke="#5e5e5e" stroke-width="2" fill="#5e5e5e"/><path d="M573.17 285.75c0-3.3 2.68-6 6-6h28c3.3 0 6 2.7 6 6v48c0 3.3-2.7 6-6 6h-28c-3.32 0-6-2.7-6-6z" stroke="#99d2f2" stroke-width="3" fill="#fff"/><path d="M21 205.77h152.16M21.03 205.77H20" stroke="#5e5e5e" stroke-width="2" fill="none"/><path d="M188.43 205.77l-14.27 4.64v-9.26z" stroke="#5e5e5e" stroke-width="2" fill="#5e5e5e"/><path d="M235.67 216.06h33c3.3 0 6 2.7 6 6v21.76c0 3.32-2.7 6-6 6h-15.5" stroke="#5e5e5e" stroke-width="2" fill="none"/><path d="M235.7 217.06h-1.03v-2h1.02z" fill="#5e5e5e"/><path d="M237.9 249.82l14.27-4.63v9.26z" stroke="#5e5e5e" stroke-width="2" fill="#5e5e5e"/><path d="M241 304.5h9.56m9.57 0h19.13m9.56 0h19.13m9.57 0h19.13m9.56 0h19.14m9.57 0h19.14m9.56 0h9.56M241.03 304.5H240" stroke="#5e5e5e" stroke-width="2" fill="none"/><path d="M428.43 304.5l-14.27 4.64v-9.27z" stroke="#5e5e5e" stroke-width="2" fill="#5e5e5e"/><path d="M273.17 269.75h120v40h-120z" fill="none"/><use xlink:href="#i" transform="matrix(1,0,0,1,273.16666666666663,269.75) translate(-0.38580246913577554 22.22222222222222)"/><path d="M475.67 332.86h77.5" stroke="#5e5e5e" stroke-width="2" fill="none"/><path d="M475.7 333.86h-1.03v-2h1.02z" fill="#5e5e5e"/><path d="M568.43 332.86l-14.27 4.64v-9.28z" stroke="#5e5e5e" stroke-width="2" fill="#5e5e5e"/><path d="M473.17 240.25h120v40h-120z" fill="none"/><use xlink:href="#j" transform="matrix(1,0,0,1,473.16666666666663,240.25) translate(19.92283950617285 15.555555555555555)"/><use xlink:href="#k" transform="matrix(1,0,0,1,473.16666666666663,240.25) translate(6.404320987654344 28.888888888888886)"/><path d="M667.5 66.5c0-3.3 2.7-6 6-6h196.33c3.32 0 6 2.7 6 6v28c0 3.3-2.68 6-6 6H673.5c-3.3 0-6-2.7-6-6z" stroke="#99d2f2" stroke-width="3" fill="#fff"/><use xlink:href="#l" transform="matrix(1,0,0,1,679.5,72.5) translate(-1.820987654320973 17.77777777777778)"/><path d="M771.67 103v11.18m0 11.17v22.36m0 11.2v22.34m0 11.18v22.35m0 11.18v20.88m0 9.73V276m0 9.72v19.44m0 9.7v19.45m0 9.73v9.72" stroke="#5e5e5e" stroke-width="2" fill="none"/><path d="M772.67 103.03h-2V102h2z" fill="#5e5e5e"/><path d="M771.67 369l-4.64-14.25h9.27z" stroke="#5e5e5e" stroke-width="2" fill="#5e5e5e"/><path d="M771.67 436.25v10.88m0 10.87v21.75m0 10.87v10.88" stroke="#5e5e5e" stroke-width="2" fill="none"/><path d="M772.67 436.28h-2v-1.03h2z" fill="#5e5e5e"/><path d="M771.67 516.76l-4.64-14.26h9.27z" stroke="#5e5e5e" stroke-width="2" fill="#5e5e5e"/><path d="M751.67 379.75c0-3.3 2.68-6 6-6h28c3.3 0 6 2.7 6 6v48c0 3.3-2.7 6-6 6h-28c-3.32 0-6-2.7-6-6z" stroke="#99d2f2" stroke-width="3" fill="#fff"/><path d="M213.17 436.25V450m0 13.75v21.67m0 7.9v7.93" stroke="#5e5e5e" stroke-width="2" fill="none"/><path d="M214.17 436.28h-2v-1.03h2z" fill="#5e5e5e"/><path d="M213.17 516.5l-4.64-14.25h9.27z" stroke="#5e5e5e" stroke-width="2" fill="#5e5e5e"/><path d="M273.17 250.08h120v40h-120z" fill="none"/><use xlink:href="#m" transform="matrix(1,0,0,1,273.16666666666663,250.07629244515175) translate(52.839506172839506 21.77777777777778)"/><path d="M235.67 350.8h11m11 0h11l3.02.82 2.15 2.16.82 3.02v7.2m0 7.2v7.2l-.82 3.03-2.16 2.15-3.03.82h-15.5" stroke="#5e5e5e" stroke-width="2" fill="none"/><path d="M235.7 351.8h-1.03v-2h1.02z" fill="#5e5e5e"/><path d="M237.9 384.4l14.27-4.63v9.27z" stroke="#5e5e5e" stroke-width="2" fill="#5e5e5e"/><path d="M260 320h140v40H260z" fill="none"/><use xlink:href="#n" transform="matrix(1,0,0,1,260,320) translate(2.7777777777778283 21.77777777777778)"/><path d="M235.67 410.13h496" stroke="#5e5e5e" stroke-width="2" fill="none"/><path d="M235.7 411.13h-1.03v-2h1.02z" fill="#5e5e5e"/><path d="M746.93 410.13l-14.27 4.63v-9.27z" stroke="#5e5e5e" stroke-width="2" fill="#5e5e5e"/><defs><path fill="#333" d="M85-194c31 0 48 13 60 33l-1-100h32l1 261h-30c-2-10 0-23-3-31C134-8 116 4 85 4 32 4 16-35 15-94c0-66 23-100 70-100zm9 24c-40 0-46 34-46 75 0 40 6 74 45 74 42 0 51-32 51-76 0-42-9-74-50-73" id="o"/><path fill="#333" d="M100-194c62-1 85 37 85 99 1 63-27 99-86 99S16-35 15-95c0-66 28-99 85-99zM99-20c44 1 53-31 53-75 0-43-8-75-51-75s-53 32-53 75 10 74 51 75" id="p"/><path fill="#333" d="M30-248c87 1 191-15 191 75 0 78-77 80-158 76V0H30v-248zm33 125c57 0 124 11 124-50 0-59-68-47-124-48v98" id="q"/><path fill="#333" d="M135-143c-3-34-86-38-87 0 15 53 115 12 119 90S17 21 10-45l28-5c4 36 97 45 98 0-10-56-113-15-118-90-4-57 82-63 122-42 12 7 21 19 24 35" id="r"/><path fill="#333" d="M59-47c-2 24 18 29 38 22v24C64 9 27 4 27-40v-127H5v-23h24l9-43h21v43h35v23H59v120" id="s"/><g id="a"><use transform="matrix(0.03703703703703702,0,0,0.03703703703703702,0,0)" xlink:href="#o"/><use transform="matrix(0.03703703703703702,0,0,0.03703703703703702,7.407407407407404,0)" xlink:href="#p"/><use transform="matrix(0.03703703703703702,0,0,0.03703703703703702,14.814814814814808,0)" xlink:href="#q"/><use transform="matrix(0.03703703703703702,0,0,0.03703703703703702,23.703703703703695,0)" xlink:href="#p"/><use transform="matrix(0.03703703703703702,0,0,0.03703703703703702,31.111111111111104,0)" xlink:href="#r"/><use transform="matrix(0.03703703703703702,0,0,0.03703703703703702,37.777777777777764,0)" xlink:href="#s"/></g><path fill="#333" d="M0 4l72-265h28L28 4H0" id="t"/><path fill="#333" d="M212-179c-10-28-35-45-73-45-59 0-87 40-87 99 0 60 29 101 89 101 43 0 62-24 78-52l27 14C228-24 195 4 139 4 59 4 22-46 18-125c-6-104 99-153 187-111 19 9 31 26 39 46" id="u"/><path fill="#333" d="M114-163C36-179 61-72 57 0H25l-1-190h30c1 12-1 29 2 39 6-27 23-49 58-41v29" id="v"/><path fill="#333" d="M100-194c63 0 86 42 84 106H49c0 40 14 67 53 68 26 1 43-12 49-29l28 8c-11 28-37 45-77 45C44 4 14-33 15-96c1-61 26-98 85-98zm52 81c6-60-76-77-97-28-3 7-6 17-6 28h103" id="w"/><path fill="#333" d="M141-36C126-15 110 5 73 4 37 3 15-17 15-53c-1-64 63-63 125-63 3-35-9-54-41-54-24 1-41 7-42 31l-33-3c5-37 33-52 76-52 45 0 72 20 72 64v82c-1 20 7 32 28 27v20c-31 9-61-2-59-35zM48-53c0 20 12 33 32 33 41-3 63-29 60-74-43 2-92-5-92 41" id="x"/><path fill="#333" d="M205 0l-28-72H64L36 0H1l101-248h38L239 0h-34zm-38-99l-47-123c-12 45-31 82-46 123h93" id="y"/><path fill="#333" d="M84 4C-5 8 30-112 23-190h32v120c0 31 7 50 39 49 72-2 45-101 50-169h31l1 190h-30c-1-10 1-25-2-33-11 22-28 36-60 37" id="z"/><path fill="#333" d="M96-169c-40 0-48 33-48 73s9 75 48 75c24 0 41-14 43-38l32 2c-6 37-31 61-74 61-59 0-76-41-82-99-10-93 101-131 147-64 4 7 5 14 7 22l-32 3c-4-21-16-35-41-35" id="A"/><path fill="#333" d="M24-231v-30h32v30H24zM24 0v-190h32V0H24" id="B"/><path fill="#333" d="M117-194c89-4 53 116 60 194h-32v-121c0-31-8-49-39-48C34-167 62-67 57 0H25l-1-190h30c1 10-1 24 2 32 11-22 29-35 61-36" id="C"/><g id="b"><use transform="matrix(0.03703703703703702,0,0,0.03703703703703702,0,0)" xlink:href="#t"/><use transform="matrix(0.03703703703703702,0,0,0.03703703703703702,3.703703703703702,0)" xlink:href="#u"/><use transform="matrix(0.03703703703703702,0,0,0.03703703703703702,13.29629629629629,0)" xlink:href="#v"/><use transform="matrix(0.03703703703703702,0,0,0.03703703703703702,17.703703703703695,0)" xlink:href="#w"/><use transform="matrix(0.03703703703703702,0,0,0.03703703703703702,25.1111111111111,0)" xlink:href="#x"/><use transform="matrix(0.03703703703703702,0,0,0.03703703703703702,32.518518518518505,0)" xlink:href="#s"/><use transform="matrix(0.03703703703703702,0,0,0.03703703703703702,36.22222222222221,0)" xlink:href="#w"/><use transform="matrix(0.03703703703703702,0,0,0.03703703703703702,43.62962962962961,0)" xlink:href="#y"/><use transform="matrix(0.03703703703703702,0,0,0.03703703703703702,52.5185185185185,0)" xlink:href="#z"/><use transform="matrix(0.03703703703703702,0,0,0.03703703703703702,59.9259259259259,0)" xlink:href="#A"/><use transform="matrix(0.03703703703703702,0,0,0.03703703703703702,66.59259259259257,0)" xlink:href="#s"/><use transform="matrix(0.03703703703703702,0,0,0.03703703703703702,70.29629629629626,0)" xlink:href="#B"/><use transform="matrix(0.03703703703703702,0,0,0.03703703703703702,73.22222222222219,0)" xlink:href="#p"/><use transform="matrix(0.03703703703703702,0,0,0.03703703703703702,80.62962962962959,0)" xlink:href="#C"/></g><path fill="#333" d="M140-251c81 0 123 46 123 126C263-46 219 4 140 4 59 4 17-45 17-125s42-126 123-126zm0 227c63 0 89-41 89-101s-29-99-89-99c-61 0-89 39-89 99S79-25 140-24" id="D"/><path fill="#333" d="M185-189c-5-48-123-54-124 2 14 75 158 14 163 119 3 78-121 87-175 55-17-10-28-26-33-46l33-7c5 56 141 63 141-1 0-78-155-14-162-118-5-82 145-84 179-34 5 7 8 16 11 25" id="E"/><path fill="#333" d="M127-220V0H93v-220H8v-28h204v28h-85" id="F"/><g id="c"><use transform="matrix(0.03703703703703702,0,0,0.03703703703703702,0,0)" xlink:href="#q"/><use transform="matrix(0.03703703703703702,0,0,0.03703703703703702,8.888888888888886,0)" xlink:href="#D"/><use transform="matrix(0.03703703703703702,0,0,0.03703703703703702,19.259259259259252,0)" xlink:href="#E"/><use transform="matrix(0.03703703703703702,0,0,0.03703703703703702,28.14814814814814,0)" xlink:href="#F"/></g><path fill="#333" d="M87 75C49 33 22-17 22-94c0-76 28-126 65-167h31c-38 41-64 92-64 168S80 34 118 75H87" id="G"/><path fill="#333" d="M101-234c-31-9-42 10-38 44h38v23H63V0H32v-167H5v-23h27c-7-52 17-82 69-68v24" id="H"/><path fill="#333" d="M210-169c-67 3-38 105-44 169h-31v-121c0-29-5-50-35-48C34-165 62-65 56 0H25l-1-190h30c1 10-1 24 2 32 10-44 99-50 107 0 11-21 27-35 58-36 85-2 47 119 55 194h-31v-121c0-29-5-49-35-48" id="I"/><path fill="#333" d="M30-248c118-7 216 8 213 122C240-48 200 0 122 0H30v-248zM63-27c89 8 146-16 146-99s-60-101-146-95v194" id="J"/><path fill="#333" d="M33-261c38 41 65 92 65 168S71 34 33 75H2C39 34 66-17 66-93S39-220 2-261h31" id="K"/><g id="d"><use transform="matrix(0.03703703703703702,0,0,0.03703703703703702,0,0)" xlink:href="#G"/><use transform="matrix(0.03703703703703702,0,0,0.03703703703703702,4.407407407407406,0)" xlink:href="#H"/><use transform="matrix(0.03703703703703702,0,0,0.03703703703703702,8.111111111111107,0)" xlink:href="#p"/><use transform="matrix(0.03703703703703702,0,0,0.03703703703703702,15.518518518518512,0)" xlink:href="#v"/><use transform="matrix(0.03703703703703702,0,0,0.03703703703703702,19.925925925925917,0)" xlink:href="#I"/><use transform="matrix(0.03703703703703702,0,0,0.03703703703703702,30.999999999999986,0)" xlink:href="#J"/><use transform="matrix(0.03703703703703702,0,0,0.03703703703703702,40.592592592592574,0)" xlink:href="#x"/><use transform="matrix(0.03703703703703702,0,0,0.03703703703703702,47.99999999999998,0)" xlink:href="#s"/><use transform="matrix(0.03703703703703702,0,0,0.03703703703703702,51.70370370370368,0)" xlink:href="#x"/><use transform="matrix(0.03703703703703702,0,0,0.03703703703703702,59.111111111111086,0)" xlink:href="#K"/></g><path fill="#333" d="M26 75v-336h71v23H56V52h41v23H26" id="L"/><path fill="#333" d="M106-169C34-169 62-67 57 0H25v-261h32l-1 103c12-21 28-36 61-36 89 0 53 116 60 194h-32v-121c2-32-8-49-39-48" id="M"/><path fill="#333" d="M143 0L79-87 56-68V0H24v-261h32v163l83-92h37l-77 82L181 0h-38" id="N"/><path fill="#333" d="M137 0h-34L2-248h35l83 218 83-218h36" id="O"/><path fill="#333" d="M24 0v-261h32V0H24" id="P"/><path fill="#333" d="M179-190L93 31C79 59 56 82 12 73V49c39 6 53-20 64-50L1-190h34L92-34l54-156h33" id="Q"/><path fill="#333" d="M3 75V52h41v-290H3v-23h71V75H3" id="R"/><g id="e"><use transform="matrix(0.024691358024691353,0,0,0.024691358024691353,0,0)" xlink:href="#L"/><use transform="matrix(0.024691358024691353,0,0,0.024691358024691353,2.469135802469135,0)" xlink:href="#A"/><use transform="matrix(0.024691358024691353,0,0,0.024691358024691353,6.913580246913579,0)" xlink:href="#M"/><use transform="matrix(0.024691358024691353,0,0,0.024691358024691353,11.85185185185185,0)" xlink:href="#w"/><use transform="matrix(0.024691358024691353,0,0,0.024691358024691353,16.79012345679012,0)" xlink:href="#A"/><use transform="matrix(0.024691358024691353,0,0,0.024691358024691353,21.234567901234563,0)" xlink:href="#N"/><use transform="matrix(0.024691358024691353,0,0,0.024691358024691353,25.679012345679006,0)" xlink:href="#O"/><use transform="matrix(0.024691358024691353,0,0,0.024691358024691353,30.93827160493826,0)" xlink:href="#x"/><use transform="matrix(0.024691358024691353,0,0,0.024691358024691353,35.87654320987653,0)" xlink:href="#P"/><use transform="matrix(0.024691358024691353,0,0,0.024691358024691353,37.827160493827144,0)" xlink:href="#B"/><use transform="matrix(0.024691358024691353,0,0,0.024691358024691353,39.77777777777776,0)" xlink:href="#o"/><use transform="matrix(0.024691358024691353,0,0,0.024691358024691353,44.71604938271603,0)" xlink:href="#B"/><use transform="matrix(0.024691358024691353,0,0,0.024691358024691353,46.66666666666664,0)" xlink:href="#s"/><use transform="matrix(0.024691358024691353,0,0,0.024691358024691353,49.135802469135776,0)" xlink:href="#Q"/><use transform="matrix(0.024691358024691353,0,0,0.024691358024691353,53.58024691358021,0)" xlink:href="#R"/></g><g id="f"><use transform="matrix(0.06172839506172839,0,0,0.06172839506172839,0,0)" xlink:href="#u"/><use transform="matrix(0.06172839506172839,0,0,0.06172839506172839,15.987654320987653,0)" xlink:href="#v"/><use transform="matrix(0.06172839506172839,0,0,0.06172839506172839,23.333333333333332,0)" xlink:href="#w"/><use transform="matrix(0.06172839506172839,0,0,0.06172839506172839,35.67901234567901,0)" xlink:href="#x"/><use transform="matrix(0.06172839506172839,0,0,0.06172839506172839,48.02469135802469,0)" xlink:href="#s"/><use transform="matrix(0.06172839506172839,0,0,0.06172839506172839,54.19753086419753,0)" xlink:href="#w"/><use transform="matrix(0.06172839506172839,0,0,0.06172839506172839,66.54320987654322,0)" xlink:href="#y"/><use transform="matrix(0.06172839506172839,0,0,0.06172839506172839,81.35802469135803,0)" xlink:href="#z"/><use transform="matrix(0.06172839506172839,0,0,0.06172839506172839,93.70370370370371,0)" xlink:href="#A"/><use transform="matrix(0.06172839506172839,0,0,0.06172839506172839,104.81481481481482,0)" xlink:href="#s"/><use transform="matrix(0.06172839506172839,0,0,0.06172839506172839,110.98765432098766,0)" xlink:href="#B"/><use transform="matrix(0.06172839506172839,0,0,0.06172839506172839,115.8641975308642,0)" xlink:href="#p"/><use transform="matrix(0.06172839506172839,0,0,0.06172839506172839,128.20987654320987,0)" xlink:href="#C"/></g><g id="g"><use transform="matrix(0.06172839506172839,0,0,0.06172839506172839,0,0)" xlink:href="#y"/><use transform="matrix(0.06172839506172839,0,0,0.06172839506172839,14.814814814814813,0)" xlink:href="#z"/><use transform="matrix(0.06172839506172839,0,0,0.06172839506172839,27.160493827160494,0)" xlink:href="#A"/><use transform="matrix(0.06172839506172839,0,0,0.06172839506172839,38.27160493827161,0)" xlink:href="#s"/><use transform="matrix(0.06172839506172839,0,0,0.06172839506172839,44.44444444444445,0)" xlink:href="#B"/><use transform="matrix(0.06172839506172839,0,0,0.06172839506172839,49.320987654320994,0)" xlink:href="#p"/><use transform="matrix(0.06172839506172839,0,0,0.06172839506172839,61.66666666666667,0)" xlink:href="#C"/><use transform="matrix(0.06172839506172839,0,0,0.06172839506172839,74.01234567901236,0)" xlink:href="#J"/><use transform="matrix(0.06172839506172839,0,0,0.06172839506172839,90.00000000000001,0)" xlink:href="#x"/><use transform="matrix(0.06172839506172839,0,0,0.06172839506172839,102.3456790123457,0)" xlink:href="#p"/></g><path fill="#333" d="M33 0v-248h34V0H33" id="S"/><g id="h"><use transform="matrix(0.06172839506172839,0,0,0.06172839506172839,0,0)" xlink:href="#E"/><use transform="matrix(0.06172839506172839,0,0,0.06172839506172839,14.814814814814813,0)" xlink:href="#x"/><use transform="matrix(0.06172839506172839,0,0,0.06172839506172839,27.160493827160494,0)" xlink:href="#P"/><use transform="matrix(0.06172839506172839,0,0,0.06172839506172839,32.03703703703704,0)" xlink:href="#w"/><use transform="matrix(0.06172839506172839,0,0,0.06172839506172839,44.382716049382715,0)" xlink:href="#r"/><use transform="matrix(0.06172839506172839,0,0,0.06172839506172839,55.49382716049382,0)" xlink:href="#S"/><use transform="matrix(0.06172839506172839,0,0,0.06172839506172839,61.666666666666664,0)" xlink:href="#s"/><use transform="matrix(0.06172839506172839,0,0,0.06172839506172839,67.8395061728395,0)" xlink:href="#w"/><use transform="matrix(0.06172839506172839,0,0,0.06172839506172839,80.18518518518519,0)" xlink:href="#I"/><use transform="matrix(0.06172839506172839,0,0,0.06172839506172839,98.64197530864197,0)" xlink:href="#J"/><use transform="matrix(0.06172839506172839,0,0,0.06172839506172839,114.62962962962963,0)" xlink:href="#x"/><use transform="matrix(0.06172839506172839,0,0,0.06172839506172839,126.97530864197533,0)" xlink:href="#p"/></g><g id="i"><use transform="matrix(0.030864197530864192,0,0,0.030864197530864192,0,0)" xlink:href="#A"/><use transform="matrix(0.030864197530864192,0,0,0.030864197530864192,5.5555555555555545,0)" xlink:href="#v"/><use transform="matrix(0.030864197530864192,0,0,0.030864197530864192,9.228395061728394,0)" xlink:href="#w"/><use transform="matrix(0.030864197530864192,0,0,0.030864197530864192,15.401234567901232,0)" xlink:href="#x"/><use transform="matrix(0.030864197530864192,0,0,0.030864197530864192,21.57407407407407,0)" xlink:href="#s"/><use transform="matrix(0.030864197530864192,0,0,0.030864197530864192,24.660493827160487,0)" xlink:href="#w"/><use transform="matrix(0.030864197530864192,0,0,0.030864197530864192,30.833333333333325,0)" xlink:href="#y"/><use transform="matrix(0.030864197530864192,0,0,0.030864197530864192,38.24074074074073,0)" xlink:href="#z"/><use transform="matrix(0.030864197530864192,0,0,0.030864197530864192,44.41358024691357,0)" xlink:href="#A"/><use transform="matrix(0.030864197530864192,0,0,0.030864197530864192,49.969135802469125,0)" xlink:href="#s"/><use transform="matrix(0.030864197530864192,0,0,0.030864197530864192,53.05555555555554,0)" xlink:href="#B"/><use transform="matrix(0.030864197530864192,0,0,0.030864197530864192,55.493827160493815,0)" xlink:href="#p"/><use transform="matrix(0.030864197530864192,0,0,0.030864197530864192,61.66666666666666,0)" xlink:href="#C"/><use transform="matrix(0.030864197530864192,0,0,0.030864197530864192,67.83950617283949,0)" xlink:href="#G"/><use transform="matrix(0.030864197530864192,0,0,0.030864197530864192,71.51234567901233,0)" xlink:href="#H"/><use transform="matrix(0.030864197530864192,0,0,0.030864197530864192,74.59876543209874,0)" xlink:href="#p"/><use transform="matrix(0.030864197530864192,0,0,0.030864197530864192,80.77160493827158,0)" xlink:href="#v"/><use transform="matrix(0.030864197530864192,0,0,0.030864197530864192,84.44444444444441,0)" xlink:href="#I"/><use transform="matrix(0.030864197530864192,0,0,0.030864197530864192,93.6728395061728,0)" xlink:href="#J"/><use transform="matrix(0.030864197530864192,0,0,0.030864197530864192,101.66666666666663,0)" xlink:href="#x"/><use transform="matrix(0.030864197530864192,0,0,0.030864197530864192,107.83950617283946,0)" xlink:href="#s"/><use transform="matrix(0.030864197530864192,0,0,0.030864197530864192,110.92592592592588,0)" xlink:href="#x"/><use transform="matrix(0.030864197530864192,0,0,0.030864197530864192,117.09876543209872,0)" xlink:href="#K"/></g><g id="j"><use transform="matrix(0.030864197530864192,0,0,0.030864197530864192,0,0)" xlink:href="#A"/><use transform="matrix(0.030864197530864192,0,0,0.030864197530864192,5.5555555555555545,0)" xlink:href="#v"/><use transform="matrix(0.030864197530864192,0,0,0.030864197530864192,9.228395061728394,0)" xlink:href="#w"/><use transform="matrix(0.030864197530864192,0,0,0.030864197530864192,15.401234567901232,0)" xlink:href="#x"/><use transform="matrix(0.030864197530864192,0,0,0.030864197530864192,21.57407407407407,0)" xlink:href="#s"/><use transform="matrix(0.030864197530864192,0,0,0.030864197530864192,24.660493827160487,0)" xlink:href="#w"/><use transform="matrix(0.030864197530864192,0,0,0.030864197530864192,30.833333333333325,0)" xlink:href="#E"/><use transform="matrix(0.030864197530864192,0,0,0.030864197530864192,38.24074074074073,0)" xlink:href="#x"/><use transform="matrix(0.030864197530864192,0,0,0.030864197530864192,44.41358024691357,0)" xlink:href="#P"/><use transform="matrix(0.030864197530864192,0,0,0.030864197530864192,46.85185185185184,0)" xlink:href="#w"/><use transform="matrix(0.030864197530864192,0,0,0.030864197530864192,53.02469135802468,0)" xlink:href="#r"/><use transform="matrix(0.030864197530864192,0,0,0.030864197530864192,58.58024691358024,0)" xlink:href="#S"/><use transform="matrix(0.030864197530864192,0,0,0.030864197530864192,61.66666666666666,0)" xlink:href="#s"/><use transform="matrix(0.030864197530864192,0,0,0.030864197530864192,64.75308641975307,0)" xlink:href="#w"/><use transform="matrix(0.030864197530864192,0,0,0.030864197530864192,70.92592592592591,0)" xlink:href="#I"/></g><path fill="#333" d="M68-38c1 34 0 65-14 84H32c9-13 17-26 17-46H33v-38h35" id="T"/><path fill="#333" d="M33 0v-38h34V0H33" id="U"/><path fill="#333" d="M63-220v92h138v28H63V0H30v-248h175v28H63" id="V"/><g id="k"><use transform="matrix(0.030864197530864192,0,0,0.030864197530864192,0,0)" xlink:href="#G"/><use transform="matrix(0.030864197530864192,0,0,0.030864197530864192,3.672839506172839,0)" xlink:href="#C"/><use transform="matrix(0.030864197530864192,0,0,0.030864197530864192,9.845679012345677,0)" xlink:href="#x"/><use transform="matrix(0.030864197530864192,0,0,0.030864197530864192,16.018518518518515,0)" xlink:href="#I"/><use transform="matrix(0.030864197530864192,0,0,0.030864197530864192,25.24691358024691,0)" xlink:href="#w"/><use transform="matrix(0.030864197530864192,0,0,0.030864197530864192,31.41975308641975,0)" xlink:href="#T"/><use transform="matrix(0.030864197530864192,0,0,0.030864197530864192,34.50617283950617,0)" xlink:href="#o"/><use transform="matrix(0.030864197530864192,0,0,0.030864197530864192,40.67901234567901,0)" xlink:href="#w"/><use transform="matrix(0.030864197530864192,0,0,0.030864197530864192,46.85185185185185,0)" xlink:href="#r"/><use transform="matrix(0.030864197530864192,0,0,0.030864197530864192,52.407407407407405,0)" xlink:href="#A"/><use transform="matrix(0.030864197530864192,0,0,0.030864197530864192,57.96296296296296,0)" xlink:href="#U"/><use transform="matrix(0.030864197530864192,0,0,0.030864197530864192,61.04938271604938,0)" xlink:href="#U"/><use transform="matrix(0.030864197530864192,0,0,0.030864197530864192,64.1358024691358,0)" xlink:href="#T"/><use transform="matrix(0.030864197530864192,0,0,0.030864197530864192,67.22222222222221,0)" xlink:href="#H"/><use transform="matrix(0.030864197530864192,0,0,0.030864197530864192,70.30864197530863,0)" xlink:href="#B"/><use transform="matrix(0.030864197530864192,0,0,0.030864197530864192,72.7469135802469,0)" xlink:href="#P"/><use transform="matrix(0.030864197530864192,0,0,0.030864197530864192,75.18518518518516,0)" xlink:href="#w"/><use transform="matrix(0.030864197530864192,0,0,0.030864197530864192,81.358024691358,0)" xlink:href="#V"/><use transform="matrix(0.030864197530864192,0,0,0.030864197530864192,88.11728395061725,0)" xlink:href="#p"/><use transform="matrix(0.030864197530864192,0,0,0.030864197530864192,94.29012345679008,0)" xlink:href="#v"/><use transform="matrix(0.030864197530864192,0,0,0.030864197530864192,97.34567901234564,0)" xlink:href="#U"/><use transform="matrix(0.030864197530864192,0,0,0.030864197530864192,100.43209876543206,0)" xlink:href="#U"/><use transform="matrix(0.030864197530864192,0,0,0.030864197530864192,103.51851851851848,0)" xlink:href="#K"/></g><path fill="#333" d="M143 4C61 4 22-44 18-125c-5-107 100-154 193-111 17 8 29 25 37 43l-32 9c-13-25-37-40-76-40-61 0-88 39-88 99 0 61 29 100 91 101 35 0 62-11 79-27v-45h-74v-28h105v86C228-13 192 4 143 4" id="W"/><path fill="#333" d="M177-190C167-65 218 103 67 71c-23-6-38-20-44-43l32-5c15 47 100 32 89-28v-30C133-14 115 1 83 1 29 1 15-40 15-95c0-56 16-97 71-98 29-1 48 16 59 35 1-10 0-23 2-32h30zM94-22c36 0 50-32 50-73 0-42-14-75-50-75-39 0-46 34-46 75s6 73 46 73" id="X"/><g id="l"><use transform="matrix(0.06172839506172839,0,0,0.06172839506172839,0,0)" xlink:href="#W"/><use transform="matrix(0.06172839506172839,0,0,0.06172839506172839,17.28395061728395,0)" xlink:href="#p"/><use transform="matrix(0.06172839506172839,0,0,0.06172839506172839,29.629629629629626,0)" xlink:href="#F"/><use transform="matrix(0.06172839506172839,0,0,0.06172839506172839,40.679012345679006,0)" xlink:href="#p"/><use transform="matrix(0.06172839506172839,0,0,0.06172839506172839,53.02469135802468,0)" xlink:href="#u"/><use transform="matrix(0.06172839506172839,0,0,0.06172839506172839,69.01234567901234,0)" xlink:href="#v"/><use transform="matrix(0.06172839506172839,0,0,0.06172839506172839,76.35802469135803,0)" xlink:href="#w"/><use transform="matrix(0.06172839506172839,0,0,0.06172839506172839,88.70370370370371,0)" xlink:href="#x"/><use transform="matrix(0.06172839506172839,0,0,0.06172839506172839,101.0493827160494,0)" xlink:href="#s"/><use transform="matrix(0.06172839506172839,0,0,0.06172839506172839,107.22222222222223,0)" xlink:href="#B"/><use transform="matrix(0.06172839506172839,0,0,0.06172839506172839,112.09876543209877,0)" xlink:href="#p"/><use transform="matrix(0.06172839506172839,0,0,0.06172839506172839,124.44444444444446,0)" xlink:href="#C"/><use transform="matrix(0.06172839506172839,0,0,0.06172839506172839,136.79012345679013,0)" xlink:href="#q"/><use transform="matrix(0.06172839506172839,0,0,0.06172839506172839,151.60493827160494,0)" xlink:href="#x"/><use transform="matrix(0.06172839506172839,0,0,0.06172839506172839,163.9506172839506,0)" xlink:href="#X"/><use transform="matrix(0.06172839506172839,0,0,0.06172839506172839,176.29629629629628,0)" xlink:href="#w"/></g><path fill="#19967d" d="M26 75v-336h71v23H56V52h41v23H26" id="Y"/><path fill="#19967d" d="M100-194c62-1 85 37 85 99 1 63-27 99-86 99S16-35 15-95c0-66 28-99 85-99zM99-20c44 1 53-31 53-75 0-43-8-75-51-75s-53 32-53 75 10 74 51 75" id="Z"/><path fill="#19967d" d="M143 0L79-87 56-68V0H24v-261h32v163l83-92h37l-77 82L181 0h-38" id="aa"/><path fill="#19967d" d="M3 75V52h41v-290H3v-23h71V75H3" id="ab"/><g id="m"><use transform="matrix(0.024691358024691353,0,0,0.024691358024691353,0,0)" xlink:href="#Y"/><use transform="matrix(0.024691358024691353,0,0,0.024691358024691353,2.469135802469135,0)" xlink:href="#Z"/><use transform="matrix(0.024691358024691353,0,0,0.024691358024691353,7.407407407407406,0)" xlink:href="#aa"/><use transform="matrix(0.024691358024691353,0,0,0.024691358024691353,11.85185185185185,0)" xlink:href="#ab"/></g><path fill="#c92d39" d="M26 75v-336h71v23H56V52h41v23H26" id="ac"/><path fill="#c92d39" d="M114-163C36-179 61-72 57 0H25l-1-190h30c1 12-1 29 2 39 6-27 23-49 58-41v29" id="ad"/><path fill="#c92d39" d="M100-194c63 0 86 42 84 106H49c0 40 14 67 53 68 26 1 43-12 49-29l28 8c-11 28-37 45-77 45C44 4 14-33 15-96c1-61 26-98 85-98zm52 81c6-60-76-77-97-28-3 7-6 17-6 28h103" id="ae"/><path fill="#c92d39" d="M145-31C134-9 116 4 85 4 32 4 16-35 15-94c0-59 17-99 70-100 32-1 48 14 60 33 0-11-1-24 2-32h30l-1 268h-32zM93-21c41 0 51-33 51-76s-8-73-50-73c-40 0-46 35-46 75s5 74 45 74" id="af"/><path fill="#c92d39" d="M84 4C-5 8 30-112 23-190h32v120c0 31 7 50 39 49 72-2 45-101 50-169h31l1 190h-30c-1-10 1-25-2-33-11 22-28 36-60 37" id="ag"/><path fill="#c92d39" d="M135-143c-3-34-86-38-87 0 15 53 115 12 119 90S17 21 10-45l28-5c4 36 97 45 98 0-10-56-113-15-118-90-4-57 82-63 122-42 12 7 21 19 24 35" id="ah"/><path fill="#c92d39" d="M59-47c-2 24 18 29 38 22v24C64 9 27 4 27-40v-127H5v-23h24l9-43h21v43h35v23H59v120" id="ai"/><path fill="#c92d39" d="M33 0v-38h34V0H33" id="aj"/><path fill="#c92d39" d="M205 0l-28-72H64L36 0H1l101-248h38L239 0h-34zm-38-99l-47-123c-12 45-31 82-46 123h93" id="ak"/><path fill="#c92d39" d="M24-231v-30h32v30H24zM24 0v-190h32V0H24" id="al"/><path fill="#c92d39" d="M115-194c53 0 69 39 70 98 0 66-23 100-70 100C84 3 66-7 56-30L54 0H23l1-261h32v101c10-23 28-34 59-34zm-8 174c40 0 45-34 45-75 0-40-5-75-45-74-42 0-51 32-51 76 0 43 10 73 51 73" id="am"/><path fill="#c92d39" d="M87 75C49 33 22-17 22-94c0-76 28-126 65-167h31c-38 41-64 92-64 168S80 34 118 75H87" id="an"/><path fill="#c92d39" d="M109-170H84l-4-78h32zm-65 0H19l-4-78h33" id="ao"/><path fill="#c92d39" d="M100-194c62-1 85 37 85 99 1 63-27 99-86 99S16-35 15-95c0-66 28-99 85-99zM99-20c44 1 53-31 53-75 0-43-8-75-51-75s-53 32-53 75 10 74 51 75" id="ap"/><path fill="#c92d39" d="M240 0l2-218c-23 76-54 145-80 218h-23L58-218 59 0H30v-248h44l77 211c21-75 51-140 76-211h43V0h-30" id="aq"/><path fill="#c92d39" d="M177-190C167-65 218 103 67 71c-23-6-38-20-44-43l32-5c15 47 100 32 89-28v-30C133-14 115 1 83 1 29 1 15-40 15-95c0-56 16-97 71-98 29-1 48 16 59 35 1-10 0-23 2-32h30zM94-22c36 0 50-32 50-73 0-42-14-75-50-75-39 0-46 34-46 75s6 73 46 73" id="ar"/><path fill="#c92d39" d="M33-261c38 41 65 92 65 168S71 34 33 75H2C39 34 66-17 66-93S39-220 2-261h31" id="as"/><g id="n"><use transform="matrix(0.024691358024691353,0,0,0.024691358024691353,0,0)" xlink:href="#ac"/><use transform="matrix(0.024691358024691353,0,0,0.024691358024691353,2.469135802469135,0)" xlink:href="#ad"/><use transform="matrix(0.024691358024691353,0,0,0.024691358024691353,5.4074074074074066,0)" xlink:href="#ae"/><use transform="matrix(0.024691358024691353,0,0,0.024691358024691353,10.345679012345677,0)" xlink:href="#af"/><use transform="matrix(0.024691358024691353,0,0,0.024691358024691353,15.283950617283947,0)" xlink:href="#ag"/><use transform="matrix(0.024691358024691353,0,0,0.024691358024691353,20.222222222222218,0)" xlink:href="#ae"/><use transform="matrix(0.024691358024691353,0,0,0.024691358024691353,25.160493827160487,0)" xlink:href="#ah"/><use transform="matrix(0.024691358024691353,0,0,0.024691358024691353,29.604938271604926,0)" xlink:href="#ai"/><use transform="matrix(0.024691358024691353,0,0,0.024691358024691353,32.07407407407406,0)" xlink:href="#aj"/><use transform="matrix(0.024691358024691353,0,0,0.024691358024691353,34.543209876543195,0)" xlink:href="#ah"/><use transform="matrix(0.024691358024691353,0,0,0.024691358024691353,38.98765432098764,0)" xlink:href="#ae"/><use transform="matrix(0.024691358024691353,0,0,0.024691358024691353,43.92592592592591,0)" xlink:href="#ai"/><use transform="matrix(0.024691358024691353,0,0,0.024691358024691353,46.39506172839504,0)" xlink:href="#ak"/><use transform="matrix(0.024691358024691353,0,0,0.024691358024691353,52.320987654320966,0)" xlink:href="#ai"/><use transform="matrix(0.024691358024691353,0,0,0.024691358024691353,54.7901234567901,0)" xlink:href="#ai"/><use transform="matrix(0.024691358024691353,0,0,0.024691358024691353,57.259259259259224,0)" xlink:href="#ad"/><use transform="matrix(0.024691358024691353,0,0,0.024691358024691353,60.19753086419751,0)" xlink:href="#al"/><use transform="matrix(0.024691358024691353,0,0,0.024691358024691353,62.14814814814812,0)" xlink:href="#am"/><use transform="matrix(0.024691358024691353,0,0,0.024691358024691353,67.08641975308639,0)" xlink:href="#ag"/><use transform="matrix(0.024691358024691353,0,0,0.024691358024691353,72.02469135802465,0)" xlink:href="#ai"/><use transform="matrix(0.024691358024691353,0,0,0.024691358024691353,74.4938271604938,0)" xlink:href="#ae"/><use transform="matrix(0.024691358024691353,0,0,0.024691358024691353,79.43209876543206,0)" xlink:href="#an"/><use transform="matrix(0.024691358024691353,0,0,0.024691358024691353,82.37037037037032,0)" xlink:href="#ao"/><use transform="matrix(0.024691358024691353,0,0,0.024691358024691353,85.50617283950612,0)" xlink:href="#ae"/><use transform="matrix(0.024691358024691353,0,0,0.024691358024691353,90.44444444444439,0)" xlink:href="#ad"/><use transform="matrix(0.024691358024691353,0,0,0.024691358024691353,93.38271604938265,0)" xlink:href="#ad"/><use transform="matrix(0.024691358024691353,0,0,0.024691358024691353,96.32098765432092,0)" xlink:href="#ap"/><use transform="matrix(0.024691358024691353,0,0,0.024691358024691353,101.25925925925917,0)" xlink:href="#ad"/><use transform="matrix(0.024691358024691353,0,0,0.024691358024691353,104.19753086419745,0)" xlink:href="#aq"/><use transform="matrix(0.024691358024691353,0,0,0.024691358024691353,111.58024691358015,0)" xlink:href="#ah"/><use transform="matrix(0.024691358024691353,0,0,0.024691358024691353,116.0246913580246,0)" xlink:href="#ar"/><use transform="matrix(0.024691358024691353,0,0,0.024691358024691353,120.96296296296288,0)" xlink:href="#ao"/><use transform="matrix(0.024691358024691353,0,0,0.024691358024691353,124.09876543209865,0)" xlink:href="#aj"/><use transform="matrix(0.024691358024691353,0,0,0.024691358024691353,126.56790123456781,0)" xlink:href="#aj"/><use transform="matrix(0.024691358024691353,0,0,0.024691358024691353,129.03703703703692,0)" xlink:href="#aj"/><use transform="matrix(0.024691358024691353,0,0,0.024691358024691353,131.50617283950606,0)" xlink:href="#as"/></g></defs></g></svg>