<svg xmlns="http://www.w3.org/2000/svg" xmlns:xlink="http://www.w3.org/1999/xlink" xmlns:lucid="lucid" width="983.95" height="591"><g transform="translate(-1.4970379199367017 20)" lucid:page-tab-id="0_0"><path d="M21.5 100h160v40h-160z" fill="none"/><use xlink:href="#a" transform="matrix(1,0,0,1,21.4970379199367,100) translate(25.740740740740762 14.666666666666668)"/><use xlink:href="#b" transform="matrix(1,0,0,1,21.4970379199367,100) translate(70.92592592592592 14.666666666666668)"/><use xlink:href="#c" transform="matrix(1,0,0,1,21.4970379199367,100) translate(29.11111111111113 30.666666666666664)"/><use xlink:href="#d" transform="matrix(1,0,0,1,21.4970379199367,100) translate(68.81481481481481 30.666666666666664)"/><path d="M113.17 6c0-3.3 2.68-6 6-6h188c3.3 0 6 2.7 6 6v28c0 3.3-2.7 6-6 6h-188c-3.32 0-6-2.7-6-6z" stroke="#99d2f2" stroke-width="3" fill="#fff"/><use xlink:href="#e" transform="matrix(1,0,0,1,125.16666666666652,12) translate(30.28395061728395 17.77777777777778)"/><path d="M523.95 6c0-3.3 2.7-6 6-6h188c3.3 0 6 2.7 6 6v28c0 3.3-2.7 6-6 6h-188c-3.3 0-6-2.7-6-6z" stroke="#99d2f2" stroke-width="3" fill="#fff"/><use xlink:href="#f" transform="matrix(1,0,0,1,535.9506534462637,12) translate(30.65432098765431 17.77777777777778)"/><path d="M213.17 462.5v9.83m0 9.84v19.66m0 9.84v9.83" stroke="#5e5e5e" stroke-width="2" fill="none"/><path d="M214.17 462.53h-2v-1.03h2z" fill="#5e5e5e"/><path d="M213.17 536.76l-4.64-14.26h9.27z" stroke="#5e5e5e" stroke-width="2" fill="#5e5e5e"/><path d="M213.17 42.5v9.17m0 9.16V80" stroke="#5e5e5e" stroke-width="2" fill="none"/><path d="M214.17 42.53h-2V41.5h2z" fill="#5e5e5e"/><path d="M213.17 95.26L208.53 81h9.27z" stroke="#5e5e5e" stroke-width="2" fill="#5e5e5e"/><path d="M623.95 42.5v10.45m0 10.45v20.9m0 10.46v20.9m0 10.46v20.9m0 10.46v20.9m0 10.45v20.9m0 10.46v10.44" stroke="#5e5e5e" stroke-width="2" fill="none"/><path d="M624.95 42.53h-2V41.5h2z" fill="#5e5e5e"/><path d="M623.95 245.9l-4.63-14.26h9.27z" stroke="#5e5e5e" stroke-width="2" fill="#5e5e5e"/><path d="M623.95 362.5v9.72m0 9.72v19.45m0 9.7v19.46m0 9.72V450l.22.53.53.22.53.22.22.53v11.67m0 11.66v23.34m0 11.66v11.67" stroke="#5e5e5e" stroke-width="2" fill="none"/><path d="M624.95 362.53h-2v-1.03h2z" fill="#5e5e5e"/><path d="M625.45 536.76l-4.63-14.26h9.27z" stroke="#5e5e5e" stroke-width="2" fill="#5e5e5e"/><path d="M193.17 106c0-3.3 2.68-6 6-6h28c3.3 0 6 2.7 6 6v348c0 3.3-2.7 6-6 6h-28c-3.32 0-6-2.7-6-6zM603.95 256.64c0-3.3 2.7-6 6-6h28c3.3 0 6 2.7 6 6V354c0 3.3-2.7 6-6 6h-28c-3.3 0-6-2.7-6-6z" stroke="#99d2f2" stroke-width="3" fill="#fff"/><path d="M21 145.52h152.16M21.03 145.52H20" stroke="#5e5e5e" stroke-width="2" fill="none"/><path d="M188.43 145.52l-14.27 4.64v-9.27z" stroke="#5e5e5e" stroke-width="2" fill="#5e5e5e"/><path d="M235.67 280.64h3.04m4.07 0h6.08m4.06 0h6.1m4.05 0h6.08m4.06 0h6.07m4.06 0h6.08m4.07 0h6.08m4.06 0h6.1m4.05 0h6.08m4.06 0h6.08m4.05 0h6.1m4.04 0h6.1m4.04 0h6.1m4.05 0h6.1m4.04 0h6.08m4.06 0h6.08m4.06 0h6.08m4.06 0h6.08m4.06 0h6.08m4.06 0h6.08m4.06 0h6.08m4.06 0h6.08m4.06 0h6.08m4.06 0h6.1m4.04 0h6.1m4.04 0h6.1m4.04 0h6.1m4.04 0h6.1m4.04 0h6.1m4.04 0h6.1m4.05 0h6.08m4.06 0h6.07m4.06 0h6.08m4.07 0h6.08m4.06 0h6.55" stroke="#19967d" stroke-width="2" fill="none"/><path d="M235.7 281.64h-1.03v-2h1.02z" fill="#19967d"/><path d="M599.2 280.64l-14.25 4.64V276z" stroke="#19967d" stroke-width="2" fill="#19967d"/><path d="M325.45 80.9c0-3.3 2.7-6 6-6h188c3.3 0 6 2.7 6 6v28c0 3.33-2.7 6-6 6h-188c-3.3 0-6-2.67-6-6z" stroke="#99d2f2" stroke-width="3" fill="#fff"/><use xlink:href="#g" transform="matrix(1,0,0,1,337.4506534462637,86.91314622257588) translate(48.52469135802468 17.77777777777778)"/><path d="M425.45 242.25v10.34m0 10.34v20.68m0 10.34v20.7m0 10.33v20.68m0 10.34v20.68m0 10.35v20.68m0 10.34v20.7m0 10.33v20.7m0 10.33v20.68m0 10.36v10.34" stroke="#5e5e5e" stroke-width="2" fill="none"/><path d="M426.45 242.28h-2v-1.03h2z" fill="#5e5e5e"/><path d="M425.45 536.76l-4.63-14.26h9.27z" stroke="#5e5e5e" stroke-width="2" fill="#5e5e5e"/><path d="M425.62 117.4v9.96m0 9.94v9.95l-.02.06-.06.03-.06.03-.03.06v12.33" stroke="#5e5e5e" stroke-width="2" fill="none"/><path d="M426.62 117.44h-2v-1.03h2z" fill="#5e5e5e"/><path d="M425.45 175l-4.63-14.25h9.27z" stroke="#5e5e5e" stroke-width="2" fill="#5e5e5e"/><path d="M405.45 185.75c0-3.3 2.7-6 6-6h28c3.3 0 6 2.7 6 6v48c0 3.3-2.7 6-6 6h-28c-3.3 0-6-2.7-6-6z" stroke="#99d2f2" stroke-width="3" fill="#fff"/><path d="M235.67 194.67h149.78" stroke="#5e5e5e" stroke-width="2" fill="none"/><path d="M235.7 195.67h-1.03v-2h1.02z" fill="#5e5e5e"/><path d="M400.7 194.67l-14.25 4.64v-9.26z" stroke="#5e5e5e" stroke-width="2" fill="#5e5e5e"/><path d="M259.3 160h120v40h-120z" fill="none"/><use xlink:href="#h" transform="matrix(1,0,0,1,259.3086600564652,160) translate(-4.907407407407376 22.22222222222222)"/><path d="M765.45 6c0-3.3 2.7-6 6-6h188c3.3 0 6 2.7 6 6v28c0 3.3-2.7 6-6 6h-188c-3.3 0-6-2.7-6-6z" stroke="#99d2f2" stroke-width="3" fill="#fff"/><use xlink:href="#i" transform="matrix(1,0,0,1,777.4506534462637,12) translate(8.49382716049385 17.77777777777778)"/><path d="M865.45 455.4v11m0 11.03v22.03m0 11.02v11.02" stroke="#5e5e5e" stroke-width="2" fill="none"/><path d="M866.45 455.4h-2v-1h2z" fill="#5e5e5e"/><path d="M865.45 536.76l-4.63-14.26h9.27z" stroke="#5e5e5e" stroke-width="2" fill="#5e5e5e"/><path d="M865.45 42.5v10m0 10.02v20.03m0 10v20.03m0 10v20.04m0 10v20.03m0 10v20.04m0 10v20.02m0 10v20.04m0 10v20.03m0 10v20.03m0 10v20.03m0 10.02v10" stroke="#5e5e5e" stroke-width="2" fill="none"/><path d="M866.45 42.53h-2V41.5h2z" fill="#5e5e5e"/><path d="M865.45 388.15l-4.63-14.26h9.27z" stroke="#5e5e5e" stroke-width="2" fill="#5e5e5e"/><path d="M845.45 398.9c0-3.32 2.7-6 6-6h28c3.3 0 6 2.68 6 6v48c0 3.3-2.7 6-6 6h-28c-3.3 0-6-2.7-6-6z" stroke="#99d2f2" stroke-width="3" fill="#fff"/><path d="M235.67 444.68h589.78" stroke="#5e5e5e" stroke-width="2" fill="none"/><path d="M235.7 445.68h-1.03v-2h1.02z" fill="#5e5e5e"/><path d="M840.7 444.68l-14.25 4.64v-9.27z" stroke="#5e5e5e" stroke-width="2" fill="#5e5e5e"/><path d="M235.67 299.42h11m11 0h11l3.02.82 2.15 2.15.82 3.02v8.2m0 8.17v8.18l-.82 3.03-2.16 2.16-3.03.82h-15.5" stroke="#5e5e5e" stroke-width="2" fill="none"/><path d="M235.7 300.42h-1.03v-2h1.02z" fill="#5e5e5e"/><path d="M237.9 335.98l14.27-4.63v9.27z" stroke="#5e5e5e" stroke-width="2" fill="#5e5e5e"/><path d="M265.45 300H422.1v35.4H265.46z" fill="none"/><use xlink:href="#j" transform="matrix(1,0,0,1,265.4506534462637,300) translate(0.027777777777828305 8.888888888888884)"/><use xlink:href="#k" transform="matrix(1,0,0,1,265.4506534462637,300) translate(121.81790123456787 8.888888888888884)"/><use xlink:href="#l" transform="matrix(1,0,0,1,265.4506534462637,300) translate(145.2438271604938 8.888888888888884)"/><use xlink:href="#m" transform="matrix(1,0,0,1,265.4506534462637,300) translate(31.972222222222243 22.222222222222207)"/><use xlink:href="#n" transform="matrix(1,0,0,1,265.4506534462637,300) translate(46.78703703703705 22.222222222222207)"/><use xlink:href="#o" transform="matrix(1,0,0,1,265.4506534462637,300) translate(88.73148148148148 22.222222222222207)"/><use xlink:href="#p" transform="matrix(1,0,0,1,265.4506534462637,300) translate(121.35493827160492 22.222222222222207)"/><use xlink:href="#q" transform="matrix(1,0,0,1,265.4506534462637,300) translate(20.830246913580282 35.555555555555536)"/><use xlink:href="#r" transform="matrix(1,0,0,1,265.4506534462637,300) translate(60.92283950617285 35.555555555555536)"/><use xlink:href="#s" transform="matrix(1,0,0,1,265.4506534462637,300) translate(84.99691358024691 35.555555555555536)"/><use xlink:href="#t" transform="matrix(1,0,0,1,265.4506534462637,300) translate(100.429012345679 35.555555555555536)"/><path d="M277.45 440.6H434.1V476H277.46z" fill="none"/><use xlink:href="#u" transform="matrix(1,0,0,1,277.45065344625664,440.5954240660265) translate(-18.320987654320945 20.22222222222222)"/><path d="M643.95 86c0-3.3 2.7-6 6-6h188c3.3 0 6 2.7 6 6v28c0 3.3-2.7 6-6 6h-188c-3.3 0-6-2.7-6-6z" stroke="#99d2f2" stroke-width="3" fill="#fff"/><use xlink:href="#v" transform="matrix(1,0,0,1,655.9506534462637,92) translate(46.30246913580247 17.77777777777778)"/><path d="M743.95 122.5v9.53m0 9.53v19.07m0 9.53v19.06m0 9.53v19.06m0 9.54v19.07m0 9.54V275m0 9.53v19.06m0 9.53v9.53" stroke="#5e5e5e" stroke-width="2" fill="none"/><path d="M744.95 122.53h-2v-1.03h2z" fill="#5e5e5e"/><path d="M743.95 337.92l-4.63-14.26h9.27z" stroke="#5e5e5e" stroke-width="2" fill="#5e5e5e"/><path d="M743.95 405.16v9.7m0 9.7v19.38m0 9.7V473m0 9.7v19.4m0 9.68v9.7" stroke="#5e5e5e" stroke-width="2" fill="none"/><path d="M744.95 405.18h-2v-1.02h2z" fill="#5e5e5e"/><path d="M743.95 536.76l-4.63-14.26h9.27z" stroke="#5e5e5e" stroke-width="2" fill="#5e5e5e"/><path d="M723.95 348.66c0-3.3 2.7-6 6-6h28c3.3 0 6 2.7 6 6v48c0 3.3-2.7 6-6 6h-28c-3.3 0-6-2.7-6-6z" stroke="#99d2f2" stroke-width="3" fill="#fff"/><path d="M235.67 354.76H584.1" stroke="#5e5e5e" stroke-width="2" fill="none"/><path d="M235.7 355.76h-1.03v-2h1.02z" fill="#5e5e5e"/><path d="M599.37 354.76l-14.27 4.63v-9.28z" stroke="#5e5e5e" stroke-width="2" fill="#5e5e5e"/><path d="M235.67 397.25h468.38" stroke="#5e5e5e" stroke-width="2" fill="none"/><path d="M235.7 398.25h-1.03v-2h1.02z" fill="#5e5e5e"/><path d="M719.32 397.25l-14.27 4.63v-9.27z" stroke="#5e5e5e" stroke-width="2" fill="#5e5e5e"/><path d="M422.1 369.77h156.67v35.4H422.1z" fill="none"/><use xlink:href="#w" transform="matrix(1,0,0,1,422.1113959528036,369.76913162087476) translate(16.941358024691404 20.22222222222222)"/><path d="M434.7 324.6h156.66V360H434.7z" fill="none"/><use xlink:href="#x" transform="matrix(1,0,0,1,434.7006534462637,324.5868537774241) translate(14.981481481481524 20.22222222222222)"/><path d="M235.67 412.07h33c3.3 0 6 2.7 6 6v7.76c0 3.32-2.7 6-6 6h-15.5" stroke="#5e5e5e" stroke-width="2" fill="none"/><path d="M235.7 413.07h-1.03v-2h1.02z" fill="#5e5e5e"/><path d="M237.9 431.83l14.27-4.63v9.27z" stroke="#5e5e5e" stroke-width="2" fill="#5e5e5e"/><path d="M285.45 405.18H442.1v35.42H285.46z" fill="none"/><g><use xlink:href="#y" transform="matrix(1,0,0,1,285.4506534462637,405.1822778434507) translate(2.7592592592593093 20.22222222222222)"/></g><path d="M442.1 405.18h183.35v35.42H442.1z" fill="none"/><g><use xlink:href="#z" transform="matrix(1,0,0,1,442.1113959528036,405.18227784345055) translate(12.462962962963019 20.22222222222222)"/><use xlink:href="#A" transform="matrix(1,0,0,1,442.1113959528036,405.18227784345055) translate(30.364197530864246 20.22222222222222)"/></g><path d="M259.3 255.4h160.26v26.16H259.3z" fill="none"/><g><use xlink:href="#B" transform="matrix(1,0,0,1,259.3086600564651,255.41314622257585) translate(8.901234567901241 16.61111111111111)"/></g><path d="M235.67 216.82h3.3m4.4 0h6.6m4.4 0h6.6m4.4 0h3.3l2.7.73m2.57 2.57l.73 2.7V226m0 4.2v6.34m0 4.22v3.17l-.73 2.7m-2.57 2.57l-2.7.73h-2.33m-3.1 0h-4.65m-3.1 0h-2.33" stroke="#c92d39" stroke-width="2" fill="none"/><path d="M235.7 217.82h-1.03v-2h1.02z" fill="#c92d39"/><path d="M237.9 249.93l14.27-4.64v9.26z" stroke="#c92d39" stroke-width="2" fill="#c92d39"/><path d="M261.1 215.23h156.67v35.4H261.1z" fill="none"/><g><use xlink:href="#j" transform="matrix(1,0,0,1,261.10585031384676,215.22976517258837) translate(16.06172839506177 8.888888888888884)"/><use xlink:href="#C" transform="matrix(1,0,0,1,261.10585031384676,215.22976517258837) translate(137.85185185185182 8.888888888888884)"/><use xlink:href="#D" transform="matrix(1,0,0,1,261.10585031384676,215.22976517258837) translate(33.50000000000002 22.222222222222207)"/><use xlink:href="#E" transform="matrix(1,0,0,1,261.10585031384676,215.22976517258837) translate(56.92592592592594 22.222222222222207)"/><use xlink:href="#F" transform="matrix(1,0,0,1,261.10585031384676,215.22976517258837) translate(80.96913580246914 22.222222222222207)"/><use xlink:href="#G" transform="matrix(1,0,0,1,261.10585031384676,215.22976517258837) translate(54.47222222222223 35.555555555555536)"/><use xlink:href="#H" transform="matrix(1,0,0,1,261.10585031384676,215.22976517258837) translate(78.54629629629629 35.555555555555536)"/></g><defs><path fill="#333" d="M85-194c31 0 48 13 60 33l-1-100h32l1 261h-30c-2-10 0-23-3-31C134-8 116 4 85 4 32 4 16-35 15-94c0-66 23-100 70-100zm9 24c-40 0-46 34-46 75 0 40 6 74 45 74 42 0 51-32 51-76 0-42-9-74-50-73" id="I"/><path fill="#333" d="M100-194c62-1 85 37 85 99 1 63-27 99-86 99S16-35 15-95c0-66 28-99 85-99zM99-20c44 1 53-31 53-75 0-43-8-75-51-75s-53 32-53 75 10 74 51 75" id="J"/><path fill="#333" d="M30-248c87 1 191-15 191 75 0 78-77 80-158 76V0H30v-248zm33 125c57 0 124 11 124-50 0-59-68-47-124-48v98" id="K"/><path fill="#333" d="M135-143c-3-34-86-38-87 0 15 53 115 12 119 90S17 21 10-45l28-5c4 36 97 45 98 0-10-56-113-15-118-90-4-57 82-63 122-42 12 7 21 19 24 35" id="L"/><path fill="#333" d="M59-47c-2 24 18 29 38 22v24C64 9 27 4 27-40v-127H5v-23h24l9-43h21v43h35v23H59v120" id="M"/><g id="a"><use transform="matrix(0.03703703703703702,0,0,0.03703703703703702,0,0)" xlink:href="#I"/><use transform="matrix(0.03703703703703702,0,0,0.03703703703703702,7.407407407407404,0)" xlink:href="#J"/><use transform="matrix(0.03703703703703702,0,0,0.03703703703703702,14.814814814814808,0)" xlink:href="#K"/><use transform="matrix(0.03703703703703702,0,0,0.03703703703703702,23.703703703703695,0)" xlink:href="#J"/><use transform="matrix(0.03703703703703702,0,0,0.03703703703703702,31.111111111111104,0)" xlink:href="#L"/><use transform="matrix(0.03703703703703702,0,0,0.03703703703703702,37.777777777777764,0)" xlink:href="#M"/></g><path fill="#333" d="M0 4l72-265h28L28 4H0" id="N"/><path fill="#333" d="M190 0L58-211 59 0H30v-248h39L202-35l-2-213h31V0h-41" id="O"/><path fill="#333" d="M100-194c63 0 86 42 84 106H49c0 40 14 67 53 68 26 1 43-12 49-29l28 8c-11 28-37 45-77 45C44 4 14-33 15-96c1-61 26-98 85-98zm52 81c6-60-76-77-97-28-3 7-6 17-6 28h103" id="P"/><path fill="#333" d="M206 0h-36l-40-164L89 0H53L-1-190h32L70-26l43-164h34l41 164 42-164h31" id="Q"/><path fill="#333" d="M140-251c81 0 123 46 123 126C263-46 219 4 140 4 59 4 17-45 17-125s42-126 123-126zm0 227c63 0 89-41 89-101s-29-99-89-99c-61 0-89 39-89 99S79-25 140-24" id="R"/><path fill="#333" d="M101-234c-31-9-42 10-38 44h38v23H63V0H32v-167H5v-23h27c-7-52 17-82 69-68v24" id="S"/><path fill="#333" d="M114-163C36-179 61-72 57 0H25l-1-190h30c1 12-1 29 2 39 6-27 23-49 58-41v29" id="T"/><g id="b"><use transform="matrix(0.03703703703703702,0,0,0.03703703703703702,0,0)" xlink:href="#N"/><use transform="matrix(0.03703703703703702,0,0,0.03703703703703702,3.703703703703702,0)" xlink:href="#O"/><use transform="matrix(0.03703703703703702,0,0,0.03703703703703702,13.29629629629629,0)" xlink:href="#P"/><use transform="matrix(0.03703703703703702,0,0,0.03703703703703702,20.703703703703695,0)" xlink:href="#Q"/><use transform="matrix(0.03703703703703702,0,0,0.03703703703703702,30.296296296296283,0)" xlink:href="#R"/><use transform="matrix(0.03703703703703702,0,0,0.03703703703703702,40.66666666666665,0)" xlink:href="#S"/><use transform="matrix(0.03703703703703702,0,0,0.03703703703703702,44.11111111111109,0)" xlink:href="#S"/><use transform="matrix(0.03703703703703702,0,0,0.03703703703703702,47.814814814814795,0)" xlink:href="#P"/><use transform="matrix(0.03703703703703702,0,0,0.03703703703703702,55.2222222222222,0)" xlink:href="#T"/><use transform="matrix(0.03703703703703702,0,0,0.03703703703703702,59.629629629629605,0)" xlink:href="#M"/></g><path fill="#333" d="M185-189c-5-48-123-54-124 2 14 75 158 14 163 119 3 78-121 87-175 55-17-10-28-26-33-46l33-7c5 56 141 63 141-1 0-78-155-14-162-118-5-82 145-84 179-34 5 7 8 16 11 25" id="U"/><path fill="#333" d="M127-220V0H93v-220H8v-28h204v28h-85" id="V"/><g id="c"><use transform="matrix(0.03703703703703702,0,0,0.03703703703703702,0,0)" xlink:href="#K"/><use transform="matrix(0.03703703703703702,0,0,0.03703703703703702,8.888888888888886,0)" xlink:href="#R"/><use transform="matrix(0.03703703703703702,0,0,0.03703703703703702,19.259259259259252,0)" xlink:href="#U"/><use transform="matrix(0.03703703703703702,0,0,0.03703703703703702,28.14814814814814,0)" xlink:href="#V"/></g><path fill="#333" d="M87 75C49 33 22-17 22-94c0-76 28-126 65-167h31c-38 41-64 92-64 168S80 34 118 75H87" id="W"/><path fill="#333" d="M141-36C126-15 110 5 73 4 37 3 15-17 15-53c-1-64 63-63 125-63 3-35-9-54-41-54-24 1-41 7-42 31l-33-3c5-37 33-52 76-52 45 0 72 20 72 64v82c-1 20 7 32 28 27v20c-31 9-61-2-59-35zM48-53c0 20 12 33 32 33 41-3 63-29 60-74-43 2-92-5-92 41" id="X"/><path fill="#333" d="M84 4C-5 8 30-112 23-190h32v120c0 31 7 50 39 49 72-2 45-101 50-169h31l1 190h-30c-1-10 1-25-2-33-11 22-28 36-60 37" id="Y"/><path fill="#333" d="M96-169c-40 0-48 33-48 73s9 75 48 75c24 0 41-14 43-38l32 2c-6 37-31 61-74 61-59 0-76-41-82-99-10-93 101-131 147-64 4 7 5 14 7 22l-32 3c-4-21-16-35-41-35" id="Z"/><path fill="#333" d="M24-231v-30h32v30H24zM24 0v-190h32V0H24" id="aa"/><path fill="#333" d="M117-194c89-4 53 116 60 194h-32v-121c0-31-8-49-39-48C34-167 62-67 57 0H25l-1-190h30c1 10-1 24 2 32 11-22 29-35 61-36" id="ab"/><path fill="#333" d="M33-261c38 41 65 92 65 168S71 34 33 75H2C39 34 66-17 66-93S39-220 2-261h31" id="ac"/><g id="d"><use transform="matrix(0.03703703703703702,0,0,0.03703703703703702,0,0)" xlink:href="#W"/><use transform="matrix(0.03703703703703702,0,0,0.03703703703703702,4.407407407407406,0)" xlink:href="#X"/><use transform="matrix(0.03703703703703702,0,0,0.03703703703703702,11.81481481481481,0)" xlink:href="#Y"/><use transform="matrix(0.03703703703703702,0,0,0.03703703703703702,19.222222222222214,0)" xlink:href="#Z"/><use transform="matrix(0.03703703703703702,0,0,0.03703703703703702,25.88888888888888,0)" xlink:href="#M"/><use transform="matrix(0.03703703703703702,0,0,0.03703703703703702,29.59259259259258,0)" xlink:href="#aa"/><use transform="matrix(0.03703703703703702,0,0,0.03703703703703702,32.518518518518505,0)" xlink:href="#J"/><use transform="matrix(0.03703703703703702,0,0,0.03703703703703702,39.92592592592591,0)" xlink:href="#ab"/><use transform="matrix(0.03703703703703702,0,0,0.03703703703703702,47.333333333333314,0)" xlink:href="#aa"/><use transform="matrix(0.03703703703703702,0,0,0.03703703703703702,50.25925925925924,0)" xlink:href="#I"/><use transform="matrix(0.03703703703703702,0,0,0.03703703703703702,57.66666666666664,0)" xlink:href="#ac"/></g><path fill="#333" d="M212-179c-10-28-35-45-73-45-59 0-87 40-87 99 0 60 29 101 89 101 43 0 62-24 78-52l27 14C228-24 195 4 139 4 59 4 22-46 18-125c-6-104 99-153 187-111 19 9 31 26 39 46" id="ad"/><g id="e"><use transform="matrix(0.06172839506172839,0,0,0.06172839506172839,0,0)" xlink:href="#ad"/><use transform="matrix(0.06172839506172839,0,0,0.06172839506172839,15.987654320987653,0)" xlink:href="#T"/><use transform="matrix(0.06172839506172839,0,0,0.06172839506172839,23.333333333333332,0)" xlink:href="#P"/><use transform="matrix(0.06172839506172839,0,0,0.06172839506172839,35.67901234567901,0)" xlink:href="#X"/><use transform="matrix(0.06172839506172839,0,0,0.06172839506172839,48.02469135802469,0)" xlink:href="#M"/><use transform="matrix(0.06172839506172839,0,0,0.06172839506172839,54.19753086419753,0)" xlink:href="#P"/><use transform="matrix(0.06172839506172839,0,0,0.06172839506172839,66.54320987654322,0)" xlink:href="#R"/><use transform="matrix(0.06172839506172839,0,0,0.06172839506172839,83.82716049382717,0)" xlink:href="#S"/><use transform="matrix(0.06172839506172839,0,0,0.06172839506172839,89.5679012345679,0)" xlink:href="#S"/><use transform="matrix(0.06172839506172839,0,0,0.06172839506172839,95.74074074074073,0)" xlink:href="#P"/><use transform="matrix(0.06172839506172839,0,0,0.06172839506172839,108.08641975308642,0)" xlink:href="#T"/></g><path fill="#333" d="M205 0l-28-72H64L36 0H1l101-248h38L239 0h-34zm-38-99l-47-123c-12 45-31 82-46 123h93" id="ae"/><path fill="#333" d="M30-248c118-7 216 8 213 122C240-48 200 0 122 0H30v-248zM63-27c89 8 146-16 146-99s-60-101-146-95v194" id="af"/><g id="f"><use transform="matrix(0.06172839506172839,0,0,0.06172839506172839,0,0)" xlink:href="#ae"/><use transform="matrix(0.06172839506172839,0,0,0.06172839506172839,14.814814814814813,0)" xlink:href="#Y"/><use transform="matrix(0.06172839506172839,0,0,0.06172839506172839,27.160493827160494,0)" xlink:href="#Z"/><use transform="matrix(0.06172839506172839,0,0,0.06172839506172839,38.27160493827161,0)" xlink:href="#M"/><use transform="matrix(0.06172839506172839,0,0,0.06172839506172839,44.44444444444445,0)" xlink:href="#aa"/><use transform="matrix(0.06172839506172839,0,0,0.06172839506172839,49.320987654320994,0)" xlink:href="#J"/><use transform="matrix(0.06172839506172839,0,0,0.06172839506172839,61.66666666666667,0)" xlink:href="#ab"/><use transform="matrix(0.06172839506172839,0,0,0.06172839506172839,74.01234567901236,0)" xlink:href="#af"/><use transform="matrix(0.06172839506172839,0,0,0.06172839506172839,90.00000000000001,0)" xlink:href="#X"/><use transform="matrix(0.06172839506172839,0,0,0.06172839506172839,102.3456790123457,0)" xlink:href="#J"/></g><g id="g"><use transform="matrix(0.06172839506172839,0,0,0.06172839506172839,0,0)" xlink:href="#U"/><use transform="matrix(0.06172839506172839,0,0,0.06172839506172839,14.814814814814813,0)" xlink:href="#P"/><use transform="matrix(0.06172839506172839,0,0,0.06172839506172839,27.160493827160494,0)" xlink:href="#L"/><use transform="matrix(0.06172839506172839,0,0,0.06172839506172839,38.27160493827161,0)" xlink:href="#L"/><use transform="matrix(0.06172839506172839,0,0,0.06172839506172839,49.38271604938272,0)" xlink:href="#aa"/><use transform="matrix(0.06172839506172839,0,0,0.06172839506172839,54.25925925925927,0)" xlink:href="#J"/><use transform="matrix(0.06172839506172839,0,0,0.06172839506172839,66.60493827160495,0)" xlink:href="#ab"/></g><path fill="#333" d="M177-190C167-65 218 103 67 71c-23-6-38-20-44-43l32-5c15 47 100 32 89-28v-30C133-14 115 1 83 1 29 1 15-40 15-95c0-56 16-97 71-98 29-1 48 16 59 35 1-10 0-23 2-32h30zM94-22c36 0 50-32 50-73 0-42-14-75-50-75-39 0-46 34-46 75s6 73 46 73" id="ag"/><path fill="#333" d="M115-194c53 0 69 39 70 98 0 66-23 100-70 100C84 3 66-7 56-30L54 0H23l1-261h32v101c10-23 28-34 59-34zm-8 174c40 0 45-34 45-75 0-40-5-75-45-74-42 0-51 32-51 76 0 43 10 73 51 73" id="ah"/><path fill="#333" d="M109-170H84l-4-78h32zm-65 0H19l-4-78h33" id="ai"/><path fill="#333" d="M232-93c-1 65-40 97-104 97C67 4 28-28 28-90v-158h33c8 89-33 224 67 224 102 0 64-133 71-224h33v155" id="aj"/><g id="h"><use transform="matrix(0.030864197530864192,0,0,0.030864197530864192,0,0)" xlink:href="#ag"/><use transform="matrix(0.030864197530864192,0,0,0.030864197530864192,6.1728395061728385,0)" xlink:href="#P"/><use transform="matrix(0.030864197530864192,0,0,0.030864197530864192,12.345679012345677,0)" xlink:href="#M"/><use transform="matrix(0.030864197530864192,0,0,0.030864197530864192,15.432098765432096,0)" xlink:href="#ae"/><use transform="matrix(0.030864197530864192,0,0,0.030864197530864192,22.839506172839503,0)" xlink:href="#M"/><use transform="matrix(0.030864197530864192,0,0,0.030864197530864192,25.925925925925924,0)" xlink:href="#M"/><use transform="matrix(0.030864197530864192,0,0,0.030864197530864192,29.01234567901234,0)" xlink:href="#T"/><use transform="matrix(0.030864197530864192,0,0,0.030864197530864192,32.68518518518518,0)" xlink:href="#aa"/><use transform="matrix(0.030864197530864192,0,0,0.030864197530864192,35.123456790123456,0)" xlink:href="#ah"/><use transform="matrix(0.030864197530864192,0,0,0.030864197530864192,41.29629629629629,0)" xlink:href="#Y"/><use transform="matrix(0.030864197530864192,0,0,0.030864197530864192,47.469135802469125,0)" xlink:href="#M"/><use transform="matrix(0.030864197530864192,0,0,0.030864197530864192,50.55555555555554,0)" xlink:href="#P"/><use transform="matrix(0.030864197530864192,0,0,0.030864197530864192,56.72839506172838,0)" xlink:href="#W"/><use transform="matrix(0.030864197530864192,0,0,0.030864197530864192,60.40123456790122,0)" xlink:href="#ai"/><use transform="matrix(0.030864197530864192,0,0,0.030864197530864192,64.32098765432097,0)" xlink:href="#Z"/><use transform="matrix(0.030864197530864192,0,0,0.030864197530864192,69.87654320987653,0)" xlink:href="#Y"/><use transform="matrix(0.030864197530864192,0,0,0.030864197530864192,76.04938271604937,0)" xlink:href="#T"/><use transform="matrix(0.030864197530864192,0,0,0.030864197530864192,79.7222222222222,0)" xlink:href="#T"/><use transform="matrix(0.030864197530864192,0,0,0.030864197530864192,83.39506172839504,0)" xlink:href="#P"/><use transform="matrix(0.030864197530864192,0,0,0.030864197530864192,89.56790123456787,0)" xlink:href="#ab"/><use transform="matrix(0.030864197530864192,0,0,0.030864197530864192,95.7407407407407,0)" xlink:href="#M"/><use transform="matrix(0.030864197530864192,0,0,0.030864197530864192,98.82716049382712,0)" xlink:href="#aj"/><use transform="matrix(0.030864197530864192,0,0,0.030864197530864192,106.82098765432094,0)" xlink:href="#L"/><use transform="matrix(0.030864197530864192,0,0,0.030864197530864192,112.3765432098765,0)" xlink:href="#P"/><use transform="matrix(0.030864197530864192,0,0,0.030864197530864192,118.54938271604934,0)" xlink:href="#T"/><use transform="matrix(0.030864197530864192,0,0,0.030864197530864192,122.22222222222217,0)" xlink:href="#ai"/><use transform="matrix(0.030864197530864192,0,0,0.030864197530864192,126.14197530864192,0)" xlink:href="#ac"/></g><path fill="#333" d="M210-169c-67 3-38 105-44 169h-31v-121c0-29-5-50-35-48C34-165 62-65 56 0H25l-1-190h30c1 10-1 24 2 32 10-44 99-50 107 0 11-21 27-35 58-36 85-2 47 119 55 194h-31v-121c0-29-5-49-35-48" id="ak"/><path fill="#333" d="M115-194c55 1 70 41 70 98S169 2 115 4C84 4 66-9 55-30l1 105H24l-1-265h31l2 30c10-21 28-34 59-34zm-8 174c40 0 45-34 45-75s-6-73-45-74c-42 0-51 32-51 76 0 43 10 73 51 73" id="al"/><path fill="#333" d="M24 0v-261h32V0H24" id="am"/><path fill="#333" d="M30 0v-248h187v28H63v79h144v27H63v87h162V0H30" id="an"/><g id="i"><use transform="matrix(0.06172839506172839,0,0,0.06172839506172839,0,0)" xlink:href="#V"/><use transform="matrix(0.06172839506172839,0,0,0.06172839506172839,11.049382716049381,0)" xlink:href="#P"/><use transform="matrix(0.06172839506172839,0,0,0.06172839506172839,23.39506172839506,0)" xlink:href="#ak"/><use transform="matrix(0.06172839506172839,0,0,0.06172839506172839,41.85185185185185,0)" xlink:href="#al"/><use transform="matrix(0.06172839506172839,0,0,0.06172839506172839,54.197530864197525,0)" xlink:href="#am"/><use transform="matrix(0.06172839506172839,0,0,0.06172839506172839,59.07407407407407,0)" xlink:href="#X"/><use transform="matrix(0.06172839506172839,0,0,0.06172839506172839,71.41975308641975,0)" xlink:href="#M"/><use transform="matrix(0.06172839506172839,0,0,0.06172839506172839,77.59259259259258,0)" xlink:href="#P"/><use transform="matrix(0.06172839506172839,0,0,0.06172839506172839,89.93827160493827,0)" xlink:href="#an"/><use transform="matrix(0.06172839506172839,0,0,0.06172839506172839,104.75308641975307,0)" xlink:href="#ab"/><use transform="matrix(0.06172839506172839,0,0,0.06172839506172839,117.09876543209876,0)" xlink:href="#ag"/><use transform="matrix(0.06172839506172839,0,0,0.06172839506172839,129.44444444444443,0)" xlink:href="#aa"/><use transform="matrix(0.06172839506172839,0,0,0.06172839506172839,134.32098765432096,0)" xlink:href="#ab"/><use transform="matrix(0.06172839506172839,0,0,0.06172839506172839,146.66666666666663,0)" xlink:href="#P"/></g><path fill="#c92d39" d="M26 75v-336h71v23H56V52h41v23H26" id="ao"/><path fill="#c92d39" d="M135-143c-3-34-86-38-87 0 15 53 115 12 119 90S17 21 10-45l28-5c4 36 97 45 98 0-10-56-113-15-118-90-4-57 82-63 122-42 12 7 21 19 24 35" id="ap"/><path fill="#c92d39" d="M100-194c63 0 86 42 84 106H49c0 40 14 67 53 68 26 1 43-12 49-29l28 8c-11 28-37 45-77 45C44 4 14-33 15-96c1-61 26-98 85-98zm52 81c6-60-76-77-97-28-3 7-6 17-6 28h103" id="aq"/><path fill="#c92d39" d="M59-47c-2 24 18 29 38 22v24C64 9 27 4 27-40v-127H5v-23h24l9-43h21v43h35v23H59v120" id="ar"/><path fill="#c92d39" d="M205 0l-28-72H64L36 0H1l101-248h38L239 0h-34zm-38-99l-47-123c-12 45-31 82-46 123h93" id="as"/><path fill="#c92d39" d="M114-163C36-179 61-72 57 0H25l-1-190h30c1 12-1 29 2 39 6-27 23-49 58-41v29" id="at"/><path fill="#c92d39" d="M24-231v-30h32v30H24zM24 0v-190h32V0H24" id="au"/><path fill="#c92d39" d="M115-194c53 0 69 39 70 98 0 66-23 100-70 100C84 3 66-7 56-30L54 0H23l1-261h32v101c10-23 28-34 59-34zm-8 174c40 0 45-34 45-75 0-40-5-75-45-74-42 0-51 32-51 76 0 43 10 73 51 73" id="av"/><path fill="#c92d39" d="M84 4C-5 8 30-112 23-190h32v120c0 31 7 50 39 49 72-2 45-101 50-169h31l1 190h-30c-1-10 1-25-2-33-11 22-28 36-60 37" id="aw"/><path fill="#c92d39" d="M87 75C49 33 22-17 22-94c0-76 28-126 65-167h31c-38 41-64 92-64 168S80 34 118 75H87" id="ax"/><path fill="#c92d39" d="M109-170H84l-4-78h32zm-65 0H19l-4-78h33" id="ay"/><path fill="#c92d39" d="M100-194c62-1 85 37 85 99 1 63-27 99-86 99S16-35 15-95c0-66 28-99 85-99zM99-20c44 1 53-31 53-75 0-43-8-75-51-75s-53 32-53 75 10 74 51 75" id="az"/><path fill="#c92d39" d="M240 0l2-218c-23 76-54 145-80 218h-23L58-218 59 0H30v-248h44l77 211c21-75 51-140 76-211h43V0h-30" id="aA"/><path fill="#c92d39" d="M177-190C167-65 218 103 67 71c-23-6-38-20-44-43l32-5c15 47 100 32 89-28v-30C133-14 115 1 83 1 29 1 15-40 15-95c0-56 16-97 71-98 29-1 48 16 59 35 1-10 0-23 2-32h30zM94-22c36 0 50-32 50-73 0-42-14-75-50-75-39 0-46 34-46 75s6 73 46 73" id="aB"/><path fill="#c92d39" d="M33-261c38 41 65 92 65 168S71 34 33 75H2C39 34 66-17 66-93S39-220 2-261h31" id="aC"/><g id="j"><use transform="matrix(0.030864197530864182,0,0,0.030864197530864182,0,0)" xlink:href="#ao"/><use transform="matrix(0.030864197530864182,0,0,0.030864197530864182,3.0864197530864184,0)" xlink:href="#ap"/><use transform="matrix(0.030864197530864182,0,0,0.030864197530864182,8.641975308641971,0)" xlink:href="#aq"/><use transform="matrix(0.030864197530864182,0,0,0.030864197530864182,14.814814814814808,0)" xlink:href="#ar"/><use transform="matrix(0.030864197530864182,0,0,0.030864197530864182,17.901234567901227,0)" xlink:href="#as"/><use transform="matrix(0.030864197530864182,0,0,0.030864197530864182,25.308641975308632,0)" xlink:href="#ar"/><use transform="matrix(0.030864197530864182,0,0,0.030864197530864182,28.39506172839505,0)" xlink:href="#ar"/><use transform="matrix(0.030864197530864182,0,0,0.030864197530864182,31.481481481481467,0)" xlink:href="#at"/><use transform="matrix(0.030864197530864182,0,0,0.030864197530864182,35.1543209876543,0)" xlink:href="#au"/><use transform="matrix(0.030864197530864182,0,0,0.030864197530864182,37.592592592592574,0)" xlink:href="#av"/><use transform="matrix(0.030864197530864182,0,0,0.030864197530864182,43.76543209876541,0)" xlink:href="#aw"/><use transform="matrix(0.030864197530864182,0,0,0.030864197530864182,49.938271604938244,0)" xlink:href="#ar"/><use transform="matrix(0.030864197530864182,0,0,0.030864197530864182,53.02469135802466,0)" xlink:href="#aq"/><use transform="matrix(0.030864197530864182,0,0,0.030864197530864182,59.197530864197496,0)" xlink:href="#ax"/><use transform="matrix(0.030864197530864182,0,0,0.030864197530864182,62.87037037037033,0)" xlink:href="#ay"/><use transform="matrix(0.030864197530864182,0,0,0.030864197530864182,66.79012345679008,0)" xlink:href="#aq"/><use transform="matrix(0.030864197530864182,0,0,0.030864197530864182,72.96296296296292,0)" xlink:href="#at"/><use transform="matrix(0.030864197530864182,0,0,0.030864197530864182,76.63580246913575,0)" xlink:href="#at"/><use transform="matrix(0.030864197530864182,0,0,0.030864197530864182,80.30864197530859,0)" xlink:href="#az"/><use transform="matrix(0.030864197530864182,0,0,0.030864197530864182,86.48148148148142,0)" xlink:href="#at"/><use transform="matrix(0.030864197530864182,0,0,0.030864197530864182,90.15432098765426,0)" xlink:href="#aA"/><use transform="matrix(0.030864197530864182,0,0,0.030864197530864182,99.38271604938265,0)" xlink:href="#ap"/><use transform="matrix(0.030864197530864182,0,0,0.030864197530864182,104.93827160493821,0)" xlink:href="#aB"/><use transform="matrix(0.030864197530864182,0,0,0.030864197530864182,111.11111111111104,0)" xlink:href="#ay"/><use transform="matrix(0.030864197530864182,0,0,0.030864197530864182,115.03086419753079,0)" xlink:href="#aC"/></g><path fill="#c92d39" d="M24 0v-261h32V0H24" id="aD"/><g id="k"><use transform="matrix(0.030864197530864182,0,0,0.030864197530864182,0,0)" xlink:href="#ap"/><use transform="matrix(0.030864197530864182,0,0,0.030864197530864182,5.555555555555553,0)" xlink:href="#az"/><use transform="matrix(0.030864197530864182,0,0,0.030864197530864182,11.728395061728389,0)" xlink:href="#aD"/><use transform="matrix(0.030864197530864182,0,0,0.030864197530864182,14.166666666666659,0)" xlink:href="#az"/></g><g id="l"><use transform="matrix(0.030864197530864182,0,0,0.030864197530864182,0,0)" xlink:href="#ap"/><use transform="matrix(0.030864197530864182,0,0,0.030864197530864182,5.555555555555553,0)" xlink:href="#aq"/></g><path fill="#c92d39" d="M96-169c-40 0-48 33-48 73s9 75 48 75c24 0 41-14 43-38l32 2c-6 37-31 61-74 61-59 0-76-41-82-99-10-93 101-131 147-64 4 7 5 14 7 22l-32 3c-4-21-16-35-41-35" id="aE"/><path fill="#c92d39" d="M100-194c63 0 86 42 84 106H49c0 40 14 67 53 68 26 1 43-12 49-29l28 8c-11 28-37 45-77 45C44 4 14-33 15-96c1-61 26-98 85-98zm52 81c6-60-76-77-97-28-3 7-6 17-6 28h103zm-36-98l-58-49v-5h36c12 19 30 32 38 54h-16" id="aF"/><g id="m"><use transform="matrix(0.030864197530864182,0,0,0.030864197530864182,0,0)" xlink:href="#aE"/><use transform="matrix(0.030864197530864182,0,0,0.030864197530864182,5.555555555555553,0)" xlink:href="#aF"/></g><path fill="#c92d39" d="M145-31C134-9 116 4 85 4 32 4 16-35 15-94c0-59 17-99 70-100 32-1 48 14 60 33 0-11-1-24 2-32h30l-1 268h-32zM93-21c41 0 51-33 51-76s-8-73-50-73c-40 0-46 35-46 75s5 74 45 74" id="aG"/><path fill="#c92d39" d="M141-36C126-15 110 5 73 4 37 3 15-17 15-53c-1-64 63-63 125-63 3-35-9-54-41-54-24 1-41 7-42 31l-33-3c5-37 33-52 76-52 45 0 72 20 72 64v82c-1 20 7 32 28 27v20c-31 9-61-2-59-35zM48-53c0 20 12 33 32 33 41-3 63-29 60-74-43 2-92-5-92 41" id="aH"/><path fill="#c92d39" d="M106-169C34-169 62-67 57 0H25v-261h32l-1 103c12-21 28-36 61-36 89 0 53 116 60 194h-32v-121c2-32-8-49-39-48" id="aI"/><g id="n"><use transform="matrix(0.030864197530864182,0,0,0.030864197530864182,0,0)" xlink:href="#aG"/><use transform="matrix(0.030864197530864182,0,0,0.030864197530864182,6.172839506172837,0)" xlink:href="#aw"/><use transform="matrix(0.030864197530864182,0,0,0.030864197530864182,12.345679012345673,0)" xlink:href="#aH"/><use transform="matrix(0.030864197530864182,0,0,0.030864197530864182,18.518518518518512,0)" xlink:href="#aD"/><use transform="matrix(0.030864197530864182,0,0,0.030864197530864182,20.956790123456784,0)" xlink:href="#aE"/><use transform="matrix(0.030864197530864182,0,0,0.030864197530864182,26.512345679012338,0)" xlink:href="#aI"/><use transform="matrix(0.030864197530864182,0,0,0.030864197530864182,32.685185185185176,0)" xlink:href="#aq"/></g><g id="o"><use transform="matrix(0.030864197530864182,0,0,0.030864197530864182,0,0)" xlink:href="#aq"/><use transform="matrix(0.030864197530864182,0,0,0.030864197530864182,6.172839506172837,0)" xlink:href="#at"/><use transform="matrix(0.030864197530864182,0,0,0.030864197530864182,9.845679012345673,0)" xlink:href="#at"/><use transform="matrix(0.030864197530864182,0,0,0.030864197530864182,13.518518518518512,0)" xlink:href="#az"/><use transform="matrix(0.030864197530864182,0,0,0.030864197530864182,19.691358024691347,0)" xlink:href="#at"/><use transform="matrix(0.030864197530864182,0,0,0.030864197530864182,23.364197530864185,0)" xlink:href="#aq"/></g><use transform="matrix(0.030864197530864182,0,0,0.030864197530864182,0,0)" xlink:href="#ax" id="p"/><path fill="#c92d39" d="M117-194c89-4 53 116 60 194h-32v-121c0-31-8-49-39-48C34-167 62-67 57 0H25l-1-190h30c1 10-1 24 2 32 11-22 29-35 61-36" id="aJ"/><g id="q"><use transform="matrix(0.030864197530864182,0,0,0.030864197530864182,0,0)" xlink:href="#as"/><use transform="matrix(0.030864197530864182,0,0,0.030864197530864182,7.407407407407404,0)" xlink:href="#aw"/><use transform="matrix(0.030864197530864182,0,0,0.030864197530864182,13.58024691358024,0)" xlink:href="#aE"/><use transform="matrix(0.030864197530864182,0,0,0.030864197530864182,19.135802469135793,0)" xlink:href="#ar"/><use transform="matrix(0.030864197530864182,0,0,0.030864197530864182,22.22222222222221,0)" xlink:href="#au"/><use transform="matrix(0.030864197530864182,0,0,0.030864197530864182,24.66049382716048,0)" xlink:href="#az"/><use transform="matrix(0.030864197530864182,0,0,0.030864197530864182,30.833333333333314,0)" xlink:href="#aJ"/></g><g id="r"><use transform="matrix(0.030864197530864182,0,0,0.030864197530864182,0,0)" xlink:href="#aE"/><use transform="matrix(0.030864197530864182,0,0,0.030864197530864182,5.555555555555553,0)" xlink:href="#aH"/><use transform="matrix(0.030864197530864182,0,0,0.030864197530864182,11.728395061728389,0)" xlink:href="#aJ"/><use transform="matrix(0.030864197530864182,0,0,0.030864197530864182,17.901234567901227,0)" xlink:href="#ar"/></g><g id="s"><use transform="matrix(0.030864197530864182,0,0,0.030864197530864182,0,0)" xlink:href="#av"/><use transform="matrix(0.030864197530864182,0,0,0.030864197530864182,6.172839506172837,0)" xlink:href="#aq"/></g><path fill="#c92d39" d="M85-194c31 0 48 13 60 33l-1-100h32l1 261h-30c-2-10 0-23-3-31C134-8 116 4 85 4 32 4 16-35 15-94c0-66 23-100 70-100zm9 24c-40 0-46 34-46 75 0 40 6 74 45 74 42 0 51-32 51-76 0-42-9-74-50-73" id="aK"/><g id="t"><use transform="matrix(0.030864197530864182,0,0,0.030864197530864182,0,0)" xlink:href="#aE"/><use transform="matrix(0.030864197530864182,0,0,0.030864197530864182,5.555555555555553,0)" xlink:href="#aD"/><use transform="matrix(0.030864197530864182,0,0,0.030864197530864182,7.993827160493823,0)" xlink:href="#az"/><use transform="matrix(0.030864197530864182,0,0,0.030864197530864182,14.16666666666666,0)" xlink:href="#ap"/><use transform="matrix(0.030864197530864182,0,0,0.030864197530864182,19.722222222222214,0)" xlink:href="#aq"/><use transform="matrix(0.030864197530864182,0,0,0.030864197530864182,25.89506172839505,0)" xlink:href="#aK"/><use transform="matrix(0.030864197530864182,0,0,0.030864197530864182,32.067901234567884,0)" xlink:href="#aC"/></g><path fill="#19967d" d="M59-47c-2 24 18 29 38 22v24C64 9 27 4 27-40v-127H5v-23h24l9-43h21v43h35v23H59v120" id="aL"/><path fill="#19967d" d="M100-194c63 0 86 42 84 106H49c0 40 14 67 53 68 26 1 43-12 49-29l28 8c-11 28-37 45-77 45C44 4 14-33 15-96c1-61 26-98 85-98zm52 81c6-60-76-77-97-28-3 7-6 17-6 28h103" id="aM"/><path fill="#19967d" d="M210-169c-67 3-38 105-44 169h-31v-121c0-29-5-50-35-48C34-165 62-65 56 0H25l-1-190h30c1 10-1 24 2 32 10-44 99-50 107 0 11-21 27-35 58-36 85-2 47 119 55 194h-31v-121c0-29-5-49-35-48" id="aN"/><path fill="#19967d" d="M115-194c55 1 70 41 70 98S169 2 115 4C84 4 66-9 55-30l1 105H24l-1-265h31l2 30c10-21 28-34 59-34zm-8 174c40 0 45-34 45-75s-6-73-45-74c-42 0-51 32-51 76 0 43 10 73 51 73" id="aO"/><path fill="#19967d" d="M24 0v-261h32V0H24" id="aP"/><path fill="#19967d" d="M141-36C126-15 110 5 73 4 37 3 15-17 15-53c-1-64 63-63 125-63 3-35-9-54-41-54-24 1-41 7-42 31l-33-3c5-37 33-52 76-52 45 0 72 20 72 64v82c-1 20 7 32 28 27v20c-31 9-61-2-59-35zM48-53c0 20 12 33 32 33 41-3 63-29 60-74-43 2-92-5-92 41" id="aQ"/><path fill="#19967d" d="M233-177c-1 41-23 64-60 70L243 0h-38l-65-103H63V0H30v-248c88 3 205-21 203 71zM63-129c60-2 137 13 137-47 0-61-80-42-137-45v92" id="aR"/><path fill="#19967d" d="M117-194c89-4 53 116 60 194h-32v-121c0-31-8-49-39-48C34-167 62-67 57 0H25l-1-190h30c1 10-1 24 2 32 11-22 29-35 61-36" id="aS"/><path fill="#19967d" d="M85-194c31 0 48 13 60 33l-1-100h32l1 261h-30c-2-10 0-23-3-31C134-8 116 4 85 4 32 4 16-35 15-94c0-66 23-100 70-100zm9 24c-40 0-46 34-46 75 0 40 6 74 45 74 42 0 51-32 51-76 0-42-9-74-50-73" id="aT"/><path fill="#19967d" d="M114-163C36-179 61-72 57 0H25l-1-190h30c1 12-1 29 2 39 6-27 23-49 58-41v29" id="aU"/><path fill="#19967d" d="M87 75C49 33 22-17 22-94c0-76 28-126 65-167h31c-38 41-64 92-64 168S80 34 118 75H87" id="aV"/><path fill="#19967d" d="M109-170H84l-4-78h32zm-65 0H19l-4-78h33" id="aW"/><path fill="#19967d" d="M84 4C-5 8 30-112 23-190h32v120c0 31 7 50 39 49 72-2 45-101 50-169h31l1 190h-30c-1-10 1-25-2-33-11 22-28 36-60 37" id="aX"/><path fill="#19967d" d="M96-169c-40 0-48 33-48 73s9 75 48 75c24 0 41-14 43-38l32 2c-6 37-31 61-74 61-59 0-76-41-82-99-10-93 101-131 147-64 4 7 5 14 7 22l-32 3c-4-21-16-35-41-35" id="aY"/><path fill="#19967d" d="M24-231v-30h32v30H24zM24 0v-190h32V0H24" id="aZ"/><path fill="#19967d" d="M100-194c62-1 85 37 85 99 1 63-27 99-86 99S16-35 15-95c0-66 28-99 85-99zM99-20c44 1 53-31 53-75 0-43-8-75-51-75s-53 32-53 75 10 74 51 75" id="ba"/><path fill="#19967d" d="M30-248c118-7 216 8 213 122C240-48 200 0 122 0H30v-248zM63-27c89 8 146-16 146-99s-60-101-146-95v194" id="bb"/><path fill="#19967d" d="M135-143c-3-34-86-38-87 0 15 53 115 12 119 90S17 21 10-45l28-5c4 36 97 45 98 0-10-56-113-15-118-90-4-57 82-63 122-42 12 7 21 19 24 35" id="bc"/><path fill="#19967d" d="M33 0v-38h34V0H33" id="bd"/><path fill="#19967d" d="M106-169C34-169 62-67 57 0H25v-261h32l-1 103c12-21 28-36 61-36 89 0 53 116 60 194h-32v-121c2-32-8-49-39-48" id="be"/><path fill="#19967d" d="M33-261c38 41 65 92 65 168S71 34 33 75H2C39 34 66-17 66-93S39-220 2-261h31" id="bf"/><g id="u"><use transform="matrix(0.030864197530864182,0,0,0.030864197530864182,0,0)" xlink:href="#aL"/><use transform="matrix(0.030864197530864182,0,0,0.030864197530864182,3.0864197530864184,0)" xlink:href="#aM"/><use transform="matrix(0.030864197530864182,0,0,0.030864197530864182,9.259259259259256,0)" xlink:href="#aN"/><use transform="matrix(0.030864197530864182,0,0,0.030864197530864182,18.487654320987644,0)" xlink:href="#aO"/><use transform="matrix(0.030864197530864182,0,0,0.030864197530864182,24.66049382716048,0)" xlink:href="#aP"/><use transform="matrix(0.030864197530864182,0,0,0.030864197530864182,27.09876543209875,0)" xlink:href="#aQ"/><use transform="matrix(0.030864197530864182,0,0,0.030864197530864182,33.27160493827159,0)" xlink:href="#aL"/><use transform="matrix(0.030864197530864182,0,0,0.030864197530864182,36.358024691358004,0)" xlink:href="#aM"/><use transform="matrix(0.030864197530864182,0,0,0.030864197530864182,42.53086419753084,0)" xlink:href="#aR"/><use transform="matrix(0.030864197530864182,0,0,0.030864197530864182,50.52469135802466,0)" xlink:href="#aM"/><use transform="matrix(0.030864197530864182,0,0,0.030864197530864182,56.697530864197496,0)" xlink:href="#aS"/><use transform="matrix(0.030864197530864182,0,0,0.030864197530864182,62.87037037037033,0)" xlink:href="#aT"/><use transform="matrix(0.030864197530864182,0,0,0.030864197530864182,69.04320987654317,0)" xlink:href="#aM"/><use transform="matrix(0.030864197530864182,0,0,0.030864197530864182,75.21604938271601,0)" xlink:href="#aU"/><use transform="matrix(0.030864197530864182,0,0,0.030864197530864182,78.88888888888884,0)" xlink:href="#aM"/><use transform="matrix(0.030864197530864182,0,0,0.030864197530864182,85.06172839506168,0)" xlink:href="#aU"/><use transform="matrix(0.030864197530864182,0,0,0.030864197530864182,88.73456790123451,0)" xlink:href="#aV"/><use transform="matrix(0.030864197530864182,0,0,0.030864197530864182,92.40740740740735,0)" xlink:href="#aW"/><use transform="matrix(0.030864197530864182,0,0,0.030864197530864182,96.3271604938271,0)" xlink:href="#aQ"/><use transform="matrix(0.030864197530864182,0,0,0.030864197530864182,102.49999999999993,0)" xlink:href="#aX"/><use transform="matrix(0.030864197530864182,0,0,0.030864197530864182,108.67283950617276,0)" xlink:href="#aY"/><use transform="matrix(0.030864197530864182,0,0,0.030864197530864182,114.22839506172832,0)" xlink:href="#aL"/><use transform="matrix(0.030864197530864182,0,0,0.030864197530864182,117.31481481481474,0)" xlink:href="#aZ"/><use transform="matrix(0.030864197530864182,0,0,0.030864197530864182,119.753086419753,0)" xlink:href="#ba"/><use transform="matrix(0.030864197530864182,0,0,0.030864197530864182,125.92592592592584,0)" xlink:href="#aS"/><use transform="matrix(0.030864197530864182,0,0,0.030864197530864182,132.09876543209867,0)" xlink:href="#bb"/><use transform="matrix(0.030864197530864182,0,0,0.030864197530864182,140.0925925925925,0)" xlink:href="#aM"/><use transform="matrix(0.030864197530864182,0,0,0.030864197530864182,146.26543209876533,0)" xlink:href="#aL"/><use transform="matrix(0.030864197530864182,0,0,0.030864197530864182,149.35185185185176,0)" xlink:href="#aQ"/><use transform="matrix(0.030864197530864182,0,0,0.030864197530864182,155.5246913580246,0)" xlink:href="#aZ"/><use transform="matrix(0.030864197530864182,0,0,0.030864197530864182,157.96296296296288,0)" xlink:href="#aP"/><use transform="matrix(0.030864197530864182,0,0,0.030864197530864182,160.40123456790116,0)" xlink:href="#bc"/><use transform="matrix(0.030864197530864182,0,0,0.030864197530864182,165.9567901234567,0)" xlink:href="#bd"/><use transform="matrix(0.030864197530864182,0,0,0.030864197530864182,169.04320987654313,0)" xlink:href="#be"/><use transform="matrix(0.030864197530864182,0,0,0.030864197530864182,175.21604938271597,0)" xlink:href="#aL"/><use transform="matrix(0.030864197530864182,0,0,0.030864197530864182,178.3024691358024,0)" xlink:href="#aN"/><use transform="matrix(0.030864197530864182,0,0,0.030864197530864182,187.53086419753078,0)" xlink:href="#aP"/><use transform="matrix(0.030864197530864182,0,0,0.030864197530864182,189.96913580246905,0)" xlink:href="#bf"/></g><g id="v"><use transform="matrix(0.06172839506172839,0,0,0.06172839506172839,0,0)" xlink:href="#R"/><use transform="matrix(0.06172839506172839,0,0,0.06172839506172839,17.28395061728395,0)" xlink:href="#S"/><use transform="matrix(0.06172839506172839,0,0,0.06172839506172839,23.02469135802469,0)" xlink:href="#S"/><use transform="matrix(0.06172839506172839,0,0,0.06172839506172839,29.197530864197528,0)" xlink:href="#P"/><use transform="matrix(0.06172839506172839,0,0,0.06172839506172839,41.54320987654321,0)" xlink:href="#T"/><use transform="matrix(0.06172839506172839,0,0,0.06172839506172839,48.888888888888886,0)" xlink:href="#M"/><use transform="matrix(0.06172839506172839,0,0,0.06172839506172839,55.06172839506173,0)" xlink:href="#af"/><use transform="matrix(0.06172839506172839,0,0,0.06172839506172839,71.04938271604938,0)" xlink:href="#X"/></g><path d="M177-190C167-65 218 103 67 71c-23-6-38-20-44-43l32-5c15 47 100 32 89-28v-30C133-14 115 1 83 1 29 1 15-40 15-95c0-56 16-97 71-98 29-1 48 16 59 35 1-10 0-23 2-32h30zM94-22c36 0 50-32 50-73 0-42-14-75-50-75-39 0-46 34-46 75s6 73 46 73" id="bg"/><path d="M100-194c63 0 86 42 84 106H49c0 40 14 67 53 68 26 1 43-12 49-29l28 8c-11 28-37 45-77 45C44 4 14-33 15-96c1-61 26-98 85-98zm52 81c6-60-76-77-97-28-3 7-6 17-6 28h103" id="bh"/><path d="M59-47c-2 24 18 29 38 22v24C64 9 27 4 27-40v-127H5v-23h24l9-43h21v43h35v23H59v120" id="bi"/><path d="M140-251c81 0 123 46 123 126C263-46 219 4 140 4 59 4 17-45 17-125s42-126 123-126zm0 227c63 0 89-41 89-101s-29-99-89-99c-61 0-89 39-89 99S79-25 140-24" id="bj"/><path d="M101-234c-31-9-42 10-38 44h38v23H63V0H32v-167H5v-23h27c-7-52 17-82 69-68v24" id="bk"/><path d="M114-163C36-179 61-72 57 0H25l-1-190h30c1 12-1 29 2 39 6-27 23-49 58-41v29" id="bl"/><path d="M135-143c-3-34-86-38-87 0 15 53 115 12 119 90S17 21 10-45l28-5c4 36 97 45 98 0-10-56-113-15-118-90-4-57 82-63 122-42 12 7 21 19 24 35" id="bm"/><path d="M160-131c35 5 61 23 61 61C221 17 115-2 30 0v-248c76 3 177-17 177 60 0 33-19 50-47 57zm-97-11c50-1 110 9 110-42 0-47-63-36-110-37v79zm0 115c55-2 124 14 124-45 0-56-70-42-124-44v89" id="bn"/><path d="M179-190L93 31C79 59 56 82 12 73V49c39 6 53-20 64-50L1-190h34L92-34l54-156h33" id="bo"/><path d="M33 0v-248h34V0H33" id="bp"/><path d="M85-194c31 0 48 13 60 33l-1-100h32l1 261h-30c-2-10 0-23-3-31C134-8 116 4 85 4 32 4 16-35 15-94c0-66 23-100 70-100zm9 24c-40 0-46 34-46 75 0 40 6 74 45 74 42 0 51-32 51-76 0-42-9-74-50-73" id="bq"/><path d="M87 75C49 33 22-17 22-94c0-76 28-126 65-167h31c-38 41-64 92-64 168S80 34 118 75H87" id="br"/><path d="M141-36C126-15 110 5 73 4 37 3 15-17 15-53c-1-64 63-63 125-63 3-35-9-54-41-54-24 1-41 7-42 31l-33-3c5-37 33-52 76-52 45 0 72 20 72 64v82c-1 20 7 32 28 27v20c-31 9-61-2-59-35zM48-53c0 20 12 33 32 33 41-3 63-29 60-74-43 2-92-5-92 41" id="bs"/><path d="M84 4C-5 8 30-112 23-190h32v120c0 31 7 50 39 49 72-2 45-101 50-169h31l1 190h-30c-1-10 1-25-2-33-11 22-28 36-60 37" id="bt"/><path d="M96-169c-40 0-48 33-48 73s9 75 48 75c24 0 41-14 43-38l32 2c-6 37-31 61-74 61-59 0-76-41-82-99-10-93 101-131 147-64 4 7 5 14 7 22l-32 3c-4-21-16-35-41-35" id="bu"/><path d="M24-231v-30h32v30H24zM24 0v-190h32V0H24" id="bv"/><path d="M100-194c62-1 85 37 85 99 1 63-27 99-86 99S16-35 15-95c0-66 28-99 85-99zM99-20c44 1 53-31 53-75 0-43-8-75-51-75s-53 32-53 75 10 74 51 75" id="bw"/><path d="M117-194c89-4 53 116 60 194h-32v-121c0-31-8-49-39-48C34-167 62-67 57 0H25l-1-190h30c1 10-1 24 2 32 11-22 29-35 61-36" id="bx"/><path d="M33-261c38 41 65 92 65 168S71 34 33 75H2C39 34 66-17 66-93S39-220 2-261h31" id="by"/><g id="w"><use transform="matrix(0.030864197530864182,0,0,0.030864197530864182,0,0)" xlink:href="#bg"/><use transform="matrix(0.030864197530864182,0,0,0.030864197530864182,6.172839506172837,0)" xlink:href="#bh"/><use transform="matrix(0.030864197530864182,0,0,0.030864197530864182,12.345679012345673,0)" xlink:href="#bi"/><use transform="matrix(0.030864197530864182,0,0,0.030864197530864182,15.432098765432091,0)" xlink:href="#bj"/><use transform="matrix(0.030864197530864182,0,0,0.030864197530864182,24.074074074074062,0)" xlink:href="#bk"/><use transform="matrix(0.030864197530864182,0,0,0.030864197530864182,26.94444444444443,0)" xlink:href="#bk"/><use transform="matrix(0.030864197530864182,0,0,0.030864197530864182,30.030864197530846,0)" xlink:href="#bh"/><use transform="matrix(0.030864197530864182,0,0,0.030864197530864182,36.20370370370368,0)" xlink:href="#bl"/><use transform="matrix(0.030864197530864182,0,0,0.030864197530864182,39.876543209876516,0)" xlink:href="#bi"/><use transform="matrix(0.030864197530864182,0,0,0.030864197530864182,42.96296296296293,0)" xlink:href="#bm"/><use transform="matrix(0.030864197530864182,0,0,0.030864197530864182,48.51851851851848,0)" xlink:href="#bn"/><use transform="matrix(0.030864197530864182,0,0,0.030864197530864182,55.92592592592589,0)" xlink:href="#bo"/><use transform="matrix(0.030864197530864182,0,0,0.030864197530864182,61.48148148148144,0)" xlink:href="#bp"/><use transform="matrix(0.030864197530864182,0,0,0.030864197530864182,64.56790123456786,0)" xlink:href="#bq"/><use transform="matrix(0.030864197530864182,0,0,0.030864197530864182,70.74074074074069,0)" xlink:href="#br"/><use transform="matrix(0.030864197530864182,0,0,0.030864197530864182,74.41358024691353,0)" xlink:href="#bs"/><use transform="matrix(0.030864197530864182,0,0,0.030864197530864182,80.58641975308636,0)" xlink:href="#bt"/><use transform="matrix(0.030864197530864182,0,0,0.030864197530864182,86.7592592592592,0)" xlink:href="#bu"/><use transform="matrix(0.030864197530864182,0,0,0.030864197530864182,92.31481481481475,0)" xlink:href="#bi"/><use transform="matrix(0.030864197530864182,0,0,0.030864197530864182,95.40123456790117,0)" xlink:href="#bv"/><use transform="matrix(0.030864197530864182,0,0,0.030864197530864182,97.83950617283944,0)" xlink:href="#bw"/><use transform="matrix(0.030864197530864182,0,0,0.030864197530864182,104.01234567901227,0)" xlink:href="#bx"/><use transform="matrix(0.030864197530864182,0,0,0.030864197530864182,110.1851851851851,0)" xlink:href="#bp"/><use transform="matrix(0.030864197530864182,0,0,0.030864197530864182,113.27160493827152,0)" xlink:href="#bq"/><use transform="matrix(0.030864197530864182,0,0,0.030864197530864182,119.44444444444436,0)" xlink:href="#by"/></g><path d="M205 0l-28-72H64L36 0H1l101-248h38L239 0h-34zm-38-99l-47-123c-12 45-31 82-46 123h93" id="bz"/><g id="x"><use transform="matrix(0.030864197530864182,0,0,0.030864197530864182,0,0)" xlink:href="#bg"/><use transform="matrix(0.030864197530864182,0,0,0.030864197530864182,6.172839506172837,0)" xlink:href="#bh"/><use transform="matrix(0.030864197530864182,0,0,0.030864197530864182,12.345679012345673,0)" xlink:href="#bi"/><use transform="matrix(0.030864197530864182,0,0,0.030864197530864182,15.432098765432091,0)" xlink:href="#bz"/><use transform="matrix(0.030864197530864182,0,0,0.030864197530864182,22.839506172839496,0)" xlink:href="#bt"/><use transform="matrix(0.030864197530864182,0,0,0.030864197530864182,29.012345679012334,0)" xlink:href="#bu"/><use transform="matrix(0.030864197530864182,0,0,0.030864197530864182,34.567901234567884,0)" xlink:href="#bi"/><use transform="matrix(0.030864197530864182,0,0,0.030864197530864182,37.6543209876543,0)" xlink:href="#bv"/><use transform="matrix(0.030864197530864182,0,0,0.030864197530864182,40.092592592592574,0)" xlink:href="#bw"/><use transform="matrix(0.030864197530864182,0,0,0.030864197530864182,46.26543209876541,0)" xlink:href="#bx"/><use transform="matrix(0.030864197530864182,0,0,0.030864197530864182,52.438271604938244,0)" xlink:href="#bn"/><use transform="matrix(0.030864197530864182,0,0,0.030864197530864182,59.84567901234565,0)" xlink:href="#bo"/><use transform="matrix(0.030864197530864182,0,0,0.030864197530864182,65.4012345679012,0)" xlink:href="#bp"/><use transform="matrix(0.030864197530864182,0,0,0.030864197530864182,68.48765432098762,0)" xlink:href="#bq"/><use transform="matrix(0.030864197530864182,0,0,0.030864197530864182,74.66049382716045,0)" xlink:href="#br"/><use transform="matrix(0.030864197530864182,0,0,0.030864197530864182,78.33333333333329,0)" xlink:href="#bs"/><use transform="matrix(0.030864197530864182,0,0,0.030864197530864182,84.50617283950612,0)" xlink:href="#bt"/><use transform="matrix(0.030864197530864182,0,0,0.030864197530864182,90.67901234567896,0)" xlink:href="#bu"/><use transform="matrix(0.030864197530864182,0,0,0.030864197530864182,96.23456790123451,0)" xlink:href="#bi"/><use transform="matrix(0.030864197530864182,0,0,0.030864197530864182,99.32098765432093,0)" xlink:href="#bv"/><use transform="matrix(0.030864197530864182,0,0,0.030864197530864182,101.7592592592592,0)" xlink:href="#bw"/><use transform="matrix(0.030864197530864182,0,0,0.030864197530864182,107.93209876543203,0)" xlink:href="#bx"/><use transform="matrix(0.030864197530864182,0,0,0.030864197530864182,114.10493827160487,0)" xlink:href="#bp"/><use transform="matrix(0.030864197530864182,0,0,0.030864197530864182,117.19135802469128,0)" xlink:href="#bq"/><use transform="matrix(0.030864197530864182,0,0,0.030864197530864182,123.36419753086412,0)" xlink:href="#by"/></g><path d="M115-194c53 0 69 39 70 98 0 66-23 100-70 100C84 3 66-7 56-30L54 0H23l1-261h32v101c10-23 28-34 59-34zm-8 174c40 0 45-34 45-75 0-40-5-75-45-74-42 0-51 32-51 76 0 43 10 73 51 73" id="bA"/><path d="M109-170H84l-4-78h32zm-65 0H19l-4-78h33" id="bB"/><path d="M68-38c1 34 0 65-14 84H32c9-13 17-26 17-46H33v-38h35" id="bC"/><g id="y"><use transform="matrix(0.030864197530864182,0,0,0.030864197530864182,0,0)" xlink:href="#bm"/><use transform="matrix(0.030864197530864182,0,0,0.030864197530864182,5.555555555555553,0)" xlink:href="#bh"/><use transform="matrix(0.030864197530864182,0,0,0.030864197530864182,11.728395061728389,0)" xlink:href="#bi"/><use transform="matrix(0.030864197530864182,0,0,0.030864197530864182,14.814814814814806,0)" xlink:href="#bz"/><use transform="matrix(0.030864197530864182,0,0,0.030864197530864182,22.22222222222221,0)" xlink:href="#bi"/><use transform="matrix(0.030864197530864182,0,0,0.030864197530864182,25.30864197530863,0)" xlink:href="#bi"/><use transform="matrix(0.030864197530864182,0,0,0.030864197530864182,28.395061728395046,0)" xlink:href="#bl"/><use transform="matrix(0.030864197530864182,0,0,0.030864197530864182,32.067901234567884,0)" xlink:href="#bv"/><use transform="matrix(0.030864197530864182,0,0,0.030864197530864182,34.506172839506156,0)" xlink:href="#bA"/><use transform="matrix(0.030864197530864182,0,0,0.030864197530864182,40.67901234567899,0)" xlink:href="#bt"/><use transform="matrix(0.030864197530864182,0,0,0.030864197530864182,46.851851851851826,0)" xlink:href="#bi"/><use transform="matrix(0.030864197530864182,0,0,0.030864197530864182,49.938271604938244,0)" xlink:href="#bh"/><use transform="matrix(0.030864197530864182,0,0,0.030864197530864182,56.11111111111108,0)" xlink:href="#bm"/><use transform="matrix(0.030864197530864182,0,0,0.030864197530864182,61.66666666666663,0)" xlink:href="#br"/><use transform="matrix(0.030864197530864182,0,0,0.030864197530864182,65.33950617283946,0)" xlink:href="#bB"/><use transform="matrix(0.030864197530864182,0,0,0.030864197530864182,69.25925925925921,0)" xlink:href="#bs"/><use transform="matrix(0.030864197530864182,0,0,0.030864197530864182,75.43209876543204,0)" xlink:href="#bt"/><use transform="matrix(0.030864197530864182,0,0,0.030864197530864182,81.60493827160488,0)" xlink:href="#bu"/><use transform="matrix(0.030864197530864182,0,0,0.030864197530864182,87.16049382716044,0)" xlink:href="#bi"/><use transform="matrix(0.030864197530864182,0,0,0.030864197530864182,90.24691358024685,0)" xlink:href="#bv"/><use transform="matrix(0.030864197530864182,0,0,0.030864197530864182,92.68518518518512,0)" xlink:href="#bw"/><use transform="matrix(0.030864197530864182,0,0,0.030864197530864182,98.85802469135795,0)" xlink:href="#bx"/><use transform="matrix(0.030864197530864182,0,0,0.030864197530864182,105.03086419753079,0)" xlink:href="#bB"/><use transform="matrix(0.030864197530864182,0,0,0.030864197530864182,108.95061728395054,0)" xlink:href="#bC"/><use transform="matrix(0.030864197530864182,0,0,0.030864197530864182,112.03703703703695,0)" xlink:href="#bs"/><use transform="matrix(0.030864197530864182,0,0,0.030864197530864182,118.20987654320979,0)" xlink:href="#bt"/><use transform="matrix(0.030864197530864182,0,0,0.030864197530864182,124.38271604938262,0)" xlink:href="#bu"/><use transform="matrix(0.030864197530864182,0,0,0.030864197530864182,129.93827160493817,0)" xlink:href="#bi"/><use transform="matrix(0.030864197530864182,0,0,0.030864197530864182,133.0246913580246,0)" xlink:href="#bv"/><use transform="matrix(0.030864197530864182,0,0,0.030864197530864182,135.46296296296288,0)" xlink:href="#bw"/><use transform="matrix(0.030864197530864182,0,0,0.030864197530864182,141.6358024691357,0)" xlink:href="#bx"/><use transform="matrix(0.030864197530864182,0,0,0.030864197530864182,147.80864197530855,0)" xlink:href="#by"/></g><path d="M234-2c-28 10-62 0-77-18C117 19 8 12 13-65c3-43 29-61 60-76-25-40-17-114 47-108 35 3 59 15 59 50 0 44-40 53-71 69 14 26 32 50 51 72 14-21 24-43 30-72l26 8c-9 33-21 57-38 82 13 13 33 22 57 15v23zM97-151c25-10 52-18 56-48-1-18-13-29-33-29-42 0-39 50-23 77zM42-66c-3 51 71 58 98 28-20-24-41-51-56-80-23 10-40 24-42 52" id="bD"/><g id="z"><use transform="matrix(0.030864197530864182,0,0,0.030864197530864182,0,0)" xlink:href="#bD"/><use transform="matrix(0.030864197530864182,0,0,0.030864197530864182,7.407407407407404,0)" xlink:href="#bD"/></g><g id="A"><use transform="matrix(0.030864197530864182,0,0,0.030864197530864182,0,0)" xlink:href="#bm"/><use transform="matrix(0.030864197530864182,0,0,0.030864197530864182,5.555555555555553,0)" xlink:href="#bh"/><use transform="matrix(0.030864197530864182,0,0,0.030864197530864182,11.728395061728389,0)" xlink:href="#bi"/><use transform="matrix(0.030864197530864182,0,0,0.030864197530864182,14.814814814814806,0)" xlink:href="#bz"/><use transform="matrix(0.030864197530864182,0,0,0.030864197530864182,22.22222222222221,0)" xlink:href="#bi"/><use transform="matrix(0.030864197530864182,0,0,0.030864197530864182,25.30864197530863,0)" xlink:href="#bi"/><use transform="matrix(0.030864197530864182,0,0,0.030864197530864182,28.395061728395046,0)" xlink:href="#bl"/><use transform="matrix(0.030864197530864182,0,0,0.030864197530864182,32.067901234567884,0)" xlink:href="#bv"/><use transform="matrix(0.030864197530864182,0,0,0.030864197530864182,34.506172839506156,0)" xlink:href="#bA"/><use transform="matrix(0.030864197530864182,0,0,0.030864197530864182,40.67901234567899,0)" xlink:href="#bt"/><use transform="matrix(0.030864197530864182,0,0,0.030864197530864182,46.851851851851826,0)" xlink:href="#bi"/><use transform="matrix(0.030864197530864182,0,0,0.030864197530864182,49.938271604938244,0)" xlink:href="#bh"/><use transform="matrix(0.030864197530864182,0,0,0.030864197530864182,56.11111111111108,0)" xlink:href="#bm"/><use transform="matrix(0.030864197530864182,0,0,0.030864197530864182,61.66666666666663,0)" xlink:href="#br"/><use transform="matrix(0.030864197530864182,0,0,0.030864197530864182,65.33950617283946,0)" xlink:href="#bB"/><use transform="matrix(0.030864197530864182,0,0,0.030864197530864182,69.25925925925921,0)" xlink:href="#bw"/><use transform="matrix(0.030864197530864182,0,0,0.030864197530864182,75.43209876543204,0)" xlink:href="#bk"/><use transform="matrix(0.030864197530864182,0,0,0.030864197530864182,78.30246913580241,0)" xlink:href="#bk"/><use transform="matrix(0.030864197530864182,0,0,0.030864197530864182,81.38888888888883,0)" xlink:href="#bh"/><use transform="matrix(0.030864197530864182,0,0,0.030864197530864182,87.56172839506166,0)" xlink:href="#bl"/><use transform="matrix(0.030864197530864182,0,0,0.030864197530864182,91.2345679012345,0)" xlink:href="#bi"/><use transform="matrix(0.030864197530864182,0,0,0.030864197530864182,94.32098765432092,0)" xlink:href="#bm"/><use transform="matrix(0.030864197530864182,0,0,0.030864197530864182,99.87654320987647,0)" xlink:href="#bB"/><use transform="matrix(0.030864197530864182,0,0,0.030864197530864182,103.79629629629622,0)" xlink:href="#bC"/><use transform="matrix(0.030864197530864182,0,0,0.030864197530864182,106.88271604938264,0)" xlink:href="#bw"/><use transform="matrix(0.030864197530864182,0,0,0.030864197530864182,113.05555555555547,0)" xlink:href="#bk"/><use transform="matrix(0.030864197530864182,0,0,0.030864197530864182,115.92592592592584,0)" xlink:href="#bk"/><use transform="matrix(0.030864197530864182,0,0,0.030864197530864182,119.01234567901226,0)" xlink:href="#bh"/><use transform="matrix(0.030864197530864182,0,0,0.030864197530864182,125.18518518518509,0)" xlink:href="#bl"/><use transform="matrix(0.030864197530864182,0,0,0.030864197530864182,128.85802469135794,0)" xlink:href="#bi"/><use transform="matrix(0.030864197530864182,0,0,0.030864197530864182,131.94444444444437,0)" xlink:href="#bm"/><use transform="matrix(0.030864197530864182,0,0,0.030864197530864182,137.49999999999991,0)" xlink:href="#by"/></g><path fill="#19967d" d="M205 0l-28-72H64L36 0H1l101-248h38L239 0h-34zm-38-99l-47-123c-12 45-31 82-46 123h93" id="bE"/><path fill="#19967d" d="M212-179c-10-28-35-45-73-45-59 0-87 40-87 99 0 60 29 101 89 101 43 0 62-24 78-52l27 14C228-24 195 4 139 4 59 4 22-46 18-125c-6-104 99-153 187-111 19 9 31 26 39 46" id="bF"/><g id="B"><use transform="matrix(0.043209876543209874,0,0,0.043209876543209874,0,0)" xlink:href="#bc"/><use transform="matrix(0.043209876543209874,0,0,0.043209876543209874,7.777777777777778,0)" xlink:href="#aM"/><use transform="matrix(0.043209876543209874,0,0,0.043209876543209874,16.419753086419753,0)" xlink:href="#aL"/><use transform="matrix(0.043209876543209874,0,0,0.043209876543209874,20.74074074074074,0)" xlink:href="#bE"/><use transform="matrix(0.043209876543209874,0,0,0.043209876543209874,31.11111111111111,0)" xlink:href="#aX"/><use transform="matrix(0.043209876543209874,0,0,0.043209876543209874,39.75308641975309,0)" xlink:href="#aY"/><use transform="matrix(0.043209876543209874,0,0,0.043209876543209874,47.530864197530875,0)" xlink:href="#aL"/><use transform="matrix(0.043209876543209874,0,0,0.043209876543209874,51.85185185185186,0)" xlink:href="#aZ"/><use transform="matrix(0.043209876543209874,0,0,0.043209876543209874,55.26543209876544,0)" xlink:href="#ba"/><use transform="matrix(0.043209876543209874,0,0,0.043209876543209874,63.90740740740741,0)" xlink:href="#aS"/><use transform="matrix(0.043209876543209874,0,0,0.043209876543209874,72.5493827160494,0)" xlink:href="#bF"/><use transform="matrix(0.043209876543209874,0,0,0.043209876543209874,83.74074074074075,0)" xlink:href="#aP"/><use transform="matrix(0.043209876543209874,0,0,0.043209876543209874,87.15432098765433,0)" xlink:href="#ba"/><use transform="matrix(0.043209876543209874,0,0,0.043209876543209874,95.7962962962963,0)" xlink:href="#bc"/><use transform="matrix(0.043209876543209874,0,0,0.043209876543209874,103.57407407407406,0)" xlink:href="#aM"/><use transform="matrix(0.043209876543209874,0,0,0.043209876543209874,112.21604938271604,0)" xlink:href="#aT"/><use transform="matrix(0.043209876543209874,0,0,0.043209876543209874,120.85802469135801,0)" xlink:href="#aV"/><use transform="matrix(0.043209876543209874,0,0,0.043209876543209874,126,0)" xlink:href="#aZ"/><use transform="matrix(0.043209876543209874,0,0,0.043209876543209874,129.41358024691357,0)" xlink:href="#aT"/><use transform="matrix(0.043209876543209874,0,0,0.043209876543209874,138.05555555555554,0)" xlink:href="#bf"/></g><path fill="#c92d39" d="M3 75V52h41v-290H3v-23h71V75H3" id="bG"/><use transform="matrix(0.030864197530864182,0,0,0.030864197530864182,0,0)" xlink:href="#bG" id="C"/><path fill="#c92d39" d="M190 0L58-211 59 0H30v-248h39L202-35l-2-213h31V0h-41" id="bH"/><g id="D"><use transform="matrix(0.030864197530864182,0,0,0.030864197530864182,0,0)" xlink:href="#bH"/><use transform="matrix(0.030864197530864182,0,0,0.030864197530864182,7.993827160493823,0)" xlink:href="#az"/><use transform="matrix(0.030864197530864182,0,0,0.030864197530864182,14.16666666666666,0)" xlink:href="#aJ"/></g><path fill="#c92d39" d="M115-194c55 1 70 41 70 98S169 2 115 4C84 4 66-9 55-30l1 105H24l-1-265h31l2 30c10-21 28-34 59-34zm-8 174c40 0 45-34 45-75s-6-73-45-74c-42 0-51 32-51 76 0 43 10 73 51 73" id="bI"/><g id="E"><use transform="matrix(0.030864197530864182,0,0,0.030864197530864182,0,0)" xlink:href="#bI"/><use transform="matrix(0.030864197530864182,0,0,0.030864197530864182,6.172839506172837,0)" xlink:href="#aw"/><use transform="matrix(0.030864197530864182,0,0,0.030864197530864182,12.345679012345673,0)" xlink:href="#az"/><use transform="matrix(0.030864197530864182,0,0,0.030864197530864182,18.518518518518512,0)" xlink:href="#au"/></g><g id="F"><use transform="matrix(0.030864197530864182,0,0,0.030864197530864182,0,0)" xlink:href="#aE"/><use transform="matrix(0.030864197530864182,0,0,0.030864197530864182,5.555555555555553,0)" xlink:href="#aI"/><use transform="matrix(0.030864197530864182,0,0,0.030864197530864182,11.728395061728389,0)" xlink:href="#au"/><use transform="matrix(0.030864197530864182,0,0,0.030864197530864182,14.166666666666659,0)" xlink:href="#aw"/><use transform="matrix(0.030864197530864182,0,0,0.030864197530864182,20.339506172839496,0)" xlink:href="#aK"/><use transform="matrix(0.030864197530864182,0,0,0.030864197530864182,26.512345679012334,0)" xlink:href="#aq"/><use transform="matrix(0.030864197530864182,0,0,0.030864197530864182,32.68518518518517,0)" xlink:href="#at"/><use transform="matrix(0.030864197530864182,0,0,0.030864197530864182,36.358024691358004,0)" xlink:href="#aq"/></g><g id="G"><use transform="matrix(0.030864197530864182,0,0,0.030864197530864182,0,0)" xlink:href="#aH"/><use transform="matrix(0.030864197530864182,0,0,0.030864197530864182,6.172839506172837,0)" xlink:href="#ap"/><use transform="matrix(0.030864197530864182,0,0,0.030864197530864182,11.728395061728389,0)" xlink:href="#ar"/><use transform="matrix(0.030864197530864182,0,0,0.030864197530864182,14.814814814814806,0)" xlink:href="#aq"/></g><g id="H"><use transform="matrix(0.030864197530864182,0,0,0.030864197530864182,0,0)" xlink:href="#aH"/><use transform="matrix(0.030864197530864182,0,0,0.030864197530864182,6.172839506172837,0)" xlink:href="#aD"/><use transform="matrix(0.030864197530864182,0,0,0.030864197530864182,8.611111111111107,0)" xlink:href="#ar"/><use transform="matrix(0.030864197530864182,0,0,0.030864197530864182,11.697530864197525,0)" xlink:href="#at"/><use transform="matrix(0.030864197530864182,0,0,0.030864197530864182,15.370370370370363,0)" xlink:href="#aw"/><use transform="matrix(0.030864197530864182,0,0,0.030864197530864182,21.5432098765432,0)" xlink:href="#au"/></g></defs></g></svg>