<svg xmlns="http://www.w3.org/2000/svg" xmlns:xlink="http://www.w3.org/1999/xlink" xmlns:lucid="lucid" width="800" height="511"><g transform="translate(0 0)" lucid:page-tab-id="0_0"><path d="M100 180h240v60H100z" fill="none"/><use xlink:href="#a" transform="matrix(1,0,0,1,100,180) translate(84.50308641975309 33.111111111111114)"/><use xlink:href="#b" transform="matrix(1,0,0,1,100,180) translate(119.02777777777777 33.111111111111114)"/><use xlink:href="#c" transform="matrix(1,0,0,1,100,180) translate(131.3858024691358 33.111111111111114)"/><path d="M100 100h240v60H100z" fill="none"/><use xlink:href="#d" transform="matrix(1,0,0,1,100,100) translate(64.32407407407408 19.77777777777778)"/><use xlink:href="#e" transform="matrix(1,0,0,1,100,100) translate(79.27469135802468 43.77777777777778)"/><path d="M240 26c0-3.3 2.7-6 6-6h188c3.3 0 6 2.7 6 6v28c0 3.3-2.7 6-6 6H246c-3.3 0-6-2.7-6-6z" stroke="#99d2f2" stroke-width="3" fill="#fff"/><use xlink:href="#f" transform="matrix(1,0,0,1,252,32) translate(44.26543209876543 17.77777777777778)"/><path d="M460 26c0-3.3 2.7-6 6-6h188c3.3 0 6 2.7 6 6v28c0 3.3-2.7 6-6 6H466c-3.3 0-6-2.7-6-6z" stroke="#99d2f2" stroke-width="3" fill="#fff"/><use xlink:href="#g" transform="matrix(1,0,0,1,472,32) translate(48.52469135802468 17.77777777777778)"/><path d="M340 253.37v9.84m0 9.85v19.68m0 9.84v19.68m0 9.84v19.66m0 9.84v19.68m0 9.84v19.68m0 9.84v19.68m0 9.84V460" stroke="#5e5e5e" stroke-width="2" fill="none"/><path d="M341 253.4h-2v-1.03h2z" fill="#5e5e5e"/><path d="M340 475.26L335.36 461h9.28z" stroke="#5e5e5e" stroke-width="2" fill="#5e5e5e"/><path d="M340 62.5v9.17m0 9.16V100" stroke="#5e5e5e" stroke-width="2" fill="none"/><path d="M341 62.53h-2V61.5h2z" fill="#5e5e5e"/><path d="M340 115.26L335.36 101h9.28z" stroke="#5e5e5e" stroke-width="2" fill="#5e5e5e"/><path d="M560 62.5v10.12m0 10.12V103m0 10.1v20.25m0 10.12v20.24m0 10.14v20.24m0 10.12v20.24m0 10.12v20.25m0 10.13v20.24m0 10.12v10.1" stroke="#5e5e5e" stroke-width="2" fill="none"/><path d="M561 62.53h-2V61.5h2z" fill="#5e5e5e"/><path d="M560 320.68l-4.64-14.27h9.28z" stroke="#5e5e5e" stroke-width="2" fill="#5e5e5e"/><path d="M560 387.92v11.76m0 11.76v23.53m0 11.76v11.77" stroke="#5e5e5e" stroke-width="2" fill="none"/><path d="M561 387.94h-2v-1.02h2z" fill="#5e5e5e"/><path d="M560 473.76l-4.64-14.26h9.28z" stroke="#5e5e5e" stroke-width="2" fill="#5e5e5e"/><path d="M320 126c0-3.3 2.7-6 6-6h28c3.3 0 6 2.7 6 6v118.87c0 3.3-2.7 6-6 6h-28c-3.3 0-6-2.7-6-6zM540 331.42c0-3.32 2.7-6 6-6h28c3.3 0 6 2.68 6 6v48c0 3.3-2.7 6-6 6h-28c-3.3 0-6-2.7-6-6zM20 26c0-3.3 2.7-6 6-6h188c3.3 0 6 2.7 6 6v28c0 3.3-2.7 6-6 6H26c-3.3 0-6-2.7-6-6z" stroke="#99d2f2" stroke-width="3" fill="#fff"/><use xlink:href="#h" transform="matrix(1,0,0,1,32,32) translate(5.993827160493822 17.77777777777778)"/><path d="M120 442.5v19" stroke="#5e5e5e" stroke-width="2" fill="none"/><path d="M121 442.53h-2v-1.03h2z" fill="#5e5e5e"/><path d="M120 476.76l-4.64-14.26h9.28z" stroke="#5e5e5e" stroke-width="2" fill="#5e5e5e"/><path d="M120 62.5V75m0 12.5V100" stroke="#5e5e5e" stroke-width="2" fill="none"/><path d="M121 62.53h-2V61.5h2z" fill="#5e5e5e"/><path d="M120 115.26L115.36 101h9.28z" stroke="#5e5e5e" stroke-width="2" fill="#5e5e5e"/><path d="M100 126c0-3.3 2.7-6 6-6h28c3.3 0 6 2.7 6 6v308c0 3.3-2.7 6-6 6h-28c-3.3 0-6-2.7-6-6z" stroke="#99d2f2" stroke-width="3" fill="#fff"/><path d="M141 134.67h159M141.03 134.67H140" stroke="#5e5e5e" stroke-width="2" fill="none"/><path d="M315.26 134.67L301 139.3v-9.26z" stroke="#5e5e5e" stroke-width="2" fill="#5e5e5e"/><path d="M317.5 186.3H160" stroke="#5e5e5e" stroke-width="2" fill="none"/><path d="M318.5 187.3h-1.03v-2h1.03z" fill="#5e5e5e"/><path d="M144.74 186.3l14.26-4.64v9.27z" stroke="#5e5e5e" stroke-width="2" fill="#5e5e5e"/><path d="M140 249.13h154.06V260H140z" fill="none"/><use xlink:href="#i" transform="matrix(1,0,0,1,140,249.12952825976413) translate(25.87037037037041 7.111111111111106)"/><use xlink:href="#j" transform="matrix(1,0,0,1,140,249.12952825976413) translate(48.06790123456792 7.111111111111106)"/><use xlink:href="#k" transform="matrix(1,0,0,1,140,249.12952825976413) translate(60.90740740740742 7.111111111111106)"/><use xlink:href="#l" transform="matrix(1,0,0,1,140,249.12952825976413) translate(79.62345679012346 7.111111111111106)"/><use xlink:href="#m" transform="matrix(1,0,0,1,140,249.12952825976413) translate(90.21604938271604 7.111111111111106)"/><use xlink:href="#n" transform="matrix(1,0,0,1,140,249.12952825976413) translate(77.5 17.777777777777764)"/><path d="M142.5 358.55H520" stroke="#5e5e5e" stroke-width="2" fill="none"/><path d="M142.53 359.55h-1.03v-2h1.03z" fill="#5e5e5e"/><path d="M535.26 358.55L521 363.18v-9.27z" stroke="#5e5e5e" stroke-width="2" fill="#5e5e5e"/><path d="M142.97 325.42h154.06v20H142.97z" fill="none"/><use xlink:href="#o" transform="matrix(1,0,0,1,142.96818273613758,325.4159262856912) translate(53.21604938271607 7.111111111111106)"/><use xlink:href="#p" transform="matrix(1,0,0,1,142.96818273613758,325.4159262856912) translate(75.41358024691358 7.111111111111106)"/><use xlink:href="#q" transform="matrix(1,0,0,1,142.96818273613758,325.4159262856912) translate(85.53703703703704 7.111111111111106)"/><use xlink:href="#r" transform="matrix(1,0,0,1,142.96818273613758,325.4159262856912) translate(15.956790123456848 17.777777777777764)"/><path d="M385.94 86c0-3.3 2.68-6 6-6h128c3.3 0 6 2.7 6 6v28c0 3.3-2.7 6-6 6h-128c-3.32 0-6-2.7-6-6z" stroke="#000" stroke-width="3" fill="#fff"/><use xlink:href="#s" transform="matrix(1,0,0,1,397.93636547227516,92) translate(7.475308641975317 17.77777777777778)"/><path d="M460 302.5v10.6m0 10.6v21.2m0 10.6v21.2m0 10.6v21.2m0 10.6v21.2m0 10.6v10.6" stroke="#5e5e5e" stroke-width="2" fill="none"/><path d="M461 302.53h-2v-1.03h2z" fill="#5e5e5e"/><path d="M460 476.76l-4.64-14.26h9.28z" stroke="#5e5e5e" stroke-width="2" fill="#5e5e5e"/><path d="M460 122.5v10.83m0 10.84v21.66m0 10.84v21.66m0 10.83V220" stroke="#5e5e5e" stroke-width="2" fill="none"/><path d="M461 122.53h-2v-1.03h2z" fill="#5e5e5e"/><path d="M460 235.26L455.36 221h9.28z" stroke="#5e5e5e" stroke-width="2" fill="#5e5e5e"/><path d="M440 246c0-3.3 2.7-6 6-6h28c3.3 0 6 2.7 6 6v48c0 3.3-2.7 6-6 6h-28c-3.3 0-6-2.7-6-6z" stroke="#000" stroke-width="3" fill="#fff"/><path d="M142.5 261.25H420" stroke="#5e5e5e" stroke-width="2" fill="none"/><path d="M142.53 262.25h-1.03v-2h1.03z" fill="#5e5e5e"/><path d="M435.26 261.25L421 265.88v-9.27z" stroke="#5e5e5e" stroke-width="2" fill="#5e5e5e"/><path d="M360 280h154.06v10.87H360z" fill="none"/><use xlink:href="#t" transform="matrix(1,0,0,1,360,280) translate(15.685185185185233 7.111111111111106)"/><use xlink:href="#u" transform="matrix(1,0,0,1,360,280) translate(40.67283950617286 7.111111111111106)"/><use xlink:href="#v" transform="matrix(1,0,0,1,360,280) translate(72.25308641975309 7.111111111111106)"/><use xlink:href="#w" transform="matrix(1,0,0,1,360,280) translate(98.91975308641973 7.111111111111106)"/><use xlink:href="#x" transform="matrix(1,0,0,1,360,280) translate(105.2901234567901 7.111111111111106)"/><use xlink:href="#y" transform="matrix(1,0,0,1,360,280) translate(60.277777777777786 17.777777777777764)"/><use xlink:href="#z" transform="matrix(1,0,0,1,360,280) translate(71.0925925925926 17.777777777777764)"/><path d="M580 86c0-3.3 2.7-6 6-6h188c3.3 0 6 2.7 6 6v28c0 3.3-2.7 6-6 6H586c-3.3 0-6-2.7-6-6z" stroke="#99d2f2" stroke-width="3" fill="#fff"/><g><use xlink:href="#A" transform="matrix(1,0,0,1,592,92) translate(5.9938271604938365 17.77777777777778)"/></g><path d="M680 122.5v10.36m0 10.35v20.73m0 10.36V195m0 10.36v20.7m0 10.37v20.7m0 10.37v20.7m0 10.37v20.7m0 10.37V340" stroke="#5e5e5e" stroke-width="2" fill="none"/><path d="M681 122.53h-2v-1.03h2z" fill="#5e5e5e"/><path d="M680 355.26L675.36 341h9.28z" stroke="#5e5e5e" stroke-width="2" fill="#5e5e5e"/><path d="M680 422.5v13m0 13v13" stroke="#5e5e5e" stroke-width="2" fill="none"/><path d="M681 422.53h-2v-1.03h2z" fill="#5e5e5e"/><path d="M680 476.76l-4.64-14.26h9.28z" stroke="#5e5e5e" stroke-width="2" fill="#5e5e5e"/><path d="M660 366c0-3.3 2.7-6 6-6h28c3.3 0 6 2.7 6 6v48c0 3.3-2.7 6-6 6h-28c-3.3 0-6-2.7-6-6z" stroke="#99d2f2" stroke-width="3" fill="#fff"/><path d="M142.5 405.33H640" stroke="#5e5e5e" stroke-width="2" fill="none"/><path d="M142.53 406.33h-1.03v-2h1.03z" fill="#5e5e5e"/><path d="M655.26 405.33L641 409.97v-9.27z" stroke="#5e5e5e" stroke-width="2" fill="#5e5e5e"/><path d="M140 385.42h154.06v20H140z" fill="none"/><g><use xlink:href="#B" transform="matrix(1,0,0,1,140,385.4159262856912) translate(62.72222222222223 11.777777777777777)"/></g><defs><path fill="#333" d="M84 4C-5 8 30-112 23-190h32v120c0 31 7 50 39 49 72-2 45-101 50-169h31l1 190h-30c-1-10 1-25-2-33-11 22-28 36-60 37" id="C"/><path fill="#333" d="M135-143c-3-34-86-38-87 0 15 53 115 12 119 90S17 21 10-45l28-5c4 36 97 45 98 0-10-56-113-15-118-90-4-57 82-63 122-42 12 7 21 19 24 35" id="D"/><path fill="#333" d="M100-194c63 0 86 42 84 106H49c0 40 14 67 53 68 26 1 43-12 49-29l28 8c-11 28-37 45-77 45C44 4 14-33 15-96c1-61 26-98 85-98zm52 81c6-60-76-77-97-28-3 7-6 17-6 28h103" id="E"/><path fill="#333" d="M114-163C36-179 61-72 57 0H25l-1-190h30c1 12-1 29 2 39 6-27 23-49 58-41v29" id="F"/><g id="a"><use transform="matrix(0.04320987654320987,0,0,0.04320987654320987,0,0)" xlink:href="#C"/><use transform="matrix(0.04320987654320987,0,0,0.04320987654320987,8.641975308641973,0)" xlink:href="#D"/><use transform="matrix(0.04320987654320987,0,0,0.04320987654320987,16.41975308641975,0)" xlink:href="#E"/><use transform="matrix(0.04320987654320987,0,0,0.04320987654320987,25.061728395061724,0)" xlink:href="#F"/></g><path fill="#333" d="M32 76v-337h29V76H32" id="G"/><g id="b"><use transform="matrix(0.04320987654320987,0,0,0.04320987654320987,0,0)" xlink:href="#G"/><use transform="matrix(0.04320987654320987,0,0,0.04320987654320987,4.018518518518517,0)" xlink:href="#G"/></g><path fill="#333" d="M117-194c89-4 53 116 60 194h-32v-121c0-31-8-49-39-48C34-167 62-67 57 0H25l-1-190h30c1 10-1 24 2 32 11-22 29-35 61-36" id="H"/><path fill="#333" d="M24 0v-261h32V0H24" id="I"/><g id="c"><use transform="matrix(0.04320987654320987,0,0,0.04320987654320987,0,0)" xlink:href="#H"/><use transform="matrix(0.04320987654320987,0,0,0.04320987654320987,8.641975308641973,0)" xlink:href="#C"/><use transform="matrix(0.04320987654320987,0,0,0.04320987654320987,17.283950617283946,0)" xlink:href="#I"/><use transform="matrix(0.04320987654320987,0,0,0.04320987654320987,20.697530864197525,0)" xlink:href="#I"/></g><path fill="#333" d="M96-169c-40 0-48 33-48 73s9 75 48 75c24 0 41-14 43-38l32 2c-6 37-31 61-74 61-59 0-76-41-82-99-10-93 101-131 147-64 4 7 5 14 7 22l-32 3c-4-21-16-35-41-35" id="J"/><path fill="#333" d="M106-169C34-169 62-67 57 0H25v-261h32l-1 103c12-21 28-36 61-36 89 0 53 116 60 194h-32v-121c2-32-8-49-39-48" id="K"/><path fill="#333" d="M143 0L79-87 56-68V0H24v-261h32v163l83-92h37l-77 82L181 0h-38" id="L"/><path fill="#333" d="M232-93c-1 65-40 97-104 97C67 4 28-28 28-90v-158h33c8 89-33 224 67 224 102 0 64-133 71-224h33v155" id="M"/><path fill="#333" d="M30 0v-248h33v221h125V0H30" id="N"/><path fill="#333" d="M100-194c62-1 85 37 85 99 1 63-27 99-86 99S16-35 15-95c0-66 28-99 85-99zM99-20c44 1 53-31 53-75 0-43-8-75-51-75s-53 32-53 75 10 74 51 75" id="O"/><path fill="#333" d="M177-190C167-65 218 103 67 71c-23-6-38-20-44-43l32-5c15 47 100 32 89-28v-30C133-14 115 1 83 1 29 1 15-40 15-95c0-56 16-97 71-98 29-1 48 16 59 35 1-10 0-23 2-32h30zM94-22c36 0 50-32 50-73 0-42-14-75-50-75-39 0-46 34-46 75s6 73 46 73" id="P"/><path fill="#333" d="M24-231v-30h32v30H24zM24 0v-190h32V0H24" id="Q"/><g id="d"><use transform="matrix(0.04320987654320987,0,0,0.04320987654320987,0,0)" xlink:href="#J"/><use transform="matrix(0.04320987654320987,0,0,0.04320987654320987,7.777777777777776,0)" xlink:href="#K"/><use transform="matrix(0.04320987654320987,0,0,0.04320987654320987,16.41975308641975,0)" xlink:href="#E"/><use transform="matrix(0.04320987654320987,0,0,0.04320987654320987,25.061728395061724,0)" xlink:href="#J"/><use transform="matrix(0.04320987654320987,0,0,0.04320987654320987,32.8395061728395,0)" xlink:href="#L"/><use transform="matrix(0.04320987654320987,0,0,0.04320987654320987,40.61728395061728,0)" xlink:href="#M"/><use transform="matrix(0.04320987654320987,0,0,0.04320987654320987,51.80864197530863,0)" xlink:href="#D"/><use transform="matrix(0.04320987654320987,0,0,0.04320987654320987,59.58641975308641,0)" xlink:href="#E"/><use transform="matrix(0.04320987654320987,0,0,0.04320987654320987,68.22839506172838,0)" xlink:href="#F"/><use transform="matrix(0.04320987654320987,0,0,0.04320987654320987,73.37037037037035,0)" xlink:href="#N"/><use transform="matrix(0.04320987654320987,0,0,0.04320987654320987,82.01234567901233,0)" xlink:href="#O"/><use transform="matrix(0.04320987654320987,0,0,0.04320987654320987,90.6543209876543,0)" xlink:href="#P"/><use transform="matrix(0.04320987654320987,0,0,0.04320987654320987,99.29629629629628,0)" xlink:href="#Q"/><use transform="matrix(0.04320987654320987,0,0,0.04320987654320987,102.70987654320986,0)" xlink:href="#H"/></g><path fill="#333" d="M87 75C49 33 22-17 22-94c0-76 28-126 65-167h31c-38 41-64 92-64 168S80 34 118 75H87" id="R"/><path fill="#333" d="M210-169c-67 3-38 105-44 169h-31v-121c0-29-5-50-35-48C34-165 62-65 56 0H25l-1-190h30c1 10-1 24 2 32 10-44 99-50 107 0 11-21 27-35 58-36 85-2 47 119 55 194h-31v-121c0-29-5-49-35-48" id="S"/><path fill="#333" d="M141-36C126-15 110 5 73 4 37 3 15-17 15-53c-1-64 63-63 125-63 3-35-9-54-41-54-24 1-41 7-42 31l-33-3c5-37 33-52 76-52 45 0 72 20 72 64v82c-1 20 7 32 28 27v20c-31 9-61-2-59-35zM48-53c0 20 12 33 32 33 41-3 63-29 60-74-43 2-92-5-92 41" id="T"/><path fill="#333" d="M68-38c1 34 0 65-14 84H32c9-13 17-26 17-46H33v-38h35" id="U"/><path fill="#333" d="M115-194c55 1 70 41 70 98S169 2 115 4C84 4 66-9 55-30l1 105H24l-1-265h31l2 30c10-21 28-34 59-34zm-8 174c40 0 45-34 45-75s-6-73-45-74c-42 0-51 32-51 76 0 43 10 73 51 73" id="V"/><path fill="#333" d="M206 0h-36l-40-164L89 0H53L-1-190h32L70-26l43-164h34l41 164 42-164h31" id="W"/><path fill="#333" d="M33-261c38 41 65 92 65 168S71 34 33 75H2C39 34 66-17 66-93S39-220 2-261h31" id="X"/><g id="e"><use transform="matrix(0.04320987654320987,0,0,0.04320987654320987,0,0)" xlink:href="#R"/><use transform="matrix(0.04320987654320987,0,0,0.04320987654320987,5.141975308641975,0)" xlink:href="#E"/><use transform="matrix(0.04320987654320987,0,0,0.04320987654320987,13.783950617283947,0)" xlink:href="#S"/><use transform="matrix(0.04320987654320987,0,0,0.04320987654320987,26.70370370370369,0)" xlink:href="#T"/><use transform="matrix(0.04320987654320987,0,0,0.04320987654320987,35.34567901234567,0)" xlink:href="#Q"/><use transform="matrix(0.04320987654320987,0,0,0.04320987654320987,38.75925925925925,0)" xlink:href="#I"/><use transform="matrix(0.04320987654320987,0,0,0.04320987654320987,42.172839506172835,0)" xlink:href="#U"/><use transform="matrix(0.04320987654320987,0,0,0.04320987654320987,46.49382716049383,0)" xlink:href="#V"/><use transform="matrix(0.04320987654320987,0,0,0.04320987654320987,55.1358024691358,0)" xlink:href="#D"/><use transform="matrix(0.04320987654320987,0,0,0.04320987654320987,62.913580246913575,0)" xlink:href="#W"/><use transform="matrix(0.06172839506172839,0,0,0.06172839506172839,74.10493827160494,0)" xlink:href="#X"/></g><path fill="#333" d="M30-248c118-7 216 8 213 122C240-48 200 0 122 0H30v-248zM63-27c89 8 146-16 146-99s-60-101-146-95v194" id="Y"/><g id="f"><use transform="matrix(0.06172839506172839,0,0,0.06172839506172839,0,0)" xlink:href="#M"/><use transform="matrix(0.06172839506172839,0,0,0.06172839506172839,15.987654320987653,0)" xlink:href="#D"/><use transform="matrix(0.06172839506172839,0,0,0.06172839506172839,27.098765432098766,0)" xlink:href="#E"/><use transform="matrix(0.06172839506172839,0,0,0.06172839506172839,39.44444444444444,0)" xlink:href="#F"/><use transform="matrix(0.06172839506172839,0,0,0.06172839506172839,46.79012345679012,0)" xlink:href="#Y"/><use transform="matrix(0.06172839506172839,0,0,0.06172839506172839,62.77777777777777,0)" xlink:href="#T"/><use transform="matrix(0.06172839506172839,0,0,0.06172839506172839,75.12345679012346,0)" xlink:href="#O"/></g><path fill="#333" d="M185-189c-5-48-123-54-124 2 14 75 158 14 163 119 3 78-121 87-175 55-17-10-28-26-33-46l33-7c5 56 141 63 141-1 0-78-155-14-162-118-5-82 145-84 179-34 5 7 8 16 11 25" id="Z"/><g id="g"><use transform="matrix(0.06172839506172839,0,0,0.06172839506172839,0,0)" xlink:href="#Z"/><use transform="matrix(0.06172839506172839,0,0,0.06172839506172839,14.814814814814813,0)" xlink:href="#E"/><use transform="matrix(0.06172839506172839,0,0,0.06172839506172839,27.160493827160494,0)" xlink:href="#D"/><use transform="matrix(0.06172839506172839,0,0,0.06172839506172839,38.27160493827161,0)" xlink:href="#D"/><use transform="matrix(0.06172839506172839,0,0,0.06172839506172839,49.38271604938272,0)" xlink:href="#Q"/><use transform="matrix(0.06172839506172839,0,0,0.06172839506172839,54.25925925925927,0)" xlink:href="#O"/><use transform="matrix(0.06172839506172839,0,0,0.06172839506172839,66.60493827160495,0)" xlink:href="#H"/></g><path fill="#333" d="M212-179c-10-28-35-45-73-45-59 0-87 40-87 99 0 60 29 101 89 101 43 0 62-24 78-52l27 14C228-24 195 4 139 4 59 4 22-46 18-125c-6-104 99-153 187-111 19 9 31 26 39 46" id="aa"/><path fill="#333" d="M59-47c-2 24 18 29 38 22v24C64 9 27 4 27-40v-127H5v-23h24l9-43h21v43h35v23H59v120" id="ab"/><g id="h"><use transform="matrix(0.06172839506172839,0,0,0.06172839506172839,0,0)" xlink:href="#aa"/><use transform="matrix(0.06172839506172839,0,0,0.06172839506172839,15.987654320987653,0)" xlink:href="#K"/><use transform="matrix(0.06172839506172839,0,0,0.06172839506172839,28.333333333333332,0)" xlink:href="#E"/><use transform="matrix(0.06172839506172839,0,0,0.06172839506172839,40.67901234567901,0)" xlink:href="#J"/><use transform="matrix(0.06172839506172839,0,0,0.06172839506172839,51.79012345679013,0)" xlink:href="#L"/><use transform="matrix(0.06172839506172839,0,0,0.06172839506172839,62.90123456790124,0)" xlink:href="#N"/><use transform="matrix(0.06172839506172839,0,0,0.06172839506172839,75.24691358024693,0)" xlink:href="#O"/><use transform="matrix(0.06172839506172839,0,0,0.06172839506172839,87.59259259259261,0)" xlink:href="#P"/><use transform="matrix(0.06172839506172839,0,0,0.06172839506172839,99.9382716049383,0)" xlink:href="#Q"/><use transform="matrix(0.06172839506172839,0,0,0.06172839506172839,104.81481481481484,0)" xlink:href="#H"/><use transform="matrix(0.06172839506172839,0,0,0.06172839506172839,117.16049382716052,0)" xlink:href="#Y"/><use transform="matrix(0.06172839506172839,0,0,0.06172839506172839,133.14814814814818,0)" xlink:href="#T"/><use transform="matrix(0.06172839506172839,0,0,0.06172839506172839,145.49382716049385,0)" xlink:href="#ab"/><use transform="matrix(0.06172839506172839,0,0,0.06172839506172839,151.66666666666669,0)" xlink:href="#T"/></g><path fill="#c92d39" d="M26 75v-336h71v23H56V52h41v23H26" id="ac"/><path fill="#c92d39" d="M84 4C-5 8 30-112 23-190h32v120c0 31 7 50 39 49 72-2 45-101 50-169h31l1 190h-30c-1-10 1-25-2-33-11 22-28 36-60 37" id="ad"/><path fill="#c92d39" d="M135-143c-3-34-86-38-87 0 15 53 115 12 119 90S17 21 10-45l28-5c4 36 97 45 98 0-10-56-113-15-118-90-4-57 82-63 122-42 12 7 21 19 24 35" id="ae"/><path fill="#c92d39" d="M100-194c63 0 86 42 84 106H49c0 40 14 67 53 68 26 1 43-12 49-29l28 8c-11 28-37 45-77 45C44 4 14-33 15-96c1-61 26-98 85-98zm52 81c6-60-76-77-97-28-3 7-6 17-6 28h103" id="af"/><path fill="#c92d39" d="M114-163C36-179 61-72 57 0H25l-1-190h30c1 12-1 29 2 39 6-27 23-49 58-41v29" id="ag"/><g id="i"><use transform="matrix(0.02469135802469134,0,0,0.02469135802469134,0,0)" xlink:href="#ac"/><use transform="matrix(0.02469135802469134,0,0,0.02469135802469134,2.469135802469134,0)" xlink:href="#ad"/><use transform="matrix(0.02469135802469134,0,0,0.02469135802469134,7.407407407407402,0)" xlink:href="#ae"/><use transform="matrix(0.02469135802469134,0,0,0.02469135802469134,11.851851851851842,0)" xlink:href="#af"/><use transform="matrix(0.02469135802469134,0,0,0.02469135802469134,16.79012345679011,0)" xlink:href="#ag"/></g><path fill="#c92d39" d="M18-150v-26h174v26H18zm0 90v-26h174v26H18" id="ah"/><g id="j"><use transform="matrix(0.02469135802469134,0,0,0.02469135802469134,0,0)" xlink:href="#ah"/><use transform="matrix(0.02469135802469134,0,0,0.02469135802469134,5.185185185185182,0)" xlink:href="#ah"/></g><path fill="#c92d39" d="M117-194c89-4 53 116 60 194h-32v-121c0-31-8-49-39-48C34-167 62-67 57 0H25l-1-190h30c1 10-1 24 2 32 11-22 29-35 61-36" id="ai"/><path fill="#c92d39" d="M24 0v-261h32V0H24" id="aj"/><path fill="#c92d39" d="M3 75V52h41v-290H3v-23h71V75H3" id="ak"/><g id="k"><use transform="matrix(0.02469135802469134,0,0,0.02469135802469134,0,0)" xlink:href="#ai"/><use transform="matrix(0.02469135802469134,0,0,0.02469135802469134,4.938271604938268,0)" xlink:href="#ad"/><use transform="matrix(0.02469135802469134,0,0,0.02469135802469134,9.876543209876536,0)" xlink:href="#aj"/><use transform="matrix(0.02469135802469134,0,0,0.02469135802469134,11.82716049382715,0)" xlink:href="#aj"/><use transform="matrix(0.02469135802469134,0,0,0.02469135802469134,13.777777777777768,0)" xlink:href="#ak"/></g><path fill="#c92d39" d="M16-82v-28h88v28H16" id="al"/><path fill="#c92d39" d="M18-27v-27l151-64-151-65v-27l175 74v36" id="am"/><g id="l"><use transform="matrix(0.02469135802469134,0,0,0.02469135802469134,0,0)" xlink:href="#al"/><use transform="matrix(0.02469135802469134,0,0,0.02469135802469134,2.9382716049382696,0)" xlink:href="#am"/></g><path fill="#c92d39" d="M100-194c62-1 85 37 85 99 1 63-27 99-86 99S16-35 15-95c0-66 28-99 85-99zM99-20c44 1 53-31 53-75 0-43-8-75-51-75s-53 32-53 75 10 74 51 75" id="an"/><path fill="#c92d39" d="M240 0l2-218c-23 76-54 145-80 218h-23L58-218 59 0H30v-248h44l77 211c21-75 51-140 76-211h43V0h-30" id="ao"/><path fill="#c92d39" d="M185-189c-5-48-123-54-124 2 14 75 158 14 163 119 3 78-121 87-175 55-17-10-28-26-33-46l33-7c5 56 141 63 141-1 0-78-155-14-162-118-5-82 145-84 179-34 5 7 8 16 11 25" id="ap"/><path fill="#c92d39" d="M143 4C61 4 22-44 18-125c-5-107 100-154 193-111 17 8 29 25 37 43l-32 9c-13-25-37-40-76-40-61 0-88 39-88 99 0 61 29 100 91 101 35 0 62-11 79-27v-45h-74v-28h105v86C228-13 192 4 143 4" id="aq"/><g id="m"><use transform="matrix(0.02469135802469134,0,0,0.02469135802469134,0,0)" xlink:href="#af"/><use transform="matrix(0.02469135802469134,0,0,0.02469135802469134,4.938271604938268,0)" xlink:href="#ag"/><use transform="matrix(0.02469135802469134,0,0,0.02469135802469134,7.876543209876537,0)" xlink:href="#ag"/><use transform="matrix(0.02469135802469134,0,0,0.02469135802469134,10.814814814814806,0)" xlink:href="#an"/><use transform="matrix(0.02469135802469134,0,0,0.02469135802469134,15.753086419753075,0)" xlink:href="#ag"/><use transform="matrix(0.02469135802469134,0,0,0.02469135802469134,18.691358024691343,0)" xlink:href="#ao"/><use transform="matrix(0.02469135802469134,0,0,0.02469135802469134,26.074074074074055,0)" xlink:href="#ap"/><use transform="matrix(0.02469135802469134,0,0,0.02469135802469134,31.999999999999975,0)" xlink:href="#aq"/></g><path fill="#19967d" d="M26 75v-336h71v23H56V52h41v23H26" id="ar"/><path fill="#19967d" d="M84 4C-5 8 30-112 23-190h32v120c0 31 7 50 39 49 72-2 45-101 50-169h31l1 190h-30c-1-10 1-25-2-33-11 22-28 36-60 37" id="as"/><path fill="#19967d" d="M135-143c-3-34-86-38-87 0 15 53 115 12 119 90S17 21 10-45l28-5c4 36 97 45 98 0-10-56-113-15-118-90-4-57 82-63 122-42 12 7 21 19 24 35" id="at"/><path fill="#19967d" d="M100-194c63 0 86 42 84 106H49c0 40 14 67 53 68 26 1 43-12 49-29l28 8c-11 28-37 45-77 45C44 4 14-33 15-96c1-61 26-98 85-98zm52 81c6-60-76-77-97-28-3 7-6 17-6 28h103" id="au"/><path fill="#19967d" d="M114-163C36-179 61-72 57 0H25l-1-190h30c1 12-1 29 2 39 6-27 23-49 58-41v29" id="av"/><g id="o"><use transform="matrix(0.02469135802469134,0,0,0.02469135802469134,0,0)" xlink:href="#ar"/><use transform="matrix(0.02469135802469134,0,0,0.02469135802469134,2.469135802469134,0)" xlink:href="#as"/><use transform="matrix(0.02469135802469134,0,0,0.02469135802469134,7.407407407407402,0)" xlink:href="#at"/><use transform="matrix(0.02469135802469134,0,0,0.02469135802469134,11.851851851851842,0)" xlink:href="#au"/><use transform="matrix(0.02469135802469134,0,0,0.02469135802469134,16.79012345679011,0)" xlink:href="#av"/></g><path fill="#19967d" d="M63-70H37l-4-178h34zM33 0v-35h34V0H33" id="aw"/><path fill="#19967d" d="M18-150v-26h174v26H18zm0 90v-26h174v26H18" id="ax"/><g id="p"><use transform="matrix(0.02469135802469134,0,0,0.02469135802469134,0,0)" xlink:href="#aw"/><use transform="matrix(0.02469135802469134,0,0,0.02469135802469134,2.469135802469134,0)" xlink:href="#ax"/></g><path fill="#19967d" d="M117-194c89-4 53 116 60 194h-32v-121c0-31-8-49-39-48C34-167 62-67 57 0H25l-1-190h30c1 10-1 24 2 32 11-22 29-35 61-36" id="ay"/><path fill="#19967d" d="M24 0v-261h32V0H24" id="az"/><path fill="#19967d" d="M3 75V52h41v-290H3v-23h71V75H3" id="aA"/><g id="q"><use transform="matrix(0.02469135802469134,0,0,0.02469135802469134,0,0)" xlink:href="#ay"/><use transform="matrix(0.02469135802469134,0,0,0.02469135802469134,4.938271604938268,0)" xlink:href="#as"/><use transform="matrix(0.02469135802469134,0,0,0.02469135802469134,9.876543209876536,0)" xlink:href="#az"/><use transform="matrix(0.02469135802469134,0,0,0.02469135802469134,11.82716049382715,0)" xlink:href="#az"/><use transform="matrix(0.02469135802469134,0,0,0.02469135802469134,13.777777777777768,0)" xlink:href="#aA"/></g><path fill="#19967d" d="M59-47c-2 24 18 29 38 22v24C64 9 27 4 27-40v-127H5v-23h24l9-43h21v43h35v23H59v120" id="aB"/><path fill="#19967d" d="M205 0l-28-72H64L36 0H1l101-248h38L239 0h-34zm-38-99l-47-123c-12 45-31 82-46 123h93" id="aC"/><path fill="#19967d" d="M24-231v-30h32v30H24zM24 0v-190h32V0H24" id="aD"/><path fill="#19967d" d="M115-194c53 0 69 39 70 98 0 66-23 100-70 100C84 3 66-7 56-30L54 0H23l1-261h32v101c10-23 28-34 59-34zm-8 174c40 0 45-34 45-75 0-40-5-75-45-74-42 0-51 32-51 76 0 43 10 73 51 73" id="aE"/><path fill="#19967d" d="M87 75C49 33 22-17 22-94c0-76 28-126 65-167h31c-38 41-64 92-64 168S80 34 118 75H87" id="aF"/><path fill="#19967d" d="M109-170H84l-4-78h32zm-65 0H19l-4-78h33" id="aG"/><path fill="#19967d" d="M96-169c-40 0-48 33-48 73s9 75 48 75c24 0 41-14 43-38l32 2c-6 37-31 61-74 61-59 0-76-41-82-99-10-93 101-131 147-64 4 7 5 14 7 22l-32 3c-4-21-16-35-41-35" id="aH"/><path fill="#19967d" d="M232-93c-1 65-40 97-104 97C67 4 28-28 28-90v-158h33c8 89-33 224 67 224 102 0 64-133 71-224h33v155" id="aI"/><path fill="#19967d" d="M68-38c1 34 0 65-14 84H32c9-13 17-26 17-46H33v-38h35" id="aJ"/><path fill="#19967d" d="M33-261c38 41 65 92 65 168S71 34 33 75H2C39 34 66-17 66-93S39-220 2-261h31" id="aK"/><g id="r"><use transform="matrix(0.02469135802469134,0,0,0.02469135802469134,0,0)" xlink:href="#at"/><use transform="matrix(0.02469135802469134,0,0,0.02469135802469134,4.444444444444441,0)" xlink:href="#au"/><use transform="matrix(0.02469135802469134,0,0,0.02469135802469134,9.382716049382708,0)" xlink:href="#aB"/><use transform="matrix(0.02469135802469134,0,0,0.02469135802469134,11.851851851851842,0)" xlink:href="#aC"/><use transform="matrix(0.02469135802469134,0,0,0.02469135802469134,17.777777777777764,0)" xlink:href="#aB"/><use transform="matrix(0.02469135802469134,0,0,0.02469135802469134,20.246913580246897,0)" xlink:href="#aB"/><use transform="matrix(0.02469135802469134,0,0,0.02469135802469134,22.71604938271603,0)" xlink:href="#av"/><use transform="matrix(0.02469135802469134,0,0,0.02469135802469134,25.654320987654295,0)" xlink:href="#aD"/><use transform="matrix(0.02469135802469134,0,0,0.02469135802469134,27.60493827160492,0)" xlink:href="#aE"/><use transform="matrix(0.02469135802469134,0,0,0.02469135802469134,32.54320987654318,0)" xlink:href="#as"/><use transform="matrix(0.02469135802469134,0,0,0.02469135802469134,37.481481481481445,0)" xlink:href="#aB"/><use transform="matrix(0.02469135802469134,0,0,0.02469135802469134,39.95061728395058,0)" xlink:href="#au"/><use transform="matrix(0.02469135802469134,0,0,0.02469135802469134,44.88888888888884,0)" xlink:href="#aF"/><use transform="matrix(0.02469135802469134,0,0,0.02469135802469134,47.827160493827115,0)" xlink:href="#aG"/><use transform="matrix(0.02469135802469134,0,0,0.02469135802469134,50.96296296296291,0)" xlink:href="#aH"/><use transform="matrix(0.02469135802469134,0,0,0.02469135802469134,55.407407407407355,0)" xlink:href="#as"/><use transform="matrix(0.02469135802469134,0,0,0.02469135802469134,60.34567901234562,0)" xlink:href="#av"/><use transform="matrix(0.02469135802469134,0,0,0.02469135802469134,63.28395061728389,0)" xlink:href="#av"/><use transform="matrix(0.02469135802469134,0,0,0.02469135802469134,66.22222222222216,0)" xlink:href="#au"/><use transform="matrix(0.02469135802469134,0,0,0.02469135802469134,71.16049382716042,0)" xlink:href="#ay"/><use transform="matrix(0.02469135802469134,0,0,0.02469135802469134,76.09876543209869,0)" xlink:href="#aB"/><use transform="matrix(0.02469135802469134,0,0,0.02469135802469134,78.56790123456783,0)" xlink:href="#aI"/><use transform="matrix(0.02469135802469134,0,0,0.02469135802469134,84.96296296296289,0)" xlink:href="#at"/><use transform="matrix(0.02469135802469134,0,0,0.02469135802469134,89.40740740740733,0)" xlink:href="#au"/><use transform="matrix(0.02469135802469134,0,0,0.02469135802469134,94.3456790123456,0)" xlink:href="#av"/><use transform="matrix(0.02469135802469134,0,0,0.02469135802469134,97.28395061728386,0)" xlink:href="#aG"/><use transform="matrix(0.02469135802469134,0,0,0.02469135802469134,100.41975308641966,0)" xlink:href="#aJ"/><use transform="matrix(0.02469135802469134,0,0,0.02469135802469134,102.88888888888881,0)" xlink:href="#as"/><use transform="matrix(0.02469135802469134,0,0,0.02469135802469134,107.82716049382705,0)" xlink:href="#at"/><use transform="matrix(0.02469135802469134,0,0,0.02469135802469134,112.2716049382715,0)" xlink:href="#au"/><use transform="matrix(0.02469135802469134,0,0,0.02469135802469134,117.20987654320976,0)" xlink:href="#av"/><use transform="matrix(0.02469135802469134,0,0,0.02469135802469134,120.14814814814804,0)" xlink:href="#aK"/></g><path fill="#333" d="M85-194c31 0 48 13 60 33l-1-100h32l1 261h-30c-2-10 0-23-3-31C134-8 116 4 85 4 32 4 16-35 15-94c0-66 23-100 70-100zm9 24c-40 0-46 34-46 75 0 40 6 74 45 74 42 0 51-32 51-76 0-42-9-74-50-73" id="aL"/><path fill="#333" d="M141 0L90-78 38 0H4l68-98-65-92h35l48 74 47-74h35l-64 92 68 98h-35" id="aM"/><path fill="#333" d="M33 0v-38h34V0H33" id="aN"/><g id="s"><use transform="matrix(0.06172839506172839,0,0,0.06172839506172839,0,0)" xlink:href="#Q"/><use transform="matrix(0.06172839506172839,0,0,0.06172839506172839,4.876543209876543,0)" xlink:href="#H"/><use transform="matrix(0.06172839506172839,0,0,0.06172839506172839,17.22222222222222,0)" xlink:href="#aL"/><use transform="matrix(0.06172839506172839,0,0,0.06172839506172839,29.5679012345679,0)" xlink:href="#E"/><use transform="matrix(0.06172839506172839,0,0,0.06172839506172839,41.913580246913575,0)" xlink:href="#aM"/><use transform="matrix(0.06172839506172839,0,0,0.06172839506172839,53.02469135802468,0)" xlink:href="#aN"/><use transform="matrix(0.06172839506172839,0,0,0.06172839506172839,59.197530864197525,0)" xlink:href="#K"/><use transform="matrix(0.06172839506172839,0,0,0.06172839506172839,71.5432098765432,0)" xlink:href="#ab"/><use transform="matrix(0.06172839506172839,0,0,0.06172839506172839,77.71604938271604,0)" xlink:href="#S"/><use transform="matrix(0.06172839506172839,0,0,0.06172839506172839,96.17283950617282,0)" xlink:href="#I"/></g><path fill="#c92d39" d="M137 0h-34L2-248h35l83 218 83-218h36" id="aO"/><path fill="#c92d39" d="M24-231v-30h32v30H24zM24 0v-190h32V0H24" id="aP"/><g id="t"><use transform="matrix(0.02469135802469134,0,0,0.02469135802469134,0,0)" xlink:href="#aO"/><use transform="matrix(0.02469135802469134,0,0,0.02469135802469134,5.753086419753082,0)" xlink:href="#aP"/><use transform="matrix(0.02469135802469134,0,0,0.02469135802469134,7.703703703703696,0)" xlink:href="#af"/><use transform="matrix(0.02469135802469134,0,0,0.02469135802469134,12.641975308641964,0)" xlink:href="#ai"/><use transform="matrix(0.02469135802469134,0,0,0.02469135802469134,17.580246913580233,0)" xlink:href="#af"/></g><path fill="#c92d39" d="M96-169c-40 0-48 33-48 73s9 75 48 75c24 0 41-14 43-38l32 2c-6 37-31 61-74 61-59 0-76-41-82-99-10-93 101-131 147-64 4 7 5 14 7 22l-32 3c-4-21-16-35-41-35" id="aQ"/><path fill="#c92d39" d="M141-36C126-15 110 5 73 4 37 3 15-17 15-53c-1-64 63-63 125-63 3-35-9-54-41-54-24 1-41 7-42 31l-33-3c5-37 33-52 76-52 45 0 72 20 72 64v82c-1 20 7 32 28 27v20c-31 9-61-2-59-35zM48-53c0 20 12 33 32 33 41-3 63-29 60-74-43 2-92-5-92 41" id="aR"/><path fill="#c92d39" d="M59-47c-2 24 18 29 38 22v24C64 9 27 4 27-40v-127H5v-23h24l9-43h21v43h35v23H59v120" id="aS"/><g id="u"><use transform="matrix(0.02469135802469134,0,0,0.02469135802469134,0,0)" xlink:href="#aQ"/><use transform="matrix(0.02469135802469134,0,0,0.02469135802469134,4.444444444444441,0)" xlink:href="#aR"/><use transform="matrix(0.02469135802469134,0,0,0.02469135802469134,9.382716049382708,0)" xlink:href="#ag"/><use transform="matrix(0.02469135802469134,0,0,0.02469135802469134,12.320987654320977,0)" xlink:href="#aQ"/><use transform="matrix(0.02469135802469134,0,0,0.02469135802469134,16.765432098765416,0)" xlink:href="#aR"/><use transform="matrix(0.02469135802469134,0,0,0.02469135802469134,21.703703703703685,0)" xlink:href="#aS"/><use transform="matrix(0.02469135802469134,0,0,0.02469135802469134,24.172839506172817,0)" xlink:href="#an"/></g><path fill="#c92d39" d="M106-169C34-169 62-67 57 0H25v-261h32l-1 103c12-21 28-36 61-36 89 0 53 116 60 194h-32v-121c2-32-8-49-39-48" id="aT"/><g id="v"><use transform="matrix(0.02469135802469134,0,0,0.02469135802469134,0,0)" xlink:href="#aR"/><use transform="matrix(0.02469135802469134,0,0,0.02469135802469134,4.938271604938268,0)" xlink:href="#ai"/><use transform="matrix(0.02469135802469134,0,0,0.02469135802469134,9.876543209876536,0)" xlink:href="#aQ"/><use transform="matrix(0.02469135802469134,0,0,0.02469135802469134,14.320987654320977,0)" xlink:href="#aT"/><use transform="matrix(0.02469135802469134,0,0,0.02469135802469134,19.259259259259245,0)" xlink:href="#af"/></g><g id="w"><use transform="matrix(0.02469135802469134,0,0,0.02469135802469134,0,0)" xlink:href="#aP"/><use transform="matrix(0.02469135802469134,0,0,0.02469135802469134,1.9506172839506157,0)" xlink:href="#aj"/></g><path fill="#c92d39" d="M210-169c-67 3-38 105-44 169h-31v-121c0-29-5-50-35-48C34-165 62-65 56 0H25l-1-190h30c1 10-1 24 2 32 10-44 99-50 107 0 11-21 27-35 58-36 85-2 47 119 55 194h-31v-121c0-29-5-49-35-48" id="aU"/><path fill="#c92d39" d="M115-194c55 1 70 41 70 98S169 2 115 4C84 4 66-9 55-30l1 105H24l-1-265h31l2 30c10-21 28-34 59-34zm-8 174c40 0 45-34 45-75s-6-73-45-74c-42 0-51 32-51 76 0 43 10 73 51 73" id="aV"/><g id="x"><use transform="matrix(0.02469135802469134,0,0,0.02469135802469134,0,0)" xlink:href="#aS"/><use transform="matrix(0.02469135802469134,0,0,0.02469135802469134,2.469135802469134,0)" xlink:href="#af"/><use transform="matrix(0.02469135802469134,0,0,0.02469135802469134,7.407407407407402,0)" xlink:href="#aU"/><use transform="matrix(0.02469135802469134,0,0,0.02469135802469134,14.790123456790113,0)" xlink:href="#aV"/><use transform="matrix(0.02469135802469134,0,0,0.02469135802469134,19.72839506172838,0)" xlink:href="#aj"/><use transform="matrix(0.02469135802469134,0,0,0.02469135802469134,21.679012345679,0)" xlink:href="#aR"/><use transform="matrix(0.02469135802469134,0,0,0.02469135802469134,26.61728395061727,0)" xlink:href="#aS"/><use transform="matrix(0.02469135802469134,0,0,0.02469135802469134,29.086419753086396,0)" xlink:href="#af"/></g><path fill="#c92d39" d="M30-248c118-7 216 8 213 122C240-48 200 0 122 0H30v-248zM63-27c89 8 146-16 146-99s-60-101-146-95v194" id="aW"/><g id="y"><use transform="matrix(0.02469135802469134,0,0,0.02469135802469134,0,0)" xlink:href="#aW"/><use transform="matrix(0.02469135802469134,0,0,0.02469135802469134,6.395061728395057,0)" xlink:href="#aP"/></g><g id="z"><use transform="matrix(0.02469135802469134,0,0,0.02469135802469134,0,0)" xlink:href="#af"/><use transform="matrix(0.02469135802469134,0,0,0.02469135802469134,4.938271604938268,0)" xlink:href="#ag"/><use transform="matrix(0.02469135802469134,0,0,0.02469135802469134,7.876543209876537,0)" xlink:href="#ag"/><use transform="matrix(0.02469135802469134,0,0,0.02469135802469134,10.814814814814806,0)" xlink:href="#an"/><use transform="matrix(0.02469135802469134,0,0,0.02469135802469134,15.753086419753075,0)" xlink:href="#ag"/><use transform="matrix(0.02469135802469134,0,0,0.02469135802469134,18.691358024691343,0)" xlink:href="#af"/></g><path fill="#333" d="M143 4C61 4 22-44 18-125c-5-107 100-154 193-111 17 8 29 25 37 43l-32 9c-13-25-37-40-76-40-61 0-88 39-88 99 0 61 29 100 91 101 35 0 62-11 79-27v-45h-74v-28h105v86C228-13 192 4 143 4" id="aX"/><path fill="#333" d="M127-220V0H93v-220H8v-28h204v28h-85" id="aY"/><path fill="#333" d="M197 0v-115H63V0H30v-248h33v105h134v-105h34V0h-34" id="aZ"/><path fill="#333" d="M30-248c87 1 191-15 191 75 0 78-77 80-158 76V0H30v-248zm33 125c57 0 124 11 124-50 0-59-68-47-124-48v98" id="ba"/><g id="A"><use transform="matrix(0.06172839506172839,0,0,0.06172839506172839,0,0)" xlink:href="#aX"/><use transform="matrix(0.06172839506172839,0,0,0.06172839506172839,17.28395061728395,0)" xlink:href="#O"/><use transform="matrix(0.06172839506172839,0,0,0.06172839506172839,29.629629629629626,0)" xlink:href="#aY"/><use transform="matrix(0.06172839506172839,0,0,0.06172839506172839,40.679012345679006,0)" xlink:href="#O"/><use transform="matrix(0.06172839506172839,0,0,0.06172839506172839,53.02469135802468,0)" xlink:href="#aZ"/><use transform="matrix(0.06172839506172839,0,0,0.06172839506172839,69.01234567901234,0)" xlink:href="#O"/><use transform="matrix(0.06172839506172839,0,0,0.06172839506172839,81.35802469135803,0)" xlink:href="#S"/><use transform="matrix(0.06172839506172839,0,0,0.06172839506172839,99.81481481481481,0)" xlink:href="#E"/><use transform="matrix(0.06172839506172839,0,0,0.06172839506172839,112.1604938271605,0)" xlink:href="#ba"/><use transform="matrix(0.06172839506172839,0,0,0.06172839506172839,126.9753086419753,0)" xlink:href="#T"/><use transform="matrix(0.06172839506172839,0,0,0.06172839506172839,139.320987654321,0)" xlink:href="#P"/><use transform="matrix(0.06172839506172839,0,0,0.06172839506172839,151.66666666666666,0)" xlink:href="#E"/></g><path fill="#19967d" d="M85-194c31 0 48 13 60 33l-1-100h32l1 261h-30c-2-10 0-23-3-31C134-8 116 4 85 4 32 4 16-35 15-94c0-66 23-100 70-100zm9 24c-40 0-46 34-46 75 0 40 6 74 45 74 42 0 51-32 51-76 0-42-9-74-50-73" id="bb"/><g id="B"><use transform="matrix(0.02469135802469134,0,0,0.02469135802469134,0,0)" xlink:href="#av"/><use transform="matrix(0.02469135802469134,0,0,0.02469135802469134,2.9382716049382696,0)" xlink:href="#au"/><use transform="matrix(0.02469135802469134,0,0,0.02469135802469134,7.876543209876537,0)" xlink:href="#bb"/><use transform="matrix(0.02469135802469134,0,0,0.02469135802469134,12.814814814814804,0)" xlink:href="#aD"/><use transform="matrix(0.02469135802469134,0,0,0.02469135802469134,14.765432098765421,0)" xlink:href="#av"/><use transform="matrix(0.02469135802469134,0,0,0.02469135802469134,17.70370370370369,0)" xlink:href="#au"/><use transform="matrix(0.02469135802469134,0,0,0.02469135802469134,22.64197530864196,0)" xlink:href="#aH"/><use transform="matrix(0.02469135802469134,0,0,0.02469135802469134,27.086419753086403,0)" xlink:href="#aB"/></g></defs></g></svg>