<svg xmlns="http://www.w3.org/2000/svg" xmlns:xlink="http://www.w3.org/1999/xlink" xmlns:lucid="lucid" width="1100" height="551.5"><g transform="translate(19.999999999999986 20)" lucid:page-tab-id="0_0"><path d="M680 340h240v60H680z" fill="none"/><use xlink:href="#a" transform="matrix(1,0,0,1,680,340) translate(-21.802469135802426 33.55555555555556)"/><path d="M420 160h240v60H420z" fill="none"/><use xlink:href="#b" transform="matrix(1,0,0,1,420,160) translate(31.5277777777778 33.111111111111114)"/><path d="M247.43 320h121.8v33.75h-121.8z" fill="none"/><use xlink:href="#c" transform="matrix(1,0,0,1,247.42977713125484,320) translate(26.26234567901237 19.22222222222222)"/><path d="M192.28 323.16h240v60h-240z" fill="none"/><use xlink:href="#d" transform="matrix(1,0,0,1,192.28398677959706,323.15904978785113) translate(41.39506172839512 31.77777777777778)"/><use xlink:href="#e" transform="matrix(1,0,0,1,192.28398677959706,323.15904978785113) translate(63.1234567901235 31.77777777777778)"/><use xlink:href="#f" transform="matrix(1,0,0,1,192.28398677959706,323.15904978785113) translate(84.35802469135805 31.77777777777778)"/><use xlink:href="#g" transform="matrix(1,0,0,1,192.28398677959706,323.15904978785113) translate(115.44444444444444 31.77777777777778)"/><use xlink:href="#h" transform="matrix(1,0,0,1,192.28398677959706,323.15904978785113) translate(143.5432098765432 31.77777777777778)"/><use xlink:href="#i" transform="matrix(1,0,0,1,192.28398677959706,323.15904978785113) translate(160.82716049382714 31.77777777777778)"/><use xlink:href="#j" transform="matrix(1,0,0,1,192.28398677959706,323.15904978785113) translate(187.79012345679007 31.77777777777778)"/><path d="M228.33 140.5h160v40h-160z" fill="none"/><use xlink:href="#k" transform="matrix(1,0,0,1,228.33037125326996,140.5) translate(35.24074074074076 14.666666666666668)"/><use xlink:href="#l" transform="matrix(1,0,0,1,228.33037125326996,140.5) translate(80.42592592592592 14.666666666666668)"/><use xlink:href="#m" transform="matrix(1,0,0,1,228.33037125326996,140.5) translate(29.11111111111113 30.666666666666664)"/><use xlink:href="#n" transform="matrix(1,0,0,1,228.33037125326996,140.5) translate(68.81481481481481 30.666666666666664)"/><path d="M125.33 46.5c0-3.3 2.7-6 6-6h148c3.32 0 6 2.7 6 6v28c0 3.3-2.68 6-6 6h-148c-3.3 0-6-2.7-6-6z" stroke="#5e5e5e" stroke-width="3" fill="#fff"/><use xlink:href="#o" transform="matrix(1,0,0,1,137.33333333333337,52.5) translate(16.240740740740748 17.77777777777778)"/><path d="M320 46.5c0-3.3 2.7-6 6-6h188c3.3 0 6 2.7 6 6v28c0 3.3-2.7 6-6 6H326c-3.3 0-6-2.7-6-6z" stroke="#99d2f2" stroke-width="3" fill="#fff"/><use xlink:href="#p" transform="matrix(1,0,0,1,332,52.5) translate(-10.611111111111086 17.77777777777778)"/><path d="M205.33 402.5v8.08m0 8.1v16.15m0 8.1v18.4m0 10.33V482" stroke="#5e5e5e" stroke-width="2" fill="none"/><path d="M206.33 402.53h-2v-1.03h2z" fill="#5e5e5e"/><path d="M205.33 497.26L200.7 483h9.27z" stroke="#5e5e5e" stroke-width="2" fill="#5e5e5e"/><path d="M205.33 83v12.5m0 12.5v12.5" stroke="#5e5e5e" stroke-width="2" fill="none"/><path d="M206.33 83.03h-2V82h2z" fill="#5e5e5e"/><path d="M205.33 135.76l-4.63-14.26h9.27z" stroke="#5e5e5e" stroke-width="2" fill="#5e5e5e"/><path d="M420 362.5v9.83m0 9.84v19.66m0 9.84v19.66m0 9.84v19.66m0 9.83v9.84" stroke="#5e5e5e" stroke-width="2" fill="none"/><path d="M421 362.53h-2v-1.03h2z" fill="#5e5e5e"/><path d="M420 495.76l-4.64-14.26h9.28z" stroke="#5e5e5e" stroke-width="2" fill="#5e5e5e"/><path d="M420 83v9.17m0 9.16v19.17" stroke="#5e5e5e" stroke-width="2" fill="none"/><path d="M421 83.03h-2V82h2z" fill="#5e5e5e"/><path d="M420 135.76l-4.64-14.26h9.28z" stroke="#5e5e5e" stroke-width="2" fill="#5e5e5e"/><path d="M185.33 146.5c0-3.3 2.7-6 6-6h28c3.32 0 6 2.7 6 6V394c0 3.3-2.68 6-6 6h-28c-3.3 0-6-2.7-6-6z" stroke="#5e5e5e" stroke-width="3" fill="#fff"/><path d="M400 146.5c0-3.3 2.7-6 6-6h28c3.3 0 6 2.7 6 6V354c0 3.3-2.7 6-6 6h-28c-3.3 0-6-2.7-6-6z" stroke="#99d2f2" stroke-width="3" fill="#fff"/><path d="M111.46 0h173.87v60H111.46z" fill="none"/><use xlink:href="#q" transform="matrix(1,0,0,1,111.45630311311848,0) translate(29.6388888888889 33.111111111111114)"/><path d="M60 120h156.66v35.4H60z" fill="none"/><use xlink:href="#r" transform="matrix(1,0,0,1,59.999999999999986,119.99999999999999) translate(48.916666666666686 13.555555555555559)"/><use xlink:href="#s" transform="matrix(1,0,0,1,59.999999999999986,119.99999999999999) translate(75.98456790123457 13.555555555555559)"/><use xlink:href="#t" transform="matrix(1,0,0,1,59.999999999999986,119.99999999999999) translate(46.15432098765434 26.888888888888886)"/><use xlink:href="#u" transform="matrix(1,0,0,1,59.999999999999986,119.99999999999999) translate(76.98765432098764 26.888888888888886)"/><path d="M151.48 156.4v9.4c0 3.32 2.7 6 6 6h7.85" stroke="#5e5e5e" stroke-width="2" fill="none"/><path d="M152.48 156.44h-2v-1.03h2z" fill="#5e5e5e"/><path d="M180.6 171.8l-14.27 4.64v-9.27z" stroke="#5e5e5e" stroke-width="2" fill="#5e5e5e"/><path d="M227.83 186.02H380" stroke="#5e5e5e" stroke-width="2" fill="none"/><path d="M227.86 187.02h-1.03v-2h1.03z" fill="#5e5e5e"/><path d="M395.26 186.02L381 190.66v-9.27z" stroke="#5e5e5e" stroke-width="2" fill="#5e5e5e"/><path d="M397.5 231.77h-10.14m-10.15 0h-20.28m-10.14 0h-20.3m-10.13 0h-20.3m-10.14 0h-20.28m-10.14 0h-10.14" stroke="#5e5e5e" stroke-width="2" fill="none"/><path d="M398.5 232.77h-1.03v-2h1.03z" fill="#5e5e5e"/><path d="M230.07 231.77l14.27-4.64v9.28z" stroke="#5e5e5e" stroke-width="2" fill="#5e5e5e"/><path d="M212.2 240.5h192.27v11.75H212.2z" fill="none"/><use xlink:href="#v" transform="matrix(1,0,0,1,212.18837786347132,240.5) translate(53.984567901234584 8.888888888888884)"/><use xlink:href="#w" transform="matrix(1,0,0,1,212.18837786347132,240.5) translate(90.95987654320987 8.888888888888884)"/><use xlink:href="#x" transform="matrix(1,0,0,1,212.18837786347132,240.5) translate(117.41049382716048 8.888888888888884)"/><use xlink:href="#y" transform="matrix(1,0,0,1,212.18837786347132,240.5) translate(78.6141975308642 22.222222222222207)"/><path d="M20 260.5h192.28v11.75H20z" fill="none"/><use xlink:href="#z" transform="matrix(1,0,0,1,20,260.5) translate(74.33950617283952 8.888888888888884)"/><path d="M182.83 267.68h-33c-3.3 0-6 2.68-6 6v7.54c0 3.3 2.7 6 6 6h15.5" stroke="#5e5e5e" stroke-width="2" fill="none"/><path d="M183.83 268.68h-1.02v-2h1.03z" fill="#5e5e5e"/><path d="M180.6 287.22l-14.27 4.63v-9.27z" stroke="#5e5e5e" stroke-width="2" fill="#5e5e5e"/><path d="M397.5 300h-9.43m-9.42 0H359.8m-9.43 0h-18.85m-9.43 0h-20.66m-11.22 0h-22.44m-11.22 0h-11.22" stroke="#5e5e5e" stroke-width="2" fill="none"/><path d="M398.5 301h-1.03v-2h1.03z" fill="#5e5e5e"/><path d="M230.07 300l14.27-4.64v9.28z" stroke="#5e5e5e" stroke-width="2" fill="#5e5e5e"/><path d="M212.2 308.25h192.27V320H212.2z" fill="none"/><use xlink:href="#A" transform="matrix(1,0,0,1,212.18837786347132,308.2505648010789) translate(67.7962962962963 8.888888888888884)"/><use xlink:href="#B" transform="matrix(1,0,0,1,212.18837786347132,308.2505648010789) translate(103.59876543209876 8.888888888888884)"/><path d="M182.83 323.7h-33c-3.3 0-6 2.7-6 6v11.45c0 3.3 2.7 6 6 6h15.5" stroke="#5e5e5e" stroke-width="2" fill="none"/><path d="M183.83 324.7h-1.02v-2h1.03z" fill="#5e5e5e"/><path d="M180.6 347.15l-14.27 4.63v-9.27z" stroke="#5e5e5e" stroke-width="2" fill="#5e5e5e"/><path d="M0 331h192.28v11.75H0z" fill="none"/><use xlink:href="#C" transform="matrix(1,0,0,1,1.4210854715202004e-14,331.0006195982673) translate(52.45679012345682 8.888888888888884)"/><path d="M397.5 327.84H245.34" stroke="#5e5e5e" stroke-width="2" fill="none"/><path d="M398.5 328.84h-1.03v-2h1.03z" fill="#5e5e5e"/><path d="M230.07 327.84l14.27-4.64v9.27z" stroke="#5e5e5e" stroke-width="2" fill="#5e5e5e"/><path d="M17.8 160h156.67v35.4H17.8z" fill="none"/><use xlink:href="#D" transform="matrix(1,0,0,1,17.81162213652857,160) translate(40.861111111111136 13.555555555555559)"/><use xlink:href="#E" transform="matrix(1,0,0,1,17.81162213652857,160) translate(79.13271604938271 13.555555555555559)"/><use xlink:href="#F" transform="matrix(1,0,0,1,17.81162213652857,160) translate(23.94753086419756 26.888888888888886)"/><use xlink:href="#G" transform="matrix(1,0,0,1,17.81162213652857,160) translate(55.98456790123458 26.888888888888886)"/><path d="M554.67 46.5c0-3.3 2.68-6 6-6h188c3.3 0 6 2.7 6 6v28c0 3.3-2.7 6-6 6h-188c-3.32 0-6-2.7-6-6z" stroke="#99d2f2" stroke-width="3" fill="#fff"/><use xlink:href="#H" transform="matrix(1,0,0,1,566.6666666666666,52.5) translate(30.65432098765431 17.77777777777778)"/><path d="M654.67 258.62v10.3m0 10.32v20.62m0 10.3v20.63m0 10.3v20.62m0 10.3v20.63m0 10.3v20.63m0 10.3v20.62m0 10.3v10.32" stroke="#5e5e5e" stroke-width="2" fill="none"/><path d="M655.67 258.65h-2v-1.03h2z" fill="#5e5e5e"/><path d="M654.67 490.4l-4.64-14.28h9.27z" stroke="#5e5e5e" stroke-width="2" fill="#5e5e5e"/><path d="M654.67 83v10.35m0 10.34v20.7m0 10.33v20.7m0 10.35v10.34" stroke="#5e5e5e" stroke-width="2" fill="none"/><path d="M655.67 83.03h-2V82h2z" fill="#5e5e5e"/><path d="M654.67 191.4l-4.64-14.28h9.27z" stroke="#5e5e5e" stroke-width="2" fill="#5e5e5e"/><path d="M634.67 202.12c0-3.3 2.68-6 6-6h28c3.3 0 6 2.7 6 6v48c0 3.32-2.7 6-6 6h-28c-3.32 0-6-2.68-6-6zM694.67 102.12c0-3.3 2.68-6 6-6h188c3.3 0 6 2.7 6 6v28c0 3.32-2.7 6-6 6h-188c-3.32 0-6-2.68-6-6z" stroke="#99d2f2" stroke-width="3" fill="#fff"/><use xlink:href="#I" transform="matrix(1,0,0,1,706.6666666666666,108.12471759946055) translate(43.216049382716044 17.77777777777778)"/><path d="M794.67 138.62v8.94m0 8.94v17.87m0 8.94v8.95" stroke="#5e5e5e" stroke-width="2" fill="none"/><path d="M795.67 138.65h-2v-1.03h2z" fill="#5e5e5e"/><path d="M794.67 207.5l-4.64-14.25h9.27z" stroke="#5e5e5e" stroke-width="2" fill="#5e5e5e"/><path d="M794.67 274.75v9.66m0 9.67v19.32m0 9.65v19.32m0 9.66v19.33m0 9.66v19.32m0 9.66v19.32m0 9.66v19.32m0 9.66v9.66" stroke="#5e5e5e" stroke-width="2" fill="none"/><path d="M795.67 274.78h-2v-1.03h2z" fill="#5e5e5e"/><path d="M794.67 492.9l-4.64-14.28h9.27z" stroke="#5e5e5e" stroke-width="2" fill="#5e5e5e"/><path d="M774.67 218.25c0-3.3 2.68-6 6-6h28c3.3 0 6 2.7 6 6v48c0 3.3-2.7 6-6 6h-28c-3.32 0-6-2.7-6-6z" stroke="#99d2f2" stroke-width="3" fill="#fff"/><path d="M442.5 211.47h172.16" stroke="#5e5e5e" stroke-width="2" fill="none"/><path d="M442.53 212.47h-1.03v-2h1.03z" fill="#5e5e5e"/><path d="M629.93 211.47l-14.27 4.64v-9.26z" stroke="#5e5e5e" stroke-width="2" fill="#5e5e5e"/><path d="M677.17 226.12h77.5" stroke="#5e5e5e" stroke-width="2" fill="none"/><path d="M677.2 227.12h-1.03v-2h1.02z" fill="#5e5e5e"/><path d="M769.93 226.12l-14.27 4.64v-9.27z" stroke="#5e5e5e" stroke-width="2" fill="#5e5e5e"/><path d="M600 224h240v60H600z" fill="none"/><use xlink:href="#J" transform="matrix(1,0,0,1,600,223.9988703978422) translate(74.37037037037038 23.77777777777778)"/><use xlink:href="#K" transform="matrix(1,0,0,1,600,223.9988703978422) translate(83.79012345679013 42.44444444444444)"/><path d="M35.62 353.75h156.66v35.4H35.62z" fill="none"/><g><use xlink:href="#L" transform="matrix(1,0,0,1,35.62324427305711,353.75067439545575) translate(26.802469135802497 13.555555555555559)"/><use xlink:href="#M" transform="matrix(1,0,0,1,35.62324427305711,353.75067439545575) translate(62.97530864197532 13.555555555555559)"/><use xlink:href="#N" transform="matrix(1,0,0,1,35.62324427305711,353.75067439545575) translate(82.08024691358025 13.555555555555559)"/><use xlink:href="#F" transform="matrix(1,0,0,1,35.62324427305711,353.75067439545575) translate(44.5956790123457 26.888888888888886)"/><use xlink:href="#O" transform="matrix(1,0,0,1,35.62324427305711,353.75067439545575) translate(76.63271604938271 26.888888888888886)"/></g><path d="M900 46.5c0-3.3 2.7-6 6-6h148c3.3 0 6 2.7 6 6v28c0 3.3-2.7 6-6 6H906c-3.3 0-6-2.7-6-6z" stroke="#5e5e5e" stroke-width="3" fill="#fff"/><g><use xlink:href="#P" transform="matrix(1,0,0,1,912,52.5) translate(33.49382716049382 17.77777777777778)"/></g><path d="M980 83v10.45m0 10.45v20.9m0 10.44v20.9m0 10.44v20.9m0 10.45v20.9m0 10.44v20.9m0 10.44v20.9m0 10.46v20.9m0 10.44v10.45" stroke="#5e5e5e" stroke-width="2" fill="none"/><path d="M981 83.03h-2V82h2z" fill="#5e5e5e"/><path d="M980 349l-4.64-14.25h9.28z" stroke="#5e5e5e" stroke-width="2" fill="#5e5e5e"/><path d="M980 416.25v10.88m0 10.87v21.75m0 10.87v10.88" stroke="#5e5e5e" stroke-width="2" fill="none"/><path d="M981 416.28h-2v-1.03h2z" fill="#5e5e5e"/><path d="M980 496.76l-4.64-14.26h9.28z" stroke="#5e5e5e" stroke-width="2" fill="#5e5e5e"/><path d="M960 359.75c0-3.3 2.7-6 6-6h28c3.3 0 6 2.7 6 6v48c0 3.3-2.7 6-6 6h-28c-3.3 0-6-2.7-6-6z" stroke="#000" stroke-width="3" fill="#fff"/><path d="M227.83 380H940" stroke="#5e5e5e" stroke-width="2" fill="none"/><path d="M227.86 381h-1.03v-2h1.03z" fill="#5e5e5e"/><path d="M955.26 380L941 384.64v-9.28z" stroke="#5e5e5e" stroke-width="2" fill="#5e5e5e"/><path d="M886.12 0H1060v60H886.12z" fill="none"/><g><use xlink:href="#Q" transform="matrix(1,0,0,1,886.1229697797851,0) translate(65.45987654320987 33.111111111111114)"/></g><path d="M774.67 400h156.66v35.4H774.67z" fill="none"/><g><use xlink:href="#R" transform="matrix(1,0,0,1,774.6666666666666,400) translate(2.6512345679012554 8.888888888888884)"/><use xlink:href="#S" transform="matrix(1,0,0,1,774.6666666666666,400) translate(40.24382716049383 8.888888888888884)"/><use xlink:href="#T" transform="matrix(1,0,0,1,774.6666666666666,400) translate(71.07716049382715 8.888888888888884)"/><use xlink:href="#U" transform="matrix(1,0,0,1,774.6666666666666,400) translate(92.0648148148148 8.888888888888884)"/><use xlink:href="#V" transform="matrix(1,0,0,1,774.6666666666666,400) translate(115.49074074074072 8.888888888888884)"/><use xlink:href="#W" transform="matrix(1,0,0,1,774.6666666666666,400) translate(130.9228395061728 8.888888888888884)"/><use xlink:href="#X" transform="matrix(1,0,0,1,774.6666666666666,400) translate(145.0895061728395 8.888888888888884)"/><use xlink:href="#Y" transform="matrix(1,0,0,1,774.6666666666666,400) translate(8.330246913580282 22.222222222222207)"/><use xlink:href="#Z" transform="matrix(1,0,0,1,774.6666666666666,400) translate(63.79320987654321 22.222222222222207)"/><use xlink:href="#aa" transform="matrix(1,0,0,1,774.6666666666666,400) translate(108.82407407407405 22.222222222222207)"/><use xlink:href="#ab" transform="matrix(1,0,0,1,774.6666666666666,400) translate(64.93518518518519 35.555555555555536)"/></g><defs><path fill="#333" d="M135-143c-3-34-86-38-87 0 15 53 115 12 119 90S17 21 10-45l28-5c4 36 97 45 98 0-10-56-113-15-118-90-4-57 82-63 122-42 12 7 21 19 24 35" id="ac"/><path fill="#333" d="M100-194c63 0 86 42 84 106H49c0 40 14 67 53 68 26 1 43-12 49-29l28 8c-11 28-37 45-77 45C44 4 14-33 15-96c1-61 26-98 85-98zm52 81c6-60-76-77-97-28-3 7-6 17-6 28h103" id="ad"/><path fill="#333" d="M59-47c-2 24 18 29 38 22v24C64 9 27 4 27-40v-127H5v-23h24l9-43h21v43h35v23H59v120" id="ae"/><path fill="#333" d="M212-179c-10-28-35-45-73-45-59 0-87 40-87 99 0 60 29 101 89 101 43 0 62-24 78-52l27 14C228-24 195 4 139 4 59 4 22-46 18-125c-6-104 99-153 187-111 19 9 31 26 39 46" id="af"/><path fill="#333" d="M100-194c62-1 85 37 85 99 1 63-27 99-86 99S16-35 15-95c0-66 28-99 85-99zM99-20c44 1 53-31 53-75 0-43-8-75-51-75s-53 32-53 75 10 74 51 75" id="ag"/><path fill="#333" d="M143 0L79-87 56-68V0H24v-261h32v163l83-92h37l-77 82L181 0h-38" id="ah"/><path fill="#333" d="M24-231v-30h32v30H24zM24 0v-190h32V0H24" id="ai"/><path fill="#333" d="M87 75C49 33 22-17 22-94c0-76 28-126 65-167h31c-38 41-64 92-64 168S80 34 118 75H87" id="aj"/><path fill="#333" d="M109-170H84l-4-78h32zm-65 0H19l-4-78h33" id="ak"/><path fill="#333" d="M84 4C-5 8 30-112 23-190h32v120c0 31 7 50 39 49 72-2 45-101 50-169h31l1 190h-30c-1-10 1-25-2-33-11 22-28 36-60 37" id="al"/><path fill="#333" d="M177-190C167-65 218 103 67 71c-23-6-38-20-44-43l32-5c15 47 100 32 89-28v-30C133-14 115 1 83 1 29 1 15-40 15-95c0-56 16-97 71-98 29-1 48 16 59 35 1-10 0-23 2-32h30zM94-22c36 0 50-32 50-73 0-42-14-75-50-75-39 0-46 34-46 75s6 73 46 73" id="am"/><path fill="#333" d="M117-194c89-4 53 116 60 194h-32v-121c0-31-8-49-39-48C34-167 62-67 57 0H25l-1-190h30c1 10-1 24 2 32 11-22 29-35 61-36" id="an"/><path fill="#333" d="M68-38c1 34 0 65-14 84H32c9-13 17-26 17-46H33v-38h35" id="ao"/><path fill="#333" d="M141-36C126-15 110 5 73 4 37 3 15-17 15-53c-1-64 63-63 125-63 3-35-9-54-41-54-24 1-41 7-42 31l-33-3c5-37 33-52 76-52 45 0 72 20 72 64v82c-1 20 7 32 28 27v20c-31 9-61-2-59-35zM48-53c0 20 12 33 32 33 41-3 63-29 60-74-43 2-92-5-92 41" id="ap"/><path fill="#333" d="M114-163C36-179 61-72 57 0H25l-1-190h30c1 12-1 29 2 39 6-27 23-49 58-41v29" id="aq"/><path fill="#333" d="M179-190L93 31C79 59 56 82 12 73V49c39 6 53-20 64-50L1-190h34L92-34l54-156h33" id="ar"/><path fill="#333" d="M85-194c31 0 48 13 60 33l-1-100h32l1 261h-30c-2-10 0-23-3-31C134-8 116 4 85 4 32 4 16-35 15-94c0-66 23-100 70-100zm9 24c-40 0-46 34-46 75 0 40 6 74 45 74 42 0 51-32 51-76 0-42-9-74-50-73" id="as"/><path fill="#333" d="M33-261c38 41 65 92 65 168S71 34 33 75H2C39 34 66-17 66-93S39-220 2-261h31" id="at"/><g id="a"><use transform="matrix(0.049382716049382706,0,0,0.049382716049382706,0,0)" xlink:href="#ac"/><use transform="matrix(0.049382716049382706,0,0,0.049382716049382706,8.888888888888888,0)" xlink:href="#ad"/><use transform="matrix(0.049382716049382706,0,0,0.049382716049382706,18.76543209876543,0)" xlink:href="#ae"/><use transform="matrix(0.049382716049382706,0,0,0.049382716049382706,23.703703703703702,0)" xlink:href="#af"/><use transform="matrix(0.049382716049382706,0,0,0.049382716049382706,36.49382716049382,0)" xlink:href="#ag"/><use transform="matrix(0.049382716049382706,0,0,0.049382716049382706,46.37037037037037,0)" xlink:href="#ag"/><use transform="matrix(0.049382716049382706,0,0,0.049382716049382706,56.24691358024691,0)" xlink:href="#ah"/><use transform="matrix(0.049382716049382706,0,0,0.049382716049382706,65.1358024691358,0)" xlink:href="#ai"/><use transform="matrix(0.049382716049382706,0,0,0.049382716049382706,69.03703703703702,0)" xlink:href="#ad"/><use transform="matrix(0.049382716049382706,0,0,0.049382716049382706,78.91358024691357,0)" xlink:href="#aj"/><use transform="matrix(0.049382716049382706,0,0,0.049382716049382706,84.79012345679011,0)" xlink:href="#ak"/><use transform="matrix(0.049382716049382706,0,0,0.049382716049382706,91.06172839506172,0)" xlink:href="#ac"/><use transform="matrix(0.049382716049382706,0,0,0.049382716049382706,99.9506172839506,0)" xlink:href="#al"/><use transform="matrix(0.049382716049382706,0,0,0.049382716049382706,109.82716049382717,0)" xlink:href="#am"/><use transform="matrix(0.049382716049382706,0,0,0.049382716049382706,119.70370370370371,0)" xlink:href="#am"/><use transform="matrix(0.049382716049382706,0,0,0.049382716049382706,129.58024691358023,0)" xlink:href="#ad"/><use transform="matrix(0.049382716049382706,0,0,0.049382716049382706,139.45679012345676,0)" xlink:href="#ac"/><use transform="matrix(0.049382716049382706,0,0,0.049382716049382706,148.34567901234564,0)" xlink:href="#ae"/><use transform="matrix(0.049382716049382706,0,0,0.049382716049382706,153.28395061728392,0)" xlink:href="#ai"/><use transform="matrix(0.049382716049382706,0,0,0.049382716049382706,157.18518518518516,0)" xlink:href="#ag"/><use transform="matrix(0.049382716049382706,0,0,0.049382716049382706,167.0617283950617,0)" xlink:href="#an"/><use transform="matrix(0.049382716049382706,0,0,0.049382716049382706,176.93827160493822,0)" xlink:href="#ac"/><use transform="matrix(0.049382716049382706,0,0,0.049382716049382706,185.8271604938271,0)" xlink:href="#ak"/><use transform="matrix(0.049382716049382706,0,0,0.049382716049382706,192.0987654320987,0)" xlink:href="#ao"/><use transform="matrix(0.049382716049382706,0,0,0.049382716049382706,197.03703703703698,0)" xlink:href="#aj"/><use transform="matrix(0.049382716049382706,0,0,0.049382716049382706,202.91358024691348,0)" xlink:href="#ap"/><use transform="matrix(0.049382716049382706,0,0,0.049382716049382706,212.79012345679004,0)" xlink:href="#aq"/><use transform="matrix(0.049382716049382706,0,0,0.049382716049382706,218.66666666666657,0)" xlink:href="#aq"/><use transform="matrix(0.049382716049382706,0,0,0.049382716049382706,224.54320987654313,0)" xlink:href="#ap"/><use transform="matrix(0.049382716049382706,0,0,0.049382716049382706,234.4197530864196,0)" xlink:href="#ar"/><use transform="matrix(0.049382716049382706,0,0,0.049382716049382706,243.30864197530852,0)" xlink:href="#aj"/><use transform="matrix(0.049382716049382706,0,0,0.049382716049382706,249.18518518518505,0)" xlink:href="#ai"/><use transform="matrix(0.049382716049382706,0,0,0.049382716049382706,253.0864197530863,0)" xlink:href="#as"/><use transform="matrix(0.049382716049382706,0,0,0.049382716049382706,262.9629629629628,0)" xlink:href="#ac"/><use transform="matrix(0.049382716049382706,0,0,0.049382716049382706,271.85185185185173,0)" xlink:href="#at"/><use transform="matrix(0.049382716049382706,0,0,0.049382716049382706,277.7283950617283,0)" xlink:href="#at"/></g><path fill="#333" d="M205 0l-28-72H64L36 0H1l101-248h38L239 0h-34zm-38-99l-47-123c-12 45-31 82-46 123h93" id="au"/><path fill="#333" d="M96-169c-40 0-48 33-48 73s9 75 48 75c24 0 41-14 43-38l32 2c-6 37-31 61-74 61-59 0-76-41-82-99-10-93 101-131 147-64 4 7 5 14 7 22l-32 3c-4-21-16-35-41-35" id="av"/><path fill="#333" d="M160-131c35 5 61 23 61 61C221 17 115-2 30 0v-248c76 3 177-17 177 60 0 33-19 50-47 57zm-97-11c50-1 110 9 110-42 0-47-63-36-110-37v79zm0 115c55-2 124 14 124-45 0-56-70-42-124-44v89" id="aw"/><path fill="#333" d="M33 0v-248h34V0H33" id="ax"/><g id="b"><use transform="matrix(0.04320987654320987,0,0,0.04320987654320987,0,0)" xlink:href="#am"/><use transform="matrix(0.04320987654320987,0,0,0.04320987654320987,8.641975308641973,0)" xlink:href="#ad"/><use transform="matrix(0.04320987654320987,0,0,0.04320987654320987,17.283950617283946,0)" xlink:href="#ae"/><use transform="matrix(0.04320987654320987,0,0,0.04320987654320987,21.604938271604933,0)" xlink:href="#au"/><use transform="matrix(0.04320987654320987,0,0,0.04320987654320987,31.975308641975303,0)" xlink:href="#al"/><use transform="matrix(0.04320987654320987,0,0,0.04320987654320987,40.61728395061728,0)" xlink:href="#av"/><use transform="matrix(0.04320987654320987,0,0,0.04320987654320987,48.39506172839506,0)" xlink:href="#ae"/><use transform="matrix(0.04320987654320987,0,0,0.04320987654320987,52.71604938271605,0)" xlink:href="#ai"/><use transform="matrix(0.04320987654320987,0,0,0.04320987654320987,56.129629629629626,0)" xlink:href="#ag"/><use transform="matrix(0.04320987654320987,0,0,0.04320987654320987,64.7716049382716,0)" xlink:href="#an"/><use transform="matrix(0.04320987654320987,0,0,0.04320987654320987,73.41358024691357,0)" xlink:href="#aw"/><use transform="matrix(0.04320987654320987,0,0,0.04320987654320987,83.78395061728394,0)" xlink:href="#ar"/><use transform="matrix(0.04320987654320987,0,0,0.04320987654320987,91.5617283950617,0)" xlink:href="#ax"/><use transform="matrix(0.04320987654320987,0,0,0.04320987654320987,95.8827160493827,0)" xlink:href="#as"/><use transform="matrix(0.04320987654320987,0,0,0.04320987654320987,104.52469135802467,0)" xlink:href="#aj"/><use transform="matrix(0.04320987654320987,0,0,0.04320987654320987,109.66666666666664,0)" xlink:href="#ap"/><use transform="matrix(0.04320987654320987,0,0,0.04320987654320987,118.30864197530862,0)" xlink:href="#al"/><use transform="matrix(0.04320987654320987,0,0,0.04320987654320987,126.95061728395059,0)" xlink:href="#av"/><use transform="matrix(0.04320987654320987,0,0,0.04320987654320987,134.72839506172838,0)" xlink:href="#ae"/><use transform="matrix(0.04320987654320987,0,0,0.04320987654320987,139.04938271604937,0)" xlink:href="#ai"/><use transform="matrix(0.04320987654320987,0,0,0.04320987654320987,142.46296296296293,0)" xlink:href="#ag"/><use transform="matrix(0.04320987654320987,0,0,0.04320987654320987,151.1049382716049,0)" xlink:href="#an"/><use transform="matrix(0.04320987654320987,0,0,0.04320987654320987,159.74691358024688,0)" xlink:href="#ai"/><use transform="matrix(0.04320987654320987,0,0,0.04320987654320987,163.16049382716045,0)" xlink:href="#as"/><use transform="matrix(0.04320987654320987,0,0,0.04320987654320987,171.80246913580243,0)" xlink:href="#at"/></g><path fill="#333" d="M101-234c-31-9-42 10-38 44h38v23H63V0H32v-167H5v-23h27c-7-52 17-82 69-68v24" id="ay"/><g id="c"><use transform="matrix(0.030864197530864182,0,0,0.030864197530864182,0,0)" xlink:href="#ap"/><use transform="matrix(0.030864197530864182,0,0,0.030864197530864182,6.172839506172837,0)" xlink:href="#al"/><use transform="matrix(0.030864197530864182,0,0,0.030864197530864182,12.345679012345673,0)" xlink:href="#av"/><use transform="matrix(0.030864197530864182,0,0,0.030864197530864182,17.901234567901227,0)" xlink:href="#ae"/><use transform="matrix(0.030864197530864182,0,0,0.030864197530864182,20.987654320987644,0)" xlink:href="#ai"/><use transform="matrix(0.030864197530864182,0,0,0.030864197530864182,23.425925925925917,0)" xlink:href="#ag"/><use transform="matrix(0.030864197530864182,0,0,0.030864197530864182,29.59876543209875,0)" xlink:href="#an"/><use transform="matrix(0.030864197530864182,0,0,0.030864197530864182,35.77160493827159,0)" xlink:href="#ao"/><use transform="matrix(0.030864197530864182,0,0,0.030864197530864182,38.858024691358004,0)" xlink:href="#ag"/><use transform="matrix(0.030864197530864182,0,0,0.030864197530864182,45.03086419753084,0)" xlink:href="#ay"/><use transform="matrix(0.030864197530864182,0,0,0.030864197530864182,47.901234567901206,0)" xlink:href="#ay"/><use transform="matrix(0.030864197530864182,0,0,0.030864197530864182,50.98765432098762,0)" xlink:href="#ad"/><use transform="matrix(0.030864197530864182,0,0,0.030864197530864182,57.16049382716046,0)" xlink:href="#aq"/><use transform="matrix(0.030864197530864182,0,0,0.030864197530864182,60.83333333333329,0)" xlink:href="#ae"/><use transform="matrix(0.030864197530864182,0,0,0.030864197530864182,63.9197530864197,0)" xlink:href="#ac"/></g><g id="d"><use transform="matrix(0.02469135802469134,0,0,0.02469135802469134,0,0)" xlink:href="#ac"/><use transform="matrix(0.02469135802469134,0,0,0.02469135802469134,4.444444444444441,0)" xlink:href="#ad"/><use transform="matrix(0.02469135802469134,0,0,0.02469135802469134,9.382716049382708,0)" xlink:href="#an"/><use transform="matrix(0.02469135802469134,0,0,0.02469135802469134,14.320987654320977,0)" xlink:href="#as"/></g><path fill="#333" d="M115-194c53 0 69 39 70 98 0 66-23 100-70 100C84 3 66-7 56-30L54 0H23l1-261h32v101c10-23 28-34 59-34zm-8 174c40 0 45-34 45-75 0-40-5-75-45-74-42 0-51 32-51 76 0 43 10 73 51 73" id="az"/><g id="e"><use transform="matrix(0.02469135802469134,0,0,0.02469135802469134,0,0)" xlink:href="#az"/><use transform="matrix(0.02469135802469134,0,0,0.02469135802469134,4.938271604938268,0)" xlink:href="#ap"/><use transform="matrix(0.02469135802469134,0,0,0.02469135802469134,9.876543209876536,0)" xlink:href="#av"/><use transform="matrix(0.02469135802469134,0,0,0.02469135802469134,14.320987654320977,0)" xlink:href="#ah"/></g><g id="f"><use transform="matrix(0.02469135802469134,0,0,0.02469135802469134,0,0)" xlink:href="#ap"/><use transform="matrix(0.02469135802469134,0,0,0.02469135802469134,4.938271604938268,0)" xlink:href="#al"/><use transform="matrix(0.02469135802469134,0,0,0.02469135802469134,9.876543209876536,0)" xlink:href="#av"/><use transform="matrix(0.02469135802469134,0,0,0.02469135802469134,14.320987654320977,0)" xlink:href="#ae"/><use transform="matrix(0.02469135802469134,0,0,0.02469135802469134,16.79012345679011,0)" xlink:href="#ai"/><use transform="matrix(0.02469135802469134,0,0,0.02469135802469134,18.740740740740726,0)" xlink:href="#ag"/><use transform="matrix(0.02469135802469134,0,0,0.02469135802469134,23.679012345678995,0)" xlink:href="#an"/></g><path fill="#333" d="M24 0v-261h32V0H24" id="aA"/><g id="g"><use transform="matrix(0.02469135802469134,0,0,0.02469135802469134,0,0)" xlink:href="#as"/><use transform="matrix(0.02469135802469134,0,0,0.02469135802469134,4.938271604938268,0)" xlink:href="#ad"/><use transform="matrix(0.02469135802469134,0,0,0.02469135802469134,9.876543209876536,0)" xlink:href="#ae"/><use transform="matrix(0.02469135802469134,0,0,0.02469135802469134,12.34567901234567,0)" xlink:href="#ap"/><use transform="matrix(0.02469135802469134,0,0,0.02469135802469134,17.28395061728394,0)" xlink:href="#ai"/><use transform="matrix(0.02469135802469134,0,0,0.02469135802469134,19.234567901234556,0)" xlink:href="#aA"/><use transform="matrix(0.02469135802469134,0,0,0.02469135802469134,21.185185185185173,0)" xlink:href="#ac"/></g><g id="h"><use transform="matrix(0.02469135802469134,0,0,0.02469135802469134,0,0)" xlink:href="#ap"/><use transform="matrix(0.02469135802469134,0,0,0.02469135802469134,4.938271604938268,0)" xlink:href="#an"/><use transform="matrix(0.02469135802469134,0,0,0.02469135802469134,9.876543209876536,0)" xlink:href="#as"/></g><g id="i"><use transform="matrix(0.02469135802469134,0,0,0.02469135802469134,0,0)" xlink:href="#ag"/><use transform="matrix(0.02469135802469134,0,0,0.02469135802469134,4.938271604938268,0)" xlink:href="#ay"/><use transform="matrix(0.02469135802469134,0,0,0.02469135802469134,7.234567901234563,0)" xlink:href="#ay"/><use transform="matrix(0.02469135802469134,0,0,0.02469135802469134,9.703703703703697,0)" xlink:href="#ad"/><use transform="matrix(0.02469135802469134,0,0,0.02469135802469134,14.641975308641964,0)" xlink:href="#aq"/><use transform="matrix(0.02469135802469134,0,0,0.02469135802469134,17.580246913580233,0)" xlink:href="#ae"/><use transform="matrix(0.02469135802469134,0,0,0.02469135802469134,20.049382716049365,0)" xlink:href="#ac"/></g><g id="j"><use transform="matrix(0.02469135802469134,0,0,0.02469135802469134,0,0)" xlink:href="#aA"/><use transform="matrix(0.02469135802469134,0,0,0.02469135802469134,1.9506172839506157,0)" xlink:href="#ai"/><use transform="matrix(0.02469135802469134,0,0,0.02469135802469134,3.9012345679012315,0)" xlink:href="#ac"/><use transform="matrix(0.02469135802469134,0,0,0.02469135802469134,8.345679012345673,0)" xlink:href="#ae"/></g><path fill="#333" d="M30-248c87 1 191-15 191 75 0 78-77 80-158 76V0H30v-248zm33 125c57 0 124 11 124-50 0-59-68-47-124-48v98" id="aB"/><g id="k"><use transform="matrix(0.03703703703703702,0,0,0.03703703703703702,0,0)" xlink:href="#as"/><use transform="matrix(0.03703703703703702,0,0,0.03703703703703702,7.407407407407404,0)" xlink:href="#ag"/><use transform="matrix(0.03703703703703702,0,0,0.03703703703703702,14.814814814814808,0)" xlink:href="#aB"/><use transform="matrix(0.03703703703703702,0,0,0.03703703703703702,23.703703703703695,0)" xlink:href="#ag"/><use transform="matrix(0.03703703703703702,0,0,0.03703703703703702,31.111111111111104,0)" xlink:href="#ac"/><use transform="matrix(0.03703703703703702,0,0,0.03703703703703702,37.777777777777764,0)" xlink:href="#ae"/></g><path fill="#333" d="M0 4l72-265h28L28 4H0" id="aC"/><path fill="#333" d="M30-248c118-7 216 8 213 122C240-48 200 0 122 0H30v-248zM63-27c89 8 146-16 146-99s-60-101-146-95v194" id="aD"/><g id="l"><use transform="matrix(0.03703703703703702,0,0,0.03703703703703702,0,0)" xlink:href="#aC"/><use transform="matrix(0.03703703703703702,0,0,0.03703703703703702,3.703703703703702,0)" xlink:href="#aD"/><use transform="matrix(0.03703703703703702,0,0,0.03703703703703702,13.29629629629629,0)" xlink:href="#ad"/><use transform="matrix(0.03703703703703702,0,0,0.03703703703703702,20.703703703703695,0)" xlink:href="#ae"/><use transform="matrix(0.03703703703703702,0,0,0.03703703703703702,24.407407407407398,0)" xlink:href="#ap"/><use transform="matrix(0.03703703703703702,0,0,0.03703703703703702,31.814814814814802,0)" xlink:href="#ai"/><use transform="matrix(0.03703703703703702,0,0,0.03703703703703702,34.740740740740726,0)" xlink:href="#aA"/><use transform="matrix(0.03703703703703702,0,0,0.03703703703703702,37.66666666666665,0)" xlink:href="#ac"/></g><path fill="#333" d="M140-251c81 0 123 46 123 126C263-46 219 4 140 4 59 4 17-45 17-125s42-126 123-126zm0 227c63 0 89-41 89-101s-29-99-89-99c-61 0-89 39-89 99S79-25 140-24" id="aE"/><path fill="#333" d="M185-189c-5-48-123-54-124 2 14 75 158 14 163 119 3 78-121 87-175 55-17-10-28-26-33-46l33-7c5 56 141 63 141-1 0-78-155-14-162-118-5-82 145-84 179-34 5 7 8 16 11 25" id="aF"/><path fill="#333" d="M127-220V0H93v-220H8v-28h204v28h-85" id="aG"/><g id="m"><use transform="matrix(0.03703703703703702,0,0,0.03703703703703702,0,0)" xlink:href="#aB"/><use transform="matrix(0.03703703703703702,0,0,0.03703703703703702,8.888888888888886,0)" xlink:href="#aE"/><use transform="matrix(0.03703703703703702,0,0,0.03703703703703702,19.259259259259252,0)" xlink:href="#aF"/><use transform="matrix(0.03703703703703702,0,0,0.03703703703703702,28.14814814814814,0)" xlink:href="#aG"/></g><g id="n"><use transform="matrix(0.03703703703703702,0,0,0.03703703703703702,0,0)" xlink:href="#aj"/><use transform="matrix(0.03703703703703702,0,0,0.03703703703703702,4.407407407407406,0)" xlink:href="#ap"/><use transform="matrix(0.03703703703703702,0,0,0.03703703703703702,11.81481481481481,0)" xlink:href="#al"/><use transform="matrix(0.03703703703703702,0,0,0.03703703703703702,19.222222222222214,0)" xlink:href="#av"/><use transform="matrix(0.03703703703703702,0,0,0.03703703703703702,25.88888888888888,0)" xlink:href="#ae"/><use transform="matrix(0.03703703703703702,0,0,0.03703703703703702,29.59259259259258,0)" xlink:href="#ai"/><use transform="matrix(0.03703703703703702,0,0,0.03703703703703702,32.518518518518505,0)" xlink:href="#ag"/><use transform="matrix(0.03703703703703702,0,0,0.03703703703703702,39.92592592592591,0)" xlink:href="#an"/><use transform="matrix(0.03703703703703702,0,0,0.03703703703703702,47.333333333333314,0)" xlink:href="#ai"/><use transform="matrix(0.03703703703703702,0,0,0.03703703703703702,50.25925925925924,0)" xlink:href="#as"/><use transform="matrix(0.03703703703703702,0,0,0.03703703703703702,57.66666666666664,0)" xlink:href="#at"/></g><path fill="#333" d="M106-169C34-169 62-67 57 0H25v-261h32l-1 103c12-21 28-36 61-36 89 0 53 116 60 194h-32v-121c2-32-8-49-39-48" id="aH"/><path fill="#333" d="M210-169c-67 3-38 105-44 169h-31v-121c0-29-5-50-35-48C34-165 62-65 56 0H25l-1-190h30c1 10-1 24 2 32 10-44 99-50 107 0 11-21 27-35 58-36 85-2 47 119 55 194h-31v-121c0-29-5-49-35-48" id="aI"/><path fill="#333" d="M33 0v-38h34V0H33" id="aJ"/><g id="o"><use transform="matrix(0.06172839506172839,0,0,0.06172839506172839,0,0)" xlink:href="#aH"/><use transform="matrix(0.06172839506172839,0,0,0.06172839506172839,12.345679012345679,0)" xlink:href="#ag"/><use transform="matrix(0.06172839506172839,0,0,0.06172839506172839,24.691358024691358,0)" xlink:href="#aI"/><use transform="matrix(0.06172839506172839,0,0,0.06172839506172839,43.148148148148145,0)" xlink:href="#ad"/><use transform="matrix(0.06172839506172839,0,0,0.06172839506172839,55.49382716049382,0)" xlink:href="#aJ"/><use transform="matrix(0.06172839506172839,0,0,0.06172839506172839,61.666666666666664,0)" xlink:href="#aH"/><use transform="matrix(0.06172839506172839,0,0,0.06172839506172839,74.01234567901234,0)" xlink:href="#ae"/><use transform="matrix(0.06172839506172839,0,0,0.06172839506172839,80.18518518518518,0)" xlink:href="#aI"/><use transform="matrix(0.06172839506172839,0,0,0.06172839506172839,98.64197530864196,0)" xlink:href="#aA"/></g><path fill="#333" d="M206 0h-36l-40-164L89 0H53L-1-190h32L70-26l43-164h34l41 164 42-164h31" id="aK"/><g id="p"><use transform="matrix(0.06172839506172839,0,0,0.06172839506172839,0,0)" xlink:href="#aF"/><use transform="matrix(0.06172839506172839,0,0,0.06172839506172839,14.814814814814813,0)" xlink:href="#aH"/><use transform="matrix(0.06172839506172839,0,0,0.06172839506172839,27.160493827160494,0)" xlink:href="#ag"/><use transform="matrix(0.06172839506172839,0,0,0.06172839506172839,39.50617283950617,0)" xlink:href="#aK"/><use transform="matrix(0.06172839506172839,0,0,0.06172839506172839,55.49382716049382,0)" xlink:href="#au"/><use transform="matrix(0.06172839506172839,0,0,0.06172839506172839,70.30864197530863,0)" xlink:href="#al"/><use transform="matrix(0.06172839506172839,0,0,0.06172839506172839,82.65432098765432,0)" xlink:href="#av"/><use transform="matrix(0.06172839506172839,0,0,0.06172839506172839,93.76543209876543,0)" xlink:href="#ae"/><use transform="matrix(0.06172839506172839,0,0,0.06172839506172839,99.93827160493827,0)" xlink:href="#ai"/><use transform="matrix(0.06172839506172839,0,0,0.06172839506172839,104.81481481481481,0)" xlink:href="#ag"/><use transform="matrix(0.06172839506172839,0,0,0.06172839506172839,117.1604938271605,0)" xlink:href="#an"/><use transform="matrix(0.06172839506172839,0,0,0.06172839506172839,129.50617283950618,0)" xlink:href="#aD"/><use transform="matrix(0.06172839506172839,0,0,0.06172839506172839,145.49382716049382,0)" xlink:href="#ad"/><use transform="matrix(0.06172839506172839,0,0,0.06172839506172839,157.8395061728395,0)" xlink:href="#ae"/><use transform="matrix(0.06172839506172839,0,0,0.06172839506172839,164.01234567901233,0)" xlink:href="#ap"/><use transform="matrix(0.06172839506172839,0,0,0.06172839506172839,176.358024691358,0)" xlink:href="#ai"/><use transform="matrix(0.06172839506172839,0,0,0.06172839506172839,181.23456790123453,0)" xlink:href="#aA"/><use transform="matrix(0.06172839506172839,0,0,0.06172839506172839,186.11111111111106,0)" xlink:href="#ac"/></g><path fill="#ef8d22" d="M205 0l-28-72H64L36 0H1l101-248h38L239 0h-34zm-38-99l-47-123c-12 45-31 82-46 123h93" id="aL"/><path fill="#ef8d22" d="M84 4C-5 8 30-112 23-190h32v120c0 31 7 50 39 49 72-2 45-101 50-169h31l1 190h-30c-1-10 1-25-2-33-11 22-28 36-60 37" id="aM"/><path fill="#ef8d22" d="M96-169c-40 0-48 33-48 73s9 75 48 75c24 0 41-14 43-38l32 2c-6 37-31 61-74 61-59 0-76-41-82-99-10-93 101-131 147-64 4 7 5 14 7 22l-32 3c-4-21-16-35-41-35" id="aN"/><path fill="#ef8d22" d="M59-47c-2 24 18 29 38 22v24C64 9 27 4 27-40v-127H5v-23h24l9-43h21v43h35v23H59v120" id="aO"/><path fill="#ef8d22" d="M24-231v-30h32v30H24zM24 0v-190h32V0H24" id="aP"/><path fill="#ef8d22" d="M100-194c62-1 85 37 85 99 1 63-27 99-86 99S16-35 15-95c0-66 28-99 85-99zM99-20c44 1 53-31 53-75 0-43-8-75-51-75s-53 32-53 75 10 74 51 75" id="aQ"/><path fill="#ef8d22" d="M117-194c89-4 53 116 60 194h-32v-121c0-31-8-49-39-48C34-167 62-67 57 0H25l-1-190h30c1 10-1 24 2 32 11-22 29-35 61-36" id="aR"/><path fill="#ef8d22" d="M30-248c118-7 216 8 213 122C240-48 200 0 122 0H30v-248zM63-27c89 8 146-16 146-99s-60-101-146-95v194" id="aS"/><path fill="#ef8d22" d="M100-194c63 0 86 42 84 106H49c0 40 14 67 53 68 26 1 43-12 49-29l28 8c-11 28-37 45-77 45C44 4 14-33 15-96c1-61 26-98 85-98zm52 81c6-60-76-77-97-28-3 7-6 17-6 28h103" id="aT"/><path fill="#ef8d22" d="M141-36C126-15 110 5 73 4 37 3 15-17 15-53c-1-64 63-63 125-63 3-35-9-54-41-54-24 1-41 7-42 31l-33-3c5-37 33-52 76-52 45 0 72 20 72 64v82c-1 20 7 32 28 27v20c-31 9-61-2-59-35zM48-53c0 20 12 33 32 33 41-3 63-29 60-74-43 2-92-5-92 41" id="aU"/><path fill="#ef8d22" d="M24 0v-261h32V0H24" id="aV"/><path fill="#ef8d22" d="M135-143c-3-34-86-38-87 0 15 53 115 12 119 90S17 21 10-45l28-5c4 36 97 45 98 0-10-56-113-15-118-90-4-57 82-63 122-42 12 7 21 19 24 35" id="aW"/><path fill="#ef8d22" d="M33 0v-38h34V0H33" id="aX"/><path fill="#ef8d22" d="M24-231v-30h32v30H24zM-9 49c24 4 33-6 33-30v-209h32V24c2 40-23 58-65 49V49" id="aY"/><g id="q"><use transform="matrix(0.04320987654320987,0,0,0.04320987654320987,0,0)" xlink:href="#aL"/><use transform="matrix(0.04320987654320987,0,0,0.04320987654320987,10.370370370370368,0)" xlink:href="#aM"/><use transform="matrix(0.04320987654320987,0,0,0.04320987654320987,19.01234567901234,0)" xlink:href="#aN"/><use transform="matrix(0.04320987654320987,0,0,0.04320987654320987,26.790123456790116,0)" xlink:href="#aO"/><use transform="matrix(0.04320987654320987,0,0,0.04320987654320987,31.111111111111104,0)" xlink:href="#aP"/><use transform="matrix(0.04320987654320987,0,0,0.04320987654320987,34.52469135802468,0)" xlink:href="#aQ"/><use transform="matrix(0.04320987654320987,0,0,0.04320987654320987,43.16666666666666,0)" xlink:href="#aR"/><use transform="matrix(0.04320987654320987,0,0,0.04320987654320987,51.80864197530863,0)" xlink:href="#aS"/><use transform="matrix(0.04320987654320987,0,0,0.04320987654320987,62.999999999999986,0)" xlink:href="#aT"/><use transform="matrix(0.04320987654320987,0,0,0.04320987654320987,71.64197530864196,0)" xlink:href="#aO"/><use transform="matrix(0.04320987654320987,0,0,0.04320987654320987,75.96296296296295,0)" xlink:href="#aU"/><use transform="matrix(0.04320987654320987,0,0,0.04320987654320987,84.60493827160492,0)" xlink:href="#aP"/><use transform="matrix(0.04320987654320987,0,0,0.04320987654320987,88.0185185185185,0)" xlink:href="#aV"/><use transform="matrix(0.04320987654320987,0,0,0.04320987654320987,91.43209876543207,0)" xlink:href="#aW"/><use transform="matrix(0.04320987654320987,0,0,0.04320987654320987,99.20987654320986,0)" xlink:href="#aX"/><use transform="matrix(0.04320987654320987,0,0,0.04320987654320987,103.53086419753085,0)" xlink:href="#aY"/><use transform="matrix(0.04320987654320987,0,0,0.04320987654320987,106.94444444444441,0)" xlink:href="#aW"/></g><g id="r"><use transform="matrix(0.030864197530864182,0,0,0.030864197530864182,0,0)" xlink:href="#af"/><use transform="matrix(0.030864197530864182,0,0,0.030864197530864182,7.993827160493823,0)" xlink:href="#aA"/><use transform="matrix(0.030864197530864182,0,0,0.030864197530864182,10.432098765432094,0)" xlink:href="#ai"/><use transform="matrix(0.030864197530864182,0,0,0.030864197530864182,12.870370370370365,0)" xlink:href="#av"/><use transform="matrix(0.030864197530864182,0,0,0.030864197530864182,18.425925925925917,0)" xlink:href="#ah"/></g><g id="s"><use transform="matrix(0.030864197530864182,0,0,0.030864197530864182,0,0)" xlink:href="#aw"/><use transform="matrix(0.030864197530864182,0,0,0.030864197530864182,7.407407407407404,0)" xlink:href="#al"/><use transform="matrix(0.030864197530864182,0,0,0.030864197530864182,13.58024691358024,0)" xlink:href="#ae"/><use transform="matrix(0.030864197530864182,0,0,0.030864197530864182,16.666666666666657,0)" xlink:href="#ae"/><use transform="matrix(0.030864197530864182,0,0,0.030864197530864182,19.753086419753075,0)" xlink:href="#ag"/><use transform="matrix(0.030864197530864182,0,0,0.030864197530864182,25.92592592592591,0)" xlink:href="#an"/></g><g id="t"><use transform="matrix(0.030864197530864182,0,0,0.030864197530864182,0,0)" xlink:href="#aF"/><use transform="matrix(0.030864197530864182,0,0,0.030864197530864182,7.407407407407404,0)" xlink:href="#aH"/><use transform="matrix(0.030864197530864182,0,0,0.030864197530864182,13.58024691358024,0)" xlink:href="#ag"/><use transform="matrix(0.030864197530864182,0,0,0.030864197530864182,19.753086419753075,0)" xlink:href="#aK"/></g><g id="u"><use transform="matrix(0.030864197530864182,0,0,0.030864197530864182,0,0)" xlink:href="#aD"/><use transform="matrix(0.030864197530864182,0,0,0.030864197530864182,7.993827160493823,0)" xlink:href="#ad"/><use transform="matrix(0.030864197530864182,0,0,0.030864197530864182,14.16666666666666,0)" xlink:href="#ae"/><use transform="matrix(0.030864197530864182,0,0,0.030864197530864182,17.253086419753078,0)" xlink:href="#ap"/><use transform="matrix(0.030864197530864182,0,0,0.030864197530864182,23.425925925925917,0)" xlink:href="#ai"/><use transform="matrix(0.030864197530864182,0,0,0.030864197530864182,25.86419753086419,0)" xlink:href="#aA"/><use transform="matrix(0.030864197530864182,0,0,0.030864197530864182,28.30246913580246,0)" xlink:href="#ac"/></g><path fill="#c92d39" d="M26 75v-336h71v23H56V52h41v23H26" id="aZ"/><path fill="#c92d39" d="M135-143c-3-34-86-38-87 0 15 53 115 12 119 90S17 21 10-45l28-5c4 36 97 45 98 0-10-56-113-15-118-90-4-57 82-63 122-42 12 7 21 19 24 35" id="ba"/><path fill="#c92d39" d="M100-194c63 0 86 42 84 106H49c0 40 14 67 53 68 26 1 43-12 49-29l28 8c-11 28-37 45-77 45C44 4 14-33 15-96c1-61 26-98 85-98zm52 81c6-60-76-77-97-28-3 7-6 17-6 28h103" id="bb"/><path fill="#c92d39" d="M114-163C36-179 61-72 57 0H25l-1-190h30c1 12-1 29 2 39 6-27 23-49 58-41v29" id="bc"/><path fill="#c92d39" d="M108 0H70L1-190h34L89-25l56-165h34" id="bd"/><g id="v"><use transform="matrix(0.030864197530864182,0,0,0.030864197530864182,0,0)" xlink:href="#aZ"/><use transform="matrix(0.030864197530864182,0,0,0.030864197530864182,3.0864197530864184,0)" xlink:href="#ba"/><use transform="matrix(0.030864197530864182,0,0,0.030864197530864182,8.641975308641971,0)" xlink:href="#bb"/><use transform="matrix(0.030864197530864182,0,0,0.030864197530864182,14.814814814814808,0)" xlink:href="#bc"/><use transform="matrix(0.030864197530864182,0,0,0.030864197530864182,18.487654320987644,0)" xlink:href="#bd"/><use transform="matrix(0.030864197530864182,0,0,0.030864197530864182,24.043209876543198,0)" xlink:href="#bb"/><use transform="matrix(0.030864197530864182,0,0,0.030864197530864182,30.216049382716037,0)" xlink:href="#bc"/></g><path fill="#c92d39" d="M100-194c62-1 85 37 85 99 1 63-27 99-86 99S16-35 15-95c0-66 28-99 85-99zM99-20c44 1 53-31 53-75 0-43-8-75-51-75s-53 32-53 75 10 74 51 75" id="be"/><g id="w"><use transform="matrix(0.030864197530864182,0,0,0.030864197530864182,0,0)" xlink:href="#bb"/><use transform="matrix(0.030864197530864182,0,0,0.030864197530864182,6.172839506172837,0)" xlink:href="#bc"/><use transform="matrix(0.030864197530864182,0,0,0.030864197530864182,9.845679012345673,0)" xlink:href="#bc"/><use transform="matrix(0.030864197530864182,0,0,0.030864197530864182,13.518518518518512,0)" xlink:href="#be"/><use transform="matrix(0.030864197530864182,0,0,0.030864197530864182,19.691358024691347,0)" xlink:href="#bc"/></g><path fill="#c92d39" d="M155-56V0h-30v-56H8v-25l114-167h33v167h35v25h-35zm-30-156c-27 46-58 90-88 131h88v-131" id="bf"/><path fill="#c92d39" d="M101-251c68 0 85 55 85 127S166 4 100 4C33 4 14-52 14-124c0-73 17-127 87-127zm-1 229c47 0 54-49 54-102s-4-102-53-102c-51 0-55 48-55 102 0 53 5 102 54 102" id="bg"/><path fill="#c92d39" d="M3 75V52h41v-290H3v-23h71V75H3" id="bh"/><g id="x"><use transform="matrix(0.030864197530864182,0,0,0.030864197530864182,0,0)" xlink:href="#bf"/><use transform="matrix(0.030864197530864182,0,0,0.030864197530864182,6.172839506172837,0)" xlink:href="#bg"/><use transform="matrix(0.030864197530864182,0,0,0.030864197530864182,12.345679012345673,0)" xlink:href="#bg"/><use transform="matrix(0.030864197530864182,0,0,0.030864197530864182,18.518518518518512,0)" xlink:href="#bh"/></g><path fill="#c92d39" d="M141-36C126-15 110 5 73 4 37 3 15-17 15-53c-1-64 63-63 125-63 3-35-9-54-41-54-24 1-41 7-42 31l-33-3c5-37 33-52 76-52 45 0 72 20 72 64v82c-1 20 7 32 28 27v20c-31 9-61-2-59-35zM48-53c0 20 12 33 32 33 41-3 63-29 60-74-43 2-92-5-92 41" id="bi"/><path fill="#c92d39" d="M84 4C-5 8 30-112 23-190h32v120c0 31 7 50 39 49 72-2 45-101 50-169h31l1 190h-30c-1-10 1-25-2-33-11 22-28 36-60 37" id="bj"/><path fill="#c92d39" d="M96-169c-40 0-48 33-48 73s9 75 48 75c24 0 41-14 43-38l32 2c-6 37-31 61-74 61-59 0-76-41-82-99-10-93 101-131 147-64 4 7 5 14 7 22l-32 3c-4-21-16-35-41-35" id="bk"/><path fill="#c92d39" d="M59-47c-2 24 18 29 38 22v24C64 9 27 4 27-40v-127H5v-23h24l9-43h21v43h35v23H59v120" id="bl"/><path fill="#c92d39" d="M24-231v-30h32v30H24zM24 0v-190h32V0H24" id="bm"/><path fill="#c92d39" d="M117-194c89-4 53 116 60 194h-32v-121c0-31-8-49-39-48C34-167 62-67 57 0H25l-1-190h30c1 10-1 24 2 32 11-22 29-35 61-36" id="bn"/><g id="y"><use transform="matrix(0.030864197530864182,0,0,0.030864197530864182,0,0)" xlink:href="#bi"/><use transform="matrix(0.030864197530864182,0,0,0.030864197530864182,6.172839506172837,0)" xlink:href="#bj"/><use transform="matrix(0.030864197530864182,0,0,0.030864197530864182,12.345679012345673,0)" xlink:href="#bk"/><use transform="matrix(0.030864197530864182,0,0,0.030864197530864182,17.901234567901227,0)" xlink:href="#bl"/><use transform="matrix(0.030864197530864182,0,0,0.030864197530864182,20.987654320987644,0)" xlink:href="#bm"/><use transform="matrix(0.030864197530864182,0,0,0.030864197530864182,23.425925925925917,0)" xlink:href="#be"/><use transform="matrix(0.030864197530864182,0,0,0.030864197530864182,29.59876543209875,0)" xlink:href="#bn"/></g><path fill="#c92d39" d="M240 0l2-218c-23 76-54 145-80 218h-23L58-218 59 0H30v-248h44l77 211c21-75 51-140 76-211h43V0h-30" id="bo"/><path fill="#c92d39" d="M177-190C167-65 218 103 67 71c-23-6-38-20-44-43l32-5c15 47 100 32 89-28v-30C133-14 115 1 83 1 29 1 15-40 15-95c0-56 16-97 71-98 29-1 48 16 59 35 1-10 0-23 2-32h30zM94-22c36 0 50-32 50-73 0-42-14-75-50-75-39 0-46 34-46 75s6 73 46 73" id="bp"/><g id="z"><use transform="matrix(0.030864197530864182,0,0,0.030864197530864182,0,0)" xlink:href="#bb"/><use transform="matrix(0.030864197530864182,0,0,0.030864197530864182,6.172839506172837,0)" xlink:href="#bc"/><use transform="matrix(0.030864197530864182,0,0,0.030864197530864182,9.845679012345673,0)" xlink:href="#bc"/><use transform="matrix(0.030864197530864182,0,0,0.030864197530864182,13.518518518518512,0)" xlink:href="#be"/><use transform="matrix(0.030864197530864182,0,0,0.030864197530864182,19.691358024691347,0)" xlink:href="#bc"/><use transform="matrix(0.030864197530864182,0,0,0.030864197530864182,23.364197530864185,0)" xlink:href="#bo"/><use transform="matrix(0.030864197530864182,0,0,0.030864197530864182,32.592592592592574,0)" xlink:href="#ba"/><use transform="matrix(0.030864197530864182,0,0,0.030864197530864182,38.148148148148124,0)" xlink:href="#bp"/></g><path fill="#19967d" d="M26 75v-336h71v23H56V52h41v23H26" id="bq"/><path fill="#19967d" d="M135-143c-3-34-86-38-87 0 15 53 115 12 119 90S17 21 10-45l28-5c4 36 97 45 98 0-10-56-113-15-118-90-4-57 82-63 122-42 12 7 21 19 24 35" id="br"/><path fill="#19967d" d="M59-47c-2 24 18 29 38 22v24C64 9 27 4 27-40v-127H5v-23h24l9-43h21v43h35v23H59v120" id="bs"/><path fill="#19967d" d="M141-36C126-15 110 5 73 4 37 3 15-17 15-53c-1-64 63-63 125-63 3-35-9-54-41-54-24 1-41 7-42 31l-33-3c5-37 33-52 76-52 45 0 72 20 72 64v82c-1 20 7 32 28 27v20c-31 9-61-2-59-35zM48-53c0 20 12 33 32 33 41-3 63-29 60-74-43 2-92-5-92 41" id="bt"/><path fill="#19967d" d="M84 4C-5 8 30-112 23-190h32v120c0 31 7 50 39 49 72-2 45-101 50-169h31l1 190h-30c-1-10 1-25-2-33-11 22-28 36-60 37" id="bu"/><g id="A"><use transform="matrix(0.030864197530864182,0,0,0.030864197530864182,0,0)" xlink:href="#bq"/><use transform="matrix(0.030864197530864182,0,0,0.030864197530864182,3.0864197530864184,0)" xlink:href="#br"/><use transform="matrix(0.030864197530864182,0,0,0.030864197530864182,8.641975308641971,0)" xlink:href="#bs"/><use transform="matrix(0.030864197530864182,0,0,0.030864197530864182,11.728395061728389,0)" xlink:href="#bt"/><use transform="matrix(0.030864197530864182,0,0,0.030864197530864182,17.901234567901227,0)" xlink:href="#bs"/><use transform="matrix(0.030864197530864182,0,0,0.030864197530864182,20.987654320987644,0)" xlink:href="#bu"/><use transform="matrix(0.030864197530864182,0,0,0.030864197530864182,27.16049382716048,0)" xlink:href="#br"/></g><path fill="#19967d" d="M101-251c82-7 93 87 43 132L82-64C71-53 59-42 53-27h129V0H18c2-99 128-94 128-182 0-28-16-43-45-43s-46 15-49 41l-32-3c6-41 34-60 81-64" id="bv"/><path fill="#19967d" d="M101-251c68 0 85 55 85 127S166 4 100 4C33 4 14-52 14-124c0-73 17-127 87-127zm-1 229c47 0 54-49 54-102s-4-102-53-102c-51 0-55 48-55 102 0 53 5 102 54 102" id="bw"/><path fill="#19967d" d="M3 75V52h41v-290H3v-23h71V75H3" id="bx"/><g id="B"><use transform="matrix(0.030864197530864182,0,0,0.030864197530864182,0,0)" xlink:href="#bv"/><use transform="matrix(0.030864197530864182,0,0,0.030864197530864182,6.172839506172837,0)" xlink:href="#bw"/><use transform="matrix(0.030864197530864182,0,0,0.030864197530864182,12.345679012345673,0)" xlink:href="#bw"/><use transform="matrix(0.030864197530864182,0,0,0.030864197530864182,18.518518518518512,0)" xlink:href="#bx"/></g><path fill="#19967d" d="M115-194c55 1 70 41 70 98S169 2 115 4C84 4 66-9 55-30l1 105H24l-1-265h31l2 30c10-21 28-34 59-34zm-8 174c40 0 45-34 45-75s-6-73-45-74c-42 0-51 32-51 76 0 43 10 73 51 73" id="by"/><path fill="#19967d" d="M114-163C36-179 61-72 57 0H25l-1-190h30c1 12-1 29 2 39 6-27 23-49 58-41v29" id="bz"/><path fill="#19967d" d="M24-231v-30h32v30H24zM24 0v-190h32V0H24" id="bA"/><path fill="#19967d" d="M117-194c89-4 53 116 60 194h-32v-121c0-31-8-49-39-48C34-167 62-67 57 0H25l-1-190h30c1 10-1 24 2 32 11-22 29-35 61-36" id="bB"/><path fill="#19967d" d="M30-248c118-7 216 8 213 122C240-48 200 0 122 0H30v-248zM63-27c89 8 146-16 146-99s-60-101-146-95v194" id="bC"/><path fill="#19967d" d="M87 75C49 33 22-17 22-94c0-76 28-126 65-167h31c-38 41-64 92-64 168S80 34 118 75H87" id="bD"/><path fill="#19967d" d="M96-169c-40 0-48 33-48 73s9 75 48 75c24 0 41-14 43-38l32 2c-6 37-31 61-74 61-59 0-76-41-82-99-10-93 101-131 147-64 4 7 5 14 7 22l-32 3c-4-21-16-35-41-35" id="bE"/><path fill="#19967d" d="M100-194c62-1 85 37 85 99 1 63-27 99-86 99S16-35 15-95c0-66 28-99 85-99zM99-20c44 1 53-31 53-75 0-43-8-75-51-75s-53 32-53 75 10 74 51 75" id="bF"/><path fill="#19967d" d="M33-261c38 41 65 92 65 168S71 34 33 75H2C39 34 66-17 66-93S39-220 2-261h31" id="bG"/><g id="C"><use transform="matrix(0.030864197530864182,0,0,0.030864197530864182,0,0)" xlink:href="#by"/><use transform="matrix(0.030864197530864182,0,0,0.030864197530864182,6.172839506172837,0)" xlink:href="#bz"/><use transform="matrix(0.030864197530864182,0,0,0.030864197530864182,9.845679012345673,0)" xlink:href="#bA"/><use transform="matrix(0.030864197530864182,0,0,0.030864197530864182,12.283950617283944,0)" xlink:href="#bB"/><use transform="matrix(0.030864197530864182,0,0,0.030864197530864182,18.45679012345678,0)" xlink:href="#bs"/><use transform="matrix(0.030864197530864182,0,0,0.030864197530864182,21.543209876543198,0)" xlink:href="#bC"/><use transform="matrix(0.030864197530864182,0,0,0.030864197530864182,29.53703703703702,0)" xlink:href="#bt"/><use transform="matrix(0.030864197530864182,0,0,0.030864197530864182,35.70987654320986,0)" xlink:href="#bs"/><use transform="matrix(0.030864197530864182,0,0,0.030864197530864182,38.796296296296276,0)" xlink:href="#bt"/><use transform="matrix(0.030864197530864182,0,0,0.030864197530864182,44.96913580246911,0)" xlink:href="#bD"/><use transform="matrix(0.030864197530864182,0,0,0.030864197530864182,48.641975308641946,0)" xlink:href="#bt"/><use transform="matrix(0.030864197530864182,0,0,0.030864197530864182,54.81481481481478,0)" xlink:href="#bu"/><use transform="matrix(0.030864197530864182,0,0,0.030864197530864182,60.987654320987616,0)" xlink:href="#bE"/><use transform="matrix(0.030864197530864182,0,0,0.030864197530864182,66.54320987654317,0)" xlink:href="#bs"/><use transform="matrix(0.030864197530864182,0,0,0.030864197530864182,69.62962962962959,0)" xlink:href="#bA"/><use transform="matrix(0.030864197530864182,0,0,0.030864197530864182,72.06790123456786,0)" xlink:href="#bF"/><use transform="matrix(0.030864197530864182,0,0,0.030864197530864182,78.24074074074069,0)" xlink:href="#bB"/><use transform="matrix(0.030864197530864182,0,0,0.030864197530864182,84.41358024691353,0)" xlink:href="#bG"/></g><path fill="#834187" d="M26 75v-336h71v23H56V52h41v23H26" id="bH"/><path fill="#834187" d="M160-131c35 5 61 23 61 61C221 17 115-2 30 0v-248c76 3 177-17 177 60 0 33-19 50-47 57zm-97-11c50-1 110 9 110-42 0-47-63-36-110-37v79zm0 115c55-2 124 14 124-45 0-56-70-42-124-44v89" id="bI"/><path fill="#834187" d="M84 4C-5 8 30-112 23-190h32v120c0 31 7 50 39 49 72-2 45-101 50-169h31l1 190h-30c-1-10 1-25-2-33-11 22-28 36-60 37" id="bJ"/><path fill="#834187" d="M59-47c-2 24 18 29 38 22v24C64 9 27 4 27-40v-127H5v-23h24l9-43h21v43h35v23H59v120" id="bK"/><path fill="#834187" d="M100-194c62-1 85 37 85 99 1 63-27 99-86 99S16-35 15-95c0-66 28-99 85-99zM99-20c44 1 53-31 53-75 0-43-8-75-51-75s-53 32-53 75 10 74 51 75" id="bL"/><path fill="#834187" d="M117-194c89-4 53 116 60 194h-32v-121c0-31-8-49-39-48C34-167 62-67 57 0H25l-1-190h30c1 10-1 24 2 32 11-22 29-35 61-36" id="bM"/><g id="D"><use transform="matrix(0.030864197530864182,0,0,0.030864197530864182,0,0)" xlink:href="#bH"/><use transform="matrix(0.030864197530864182,0,0,0.030864197530864182,3.0864197530864184,0)" xlink:href="#bI"/><use transform="matrix(0.030864197530864182,0,0,0.030864197530864182,10.493827160493822,0)" xlink:href="#bJ"/><use transform="matrix(0.030864197530864182,0,0,0.030864197530864182,16.666666666666657,0)" xlink:href="#bK"/><use transform="matrix(0.030864197530864182,0,0,0.030864197530864182,19.753086419753075,0)" xlink:href="#bK"/><use transform="matrix(0.030864197530864182,0,0,0.030864197530864182,22.839506172839492,0)" xlink:href="#bL"/><use transform="matrix(0.030864197530864182,0,0,0.030864197530864182,29.012345679012327,0)" xlink:href="#bM"/></g><path fill="#834187" d="M96-169c-40 0-48 33-48 73s9 75 48 75c24 0 41-14 43-38l32 2c-6 37-31 61-74 61-59 0-76-41-82-99-10-93 101-131 147-64 4 7 5 14 7 22l-32 3c-4-21-16-35-41-35" id="bN"/><path fill="#834187" d="M114-163C36-179 61-72 57 0H25l-1-190h30c1 12-1 29 2 39 6-27 23-49 58-41v29" id="bO"/><path fill="#834187" d="M100-194c63 0 86 42 84 106H49c0 40 14 67 53 68 26 1 43-12 49-29l28 8c-11 28-37 45-77 45C44 4 14-33 15-96c1-61 26-98 85-98zm52 81c6-60-76-77-97-28-3 7-6 17-6 28h103" id="bP"/><path fill="#834187" d="M141-36C126-15 110 5 73 4 37 3 15-17 15-53c-1-64 63-63 125-63 3-35-9-54-41-54-24 1-41 7-42 31l-33-3c5-37 33-52 76-52 45 0 72 20 72 64v82c-1 20 7 32 28 27v20c-31 9-61-2-59-35zM48-53c0 20 12 33 32 33 41-3 63-29 60-74-43 2-92-5-92 41" id="bQ"/><path fill="#834187" d="M85-194c31 0 48 13 60 33l-1-100h32l1 261h-30c-2-10 0-23-3-31C134-8 116 4 85 4 32 4 16-35 15-94c0-66 23-100 70-100zm9 24c-40 0-46 34-46 75 0 40 6 74 45 74 42 0 51-32 51-76 0-42-9-74-50-73" id="bR"/><g id="E"><use transform="matrix(0.030864197530864182,0,0,0.030864197530864182,0,0)" xlink:href="#bN"/><use transform="matrix(0.030864197530864182,0,0,0.030864197530864182,5.555555555555553,0)" xlink:href="#bO"/><use transform="matrix(0.030864197530864182,0,0,0.030864197530864182,9.22839506172839,0)" xlink:href="#bP"/><use transform="matrix(0.030864197530864182,0,0,0.030864197530864182,15.401234567901227,0)" xlink:href="#bQ"/><use transform="matrix(0.030864197530864182,0,0,0.030864197530864182,21.574074074074062,0)" xlink:href="#bK"/><use transform="matrix(0.030864197530864182,0,0,0.030864197530864182,24.66049382716048,0)" xlink:href="#bP"/><use transform="matrix(0.030864197530864182,0,0,0.030864197530864182,30.833333333333314,0)" xlink:href="#bR"/></g><path fill="#834187" d="M24-231v-30h32v30H24zM24 0v-190h32V0H24" id="bS"/><path fill="#834187" d="M135-143c-3-34-86-38-87 0 15 53 115 12 119 90S17 21 10-45l28-5c4 36 97 45 98 0-10-56-113-15-118-90-4-57 82-63 122-42 12 7 21 19 24 35" id="bT"/><g id="F"><use transform="matrix(0.030864197530864182,0,0,0.030864197530864182,0,0)" xlink:href="#bS"/><use transform="matrix(0.030864197530864182,0,0,0.030864197530864182,2.4382716049382704,0)" xlink:href="#bM"/><use transform="matrix(0.030864197530864182,0,0,0.030864197530864182,8.611111111111107,0)" xlink:href="#bT"/><use transform="matrix(0.030864197530864182,0,0,0.030864197530864182,14.16666666666666,0)" xlink:href="#bS"/><use transform="matrix(0.030864197530864182,0,0,0.030864197530864182,16.60493827160493,0)" xlink:href="#bR"/><use transform="matrix(0.030864197530864182,0,0,0.030864197530864182,22.777777777777764,0)" xlink:href="#bP"/></g><path fill="#834187" d="M106-169C34-169 62-67 57 0H25v-261h32l-1 103c12-21 28-36 61-36 89 0 53 116 60 194h-32v-121c2-32-8-49-39-48" id="bU"/><path fill="#834187" d="M206 0h-36l-40-164L89 0H53L-1-190h32L70-26l43-164h34l41 164 42-164h31" id="bV"/><path fill="#834187" d="M205 0l-28-72H64L36 0H1l101-248h38L239 0h-34zm-38-99l-47-123c-12 45-31 82-46 123h93" id="bW"/><path fill="#834187" d="M33 0v-38h34V0H33" id="bX"/><path fill="#834187" d="M24-231v-30h32v30H24zM-9 49c24 4 33-6 33-30v-209h32V24c2 40-23 58-65 49V49" id="bY"/><path fill="#333" d="M3 75V52h41v-290H3v-23h71V75H3" id="bZ"/><g id="G"><use transform="matrix(0.030864197530864182,0,0,0.030864197530864182,0,0)" xlink:href="#bT"/><use transform="matrix(0.030864197530864182,0,0,0.030864197530864182,5.555555555555553,0)" xlink:href="#bU"/><use transform="matrix(0.030864197530864182,0,0,0.030864197530864182,11.728395061728389,0)" xlink:href="#bL"/><use transform="matrix(0.030864197530864182,0,0,0.030864197530864182,17.901234567901227,0)" xlink:href="#bV"/><use transform="matrix(0.030864197530864182,0,0,0.030864197530864182,25.89506172839505,0)" xlink:href="#bW"/><use transform="matrix(0.030864197530864182,0,0,0.030864197530864182,33.302469135802454,0)" xlink:href="#bJ"/><use transform="matrix(0.030864197530864182,0,0,0.030864197530864182,39.47530864197529,0)" xlink:href="#bN"/><use transform="matrix(0.030864197530864182,0,0,0.030864197530864182,45.03086419753084,0)" xlink:href="#bK"/><use transform="matrix(0.030864197530864182,0,0,0.030864197530864182,48.11728395061726,0)" xlink:href="#bS"/><use transform="matrix(0.030864197530864182,0,0,0.030864197530864182,50.55555555555553,0)" xlink:href="#bL"/><use transform="matrix(0.030864197530864182,0,0,0.030864197530864182,56.728395061728364,0)" xlink:href="#bM"/><use transform="matrix(0.030864197530864182,0,0,0.030864197530864182,62.9012345679012,0)" xlink:href="#bX"/><use transform="matrix(0.030864197530864182,0,0,0.030864197530864182,65.98765432098762,0)" xlink:href="#bY"/><use transform="matrix(0.030864197530864182,0,0,0.030864197530864182,68.42592592592588,0)" xlink:href="#bT"/><use transform="matrix(0.030864197530864182,0,0,0.030864197530864182,73.98148148148144,0)" xlink:href="#bZ"/></g><g id="H"><use transform="matrix(0.06172839506172839,0,0,0.06172839506172839,0,0)" xlink:href="#au"/><use transform="matrix(0.06172839506172839,0,0,0.06172839506172839,14.814814814814813,0)" xlink:href="#al"/><use transform="matrix(0.06172839506172839,0,0,0.06172839506172839,27.160493827160494,0)" xlink:href="#av"/><use transform="matrix(0.06172839506172839,0,0,0.06172839506172839,38.27160493827161,0)" xlink:href="#ae"/><use transform="matrix(0.06172839506172839,0,0,0.06172839506172839,44.44444444444445,0)" xlink:href="#ai"/><use transform="matrix(0.06172839506172839,0,0,0.06172839506172839,49.320987654320994,0)" xlink:href="#ag"/><use transform="matrix(0.06172839506172839,0,0,0.06172839506172839,61.66666666666667,0)" xlink:href="#an"/><use transform="matrix(0.06172839506172839,0,0,0.06172839506172839,74.01234567901236,0)" xlink:href="#aD"/><use transform="matrix(0.06172839506172839,0,0,0.06172839506172839,90.00000000000001,0)" xlink:href="#ap"/><use transform="matrix(0.06172839506172839,0,0,0.06172839506172839,102.3456790123457,0)" xlink:href="#ag"/></g><g id="I"><use transform="matrix(0.06172839506172839,0,0,0.06172839506172839,0,0)" xlink:href="#aE"/><use transform="matrix(0.06172839506172839,0,0,0.06172839506172839,17.28395061728395,0)" xlink:href="#ay"/><use transform="matrix(0.06172839506172839,0,0,0.06172839506172839,23.02469135802469,0)" xlink:href="#ay"/><use transform="matrix(0.06172839506172839,0,0,0.06172839506172839,29.197530864197528,0)" xlink:href="#ad"/><use transform="matrix(0.06172839506172839,0,0,0.06172839506172839,41.54320987654321,0)" xlink:href="#aq"/><use transform="matrix(0.06172839506172839,0,0,0.06172839506172839,48.888888888888886,0)" xlink:href="#aD"/><use transform="matrix(0.06172839506172839,0,0,0.06172839506172839,64.87654320987654,0)" xlink:href="#ap"/><use transform="matrix(0.06172839506172839,0,0,0.06172839506172839,77.22222222222223,0)" xlink:href="#ag"/></g><g id="J"><use transform="matrix(0.04320987654320987,0,0,0.04320987654320987,0,0)" xlink:href="#am"/><use transform="matrix(0.04320987654320987,0,0,0.04320987654320987,8.641975308641973,0)" xlink:href="#ad"/><use transform="matrix(0.04320987654320987,0,0,0.04320987654320987,17.283950617283946,0)" xlink:href="#ae"/><use transform="matrix(0.04320987654320987,0,0,0.04320987654320987,21.604938271604933,0)" xlink:href="#aE"/><use transform="matrix(0.04320987654320987,0,0,0.04320987654320987,33.703703703703695,0)" xlink:href="#ay"/><use transform="matrix(0.04320987654320987,0,0,0.04320987654320987,37.722222222222214,0)" xlink:href="#ay"/><use transform="matrix(0.04320987654320987,0,0,0.04320987654320987,42.0432098765432,0)" xlink:href="#ad"/><use transform="matrix(0.04320987654320987,0,0,0.04320987654320987,50.685185185185176,0)" xlink:href="#aq"/><use transform="matrix(0.04320987654320987,0,0,0.04320987654320987,55.82716049382715,0)" xlink:href="#ae"/><use transform="matrix(0.04320987654320987,0,0,0.04320987654320987,60.14814814814814,0)" xlink:href="#aw"/><use transform="matrix(0.04320987654320987,0,0,0.04320987654320987,70.5185185185185,0)" xlink:href="#ar"/><use transform="matrix(0.04320987654320987,0,0,0.04320987654320987,78.29629629629628,0)" xlink:href="#ax"/><use transform="matrix(0.04320987654320987,0,0,0.04320987654320987,82.61728395061726,0)" xlink:href="#as"/></g><g id="K"><use transform="matrix(0.04320987654320987,0,0,0.04320987654320987,0,0)" xlink:href="#aj"/><use transform="matrix(0.04320987654320987,0,0,0.04320987654320987,5.141975308641975,0)" xlink:href="#ap"/><use transform="matrix(0.04320987654320987,0,0,0.04320987654320987,13.783950617283947,0)" xlink:href="#al"/><use transform="matrix(0.04320987654320987,0,0,0.04320987654320987,22.42592592592592,0)" xlink:href="#av"/><use transform="matrix(0.04320987654320987,0,0,0.04320987654320987,30.2037037037037,0)" xlink:href="#ae"/><use transform="matrix(0.04320987654320987,0,0,0.04320987654320987,34.52469135802468,0)" xlink:href="#ai"/><use transform="matrix(0.04320987654320987,0,0,0.04320987654320987,37.938271604938265,0)" xlink:href="#ag"/><use transform="matrix(0.04320987654320987,0,0,0.04320987654320987,46.58024691358024,0)" xlink:href="#an"/><use transform="matrix(0.04320987654320987,0,0,0.04320987654320987,55.22222222222221,0)" xlink:href="#ai"/><use transform="matrix(0.04320987654320987,0,0,0.04320987654320987,58.6358024691358,0)" xlink:href="#as"/><use transform="matrix(0.04320987654320987,0,0,0.04320987654320987,67.27777777777777,0)" xlink:href="#at"/></g><path fill="#834187" d="M140-251c81 0 123 46 123 126C263-46 219 4 140 4 59 4 17-45 17-125s42-126 123-126zm0 227c63 0 89-41 89-101s-29-99-89-99c-61 0-89 39-89 99S79-25 140-24" id="ca"/><path fill="#834187" d="M101-234c-31-9-42 10-38 44h38v23H63V0H32v-167H5v-23h27c-7-52 17-82 69-68v24" id="cb"/><g id="L"><use transform="matrix(0.030864197530864182,0,0,0.030864197530864182,0,0)" xlink:href="#ca"/><use transform="matrix(0.030864197530864182,0,0,0.030864197530864182,8.641975308641971,0)" xlink:href="#cb"/><use transform="matrix(0.030864197530864182,0,0,0.030864197530864182,11.512345679012341,0)" xlink:href="#cb"/><use transform="matrix(0.030864197530864182,0,0,0.030864197530864182,14.598765432098759,0)" xlink:href="#bP"/><use transform="matrix(0.030864197530864182,0,0,0.030864197530864182,20.771604938271594,0)" xlink:href="#bO"/><use transform="matrix(0.030864197530864182,0,0,0.030864197530864182,24.444444444444432,0)" xlink:href="#bK"/><use transform="matrix(0.030864197530864182,0,0,0.030864197530864182,27.53086419753085,0)" xlink:href="#bT"/></g><g id="M"><use transform="matrix(0.030864197530864182,0,0,0.030864197530864182,0,0)" xlink:href="#bQ"/><use transform="matrix(0.030864197530864182,0,0,0.030864197530864182,6.172839506172837,0)" xlink:href="#bO"/><use transform="matrix(0.030864197530864182,0,0,0.030864197530864182,9.845679012345673,0)" xlink:href="#bP"/></g><g id="N"><use transform="matrix(0.030864197530864182,0,0,0.030864197530864182,0,0)" xlink:href="#bN"/><use transform="matrix(0.030864197530864182,0,0,0.030864197530864182,5.555555555555553,0)" xlink:href="#bL"/><use transform="matrix(0.030864197530864182,0,0,0.030864197530864182,11.728395061728389,0)" xlink:href="#bM"/><use transform="matrix(0.030864197530864182,0,0,0.030864197530864182,17.901234567901227,0)" xlink:href="#bK"/><use transform="matrix(0.030864197530864182,0,0,0.030864197530864182,20.987654320987644,0)" xlink:href="#bQ"/><use transform="matrix(0.030864197530864182,0,0,0.030864197530864182,27.16049382716048,0)" xlink:href="#bS"/><use transform="matrix(0.030864197530864182,0,0,0.030864197530864182,29.59876543209875,0)" xlink:href="#bM"/><use transform="matrix(0.030864197530864182,0,0,0.030864197530864182,35.77160493827159,0)" xlink:href="#bP"/><use transform="matrix(0.030864197530864182,0,0,0.030864197530864182,41.94444444444442,0)" xlink:href="#bR"/></g><g id="O"><use transform="matrix(0.030864197530864182,0,0,0.030864197530864182,0,0)" xlink:href="#bQ"/><use transform="matrix(0.030864197530864182,0,0,0.030864197530864182,6.172839506172837,0)" xlink:href="#bJ"/><use transform="matrix(0.030864197530864182,0,0,0.030864197530864182,12.345679012345673,0)" xlink:href="#bN"/><use transform="matrix(0.030864197530864182,0,0,0.030864197530864182,17.901234567901227,0)" xlink:href="#bK"/><use transform="matrix(0.030864197530864182,0,0,0.030864197530864182,20.987654320987644,0)" xlink:href="#bS"/><use transform="matrix(0.030864197530864182,0,0,0.030864197530864182,23.425925925925917,0)" xlink:href="#bL"/><use transform="matrix(0.030864197530864182,0,0,0.030864197530864182,29.59876543209875,0)" xlink:href="#bM"/></g><g id="P"><use transform="matrix(0.06172839506172839,0,0,0.06172839506172839,0,0)" xlink:href="#af"/><use transform="matrix(0.06172839506172839,0,0,0.06172839506172839,15.987654320987653,0)" xlink:href="#ag"/><use transform="matrix(0.06172839506172839,0,0,0.06172839506172839,28.333333333333332,0)" xlink:href="#ag"/><use transform="matrix(0.06172839506172839,0,0,0.06172839506172839,40.67901234567901,0)" xlink:href="#ah"/><use transform="matrix(0.06172839506172839,0,0,0.06172839506172839,51.79012345679013,0)" xlink:href="#ai"/><use transform="matrix(0.06172839506172839,0,0,0.06172839506172839,56.66666666666667,0)" xlink:href="#ad"/></g><g id="Q"><use transform="matrix(0.04320987654320987,0,0,0.04320987654320987,0,0)" xlink:href="#aM"/><use transform="matrix(0.04320987654320987,0,0,0.04320987654320987,8.641975308641973,0)" xlink:href="#aO"/><use transform="matrix(0.04320987654320987,0,0,0.04320987654320987,12.962962962962958,0)" xlink:href="#aP"/><use transform="matrix(0.04320987654320987,0,0,0.04320987654320987,16.376543209876537,0)" xlink:href="#aV"/><use transform="matrix(0.04320987654320987,0,0,0.04320987654320987,19.790123456790116,0)" xlink:href="#aW"/><use transform="matrix(0.04320987654320987,0,0,0.04320987654320987,27.56790123456789,0)" xlink:href="#aX"/><use transform="matrix(0.04320987654320987,0,0,0.04320987654320987,31.88888888888888,0)" xlink:href="#aY"/><use transform="matrix(0.04320987654320987,0,0,0.04320987654320987,35.30246913580246,0)" xlink:href="#aW"/></g><path fill="#834187" d="M212-179c-10-28-35-45-73-45-59 0-87 40-87 99 0 60 29 101 89 101 43 0 62-24 78-52l27 14C228-24 195 4 139 4 59 4 22-46 18-125c-6-104 99-153 187-111 19 9 31 26 39 46" id="cc"/><path fill="#834187" d="M143 0L79-87 56-68V0H24v-261h32v163l83-92h37l-77 82L181 0h-38" id="cd"/><g id="R"><use transform="matrix(0.030864197530864182,0,0,0.030864197530864182,0,0)" xlink:href="#cc"/><use transform="matrix(0.030864197530864182,0,0,0.030864197530864182,7.993827160493823,0)" xlink:href="#bL"/><use transform="matrix(0.030864197530864182,0,0,0.030864197530864182,14.16666666666666,0)" xlink:href="#bL"/><use transform="matrix(0.030864197530864182,0,0,0.030864197530864182,20.3395061728395,0)" xlink:href="#cd"/><use transform="matrix(0.030864197530864182,0,0,0.030864197530864182,25.895061728395053,0)" xlink:href="#bS"/><use transform="matrix(0.030864197530864182,0,0,0.030864197530864182,28.33333333333332,0)" xlink:href="#bP"/></g><path fill="#834187" d="M210-169c-67 3-38 105-44 169h-31v-121c0-29-5-50-35-48C34-165 62-65 56 0H25l-1-190h30c1 10-1 24 2 32 10-44 99-50 107 0 11-21 27-35 58-36 85-2 47 119 55 194h-31v-121c0-29-5-49-35-48" id="ce"/><g id="S"><use transform="matrix(0.030864197530864182,0,0,0.030864197530864182,0,0)" xlink:href="#bM"/><use transform="matrix(0.030864197530864182,0,0,0.030864197530864182,6.172839506172837,0)" xlink:href="#bQ"/><use transform="matrix(0.030864197530864182,0,0,0.030864197530864182,12.345679012345673,0)" xlink:href="#ce"/><use transform="matrix(0.030864197530864182,0,0,0.030864197530864182,21.574074074074062,0)" xlink:href="#bP"/></g><g id="T"><use transform="matrix(0.030864197530864182,0,0,0.030864197530864182,0,0)" xlink:href="#bU"/><use transform="matrix(0.030864197530864182,0,0,0.030864197530864182,6.172839506172837,0)" xlink:href="#bQ"/><use transform="matrix(0.030864197530864182,0,0,0.030864197530864182,12.345679012345673,0)" xlink:href="#bT"/></g><path fill="#834187" d="M24 0v-261h32V0H24" id="cf"/><g id="U"><use transform="matrix(0.030864197530864182,0,0,0.030864197530864182,0,0)" xlink:href="#bQ"/><use transform="matrix(0.030864197530864182,0,0,0.030864197530864182,6.172839506172837,0)" xlink:href="#cf"/><use transform="matrix(0.030864197530864182,0,0,0.030864197530864182,8.611111111111107,0)" xlink:href="#bT"/><use transform="matrix(0.030864197530864182,0,0,0.030864197530864182,14.16666666666666,0)" xlink:href="#bL"/></g><g id="V"><use transform="matrix(0.030864197530864182,0,0,0.030864197530864182,0,0)" xlink:href="#bQ"/><use transform="matrix(0.030864197530864182,0,0,0.030864197530864182,6.172839506172837,0)" xlink:href="#bM"/></g><path fill="#834187" d="M33 0v-248h34V0H33" id="cg"/><path fill="#834187" d="M30-248c118-7 216 8 213 122C240-48 200 0 122 0H30v-248zM63-27c89 8 146-16 146-99s-60-101-146-95v194" id="ch"/><g id="W"><use transform="matrix(0.030864197530864182,0,0,0.030864197530864182,0,0)" xlink:href="#cg"/><use transform="matrix(0.030864197530864182,0,0,0.030864197530864182,3.0864197530864184,0)" xlink:href="#ch"/></g><g id="X"><use transform="matrix(0.030864197530864182,0,0,0.030864197530864182,0,0)" xlink:href="#bK"/><use transform="matrix(0.030864197530864182,0,0,0.030864197530864182,3.0864197530864184,0)" xlink:href="#bL"/></g><path fill="#834187" d="M177-190C167-65 218 103 67 71c-23-6-38-20-44-43l32-5c15 47 100 32 89-28v-30C133-14 115 1 83 1 29 1 15-40 15-95c0-56 16-97 71-98 29-1 48 16 59 35 1-10 0-23 2-32h30zM94-22c36 0 50-32 50-73 0-42-14-75-50-75-39 0-46 34-46 75s6 73 46 73" id="ci"/><g id="Y"><use transform="matrix(0.030864197530864182,0,0,0.030864197530864182,0,0)" xlink:href="#bR"/><use transform="matrix(0.030864197530864182,0,0,0.030864197530864182,6.172839506172837,0)" xlink:href="#bS"/><use transform="matrix(0.030864197530864182,0,0,0.030864197530864182,8.611111111111107,0)" xlink:href="#bT"/><use transform="matrix(0.030864197530864182,0,0,0.030864197530864182,14.16666666666666,0)" xlink:href="#bK"/><use transform="matrix(0.030864197530864182,0,0,0.030864197530864182,17.253086419753078,0)" xlink:href="#bS"/><use transform="matrix(0.030864197530864182,0,0,0.030864197530864182,19.691358024691347,0)" xlink:href="#bM"/><use transform="matrix(0.030864197530864182,0,0,0.030864197530864182,25.864197530864182,0)" xlink:href="#ci"/><use transform="matrix(0.030864197530864182,0,0,0.030864197530864182,32.03703703703702,0)" xlink:href="#bJ"/><use transform="matrix(0.030864197530864182,0,0,0.030864197530864182,38.20987654320985,0)" xlink:href="#bS"/><use transform="matrix(0.030864197530864182,0,0,0.030864197530864182,40.648148148148124,0)" xlink:href="#bT"/><use transform="matrix(0.030864197530864182,0,0,0.030864197530864182,46.203703703703674,0)" xlink:href="#bU"/></g><path fill="#834187" d="M115-194c53 0 69 39 70 98 0 66-23 100-70 100C84 3 66-7 56-30L54 0H23l1-261h32v101c10-23 28-34 59-34zm-8 174c40 0 45-34 45-75 0-40-5-75-45-74-42 0-51 32-51 76 0 43 10 73 51 73" id="cj"/><g id="Z"><use transform="matrix(0.030864197530864182,0,0,0.030864197530864182,0,0)" xlink:href="#cj"/><use transform="matrix(0.030864197530864182,0,0,0.030864197530864182,6.172839506172837,0)" xlink:href="#bP"/><use transform="matrix(0.030864197530864182,0,0,0.030864197530864182,12.345679012345673,0)" xlink:href="#bK"/><use transform="matrix(0.030864197530864182,0,0,0.030864197530864182,15.432098765432091,0)" xlink:href="#bV"/><use transform="matrix(0.030864197530864182,0,0,0.030864197530864182,23.425925925925913,0)" xlink:href="#bP"/><use transform="matrix(0.030864197530864182,0,0,0.030864197530864182,29.59876543209875,0)" xlink:href="#bP"/><use transform="matrix(0.030864197530864182,0,0,0.030864197530864182,35.77160493827159,0)" xlink:href="#bM"/></g><g id="aa"><use transform="matrix(0.030864197530864182,0,0,0.030864197530864182,0,0)" xlink:href="#bR"/><use transform="matrix(0.030864197530864182,0,0,0.030864197530864182,6.172839506172837,0)" xlink:href="#bS"/><use transform="matrix(0.030864197530864182,0,0,0.030864197530864182,8.611111111111107,0)" xlink:href="#cb"/><use transform="matrix(0.030864197530864182,0,0,0.030864197530864182,11.481481481481477,0)" xlink:href="#cb"/><use transform="matrix(0.030864197530864182,0,0,0.030864197530864182,14.567901234567895,0)" xlink:href="#bP"/><use transform="matrix(0.030864197530864182,0,0,0.030864197530864182,20.740740740740733,0)" xlink:href="#bO"/><use transform="matrix(0.030864197530864182,0,0,0.030864197530864182,24.413580246913572,0)" xlink:href="#bP"/><use transform="matrix(0.030864197530864182,0,0,0.030864197530864182,30.58641975308641,0)" xlink:href="#bM"/><use transform="matrix(0.030864197530864182,0,0,0.030864197530864182,36.759259259259245,0)" xlink:href="#bK"/></g><g id="ab"><use transform="matrix(0.030864197530864182,0,0,0.030864197530864182,0,0)" xlink:href="#bJ"/><use transform="matrix(0.030864197530864182,0,0,0.030864197530864182,6.172839506172837,0)" xlink:href="#bT"/><use transform="matrix(0.030864197530864182,0,0,0.030864197530864182,11.728395061728389,0)" xlink:href="#bP"/><use transform="matrix(0.030864197530864182,0,0,0.030864197530864182,17.901234567901227,0)" xlink:href="#bO"/><use transform="matrix(0.030864197530864182,0,0,0.030864197530864182,21.574074074074066,0)" xlink:href="#bT"/></g></defs></g></svg>