<svg xmlns="http://www.w3.org/2000/svg" xmlns:xlink="http://www.w3.org/1999/xlink" xmlns:lucid="lucid" width="1098.5" height="551.5"><g transform="translate(0 20)" lucid:page-tab-id="0_0"><path d="M248.33 140.5h160v40h-160z" fill="none"/><use xlink:href="#a" transform="matrix(1,0,0,1,248.33037125326996,140.5) translate(13.388888888888914 14.666666666666668)"/><use xlink:href="#b" transform="matrix(1,0,0,1,248.33037125326996,140.5) translate(58.57407407407408 14.666666666666668)"/><use xlink:href="#c" transform="matrix(1,0,0,1,248.33037125326996,140.5) translate(28.388888888888914 30.666666666666664)"/><use xlink:href="#d" transform="matrix(1,0,0,1,248.33037125326996,140.5) translate(68.09259259259261 30.666666666666664)"/><path d="M440 155.4h120v40H440z" fill="none"/><use xlink:href="#e" transform="matrix(1,0,0,1,440,155.41314622257588) translate(31.975308641975325 21.77777777777778)"/><path d="M145.33 46.5c0-3.3 2.7-6 6-6h148c3.32 0 6 2.7 6 6v28c0 3.3-2.68 6-6 6h-148c-3.3 0-6-2.7-6-6z" stroke="#5e5e5e" stroke-width="3" fill="#fff"/><use xlink:href="#f" transform="matrix(1,0,0,1,157.33333333333337,52.5) translate(16.240740740740748 17.77777777777778)"/><path d="M340 46.5c0-3.3 2.7-6 6-6h188c3.3 0 6 2.7 6 6v28c0 3.3-2.7 6-6 6H346c-3.3 0-6-2.7-6-6z" stroke="#99d2f2" stroke-width="3" fill="#fff"/><use xlink:href="#g" transform="matrix(1,0,0,1,352,52.5) translate(17.72222222222223 17.77777777777778)"/><path d="M580 46.5c0-3.3 2.7-6 6-6h188c3.3 0 6 2.7 6 6v28c0 3.3-2.7 6-6 6H586c-3.3 0-6-2.7-6-6z" stroke="#99d2f2" stroke-width="3" fill="#fff"/><use xlink:href="#h" transform="matrix(1,0,0,1,592,52.5) translate(30.65432098765431 17.77777777777778)"/><path d="M225.33 83v12.5m0 12.5v12.5" stroke="#5e5e5e" stroke-width="2" fill="none"/><path d="M226.33 83.03h-2V82h2z" fill="#5e5e5e"/><path d="M225.33 135.76l-4.63-14.26h9.27z" stroke="#5e5e5e" stroke-width="2" fill="#5e5e5e"/><path d="M225.33 362.5v9.96m0 9.96v19.9m0 9.97v19.9m0 9.97v19.9m0 9.97V482" stroke="#5e5e5e" stroke-width="2" fill="none"/><path d="M226.33 362.53h-2v-1.03h2z" fill="#5e5e5e"/><path d="M225.33 497.26L220.7 483h9.27z" stroke="#5e5e5e" stroke-width="2" fill="#5e5e5e"/><path d="M440 83v9.17m0 9.16v19.17" stroke="#5e5e5e" stroke-width="2" fill="none"/><path d="M441 83.03h-2V82h2z" fill="#5e5e5e"/><path d="M440 135.76l-4.64-14.26h9.28z" stroke="#5e5e5e" stroke-width="2" fill="#5e5e5e"/><path d="M440 362.5v9.83m0 9.84v19.66m0 9.84v19.66m0 9.84v19.66m0 9.83v9.84" stroke="#5e5e5e" stroke-width="2" fill="none"/><path d="M441 362.53h-2v-1.03h2z" fill="#5e5e5e"/><path d="M440 495.76l-4.64-14.26h9.28z" stroke="#5e5e5e" stroke-width="2" fill="#5e5e5e"/><path d="M680 83v9.13m0 9.14v18.26m0 9.14v18.26m0 9.14v18.26m0 9.14v18.26m0 9.13V220" stroke="#5e5e5e" stroke-width="2" fill="none"/><path d="M681 83.03h-2V82h2z" fill="#5e5e5e"/><path d="M680 235.26L675.36 221h9.28z" stroke="#5e5e5e" stroke-width="2" fill="#5e5e5e"/><path d="M680 302.5v9.8m0 9.8v19.62m0 9.8v19.62m0 9.8v19.6m0 9.82v19.6m0 9.82v19.6m0 9.8V479" stroke="#5e5e5e" stroke-width="2" fill="none"/><path d="M681 302.53h-2v-1.03h2z" fill="#5e5e5e"/><path d="M680 494.26L675.36 480h9.28z" stroke="#5e5e5e" stroke-width="2" fill="#5e5e5e"/><path d="M205.33 146.5c0-3.3 2.7-6 6-6h28c3.32 0 6 2.7 6 6V354c0 3.3-2.68 6-6 6h-28c-3.3 0-6-2.7-6-6z" stroke="#5e5e5e" stroke-width="3" fill="#fff"/><path d="M420 146.5c0-3.3 2.7-6 6-6h28c3.3 0 6 2.7 6 6V354c0 3.3-2.7 6-6 6h-28c-3.3 0-6-2.7-6-6zM660 246c0-3.3 2.7-6 6-6h28c3.3 0 6 2.7 6 6v48c0 3.3-2.7 6-6 6h-28c-3.3 0-6-2.7-6-6z" stroke="#99d2f2" stroke-width="3" fill="#fff"/><path d="M131.46 0h173.87v60H131.46z" fill="none"/><use xlink:href="#i" transform="matrix(1,0,0,1,131.45630311311845,0) translate(24.021604938271615 33.111111111111114)"/><path d="M720 106c0-3.3 2.7-6 6-6h188c3.3 0 6 2.7 6 6v28c0 3.3-2.7 6-6 6H726c-3.3 0-6-2.7-6-6z" stroke="#99d2f2" stroke-width="3" fill="#fff"/><use xlink:href="#j" transform="matrix(1,0,0,1,732,112) translate(18.339506172839506 17.77777777777778)"/><path d="M820 142.5v10.83m0 10.84v21.66m0 10.84v21.66m0 10.83V240" stroke="#5e5e5e" stroke-width="2" fill="none"/><path d="M821 142.53h-2v-1.03h2z" fill="#5e5e5e"/><path d="M820 255.26L815.36 241h9.28z" stroke="#5e5e5e" stroke-width="2" fill="#5e5e5e"/><path d="M820 322.5v10.6m0 10.6v21.2m0 10.6v21.2m0 10.6v21.2m0 10.6v21.2m0 10.6v10.6" stroke="#5e5e5e" stroke-width="2" fill="none"/><path d="M821 322.53h-2v-1.03h2z" fill="#5e5e5e"/><path d="M820 496.76l-4.64-14.26h9.28z" stroke="#5e5e5e" stroke-width="2" fill="#5e5e5e"/><path d="M800 266c0-3.3 2.7-6 6-6h28c3.3 0 6 2.7 6 6v48c0 3.3-2.7 6-6 6h-28c-3.3 0-6-2.7-6-6z" stroke="#99d2f2" stroke-width="3" fill="#fff"/><path d="M80 120h156.66v35.4H80z" fill="none"/><use xlink:href="#k" transform="matrix(1,0,0,1,80,120) translate(48.916666666666686 13.555555555555559)"/><use xlink:href="#l" transform="matrix(1,0,0,1,80,120) translate(75.98456790123457 13.555555555555559)"/><use xlink:href="#m" transform="matrix(1,0,0,1,80,120) translate(41.81790123456793 26.888888888888886)"/><use xlink:href="#n" transform="matrix(1,0,0,1,80,120) translate(78.17592592592592 26.888888888888886)"/><path d="M171.48 156.4V161c0 3.3 2.7 6 6 6h7.85" stroke="#5e5e5e" stroke-width="2" fill="none"/><path d="M172.48 156.44h-2v-1.03h2z" fill="#5e5e5e"/><path d="M200.6 166.98l-14.27 4.64v-9.27z" stroke="#5e5e5e" stroke-width="2" fill="#5e5e5e"/><path d="M247.83 186.02H400" stroke="#5e5e5e" stroke-width="2" fill="none"/><path d="M247.86 187.02h-1.03v-2h1.03z" fill="#5e5e5e"/><path d="M415.26 186.02L401 190.66v-9.27z" stroke="#5e5e5e" stroke-width="2" fill="#5e5e5e"/><path d="M462.5 185.3h33c3.3 0 6 2.68 6 6v15.1c0 3.3-2.7 6-6 6H480" stroke="#5e5e5e" stroke-width="2" fill="none"/><path d="M462.53 186.3h-1.03v-2h1.03z" fill="#5e5e5e"/><path d="M464.74 212.4l14.26-4.65v9.27z" stroke="#5e5e5e" stroke-width="2" fill="#5e5e5e"/><path d="M462.5 248.6H640" stroke="#5e5e5e" stroke-width="2" fill="none"/><path d="M462.53 249.6h-1.03v-2h1.03z" fill="#5e5e5e"/><path d="M655.26 248.6L641 253.23v-9.27z" stroke="#5e5e5e" stroke-width="2" fill="#5e5e5e"/><path d="M500 220h120v40H500z" fill="none"/><use xlink:href="#o" transform="matrix(1,0,0,1,500,220) translate(-0.38580246913577554 22.22222222222222)"/><path d="M702.5 270H780" stroke="#5e5e5e" stroke-width="2" fill="none"/><path d="M702.53 271h-1.03v-2h1.03z" fill="#5e5e5e"/><path d="M795.26 270L781 274.64v-9.28z" stroke="#5e5e5e" stroke-width="2" fill="#5e5e5e"/><path d="M700 220.5h120v40H700z" fill="none"/><use xlink:href="#p" transform="matrix(1,0,0,1,700,220.5) translate(19.92283950617285 15.555555555555555)"/><use xlink:href="#q" transform="matrix(1,0,0,1,700,220.5) translate(6.404320987654344 28.888888888888886)"/><path d="M417.5 215.32h-9.43m-9.42 0H379.8m-9.43 0h-18.85m-9.43 0h-20.66m-11.22 0h-22.44m-11.22 0h-11.22" stroke="#5e5e5e" stroke-width="2" fill="none"/><path d="M418.5 216.32h-1.03v-2h1.03z" fill="#5e5e5e"/><path d="M250.07 215.32l14.27-4.64v9.27z" stroke="#5e5e5e" stroke-width="2" fill="#5e5e5e"/><path d="M232.2 220.5h192.27v11.75H232.2z" fill="none"/><use xlink:href="#r" transform="matrix(1,0,0,1,232.18837786347143,220.5) translate(54.586419753086446 8.888888888888884)"/><use xlink:href="#s" transform="matrix(1,0,0,1,232.18837786347143,220.5) translate(90.35802469135803 8.888888888888884)"/><use xlink:href="#t" transform="matrix(1,0,0,1,232.18837786347143,220.5) translate(116.80864197530863 8.888888888888884)"/><path d="M417.5 262.2h-10.14m-10.15 0h-20.28m-10.14 0h-20.3m-10.13 0h-20.3m-10.14 0h-20.28m-10.14 0h-10.14" stroke="#5e5e5e" stroke-width="2" fill="none"/><path d="M418.5 263.2h-1.03v-2h1.03z" fill="#5e5e5e"/><path d="M250.07 262.2l14.27-4.65v9.28z" stroke="#5e5e5e" stroke-width="2" fill="#5e5e5e"/><path d="M232.2 272.25h192.27V284H232.2z" fill="none"/><use xlink:href="#u" transform="matrix(1,0,0,1,232.18837786347143,272.2494351989211) translate(53.984567901234584 8.888888888888884)"/><use xlink:href="#s" transform="matrix(1,0,0,1,232.18837786347143,272.2494351989211) translate(90.95987654320987 8.888888888888884)"/><use xlink:href="#v" transform="matrix(1,0,0,1,232.18837786347143,272.2494351989211) translate(117.41049382716048 8.888888888888884)"/><path d="M40 260.5h192.28v11.75H40z" fill="none"/><use xlink:href="#w" transform="matrix(1,0,0,1,40,260.5) translate(74.33950617283952 8.888888888888884)"/><path d="M202.83 257.86h-33c-3.3 0-6 2.7-6 6v11.73c0 3.3 2.7 6 6 6h15.5" stroke="#5e5e5e" stroke-width="2" fill="none"/><path d="M203.83 258.86h-1.02v-2h1.03z" fill="#5e5e5e"/><path d="M200.6 281.6l-14.27 4.63v-9.27z" stroke="#5e5e5e" stroke-width="2" fill="#5e5e5e"/><path d="M417.5 300h-10.14m-10.15 0h-20.28m-10.14 0h-20.3m-10.13 0h-20.3m-10.14 0h-20.28m-10.14 0h-10.14" stroke="#5e5e5e" stroke-width="2" fill="none"/><path d="M418.5 301h-1.03v-2h1.03z" fill="#5e5e5e"/><path d="M250.07 300l14.27-4.64v9.28z" stroke="#5e5e5e" stroke-width="2" fill="#5e5e5e"/><path d="M232.2 308.25h192.27V320H232.2z" fill="none"/><use xlink:href="#x" transform="matrix(1,0,0,1,232.18837786347143,308.2505648010789) translate(67.7962962962963 8.888888888888884)"/><use xlink:href="#y" transform="matrix(1,0,0,1,232.18837786347143,308.2505648010789) translate(103.59876543209876 8.888888888888884)"/><path d="M202.83 307.76h-33c-3.3 0-6 2.7-6 6v10.8c0 3.3 2.7 6 6 6h15.5" stroke="#5e5e5e" stroke-width="2" fill="none"/><path d="M203.83 308.76h-1.02v-2h1.03z" fill="#5e5e5e"/><path d="M200.6 330.56l-14.27 4.63v-9.28z" stroke="#5e5e5e" stroke-width="2" fill="#5e5e5e"/><path d="M20 300h192.28v11.75H20z" fill="none"/><use xlink:href="#z" transform="matrix(1,0,0,1,20,300) translate(85.7283950617284 8.888888888888884)"/><use xlink:href="#A" transform="matrix(1,0,0,1,20,300) translate(50.97530864197533 22.222222222222207)"/><use xlink:href="#B" transform="matrix(1,0,0,1,20,300) translate(97.42592592592592 22.222222222222207)"/><path d="M698.5 340.25h240v60h-240z" fill="none"/><use xlink:href="#C" transform="matrix(1,0,0,1,698.4999999999999,340.25) translate(-3.481481481481424 33.55555555555556)"/><path d="M918.5 46.75c0-3.3 2.7-6 6-6h148c3.3 0 6 2.7 6 6v28c0 3.3-2.7 6-6 6h-148c-3.3 0-6-2.7-6-6z" stroke="#5e5e5e" stroke-width="3" fill="#fff"/><use xlink:href="#D" transform="matrix(1,0,0,1,930.5,52.75) translate(33.49382716049382 17.77777777777778)"/><path d="M998.5 83.25V93.7m0 10.45v20.9m0 10.44v20.9m0 10.43v20.9m0 10.45v20.9m0 10.44v20.9m0 10.44v20.9m0 10.45v20.9m0 10.45V334" stroke="#5e5e5e" stroke-width="2" fill="none"/><path d="M999.5 83.28h-2v-1.03h2z" fill="#5e5e5e"/><path d="M998.5 349.26L993.86 335h9.28z" stroke="#5e5e5e" stroke-width="2" fill="#5e5e5e"/><path d="M998.5 416.5v10.88m0 10.87V460m0 10.87v10.88" stroke="#5e5e5e" stroke-width="2" fill="none"/><path d="M999.5 416.53h-2v-1.03h2z" fill="#5e5e5e"/><path d="M998.5 497l-4.64-14.25h9.28z" stroke="#5e5e5e" stroke-width="2" fill="#5e5e5e"/><path d="M978.5 360c0-3.3 2.7-6 6-6h28c3.3 0 6 2.7 6 6v48c0 3.3-2.7 6-6 6h-28c-3.3 0-6-2.7-6-6z" stroke="#000" stroke-width="3" fill="#fff"/><path d="M243.05 361.55v12.7c0 3.3 2.7 6 6 6H958.5" stroke="#5e5e5e" stroke-width="2" fill="none"/><path d="M244.05 361.57h-2v-.75l1.1-.3.9-.9z" fill="#5e5e5e"/><path d="M973.76 380.25l-14.26 4.64v-9.3z" stroke="#5e5e5e" stroke-width="2" fill="#5e5e5e"/><path d="M904.62.25h173.88v60H904.62z" fill="none"/><g><use xlink:href="#E" transform="matrix(1,0,0,1,904.622969779785,0.25) translate(65.45987654320987 33.111111111111114)"/></g><path d="M781.84 400.25H938.5v35.4H781.84z" fill="none"/><g><use xlink:href="#F" transform="matrix(1,0,0,1,781.83925749346,400.25) translate(2.6512345679012554 8.888888888888884)"/><use xlink:href="#G" transform="matrix(1,0,0,1,781.83925749346,400.25) translate(40.24382716049383 8.888888888888884)"/><use xlink:href="#H" transform="matrix(1,0,0,1,781.83925749346,400.25) translate(71.07716049382715 8.888888888888884)"/><use xlink:href="#I" transform="matrix(1,0,0,1,781.83925749346,400.25) translate(92.0648148148148 8.888888888888884)"/><use xlink:href="#J" transform="matrix(1,0,0,1,781.83925749346,400.25) translate(115.49074074074072 8.888888888888884)"/><use xlink:href="#K" transform="matrix(1,0,0,1,781.83925749346,400.25) translate(130.9228395061728 8.888888888888884)"/><use xlink:href="#L" transform="matrix(1,0,0,1,781.83925749346,400.25) translate(145.0895061728395 8.888888888888884)"/><use xlink:href="#M" transform="matrix(1,0,0,1,781.83925749346,400.25) translate(8.330246913580282 22.222222222222207)"/><use xlink:href="#N" transform="matrix(1,0,0,1,781.83925749346,400.25) translate(63.79320987654321 22.222222222222207)"/><use xlink:href="#O" transform="matrix(1,0,0,1,781.83925749346,400.25) translate(108.82407407407405 22.222222222222207)"/><use xlink:href="#P" transform="matrix(1,0,0,1,781.83925749346,400.25) translate(64.93518518518519 35.555555555555536)"/></g><defs><path fill="#333" d="M85-194c31 0 48 13 60 33l-1-100h32l1 261h-30c-2-10 0-23-3-31C134-8 116 4 85 4 32 4 16-35 15-94c0-66 23-100 70-100zm9 24c-40 0-46 34-46 75 0 40 6 74 45 74 42 0 51-32 51-76 0-42-9-74-50-73" id="Q"/><path fill="#333" d="M100-194c62-1 85 37 85 99 1 63-27 99-86 99S16-35 15-95c0-66 28-99 85-99zM99-20c44 1 53-31 53-75 0-43-8-75-51-75s-53 32-53 75 10 74 51 75" id="R"/><path fill="#333" d="M30-248c87 1 191-15 191 75 0 78-77 80-158 76V0H30v-248zm33 125c57 0 124 11 124-50 0-59-68-47-124-48v98" id="S"/><path fill="#333" d="M135-143c-3-34-86-38-87 0 15 53 115 12 119 90S17 21 10-45l28-5c4 36 97 45 98 0-10-56-113-15-118-90-4-57 82-63 122-42 12 7 21 19 24 35" id="T"/><path fill="#333" d="M59-47c-2 24 18 29 38 22v24C64 9 27 4 27-40v-127H5v-23h24l9-43h21v43h35v23H59v120" id="U"/><g id="a"><use transform="matrix(0.03703703703703702,0,0,0.03703703703703702,0,0)" xlink:href="#Q"/><use transform="matrix(0.03703703703703702,0,0,0.03703703703703702,7.407407407407404,0)" xlink:href="#R"/><use transform="matrix(0.03703703703703702,0,0,0.03703703703703702,14.814814814814808,0)" xlink:href="#S"/><use transform="matrix(0.03703703703703702,0,0,0.03703703703703702,23.703703703703695,0)" xlink:href="#R"/><use transform="matrix(0.03703703703703702,0,0,0.03703703703703702,31.111111111111104,0)" xlink:href="#T"/><use transform="matrix(0.03703703703703702,0,0,0.03703703703703702,37.777777777777764,0)" xlink:href="#U"/></g><path fill="#333" d="M0 4l72-265h28L28 4H0" id="V"/><path fill="#333" d="M212-179c-10-28-35-45-73-45-59 0-87 40-87 99 0 60 29 101 89 101 43 0 62-24 78-52l27 14C228-24 195 4 139 4 59 4 22-46 18-125c-6-104 99-153 187-111 19 9 31 26 39 46" id="W"/><path fill="#333" d="M114-163C36-179 61-72 57 0H25l-1-190h30c1 12-1 29 2 39 6-27 23-49 58-41v29" id="X"/><path fill="#333" d="M100-194c63 0 86 42 84 106H49c0 40 14 67 53 68 26 1 43-12 49-29l28 8c-11 28-37 45-77 45C44 4 14-33 15-96c1-61 26-98 85-98zm52 81c6-60-76-77-97-28-3 7-6 17-6 28h103" id="Y"/><path fill="#333" d="M141-36C126-15 110 5 73 4 37 3 15-17 15-53c-1-64 63-63 125-63 3-35-9-54-41-54-24 1-41 7-42 31l-33-3c5-37 33-52 76-52 45 0 72 20 72 64v82c-1 20 7 32 28 27v20c-31 9-61-2-59-35zM48-53c0 20 12 33 32 33 41-3 63-29 60-74-43 2-92-5-92 41" id="Z"/><path fill="#333" d="M205 0l-28-72H64L36 0H1l101-248h38L239 0h-34zm-38-99l-47-123c-12 45-31 82-46 123h93" id="aa"/><path fill="#333" d="M84 4C-5 8 30-112 23-190h32v120c0 31 7 50 39 49 72-2 45-101 50-169h31l1 190h-30c-1-10 1-25-2-33-11 22-28 36-60 37" id="ab"/><path fill="#333" d="M96-169c-40 0-48 33-48 73s9 75 48 75c24 0 41-14 43-38l32 2c-6 37-31 61-74 61-59 0-76-41-82-99-10-93 101-131 147-64 4 7 5 14 7 22l-32 3c-4-21-16-35-41-35" id="ac"/><path fill="#333" d="M24-231v-30h32v30H24zM24 0v-190h32V0H24" id="ad"/><path fill="#333" d="M117-194c89-4 53 116 60 194h-32v-121c0-31-8-49-39-48C34-167 62-67 57 0H25l-1-190h30c1 10-1 24 2 32 11-22 29-35 61-36" id="ae"/><g id="b"><use transform="matrix(0.03703703703703702,0,0,0.03703703703703702,0,0)" xlink:href="#V"/><use transform="matrix(0.03703703703703702,0,0,0.03703703703703702,3.703703703703702,0)" xlink:href="#W"/><use transform="matrix(0.03703703703703702,0,0,0.03703703703703702,13.29629629629629,0)" xlink:href="#X"/><use transform="matrix(0.03703703703703702,0,0,0.03703703703703702,17.703703703703695,0)" xlink:href="#Y"/><use transform="matrix(0.03703703703703702,0,0,0.03703703703703702,25.1111111111111,0)" xlink:href="#Z"/><use transform="matrix(0.03703703703703702,0,0,0.03703703703703702,32.518518518518505,0)" xlink:href="#U"/><use transform="matrix(0.03703703703703702,0,0,0.03703703703703702,36.22222222222221,0)" xlink:href="#Y"/><use transform="matrix(0.03703703703703702,0,0,0.03703703703703702,43.62962962962961,0)" xlink:href="#aa"/><use transform="matrix(0.03703703703703702,0,0,0.03703703703703702,52.5185185185185,0)" xlink:href="#ab"/><use transform="matrix(0.03703703703703702,0,0,0.03703703703703702,59.9259259259259,0)" xlink:href="#ac"/><use transform="matrix(0.03703703703703702,0,0,0.03703703703703702,66.59259259259257,0)" xlink:href="#U"/><use transform="matrix(0.03703703703703702,0,0,0.03703703703703702,70.29629629629626,0)" xlink:href="#ad"/><use transform="matrix(0.03703703703703702,0,0,0.03703703703703702,73.22222222222219,0)" xlink:href="#R"/><use transform="matrix(0.03703703703703702,0,0,0.03703703703703702,80.62962962962959,0)" xlink:href="#ae"/></g><path fill="#333" d="M140-251c81 0 123 46 123 126C263-46 219 4 140 4 59 4 17-45 17-125s42-126 123-126zm0 227c63 0 89-41 89-101s-29-99-89-99c-61 0-89 39-89 99S79-25 140-24" id="af"/><path fill="#333" d="M185-189c-5-48-123-54-124 2 14 75 158 14 163 119 3 78-121 87-175 55-17-10-28-26-33-46l33-7c5 56 141 63 141-1 0-78-155-14-162-118-5-82 145-84 179-34 5 7 8 16 11 25" id="ag"/><path fill="#333" d="M127-220V0H93v-220H8v-28h204v28h-85" id="ah"/><g id="c"><use transform="matrix(0.03703703703703702,0,0,0.03703703703703702,0,0)" xlink:href="#S"/><use transform="matrix(0.03703703703703702,0,0,0.03703703703703702,8.888888888888886,0)" xlink:href="#af"/><use transform="matrix(0.03703703703703702,0,0,0.03703703703703702,19.259259259259252,0)" xlink:href="#ag"/><use transform="matrix(0.03703703703703702,0,0,0.03703703703703702,28.14814814814814,0)" xlink:href="#ah"/></g><path fill="#333" d="M87 75C49 33 22-17 22-94c0-76 28-126 65-167h31c-38 41-64 92-64 168S80 34 118 75H87" id="ai"/><path fill="#333" d="M101-234c-31-9-42 10-38 44h38v23H63V0H32v-167H5v-23h27c-7-52 17-82 69-68v24" id="aj"/><path fill="#333" d="M210-169c-67 3-38 105-44 169h-31v-121c0-29-5-50-35-48C34-165 62-65 56 0H25l-1-190h30c1 10-1 24 2 32 10-44 99-50 107 0 11-21 27-35 58-36 85-2 47 119 55 194h-31v-121c0-29-5-49-35-48" id="ak"/><path fill="#333" d="M30-248c118-7 216 8 213 122C240-48 200 0 122 0H30v-248zM63-27c89 8 146-16 146-99s-60-101-146-95v194" id="al"/><path fill="#333" d="M33-261c38 41 65 92 65 168S71 34 33 75H2C39 34 66-17 66-93S39-220 2-261h31" id="am"/><g id="d"><use transform="matrix(0.03703703703703702,0,0,0.03703703703703702,0,0)" xlink:href="#ai"/><use transform="matrix(0.03703703703703702,0,0,0.03703703703703702,4.407407407407406,0)" xlink:href="#aj"/><use transform="matrix(0.03703703703703702,0,0,0.03703703703703702,8.111111111111107,0)" xlink:href="#R"/><use transform="matrix(0.03703703703703702,0,0,0.03703703703703702,15.518518518518512,0)" xlink:href="#X"/><use transform="matrix(0.03703703703703702,0,0,0.03703703703703702,19.925925925925917,0)" xlink:href="#ak"/><use transform="matrix(0.03703703703703702,0,0,0.03703703703703702,30.999999999999986,0)" xlink:href="#al"/><use transform="matrix(0.03703703703703702,0,0,0.03703703703703702,40.592592592592574,0)" xlink:href="#Z"/><use transform="matrix(0.03703703703703702,0,0,0.03703703703703702,47.99999999999998,0)" xlink:href="#U"/><use transform="matrix(0.03703703703703702,0,0,0.03703703703703702,51.70370370370368,0)" xlink:href="#Z"/><use transform="matrix(0.03703703703703702,0,0,0.03703703703703702,59.111111111111086,0)" xlink:href="#am"/></g><path fill="#333" d="M26 75v-336h71v23H56V52h41v23H26" id="an"/><path fill="#333" d="M106-169C34-169 62-67 57 0H25v-261h32l-1 103c12-21 28-36 61-36 89 0 53 116 60 194h-32v-121c2-32-8-49-39-48" id="ao"/><path fill="#333" d="M143 0L79-87 56-68V0H24v-261h32v163l83-92h37l-77 82L181 0h-38" id="ap"/><path fill="#333" d="M137 0h-34L2-248h35l83 218 83-218h36" id="aq"/><path fill="#333" d="M24 0v-261h32V0H24" id="ar"/><path fill="#333" d="M179-190L93 31C79 59 56 82 12 73V49c39 6 53-20 64-50L1-190h34L92-34l54-156h33" id="as"/><path fill="#333" d="M3 75V52h41v-290H3v-23h71V75H3" id="at"/><g id="e"><use transform="matrix(0.024691358024691353,0,0,0.024691358024691353,0,0)" xlink:href="#an"/><use transform="matrix(0.024691358024691353,0,0,0.024691358024691353,2.469135802469135,0)" xlink:href="#ac"/><use transform="matrix(0.024691358024691353,0,0,0.024691358024691353,6.913580246913579,0)" xlink:href="#ao"/><use transform="matrix(0.024691358024691353,0,0,0.024691358024691353,11.85185185185185,0)" xlink:href="#Y"/><use transform="matrix(0.024691358024691353,0,0,0.024691358024691353,16.79012345679012,0)" xlink:href="#ac"/><use transform="matrix(0.024691358024691353,0,0,0.024691358024691353,21.234567901234563,0)" xlink:href="#ap"/><use transform="matrix(0.024691358024691353,0,0,0.024691358024691353,25.679012345679006,0)" xlink:href="#aq"/><use transform="matrix(0.024691358024691353,0,0,0.024691358024691353,30.93827160493826,0)" xlink:href="#Z"/><use transform="matrix(0.024691358024691353,0,0,0.024691358024691353,35.87654320987653,0)" xlink:href="#ar"/><use transform="matrix(0.024691358024691353,0,0,0.024691358024691353,37.827160493827144,0)" xlink:href="#ad"/><use transform="matrix(0.024691358024691353,0,0,0.024691358024691353,39.77777777777776,0)" xlink:href="#Q"/><use transform="matrix(0.024691358024691353,0,0,0.024691358024691353,44.71604938271603,0)" xlink:href="#ad"/><use transform="matrix(0.024691358024691353,0,0,0.024691358024691353,46.66666666666664,0)" xlink:href="#U"/><use transform="matrix(0.024691358024691353,0,0,0.024691358024691353,49.135802469135776,0)" xlink:href="#as"/><use transform="matrix(0.024691358024691353,0,0,0.024691358024691353,53.58024691358021,0)" xlink:href="#at"/></g><path fill="#333" d="M33 0v-38h34V0H33" id="au"/><g id="f"><use transform="matrix(0.06172839506172839,0,0,0.06172839506172839,0,0)" xlink:href="#ao"/><use transform="matrix(0.06172839506172839,0,0,0.06172839506172839,12.345679012345679,0)" xlink:href="#R"/><use transform="matrix(0.06172839506172839,0,0,0.06172839506172839,24.691358024691358,0)" xlink:href="#ak"/><use transform="matrix(0.06172839506172839,0,0,0.06172839506172839,43.148148148148145,0)" xlink:href="#Y"/><use transform="matrix(0.06172839506172839,0,0,0.06172839506172839,55.49382716049382,0)" xlink:href="#au"/><use transform="matrix(0.06172839506172839,0,0,0.06172839506172839,61.666666666666664,0)" xlink:href="#ao"/><use transform="matrix(0.06172839506172839,0,0,0.06172839506172839,74.01234567901234,0)" xlink:href="#U"/><use transform="matrix(0.06172839506172839,0,0,0.06172839506172839,80.18518518518518,0)" xlink:href="#ak"/><use transform="matrix(0.06172839506172839,0,0,0.06172839506172839,98.64197530864196,0)" xlink:href="#ar"/></g><g id="g"><use transform="matrix(0.06172839506172839,0,0,0.06172839506172839,0,0)" xlink:href="#W"/><use transform="matrix(0.06172839506172839,0,0,0.06172839506172839,15.987654320987653,0)" xlink:href="#X"/><use transform="matrix(0.06172839506172839,0,0,0.06172839506172839,23.333333333333332,0)" xlink:href="#Y"/><use transform="matrix(0.06172839506172839,0,0,0.06172839506172839,35.67901234567901,0)" xlink:href="#Z"/><use transform="matrix(0.06172839506172839,0,0,0.06172839506172839,48.02469135802469,0)" xlink:href="#U"/><use transform="matrix(0.06172839506172839,0,0,0.06172839506172839,54.19753086419753,0)" xlink:href="#Y"/><use transform="matrix(0.06172839506172839,0,0,0.06172839506172839,66.54320987654322,0)" xlink:href="#aa"/><use transform="matrix(0.06172839506172839,0,0,0.06172839506172839,81.35802469135803,0)" xlink:href="#ab"/><use transform="matrix(0.06172839506172839,0,0,0.06172839506172839,93.70370370370371,0)" xlink:href="#ac"/><use transform="matrix(0.06172839506172839,0,0,0.06172839506172839,104.81481481481482,0)" xlink:href="#U"/><use transform="matrix(0.06172839506172839,0,0,0.06172839506172839,110.98765432098766,0)" xlink:href="#ad"/><use transform="matrix(0.06172839506172839,0,0,0.06172839506172839,115.8641975308642,0)" xlink:href="#R"/><use transform="matrix(0.06172839506172839,0,0,0.06172839506172839,128.20987654320987,0)" xlink:href="#ae"/></g><g id="h"><use transform="matrix(0.06172839506172839,0,0,0.06172839506172839,0,0)" xlink:href="#aa"/><use transform="matrix(0.06172839506172839,0,0,0.06172839506172839,14.814814814814813,0)" xlink:href="#ab"/><use transform="matrix(0.06172839506172839,0,0,0.06172839506172839,27.160493827160494,0)" xlink:href="#ac"/><use transform="matrix(0.06172839506172839,0,0,0.06172839506172839,38.27160493827161,0)" xlink:href="#U"/><use transform="matrix(0.06172839506172839,0,0,0.06172839506172839,44.44444444444445,0)" xlink:href="#ad"/><use transform="matrix(0.06172839506172839,0,0,0.06172839506172839,49.320987654320994,0)" xlink:href="#R"/><use transform="matrix(0.06172839506172839,0,0,0.06172839506172839,61.66666666666667,0)" xlink:href="#ae"/><use transform="matrix(0.06172839506172839,0,0,0.06172839506172839,74.01234567901236,0)" xlink:href="#al"/><use transform="matrix(0.06172839506172839,0,0,0.06172839506172839,90.00000000000001,0)" xlink:href="#Z"/><use transform="matrix(0.06172839506172839,0,0,0.06172839506172839,102.3456790123457,0)" xlink:href="#R"/></g><path fill="#ef8d22" d="M205 0l-28-72H64L36 0H1l101-248h38L239 0h-34zm-38-99l-47-123c-12 45-31 82-46 123h93" id="av"/><path fill="#ef8d22" d="M84 4C-5 8 30-112 23-190h32v120c0 31 7 50 39 49 72-2 45-101 50-169h31l1 190h-30c-1-10 1-25-2-33-11 22-28 36-60 37" id="aw"/><path fill="#ef8d22" d="M96-169c-40 0-48 33-48 73s9 75 48 75c24 0 41-14 43-38l32 2c-6 37-31 61-74 61-59 0-76-41-82-99-10-93 101-131 147-64 4 7 5 14 7 22l-32 3c-4-21-16-35-41-35" id="ax"/><path fill="#ef8d22" d="M59-47c-2 24 18 29 38 22v24C64 9 27 4 27-40v-127H5v-23h24l9-43h21v43h35v23H59v120" id="ay"/><path fill="#ef8d22" d="M24-231v-30h32v30H24zM24 0v-190h32V0H24" id="az"/><path fill="#ef8d22" d="M100-194c62-1 85 37 85 99 1 63-27 99-86 99S16-35 15-95c0-66 28-99 85-99zM99-20c44 1 53-31 53-75 0-43-8-75-51-75s-53 32-53 75 10 74 51 75" id="aA"/><path fill="#ef8d22" d="M117-194c89-4 53 116 60 194h-32v-121c0-31-8-49-39-48C34-167 62-67 57 0H25l-1-190h30c1 10-1 24 2 32 11-22 29-35 61-36" id="aB"/><path fill="#ef8d22" d="M212-179c-10-28-35-45-73-45-59 0-87 40-87 99 0 60 29 101 89 101 43 0 62-24 78-52l27 14C228-24 195 4 139 4 59 4 22-46 18-125c-6-104 99-153 187-111 19 9 31 26 39 46" id="aC"/><path fill="#ef8d22" d="M114-163C36-179 61-72 57 0H25l-1-190h30c1 12-1 29 2 39 6-27 23-49 58-41v29" id="aD"/><path fill="#ef8d22" d="M100-194c63 0 86 42 84 106H49c0 40 14 67 53 68 26 1 43-12 49-29l28 8c-11 28-37 45-77 45C44 4 14-33 15-96c1-61 26-98 85-98zm52 81c6-60-76-77-97-28-3 7-6 17-6 28h103" id="aE"/><path fill="#ef8d22" d="M141-36C126-15 110 5 73 4 37 3 15-17 15-53c-1-64 63-63 125-63 3-35-9-54-41-54-24 1-41 7-42 31l-33-3c5-37 33-52 76-52 45 0 72 20 72 64v82c-1 20 7 32 28 27v20c-31 9-61-2-59-35zM48-53c0 20 12 33 32 33 41-3 63-29 60-74-43 2-92-5-92 41" id="aF"/><path fill="#ef8d22" d="M33 0v-38h34V0H33" id="aG"/><path fill="#ef8d22" d="M24-231v-30h32v30H24zM-9 49c24 4 33-6 33-30v-209h32V24c2 40-23 58-65 49V49" id="aH"/><path fill="#ef8d22" d="M135-143c-3-34-86-38-87 0 15 53 115 12 119 90S17 21 10-45l28-5c4 36 97 45 98 0-10-56-113-15-118-90-4-57 82-63 122-42 12 7 21 19 24 35" id="aI"/><g id="i"><use transform="matrix(0.04320987654320987,0,0,0.04320987654320987,0,0)" xlink:href="#av"/><use transform="matrix(0.04320987654320987,0,0,0.04320987654320987,10.370370370370368,0)" xlink:href="#aw"/><use transform="matrix(0.04320987654320987,0,0,0.04320987654320987,19.01234567901234,0)" xlink:href="#ax"/><use transform="matrix(0.04320987654320987,0,0,0.04320987654320987,26.790123456790116,0)" xlink:href="#ay"/><use transform="matrix(0.04320987654320987,0,0,0.04320987654320987,31.111111111111104,0)" xlink:href="#az"/><use transform="matrix(0.04320987654320987,0,0,0.04320987654320987,34.52469135802468,0)" xlink:href="#aA"/><use transform="matrix(0.04320987654320987,0,0,0.04320987654320987,43.16666666666666,0)" xlink:href="#aB"/><use transform="matrix(0.04320987654320987,0,0,0.04320987654320987,51.80864197530863,0)" xlink:href="#aC"/><use transform="matrix(0.04320987654320987,0,0,0.04320987654320987,62.999999999999986,0)" xlink:href="#aD"/><use transform="matrix(0.04320987654320987,0,0,0.04320987654320987,68.14197530864196,0)" xlink:href="#aE"/><use transform="matrix(0.04320987654320987,0,0,0.04320987654320987,76.78395061728394,0)" xlink:href="#aF"/><use transform="matrix(0.04320987654320987,0,0,0.04320987654320987,85.42592592592591,0)" xlink:href="#ay"/><use transform="matrix(0.04320987654320987,0,0,0.04320987654320987,89.7469135802469,0)" xlink:href="#az"/><use transform="matrix(0.04320987654320987,0,0,0.04320987654320987,93.16049382716048,0)" xlink:href="#aA"/><use transform="matrix(0.04320987654320987,0,0,0.04320987654320987,101.80246913580245,0)" xlink:href="#aB"/><use transform="matrix(0.04320987654320987,0,0,0.04320987654320987,110.44444444444441,0)" xlink:href="#aG"/><use transform="matrix(0.04320987654320987,0,0,0.04320987654320987,114.7654320987654,0)" xlink:href="#aH"/><use transform="matrix(0.04320987654320987,0,0,0.04320987654320987,118.17901234567901,0)" xlink:href="#aI"/></g><path fill="#333" d="M33 0v-248h34V0H33" id="aJ"/><g id="j"><use transform="matrix(0.06172839506172839,0,0,0.06172839506172839,0,0)" xlink:href="#ag"/><use transform="matrix(0.06172839506172839,0,0,0.06172839506172839,14.814814814814813,0)" xlink:href="#Z"/><use transform="matrix(0.06172839506172839,0,0,0.06172839506172839,27.160493827160494,0)" xlink:href="#ar"/><use transform="matrix(0.06172839506172839,0,0,0.06172839506172839,32.03703703703704,0)" xlink:href="#Y"/><use transform="matrix(0.06172839506172839,0,0,0.06172839506172839,44.382716049382715,0)" xlink:href="#T"/><use transform="matrix(0.06172839506172839,0,0,0.06172839506172839,55.49382716049382,0)" xlink:href="#aJ"/><use transform="matrix(0.06172839506172839,0,0,0.06172839506172839,61.666666666666664,0)" xlink:href="#U"/><use transform="matrix(0.06172839506172839,0,0,0.06172839506172839,67.8395061728395,0)" xlink:href="#Y"/><use transform="matrix(0.06172839506172839,0,0,0.06172839506172839,80.18518518518519,0)" xlink:href="#ak"/><use transform="matrix(0.06172839506172839,0,0,0.06172839506172839,98.64197530864197,0)" xlink:href="#al"/><use transform="matrix(0.06172839506172839,0,0,0.06172839506172839,114.62962962962963,0)" xlink:href="#Z"/><use transform="matrix(0.06172839506172839,0,0,0.06172839506172839,126.97530864197533,0)" xlink:href="#R"/></g><g id="k"><use transform="matrix(0.030864197530864182,0,0,0.030864197530864182,0,0)" xlink:href="#W"/><use transform="matrix(0.030864197530864182,0,0,0.030864197530864182,7.993827160493823,0)" xlink:href="#ar"/><use transform="matrix(0.030864197530864182,0,0,0.030864197530864182,10.432098765432094,0)" xlink:href="#ad"/><use transform="matrix(0.030864197530864182,0,0,0.030864197530864182,12.870370370370365,0)" xlink:href="#ac"/><use transform="matrix(0.030864197530864182,0,0,0.030864197530864182,18.425925925925917,0)" xlink:href="#ap"/></g><path fill="#333" d="M160-131c35 5 61 23 61 61C221 17 115-2 30 0v-248c76 3 177-17 177 60 0 33-19 50-47 57zm-97-11c50-1 110 9 110-42 0-47-63-36-110-37v79zm0 115c55-2 124 14 124-45 0-56-70-42-124-44v89" id="aK"/><g id="l"><use transform="matrix(0.030864197530864182,0,0,0.030864197530864182,0,0)" xlink:href="#aK"/><use transform="matrix(0.030864197530864182,0,0,0.030864197530864182,7.407407407407404,0)" xlink:href="#ab"/><use transform="matrix(0.030864197530864182,0,0,0.030864197530864182,13.58024691358024,0)" xlink:href="#U"/><use transform="matrix(0.030864197530864182,0,0,0.030864197530864182,16.666666666666657,0)" xlink:href="#U"/><use transform="matrix(0.030864197530864182,0,0,0.030864197530864182,19.753086419753075,0)" xlink:href="#R"/><use transform="matrix(0.030864197530864182,0,0,0.030864197530864182,25.92592592592591,0)" xlink:href="#ae"/></g><g id="m"><use transform="matrix(0.030864197530864182,0,0,0.030864197530864182,0,0)" xlink:href="#W"/><use transform="matrix(0.030864197530864182,0,0,0.030864197530864182,7.993827160493823,0)" xlink:href="#X"/><use transform="matrix(0.030864197530864182,0,0,0.030864197530864182,11.66666666666666,0)" xlink:href="#Y"/><use transform="matrix(0.030864197530864182,0,0,0.030864197530864182,17.8395061728395,0)" xlink:href="#Z"/><use transform="matrix(0.030864197530864182,0,0,0.030864197530864182,24.012345679012334,0)" xlink:href="#U"/><use transform="matrix(0.030864197530864182,0,0,0.030864197530864182,27.09876543209875,0)" xlink:href="#Y"/></g><g id="n"><use transform="matrix(0.030864197530864182,0,0,0.030864197530864182,0,0)" xlink:href="#aa"/><use transform="matrix(0.030864197530864182,0,0,0.030864197530864182,7.407407407407404,0)" xlink:href="#ab"/><use transform="matrix(0.030864197530864182,0,0,0.030864197530864182,13.58024691358024,0)" xlink:href="#ac"/><use transform="matrix(0.030864197530864182,0,0,0.030864197530864182,19.135802469135793,0)" xlink:href="#U"/><use transform="matrix(0.030864197530864182,0,0,0.030864197530864182,22.22222222222221,0)" xlink:href="#ad"/><use transform="matrix(0.030864197530864182,0,0,0.030864197530864182,24.66049382716048,0)" xlink:href="#R"/><use transform="matrix(0.030864197530864182,0,0,0.030864197530864182,30.833333333333314,0)" xlink:href="#ae"/></g><g id="o"><use transform="matrix(0.030864197530864192,0,0,0.030864197530864192,0,0)" xlink:href="#ac"/><use transform="matrix(0.030864197530864192,0,0,0.030864197530864192,5.5555555555555545,0)" xlink:href="#X"/><use transform="matrix(0.030864197530864192,0,0,0.030864197530864192,9.228395061728394,0)" xlink:href="#Y"/><use transform="matrix(0.030864197530864192,0,0,0.030864197530864192,15.401234567901232,0)" xlink:href="#Z"/><use transform="matrix(0.030864197530864192,0,0,0.030864197530864192,21.57407407407407,0)" xlink:href="#U"/><use transform="matrix(0.030864197530864192,0,0,0.030864197530864192,24.660493827160487,0)" xlink:href="#Y"/><use transform="matrix(0.030864197530864192,0,0,0.030864197530864192,30.833333333333325,0)" xlink:href="#aa"/><use transform="matrix(0.030864197530864192,0,0,0.030864197530864192,38.24074074074073,0)" xlink:href="#ab"/><use transform="matrix(0.030864197530864192,0,0,0.030864197530864192,44.41358024691357,0)" xlink:href="#ac"/><use transform="matrix(0.030864197530864192,0,0,0.030864197530864192,49.969135802469125,0)" xlink:href="#U"/><use transform="matrix(0.030864197530864192,0,0,0.030864197530864192,53.05555555555554,0)" xlink:href="#ad"/><use transform="matrix(0.030864197530864192,0,0,0.030864197530864192,55.493827160493815,0)" xlink:href="#R"/><use transform="matrix(0.030864197530864192,0,0,0.030864197530864192,61.66666666666666,0)" xlink:href="#ae"/><use transform="matrix(0.030864197530864192,0,0,0.030864197530864192,67.83950617283949,0)" xlink:href="#ai"/><use transform="matrix(0.030864197530864192,0,0,0.030864197530864192,71.51234567901233,0)" xlink:href="#aj"/><use transform="matrix(0.030864197530864192,0,0,0.030864197530864192,74.59876543209874,0)" xlink:href="#R"/><use transform="matrix(0.030864197530864192,0,0,0.030864197530864192,80.77160493827158,0)" xlink:href="#X"/><use transform="matrix(0.030864197530864192,0,0,0.030864197530864192,84.44444444444441,0)" xlink:href="#ak"/><use transform="matrix(0.030864197530864192,0,0,0.030864197530864192,93.6728395061728,0)" xlink:href="#al"/><use transform="matrix(0.030864197530864192,0,0,0.030864197530864192,101.66666666666663,0)" xlink:href="#Z"/><use transform="matrix(0.030864197530864192,0,0,0.030864197530864192,107.83950617283946,0)" xlink:href="#U"/><use transform="matrix(0.030864197530864192,0,0,0.030864197530864192,110.92592592592588,0)" xlink:href="#Z"/><use transform="matrix(0.030864197530864192,0,0,0.030864197530864192,117.09876543209872,0)" xlink:href="#am"/></g><g id="p"><use transform="matrix(0.030864197530864192,0,0,0.030864197530864192,0,0)" xlink:href="#ac"/><use transform="matrix(0.030864197530864192,0,0,0.030864197530864192,5.5555555555555545,0)" xlink:href="#X"/><use transform="matrix(0.030864197530864192,0,0,0.030864197530864192,9.228395061728394,0)" xlink:href="#Y"/><use transform="matrix(0.030864197530864192,0,0,0.030864197530864192,15.401234567901232,0)" xlink:href="#Z"/><use transform="matrix(0.030864197530864192,0,0,0.030864197530864192,21.57407407407407,0)" xlink:href="#U"/><use transform="matrix(0.030864197530864192,0,0,0.030864197530864192,24.660493827160487,0)" xlink:href="#Y"/><use transform="matrix(0.030864197530864192,0,0,0.030864197530864192,30.833333333333325,0)" xlink:href="#ag"/><use transform="matrix(0.030864197530864192,0,0,0.030864197530864192,38.24074074074073,0)" xlink:href="#Z"/><use transform="matrix(0.030864197530864192,0,0,0.030864197530864192,44.41358024691357,0)" xlink:href="#ar"/><use transform="matrix(0.030864197530864192,0,0,0.030864197530864192,46.85185185185184,0)" xlink:href="#Y"/><use transform="matrix(0.030864197530864192,0,0,0.030864197530864192,53.02469135802468,0)" xlink:href="#T"/><use transform="matrix(0.030864197530864192,0,0,0.030864197530864192,58.58024691358024,0)" xlink:href="#aJ"/><use transform="matrix(0.030864197530864192,0,0,0.030864197530864192,61.66666666666666,0)" xlink:href="#U"/><use transform="matrix(0.030864197530864192,0,0,0.030864197530864192,64.75308641975307,0)" xlink:href="#Y"/><use transform="matrix(0.030864197530864192,0,0,0.030864197530864192,70.92592592592591,0)" xlink:href="#ak"/></g><path fill="#333" d="M68-38c1 34 0 65-14 84H32c9-13 17-26 17-46H33v-38h35" id="aL"/><path fill="#333" d="M63-220v92h138v28H63V0H30v-248h175v28H63" id="aM"/><g id="q"><use transform="matrix(0.030864197530864192,0,0,0.030864197530864192,0,0)" xlink:href="#ai"/><use transform="matrix(0.030864197530864192,0,0,0.030864197530864192,3.672839506172839,0)" xlink:href="#ae"/><use transform="matrix(0.030864197530864192,0,0,0.030864197530864192,9.845679012345677,0)" xlink:href="#Z"/><use transform="matrix(0.030864197530864192,0,0,0.030864197530864192,16.018518518518515,0)" xlink:href="#ak"/><use transform="matrix(0.030864197530864192,0,0,0.030864197530864192,25.24691358024691,0)" xlink:href="#Y"/><use transform="matrix(0.030864197530864192,0,0,0.030864197530864192,31.41975308641975,0)" xlink:href="#aL"/><use transform="matrix(0.030864197530864192,0,0,0.030864197530864192,34.50617283950617,0)" xlink:href="#Q"/><use transform="matrix(0.030864197530864192,0,0,0.030864197530864192,40.67901234567901,0)" xlink:href="#Y"/><use transform="matrix(0.030864197530864192,0,0,0.030864197530864192,46.85185185185185,0)" xlink:href="#T"/><use transform="matrix(0.030864197530864192,0,0,0.030864197530864192,52.407407407407405,0)" xlink:href="#ac"/><use transform="matrix(0.030864197530864192,0,0,0.030864197530864192,57.96296296296296,0)" xlink:href="#au"/><use transform="matrix(0.030864197530864192,0,0,0.030864197530864192,61.04938271604938,0)" xlink:href="#au"/><use transform="matrix(0.030864197530864192,0,0,0.030864197530864192,64.1358024691358,0)" xlink:href="#aL"/><use transform="matrix(0.030864197530864192,0,0,0.030864197530864192,67.22222222222221,0)" xlink:href="#aj"/><use transform="matrix(0.030864197530864192,0,0,0.030864197530864192,70.30864197530863,0)" xlink:href="#ad"/><use transform="matrix(0.030864197530864192,0,0,0.030864197530864192,72.7469135802469,0)" xlink:href="#ar"/><use transform="matrix(0.030864197530864192,0,0,0.030864197530864192,75.18518518518516,0)" xlink:href="#Y"/><use transform="matrix(0.030864197530864192,0,0,0.030864197530864192,81.358024691358,0)" xlink:href="#aM"/><use transform="matrix(0.030864197530864192,0,0,0.030864197530864192,88.11728395061725,0)" xlink:href="#R"/><use transform="matrix(0.030864197530864192,0,0,0.030864197530864192,94.29012345679008,0)" xlink:href="#X"/><use transform="matrix(0.030864197530864192,0,0,0.030864197530864192,97.34567901234564,0)" xlink:href="#au"/><use transform="matrix(0.030864197530864192,0,0,0.030864197530864192,100.43209876543206,0)" xlink:href="#au"/><use transform="matrix(0.030864197530864192,0,0,0.030864197530864192,103.51851851851848,0)" xlink:href="#am"/></g><path fill="#c92d39" d="M26 75v-336h71v23H56V52h41v23H26" id="aN"/><path fill="#c92d39" d="M24-231v-30h32v30H24zM24 0v-190h32V0H24" id="aO"/><path fill="#c92d39" d="M117-194c89-4 53 116 60 194h-32v-121c0-31-8-49-39-48C34-167 62-67 57 0H25l-1-190h30c1 10-1 24 2 32 11-22 29-35 61-36" id="aP"/><path fill="#c92d39" d="M115-194c55 1 70 41 70 98S169 2 115 4C84 4 66-9 55-30l1 105H24l-1-265h31l2 30c10-21 28-34 59-34zm-8 174c40 0 45-34 45-75s-6-73-45-74c-42 0-51 32-51 76 0 43 10 73 51 73" id="aQ"/><path fill="#c92d39" d="M84 4C-5 8 30-112 23-190h32v120c0 31 7 50 39 49 72-2 45-101 50-169h31l1 190h-30c-1-10 1-25-2-33-11 22-28 36-60 37" id="aR"/><path fill="#c92d39" d="M59-47c-2 24 18 29 38 22v24C64 9 27 4 27-40v-127H5v-23h24l9-43h21v43h35v23H59v120" id="aS"/><path fill="#c92d39" d="M135-143c-3-34-86-38-87 0 15 53 115 12 119 90S17 21 10-45l28-5c4 36 97 45 98 0-10-56-113-15-118-90-4-57 82-63 122-42 12 7 21 19 24 35" id="aT"/><g id="r"><use transform="matrix(0.030864197530864182,0,0,0.030864197530864182,0,0)" xlink:href="#aN"/><use transform="matrix(0.030864197530864182,0,0,0.030864197530864182,3.0864197530864184,0)" xlink:href="#aO"/><use transform="matrix(0.030864197530864182,0,0,0.030864197530864182,5.524691358024689,0)" xlink:href="#aP"/><use transform="matrix(0.030864197530864182,0,0,0.030864197530864182,11.697530864197525,0)" xlink:href="#aQ"/><use transform="matrix(0.030864197530864182,0,0,0.030864197530864182,17.87037037037036,0)" xlink:href="#aR"/><use transform="matrix(0.030864197530864182,0,0,0.030864197530864182,24.043209876543195,0)" xlink:href="#aS"/><use transform="matrix(0.030864197530864182,0,0,0.030864197530864182,27.129629629629612,0)" xlink:href="#aT"/></g><path fill="#c92d39" d="M100-194c63 0 86 42 84 106H49c0 40 14 67 53 68 26 1 43-12 49-29l28 8c-11 28-37 45-77 45C44 4 14-33 15-96c1-61 26-98 85-98zm52 81c6-60-76-77-97-28-3 7-6 17-6 28h103" id="aU"/><path fill="#c92d39" d="M114-163C36-179 61-72 57 0H25l-1-190h30c1 12-1 29 2 39 6-27 23-49 58-41v29" id="aV"/><path fill="#c92d39" d="M100-194c62-1 85 37 85 99 1 63-27 99-86 99S16-35 15-95c0-66 28-99 85-99zM99-20c44 1 53-31 53-75 0-43-8-75-51-75s-53 32-53 75 10 74 51 75" id="aW"/><g id="s"><use transform="matrix(0.030864197530864182,0,0,0.030864197530864182,0,0)" xlink:href="#aU"/><use transform="matrix(0.030864197530864182,0,0,0.030864197530864182,6.172839506172837,0)" xlink:href="#aV"/><use transform="matrix(0.030864197530864182,0,0,0.030864197530864182,9.845679012345673,0)" xlink:href="#aV"/><use transform="matrix(0.030864197530864182,0,0,0.030864197530864182,13.518518518518512,0)" xlink:href="#aW"/><use transform="matrix(0.030864197530864182,0,0,0.030864197530864182,19.691358024691347,0)" xlink:href="#aV"/></g><path fill="#c92d39" d="M155-56V0h-30v-56H8v-25l114-167h33v167h35v25h-35zm-30-156c-27 46-58 90-88 131h88v-131" id="aX"/><path fill="#c92d39" d="M101-251c68 0 85 55 85 127S166 4 100 4C33 4 14-52 14-124c0-73 17-127 87-127zm-1 229c47 0 54-49 54-102s-4-102-53-102c-51 0-55 48-55 102 0 53 5 102 54 102" id="aY"/><path fill="#c92d39" d="M3 75V52h41v-290H3v-23h71V75H3" id="aZ"/><g id="t"><use transform="matrix(0.030864197530864182,0,0,0.030864197530864182,0,0)" xlink:href="#aX"/><use transform="matrix(0.030864197530864182,0,0,0.030864197530864182,6.172839506172837,0)" xlink:href="#aY"/><use transform="matrix(0.030864197530864182,0,0,0.030864197530864182,12.345679012345673,0)" xlink:href="#aY"/><use transform="matrix(0.030864197530864182,0,0,0.030864197530864182,18.518518518518512,0)" xlink:href="#aZ"/></g><path fill="#c92d39" d="M108 0H70L1-190h34L89-25l56-165h34" id="ba"/><g id="u"><use transform="matrix(0.030864197530864182,0,0,0.030864197530864182,0,0)" xlink:href="#aN"/><use transform="matrix(0.030864197530864182,0,0,0.030864197530864182,3.0864197530864184,0)" xlink:href="#aT"/><use transform="matrix(0.030864197530864182,0,0,0.030864197530864182,8.641975308641971,0)" xlink:href="#aU"/><use transform="matrix(0.030864197530864182,0,0,0.030864197530864182,14.814814814814808,0)" xlink:href="#aV"/><use transform="matrix(0.030864197530864182,0,0,0.030864197530864182,18.487654320987644,0)" xlink:href="#ba"/><use transform="matrix(0.030864197530864182,0,0,0.030864197530864182,24.043209876543198,0)" xlink:href="#aU"/><use transform="matrix(0.030864197530864182,0,0,0.030864197530864182,30.216049382716037,0)" xlink:href="#aV"/></g><path fill="#c92d39" d="M54-142c48-35 137-8 131 61C196 18 31 33 14-55l32-4c7 23 22 37 52 37 35-1 51-22 54-58 4-55-73-65-99-34H22l8-134h141v27H59" id="bb"/><g id="v"><use transform="matrix(0.030864197530864182,0,0,0.030864197530864182,0,0)" xlink:href="#bb"/><use transform="matrix(0.030864197530864182,0,0,0.030864197530864182,6.172839506172837,0)" xlink:href="#aY"/><use transform="matrix(0.030864197530864182,0,0,0.030864197530864182,12.345679012345673,0)" xlink:href="#aY"/><use transform="matrix(0.030864197530864182,0,0,0.030864197530864182,18.518518518518512,0)" xlink:href="#aZ"/></g><path fill="#c92d39" d="M240 0l2-218c-23 76-54 145-80 218h-23L58-218 59 0H30v-248h44l77 211c21-75 51-140 76-211h43V0h-30" id="bc"/><path fill="#c92d39" d="M177-190C167-65 218 103 67 71c-23-6-38-20-44-43l32-5c15 47 100 32 89-28v-30C133-14 115 1 83 1 29 1 15-40 15-95c0-56 16-97 71-98 29-1 48 16 59 35 1-10 0-23 2-32h30zM94-22c36 0 50-32 50-73 0-42-14-75-50-75-39 0-46 34-46 75s6 73 46 73" id="bd"/><g id="w"><use transform="matrix(0.030864197530864182,0,0,0.030864197530864182,0,0)" xlink:href="#aU"/><use transform="matrix(0.030864197530864182,0,0,0.030864197530864182,6.172839506172837,0)" xlink:href="#aV"/><use transform="matrix(0.030864197530864182,0,0,0.030864197530864182,9.845679012345673,0)" xlink:href="#aV"/><use transform="matrix(0.030864197530864182,0,0,0.030864197530864182,13.518518518518512,0)" xlink:href="#aW"/><use transform="matrix(0.030864197530864182,0,0,0.030864197530864182,19.691358024691347,0)" xlink:href="#aV"/><use transform="matrix(0.030864197530864182,0,0,0.030864197530864182,23.364197530864185,0)" xlink:href="#bc"/><use transform="matrix(0.030864197530864182,0,0,0.030864197530864182,32.592592592592574,0)" xlink:href="#aT"/><use transform="matrix(0.030864197530864182,0,0,0.030864197530864182,38.148148148148124,0)" xlink:href="#bd"/></g><path fill="#19967d" d="M26 75v-336h71v23H56V52h41v23H26" id="be"/><path fill="#19967d" d="M135-143c-3-34-86-38-87 0 15 53 115 12 119 90S17 21 10-45l28-5c4 36 97 45 98 0-10-56-113-15-118-90-4-57 82-63 122-42 12 7 21 19 24 35" id="bf"/><path fill="#19967d" d="M59-47c-2 24 18 29 38 22v24C64 9 27 4 27-40v-127H5v-23h24l9-43h21v43h35v23H59v120" id="bg"/><path fill="#19967d" d="M141-36C126-15 110 5 73 4 37 3 15-17 15-53c-1-64 63-63 125-63 3-35-9-54-41-54-24 1-41 7-42 31l-33-3c5-37 33-52 76-52 45 0 72 20 72 64v82c-1 20 7 32 28 27v20c-31 9-61-2-59-35zM48-53c0 20 12 33 32 33 41-3 63-29 60-74-43 2-92-5-92 41" id="bh"/><path fill="#19967d" d="M84 4C-5 8 30-112 23-190h32v120c0 31 7 50 39 49 72-2 45-101 50-169h31l1 190h-30c-1-10 1-25-2-33-11 22-28 36-60 37" id="bi"/><g id="x"><use transform="matrix(0.030864197530864182,0,0,0.030864197530864182,0,0)" xlink:href="#be"/><use transform="matrix(0.030864197530864182,0,0,0.030864197530864182,3.0864197530864184,0)" xlink:href="#bf"/><use transform="matrix(0.030864197530864182,0,0,0.030864197530864182,8.641975308641971,0)" xlink:href="#bg"/><use transform="matrix(0.030864197530864182,0,0,0.030864197530864182,11.728395061728389,0)" xlink:href="#bh"/><use transform="matrix(0.030864197530864182,0,0,0.030864197530864182,17.901234567901227,0)" xlink:href="#bg"/><use transform="matrix(0.030864197530864182,0,0,0.030864197530864182,20.987654320987644,0)" xlink:href="#bi"/><use transform="matrix(0.030864197530864182,0,0,0.030864197530864182,27.16049382716048,0)" xlink:href="#bf"/></g><path fill="#19967d" d="M101-251c82-7 93 87 43 132L82-64C71-53 59-42 53-27h129V0H18c2-99 128-94 128-182 0-28-16-43-45-43s-46 15-49 41l-32-3c6-41 34-60 81-64" id="bj"/><path fill="#19967d" d="M101-251c68 0 85 55 85 127S166 4 100 4C33 4 14-52 14-124c0-73 17-127 87-127zm-1 229c47 0 54-49 54-102s-4-102-53-102c-51 0-55 48-55 102 0 53 5 102 54 102" id="bk"/><path fill="#19967d" d="M3 75V52h41v-290H3v-23h71V75H3" id="bl"/><g id="y"><use transform="matrix(0.030864197530864182,0,0,0.030864197530864182,0,0)" xlink:href="#bj"/><use transform="matrix(0.030864197530864182,0,0,0.030864197530864182,6.172839506172837,0)" xlink:href="#bk"/><use transform="matrix(0.030864197530864182,0,0,0.030864197530864182,12.345679012345673,0)" xlink:href="#bk"/><use transform="matrix(0.030864197530864182,0,0,0.030864197530864182,18.518518518518512,0)" xlink:href="#bl"/></g><path fill="#19967d" d="M24 0v-261h32V0H24" id="bm"/><path fill="#19967d" d="M100-194c63 0 86 42 84 106H49c0 40 14 67 53 68 26 1 43-12 49-29l28 8c-11 28-37 45-77 45C44 4 14-33 15-96c1-61 26-98 85-98zm52 81c6-60-76-77-97-28-3 7-6 17-6 28h103" id="bn"/><path fill="#19967d" d="M114-163C36-179 61-72 57 0H25l-1-190h30c1 12-1 29 2 39 6-27 23-49 58-41v29" id="bo"/><g id="z"><use transform="matrix(0.030864197530864182,0,0,0.030864197530864182,0,0)" xlink:href="#bh"/><use transform="matrix(0.030864197530864182,0,0,0.030864197530864182,6.172839506172837,0)" xlink:href="#bm"/><use transform="matrix(0.030864197530864182,0,0,0.030864197530864182,8.611111111111107,0)" xlink:href="#bn"/><use transform="matrix(0.030864197530864182,0,0,0.030864197530864182,14.783950617283944,0)" xlink:href="#bo"/><use transform="matrix(0.030864197530864182,0,0,0.030864197530864182,18.45679012345678,0)" xlink:href="#bg"/></g><path fill="#19967d" d="M87 75C49 33 22-17 22-94c0-76 28-126 65-167h31c-38 41-64 92-64 168S80 34 118 75H87" id="bp"/><path fill="#19967d" d="M109-170H84l-4-78h32zm-65 0H19l-4-78h33" id="bq"/><path fill="#19967d" d="M96-169c-40 0-48 33-48 73s9 75 48 75c24 0 41-14 43-38l32 2c-6 37-31 61-74 61-59 0-76-41-82-99-10-93 101-131 147-64 4 7 5 14 7 22l-32 3c-4-21-16-35-41-35" id="br"/><path fill="#19967d" d="M24-231v-30h32v30H24zM24 0v-190h32V0H24" id="bs"/><path fill="#19967d" d="M100-194c62-1 85 37 85 99 1 63-27 99-86 99S16-35 15-95c0-66 28-99 85-99zM99-20c44 1 53-31 53-75 0-43-8-75-51-75s-53 32-53 75 10 74 51 75" id="bt"/><path fill="#19967d" d="M117-194c89-4 53 116 60 194h-32v-121c0-31-8-49-39-48C34-167 62-67 57 0H25l-1-190h30c1 10-1 24 2 32 11-22 29-35 61-36" id="bu"/><g id="A"><use transform="matrix(0.030864197530864182,0,0,0.030864197530864182,0,0)" xlink:href="#bp"/><use transform="matrix(0.030864197530864182,0,0,0.030864197530864182,3.6728395061728376,0)" xlink:href="#bq"/><use transform="matrix(0.030864197530864182,0,0,0.030864197530864182,7.592592592592588,0)" xlink:href="#bh"/><use transform="matrix(0.030864197530864182,0,0,0.030864197530864182,13.765432098765425,0)" xlink:href="#bi"/><use transform="matrix(0.030864197530864182,0,0,0.030864197530864182,19.93827160493826,0)" xlink:href="#br"/><use transform="matrix(0.030864197530864182,0,0,0.030864197530864182,25.493827160493815,0)" xlink:href="#bg"/><use transform="matrix(0.030864197530864182,0,0,0.030864197530864182,28.580246913580233,0)" xlink:href="#bs"/><use transform="matrix(0.030864197530864182,0,0,0.030864197530864182,31.018518518518505,0)" xlink:href="#bt"/><use transform="matrix(0.030864197530864182,0,0,0.030864197530864182,37.19135802469134,0)" xlink:href="#bu"/></g><path fill="#19967d" d="M85-194c31 0 48 13 60 33l-1-100h32l1 261h-30c-2-10 0-23-3-31C134-8 116 4 85 4 32 4 16-35 15-94c0-66 23-100 70-100zm9 24c-40 0-46 34-46 75 0 40 6 74 45 74 42 0 51-32 51-76 0-42-9-74-50-73" id="bv"/><path fill="#19967d" d="M33-261c38 41 65 92 65 168S71 34 33 75H2C39 34 66-17 66-93S39-220 2-261h31" id="bw"/><g id="B"><use transform="matrix(0.030864197530864182,0,0,0.030864197530864182,0,0)" xlink:href="#br"/><use transform="matrix(0.030864197530864182,0,0,0.030864197530864182,5.555555555555553,0)" xlink:href="#bo"/><use transform="matrix(0.030864197530864182,0,0,0.030864197530864182,9.22839506172839,0)" xlink:href="#bn"/><use transform="matrix(0.030864197530864182,0,0,0.030864197530864182,15.401234567901227,0)" xlink:href="#bh"/><use transform="matrix(0.030864197530864182,0,0,0.030864197530864182,21.574074074074062,0)" xlink:href="#bg"/><use transform="matrix(0.030864197530864182,0,0,0.030864197530864182,24.66049382716048,0)" xlink:href="#bn"/><use transform="matrix(0.030864197530864182,0,0,0.030864197530864182,30.833333333333314,0)" xlink:href="#bv"/><use transform="matrix(0.030864197530864182,0,0,0.030864197530864182,37.00617283950615,0)" xlink:href="#bq"/><use transform="matrix(0.030864197530864182,0,0,0.030864197530864182,40.9259259259259,0)" xlink:href="#bw"/></g><path fill="#333" d="M109-170H84l-4-78h32zm-65 0H19l-4-78h33" id="bx"/><g id="C"><use transform="matrix(0.049382716049382706,0,0,0.049382716049382706,0,0)" xlink:href="#T"/><use transform="matrix(0.049382716049382706,0,0,0.049382716049382706,8.888888888888888,0)" xlink:href="#Y"/><use transform="matrix(0.049382716049382706,0,0,0.049382716049382706,18.76543209876543,0)" xlink:href="#U"/><use transform="matrix(0.049382716049382706,0,0,0.049382716049382706,23.703703703703702,0)" xlink:href="#W"/><use transform="matrix(0.049382716049382706,0,0,0.049382716049382706,36.49382716049382,0)" xlink:href="#R"/><use transform="matrix(0.049382716049382706,0,0,0.049382716049382706,46.37037037037037,0)" xlink:href="#R"/><use transform="matrix(0.049382716049382706,0,0,0.049382716049382706,56.24691358024691,0)" xlink:href="#ap"/><use transform="matrix(0.049382716049382706,0,0,0.049382716049382706,65.1358024691358,0)" xlink:href="#ad"/><use transform="matrix(0.049382716049382706,0,0,0.049382716049382706,69.03703703703702,0)" xlink:href="#Y"/><use transform="matrix(0.049382716049382706,0,0,0.049382716049382706,78.91358024691357,0)" xlink:href="#ai"/><use transform="matrix(0.049382716049382706,0,0,0.049382716049382706,84.79012345679011,0)" xlink:href="#bx"/><use transform="matrix(0.049382716049382706,0,0,0.049382716049382706,91.06172839506172,0)" xlink:href="#ar"/><use transform="matrix(0.049382716049382706,0,0,0.049382716049382706,94.96296296296295,0)" xlink:href="#Z"/><use transform="matrix(0.049382716049382706,0,0,0.049382716049382706,104.83950617283949,0)" xlink:href="#T"/><use transform="matrix(0.049382716049382706,0,0,0.049382716049382706,113.72839506172838,0)" xlink:href="#U"/><use transform="matrix(0.049382716049382706,0,0,0.049382716049382706,118.66666666666664,0)" xlink:href="#aa"/><use transform="matrix(0.049382716049382706,0,0,0.049382716049382706,130.5185185185185,0)" xlink:href="#ac"/><use transform="matrix(0.049382716049382706,0,0,0.049382716049382706,139.4074074074074,0)" xlink:href="#U"/><use transform="matrix(0.049382716049382706,0,0,0.049382716049382706,144.34567901234567,0)" xlink:href="#ad"/><use transform="matrix(0.049382716049382706,0,0,0.049382716049382706,148.2469135802469,0)" xlink:href="#R"/><use transform="matrix(0.049382716049382706,0,0,0.049382716049382706,158.12345679012344,0)" xlink:href="#ae"/><use transform="matrix(0.049382716049382706,0,0,0.049382716049382706,167.99999999999997,0)" xlink:href="#bx"/><use transform="matrix(0.049382716049382706,0,0,0.049382716049382706,174.27160493827157,0)" xlink:href="#aL"/><use transform="matrix(0.049382716049382706,0,0,0.049382716049382706,179.20987654320984,0)" xlink:href="#bx"/><use transform="matrix(0.049382716049382706,0,0,0.049382716049382706,185.48148148148144,0)" xlink:href="#ac"/><use transform="matrix(0.049382716049382706,0,0,0.049382716049382706,194.37037037037032,0)" xlink:href="#X"/><use transform="matrix(0.049382716049382706,0,0,0.049382716049382706,200.24691358024685,0)" xlink:href="#Y"/><use transform="matrix(0.049382716049382706,0,0,0.049382716049382706,210.12345679012338,0)" xlink:href="#Z"/><use transform="matrix(0.049382716049382706,0,0,0.049382716049382706,219.99999999999991,0)" xlink:href="#U"/><use transform="matrix(0.049382716049382706,0,0,0.049382716049382706,224.9382716049382,0)" xlink:href="#Y"/><use transform="matrix(0.049382716049382706,0,0,0.049382716049382706,234.81481481481472,0)" xlink:href="#bx"/><use transform="matrix(0.049382716049382706,0,0,0.049382716049382706,241.08641975308632,0)" xlink:href="#am"/></g><g id="D"><use transform="matrix(0.06172839506172839,0,0,0.06172839506172839,0,0)" xlink:href="#W"/><use transform="matrix(0.06172839506172839,0,0,0.06172839506172839,15.987654320987653,0)" xlink:href="#R"/><use transform="matrix(0.06172839506172839,0,0,0.06172839506172839,28.333333333333332,0)" xlink:href="#R"/><use transform="matrix(0.06172839506172839,0,0,0.06172839506172839,40.67901234567901,0)" xlink:href="#ap"/><use transform="matrix(0.06172839506172839,0,0,0.06172839506172839,51.79012345679013,0)" xlink:href="#ad"/><use transform="matrix(0.06172839506172839,0,0,0.06172839506172839,56.66666666666667,0)" xlink:href="#Y"/></g><path fill="#ef8d22" d="M24 0v-261h32V0H24" id="by"/><g id="E"><use transform="matrix(0.04320987654320987,0,0,0.04320987654320987,0,0)" xlink:href="#aw"/><use transform="matrix(0.04320987654320987,0,0,0.04320987654320987,8.641975308641973,0)" xlink:href="#ay"/><use transform="matrix(0.04320987654320987,0,0,0.04320987654320987,12.962962962962958,0)" xlink:href="#az"/><use transform="matrix(0.04320987654320987,0,0,0.04320987654320987,16.376543209876537,0)" xlink:href="#by"/><use transform="matrix(0.04320987654320987,0,0,0.04320987654320987,19.790123456790116,0)" xlink:href="#aI"/><use transform="matrix(0.04320987654320987,0,0,0.04320987654320987,27.56790123456789,0)" xlink:href="#aG"/><use transform="matrix(0.04320987654320987,0,0,0.04320987654320987,31.88888888888888,0)" xlink:href="#aH"/><use transform="matrix(0.04320987654320987,0,0,0.04320987654320987,35.30246913580246,0)" xlink:href="#aI"/></g><path fill="#834187" d="M212-179c-10-28-35-45-73-45-59 0-87 40-87 99 0 60 29 101 89 101 43 0 62-24 78-52l27 14C228-24 195 4 139 4 59 4 22-46 18-125c-6-104 99-153 187-111 19 9 31 26 39 46" id="bz"/><path fill="#834187" d="M100-194c62-1 85 37 85 99 1 63-27 99-86 99S16-35 15-95c0-66 28-99 85-99zM99-20c44 1 53-31 53-75 0-43-8-75-51-75s-53 32-53 75 10 74 51 75" id="bA"/><path fill="#834187" d="M143 0L79-87 56-68V0H24v-261h32v163l83-92h37l-77 82L181 0h-38" id="bB"/><path fill="#834187" d="M24-231v-30h32v30H24zM24 0v-190h32V0H24" id="bC"/><path fill="#834187" d="M100-194c63 0 86 42 84 106H49c0 40 14 67 53 68 26 1 43-12 49-29l28 8c-11 28-37 45-77 45C44 4 14-33 15-96c1-61 26-98 85-98zm52 81c6-60-76-77-97-28-3 7-6 17-6 28h103" id="bD"/><g id="F"><use transform="matrix(0.030864197530864182,0,0,0.030864197530864182,0,0)" xlink:href="#bz"/><use transform="matrix(0.030864197530864182,0,0,0.030864197530864182,7.993827160493823,0)" xlink:href="#bA"/><use transform="matrix(0.030864197530864182,0,0,0.030864197530864182,14.16666666666666,0)" xlink:href="#bA"/><use transform="matrix(0.030864197530864182,0,0,0.030864197530864182,20.3395061728395,0)" xlink:href="#bB"/><use transform="matrix(0.030864197530864182,0,0,0.030864197530864182,25.895061728395053,0)" xlink:href="#bC"/><use transform="matrix(0.030864197530864182,0,0,0.030864197530864182,28.33333333333332,0)" xlink:href="#bD"/></g><path fill="#834187" d="M117-194c89-4 53 116 60 194h-32v-121c0-31-8-49-39-48C34-167 62-67 57 0H25l-1-190h30c1 10-1 24 2 32 11-22 29-35 61-36" id="bE"/><path fill="#834187" d="M141-36C126-15 110 5 73 4 37 3 15-17 15-53c-1-64 63-63 125-63 3-35-9-54-41-54-24 1-41 7-42 31l-33-3c5-37 33-52 76-52 45 0 72 20 72 64v82c-1 20 7 32 28 27v20c-31 9-61-2-59-35zM48-53c0 20 12 33 32 33 41-3 63-29 60-74-43 2-92-5-92 41" id="bF"/><path fill="#834187" d="M210-169c-67 3-38 105-44 169h-31v-121c0-29-5-50-35-48C34-165 62-65 56 0H25l-1-190h30c1 10-1 24 2 32 10-44 99-50 107 0 11-21 27-35 58-36 85-2 47 119 55 194h-31v-121c0-29-5-49-35-48" id="bG"/><g id="G"><use transform="matrix(0.030864197530864182,0,0,0.030864197530864182,0,0)" xlink:href="#bE"/><use transform="matrix(0.030864197530864182,0,0,0.030864197530864182,6.172839506172837,0)" xlink:href="#bF"/><use transform="matrix(0.030864197530864182,0,0,0.030864197530864182,12.345679012345673,0)" xlink:href="#bG"/><use transform="matrix(0.030864197530864182,0,0,0.030864197530864182,21.574074074074062,0)" xlink:href="#bD"/></g><path fill="#834187" d="M106-169C34-169 62-67 57 0H25v-261h32l-1 103c12-21 28-36 61-36 89 0 53 116 60 194h-32v-121c2-32-8-49-39-48" id="bH"/><path fill="#834187" d="M135-143c-3-34-86-38-87 0 15 53 115 12 119 90S17 21 10-45l28-5c4 36 97 45 98 0-10-56-113-15-118-90-4-57 82-63 122-42 12 7 21 19 24 35" id="bI"/><g id="H"><use transform="matrix(0.030864197530864182,0,0,0.030864197530864182,0,0)" xlink:href="#bH"/><use transform="matrix(0.030864197530864182,0,0,0.030864197530864182,6.172839506172837,0)" xlink:href="#bF"/><use transform="matrix(0.030864197530864182,0,0,0.030864197530864182,12.345679012345673,0)" xlink:href="#bI"/></g><path fill="#834187" d="M24 0v-261h32V0H24" id="bJ"/><g id="I"><use transform="matrix(0.030864197530864182,0,0,0.030864197530864182,0,0)" xlink:href="#bF"/><use transform="matrix(0.030864197530864182,0,0,0.030864197530864182,6.172839506172837,0)" xlink:href="#bJ"/><use transform="matrix(0.030864197530864182,0,0,0.030864197530864182,8.611111111111107,0)" xlink:href="#bI"/><use transform="matrix(0.030864197530864182,0,0,0.030864197530864182,14.16666666666666,0)" xlink:href="#bA"/></g><g id="J"><use transform="matrix(0.030864197530864182,0,0,0.030864197530864182,0,0)" xlink:href="#bF"/><use transform="matrix(0.030864197530864182,0,0,0.030864197530864182,6.172839506172837,0)" xlink:href="#bE"/></g><path fill="#834187" d="M33 0v-248h34V0H33" id="bK"/><path fill="#834187" d="M30-248c118-7 216 8 213 122C240-48 200 0 122 0H30v-248zM63-27c89 8 146-16 146-99s-60-101-146-95v194" id="bL"/><g id="K"><use transform="matrix(0.030864197530864182,0,0,0.030864197530864182,0,0)" xlink:href="#bK"/><use transform="matrix(0.030864197530864182,0,0,0.030864197530864182,3.0864197530864184,0)" xlink:href="#bL"/></g><path fill="#834187" d="M59-47c-2 24 18 29 38 22v24C64 9 27 4 27-40v-127H5v-23h24l9-43h21v43h35v23H59v120" id="bM"/><g id="L"><use transform="matrix(0.030864197530864182,0,0,0.030864197530864182,0,0)" xlink:href="#bM"/><use transform="matrix(0.030864197530864182,0,0,0.030864197530864182,3.0864197530864184,0)" xlink:href="#bA"/></g><path fill="#834187" d="M85-194c31 0 48 13 60 33l-1-100h32l1 261h-30c-2-10 0-23-3-31C134-8 116 4 85 4 32 4 16-35 15-94c0-66 23-100 70-100zm9 24c-40 0-46 34-46 75 0 40 6 74 45 74 42 0 51-32 51-76 0-42-9-74-50-73" id="bN"/><path fill="#834187" d="M177-190C167-65 218 103 67 71c-23-6-38-20-44-43l32-5c15 47 100 32 89-28v-30C133-14 115 1 83 1 29 1 15-40 15-95c0-56 16-97 71-98 29-1 48 16 59 35 1-10 0-23 2-32h30zM94-22c36 0 50-32 50-73 0-42-14-75-50-75-39 0-46 34-46 75s6 73 46 73" id="bO"/><path fill="#834187" d="M84 4C-5 8 30-112 23-190h32v120c0 31 7 50 39 49 72-2 45-101 50-169h31l1 190h-30c-1-10 1-25-2-33-11 22-28 36-60 37" id="bP"/><g id="M"><use transform="matrix(0.030864197530864182,0,0,0.030864197530864182,0,0)" xlink:href="#bN"/><use transform="matrix(0.030864197530864182,0,0,0.030864197530864182,6.172839506172837,0)" xlink:href="#bC"/><use transform="matrix(0.030864197530864182,0,0,0.030864197530864182,8.611111111111107,0)" xlink:href="#bI"/><use transform="matrix(0.030864197530864182,0,0,0.030864197530864182,14.16666666666666,0)" xlink:href="#bM"/><use transform="matrix(0.030864197530864182,0,0,0.030864197530864182,17.253086419753078,0)" xlink:href="#bC"/><use transform="matrix(0.030864197530864182,0,0,0.030864197530864182,19.691358024691347,0)" xlink:href="#bE"/><use transform="matrix(0.030864197530864182,0,0,0.030864197530864182,25.864197530864182,0)" xlink:href="#bO"/><use transform="matrix(0.030864197530864182,0,0,0.030864197530864182,32.03703703703702,0)" xlink:href="#bP"/><use transform="matrix(0.030864197530864182,0,0,0.030864197530864182,38.20987654320985,0)" xlink:href="#bC"/><use transform="matrix(0.030864197530864182,0,0,0.030864197530864182,40.648148148148124,0)" xlink:href="#bI"/><use transform="matrix(0.030864197530864182,0,0,0.030864197530864182,46.203703703703674,0)" xlink:href="#bH"/></g><path fill="#834187" d="M115-194c53 0 69 39 70 98 0 66-23 100-70 100C84 3 66-7 56-30L54 0H23l1-261h32v101c10-23 28-34 59-34zm-8 174c40 0 45-34 45-75 0-40-5-75-45-74-42 0-51 32-51 76 0 43 10 73 51 73" id="bQ"/><path fill="#834187" d="M206 0h-36l-40-164L89 0H53L-1-190h32L70-26l43-164h34l41 164 42-164h31" id="bR"/><g id="N"><use transform="matrix(0.030864197530864182,0,0,0.030864197530864182,0,0)" xlink:href="#bQ"/><use transform="matrix(0.030864197530864182,0,0,0.030864197530864182,6.172839506172837,0)" xlink:href="#bD"/><use transform="matrix(0.030864197530864182,0,0,0.030864197530864182,12.345679012345673,0)" xlink:href="#bM"/><use transform="matrix(0.030864197530864182,0,0,0.030864197530864182,15.432098765432091,0)" xlink:href="#bR"/><use transform="matrix(0.030864197530864182,0,0,0.030864197530864182,23.425925925925913,0)" xlink:href="#bD"/><use transform="matrix(0.030864197530864182,0,0,0.030864197530864182,29.59876543209875,0)" xlink:href="#bD"/><use transform="matrix(0.030864197530864182,0,0,0.030864197530864182,35.77160493827159,0)" xlink:href="#bE"/></g><path fill="#834187" d="M101-234c-31-9-42 10-38 44h38v23H63V0H32v-167H5v-23h27c-7-52 17-82 69-68v24" id="bS"/><path fill="#834187" d="M114-163C36-179 61-72 57 0H25l-1-190h30c1 12-1 29 2 39 6-27 23-49 58-41v29" id="bT"/><g id="O"><use transform="matrix(0.030864197530864182,0,0,0.030864197530864182,0,0)" xlink:href="#bN"/><use transform="matrix(0.030864197530864182,0,0,0.030864197530864182,6.172839506172837,0)" xlink:href="#bC"/><use transform="matrix(0.030864197530864182,0,0,0.030864197530864182,8.611111111111107,0)" xlink:href="#bS"/><use transform="matrix(0.030864197530864182,0,0,0.030864197530864182,11.481481481481477,0)" xlink:href="#bS"/><use transform="matrix(0.030864197530864182,0,0,0.030864197530864182,14.567901234567895,0)" xlink:href="#bD"/><use transform="matrix(0.030864197530864182,0,0,0.030864197530864182,20.740740740740733,0)" xlink:href="#bT"/><use transform="matrix(0.030864197530864182,0,0,0.030864197530864182,24.413580246913572,0)" xlink:href="#bD"/><use transform="matrix(0.030864197530864182,0,0,0.030864197530864182,30.58641975308641,0)" xlink:href="#bE"/><use transform="matrix(0.030864197530864182,0,0,0.030864197530864182,36.759259259259245,0)" xlink:href="#bM"/></g><g id="P"><use transform="matrix(0.030864197530864182,0,0,0.030864197530864182,0,0)" xlink:href="#bP"/><use transform="matrix(0.030864197530864182,0,0,0.030864197530864182,6.172839506172837,0)" xlink:href="#bI"/><use transform="matrix(0.030864197530864182,0,0,0.030864197530864182,11.728395061728389,0)" xlink:href="#bD"/><use transform="matrix(0.030864197530864182,0,0,0.030864197530864182,17.901234567901227,0)" xlink:href="#bT"/><use transform="matrix(0.030864197530864182,0,0,0.030864197530864182,21.574074074074066,0)" xlink:href="#bI"/></g></defs></g></svg>