<svg xmlns="http://www.w3.org/2000/svg" xmlns:xlink="http://www.w3.org/1999/xlink" xmlns:lucid="lucid" width="766.95" height="551.5"><g transform="translate(-33.049346553736314 20)" lucid:page-tab-id="0_0"><path d="M200 140.5h240v60H200z" fill="none"/><use xlink:href="#a" transform="matrix(1,0,0,1,200,140.5) translate(71.64814814814815 23.77777777777778)"/><use xlink:href="#b" transform="matrix(1,0,0,1,200,140.5) translate(124.3641975308642 23.77777777777778)"/><use xlink:href="#c" transform="matrix(1,0,0,1,200,140.5) translate(65.77160493827161 42.44444444444444)"/><use xlink:href="#d" transform="matrix(1,0,0,1,200,140.5) translate(112.09259259259258 42.44444444444444)"/><path d="M479.87 207.43h160.26v26.14H479.87z" fill="none"/><use xlink:href="#e" transform="matrix(1,0,0,1,479.8724384893484,207.4261630851447) translate(8.901234567901241 16.61111111111111)"/><path d="M80 120.5h156.66v35.4H80z" fill="none"/><use xlink:href="#f" transform="matrix(1,0,0,1,80,120.5) translate(48.916666666666686 13.555555555555559)"/><use xlink:href="#g" transform="matrix(1,0,0,1,80,120.5) translate(75.98456790123457 13.555555555555559)"/><use xlink:href="#h" transform="matrix(1,0,0,1,80,120.5) translate(44.28703703703705 26.888888888888886)"/><use xlink:href="#i" transform="matrix(1,0,0,1,80,120.5) translate(75.70679012345678 26.888888888888886)"/><path d="M236.66 234.38h192.28v11.74H236.66z" fill="none"/><use xlink:href="#j" transform="matrix(1,0,0,1,236.66074250653995,234.37528240053945) translate(57.62654320987656 8.888888888888884)"/><use xlink:href="#k" transform="matrix(1,0,0,1,236.66074250653995,234.37528240053945) translate(84.78703703703704 8.888888888888884)"/><use xlink:href="#l" transform="matrix(1,0,0,1,236.66074250653995,234.37528240053945) translate(113.7685185185185 8.888888888888884)"/><path d="M145.33 46.5c0-3.3 2.7-6 6-6h148c3.32 0 6 2.7 6 6v28c0 3.3-2.68 6-6 6h-148c-3.3 0-6-2.7-6-6z" stroke="#5e5e5e" stroke-width="3" fill="#fff"/><use xlink:href="#m" transform="matrix(1,0,0,1,157.33333333333337,52.5) translate(16.240740740740748 17.77777777777778)"/><path d="M340 46.5c0-3.3 2.7-6 6-6h188c3.3 0 6 2.7 6 6v28c0 3.3-2.7 6-6 6H346c-3.3 0-6-2.7-6-6z" stroke="#99d2f2" stroke-width="3" fill="#fff"/><use xlink:href="#n" transform="matrix(1,0,0,1,352,52.5) translate(22.660493827160494 17.77777777777778)"/><path d="M580 46.5c0-3.3 2.7-6 6-6h188c3.3 0 6 2.7 6 6v28c0 3.3-2.7 6-6 6H586c-3.3 0-6-2.7-6-6z" stroke="#99d2f2" stroke-width="3" fill="#fff"/><use xlink:href="#o" transform="matrix(1,0,0,1,592,52.5) translate(30.65432098765431 17.77777777777778)"/><path d="M225.33 83v12.5m0 12.5v12.5" stroke="#5e5e5e" stroke-width="2" fill="none"/><path d="M226.33 83.03h-2V82h2z" fill="#5e5e5e"/><path d="M225.33 135.76l-4.63-14.26h9.27z" stroke="#5e5e5e" stroke-width="2" fill="#5e5e5e"/><path d="M225.33 342.5v9.3m0 9.3v18.6m0 9.3v18.6m0 9.3v18.6m0 9.3v18.6m0 9.3v9.3" stroke="#5e5e5e" stroke-width="2" fill="none"/><path d="M226.33 342.53h-2v-1.03h2z" fill="#5e5e5e"/><path d="M225.33 497.26L220.7 483h9.27z" stroke="#5e5e5e" stroke-width="2" fill="#5e5e5e"/><path d="M440 303v9.86m0 9.86v19.72m0 9.87v19.73m0 9.86v19.7m0 9.87v19.72m0 9.85v19.73m0 9.86v9.86" stroke="#5e5e5e" stroke-width="2" fill="none"/><path d="M441 303.03h-2V302h2z" fill="#5e5e5e"/><path d="M440 495.76l-4.64-14.26h9.28z" stroke="#5e5e5e" stroke-width="2" fill="#5e5e5e"/><path d="M440 83v9.17m0 9.16v19.17" stroke="#5e5e5e" stroke-width="2" fill="none"/><path d="M441 83.03h-2V82h2z" fill="#5e5e5e"/><path d="M440 135.76l-4.64-14.26h9.28z" stroke="#5e5e5e" stroke-width="2" fill="#5e5e5e"/><path d="M680 83v9.75m0 9.75V122m0 9.75v19.5m0 9.75v19.5m0 9.75V200" stroke="#5e5e5e" stroke-width="2" fill="none"/><path d="M681 83.03h-2V82h2z" fill="#5e5e5e"/><path d="M680 215.26L675.36 201h9.28z" stroke="#5e5e5e" stroke-width="2" fill="#5e5e5e"/><path d="M680 282.5v9.36m0 9.35v18.73m0 9.36V348m0 9.36v18.7m0 9.37v18.7m0 9.37v18.7m0 9.37v18.7m0 9.37V479" stroke="#5e5e5e" stroke-width="2" fill="none"/><path d="M681 282.53h-2v-1.03h2z" fill="#5e5e5e"/><path d="M680 494.26L675.36 480h9.28z" stroke="#5e5e5e" stroke-width="2" fill="#5e5e5e"/><path d="M205.33 146.5c0-3.3 2.7-6 6-6h28c3.32 0 6 2.7 6 6V334c0 3.3-2.68 6-6 6h-28c-3.3 0-6-2.7-6-6z" stroke="#5e5e5e" stroke-width="3" fill="#fff"/><path d="M420 146.5c0-3.3 2.7-6 6-6h28c3.3 0 6 2.7 6 6v148c0 3.3-2.7 6-6 6h-28c-3.3 0-6-2.7-6-6zM660 226c0-3.3 2.7-6 6-6h28c3.3 0 6 2.7 6 6v48c0 3.3-2.7 6-6 6h-28c-3.3 0-6-2.7-6-6z" stroke="#99d2f2" stroke-width="3" fill="#fff"/><path d="M138.4 0h173.87v60H138.4z" fill="none"/><use xlink:href="#p" transform="matrix(1,0,0,1,138.39481822322597,0) translate(29.6388888888889 33.111111111111114)"/><path d="M141 160h44.33M141.03 160H140" stroke="#5e5e5e" stroke-width="2" fill="none"/><path d="M200.6 160l-14.27 4.64v-9.28z" stroke="#5e5e5e" stroke-width="2" fill="#5e5e5e"/><path d="M247.83 188.74H400" stroke="#5e5e5e" stroke-width="2" fill="none"/><path d="M247.86 189.74h-1.03v-2h1.03z" fill="#5e5e5e"/><path d="M415.26 188.74L401 193.38v-9.27z" stroke="#5e5e5e" stroke-width="2" fill="#5e5e5e"/><path d="M462.5 239.14H640" stroke="#5e5e5e" stroke-width="2" fill="none"/><path d="M462.53 240.14h-1.03v-2h1.03z" fill="#5e5e5e"/><path d="M655.26 239.14L641 243.77v-9.27z" stroke="#5e5e5e" stroke-width="2" fill="#5e5e5e"/><path d="M417.5 227.28h-10.14m-10.15 0h-20.28m-10.14 0h-20.3m-10.13 0h-20.3m-10.14 0h-20.28m-10.14 0h-10.14" stroke="#5e5e5e" stroke-width="2" fill="none"/><path d="M418.5 228.28h-1.03v-2h1.03z" fill="#5e5e5e"/><path d="M250.07 227.28l14.27-4.63v9.27z" stroke="#5e5e5e" stroke-width="2" fill="#5e5e5e"/><path d="M417.5 276.97h-9.43m-9.42 0H379.8m-9.43 0h-18.85m-9.43 0h-20.66m-11.22 0h-22.44m-11.22 0h-11.22" stroke="#5e5e5e" stroke-width="2" fill="none"/><path d="M418.5 277.97h-1.03v-2h1.03z" fill="#5e5e5e"/><path d="M250.07 276.97l14.27-4.63v9.27z" stroke="#5e5e5e" stroke-width="2" fill="#5e5e5e"/><path d="M236.66 287.75h192.28v11.75H236.66z" fill="none"/><use xlink:href="#q" transform="matrix(1,0,0,1,236.66074250653992,287.7505648010789) translate(67.7962962962963 8.888888888888884)"/><use xlink:href="#r" transform="matrix(1,0,0,1,236.66074250653992,287.7505648010789) translate(103.59876543209876 8.888888888888884)"/><path d="M202.83 226.08h-33c-3.3 0-6 2.7-6 6v7.7c0 3.33 2.7 6 6 6h15.5" stroke="#5e5e5e" stroke-width="2" fill="none"/><path d="M203.83 227.08h-1.02v-2h1.03z" fill="#5e5e5e"/><path d="M200.6 245.8l-14.27 4.63v-9.27z" stroke="#5e5e5e" stroke-width="2" fill="#5e5e5e"/><path d="M62.2 211.56h192.27v11.75H62.2z" fill="none"/><use xlink:href="#s" transform="matrix(1,0,0,1,62.18837786347143,211.56292360080917) translate(74.33950617283952 8.888888888888884)"/><path d="M202.83 276.28h-33c-3.3 0-6 2.7-6 6v10.25c0 3.32 2.7 6 6 6h15.5" stroke="#5e5e5e" stroke-width="2" fill="none"/><path d="M203.83 277.28h-1.02v-2h1.03z" fill="#5e5e5e"/><path d="M200.6 298.53l-14.27 4.64v-9.27z" stroke="#5e5e5e" stroke-width="2" fill="#5e5e5e"/><path d="M62.2 261.06h192.27v11.75H62.2z" fill="none"/><g><use xlink:href="#t" transform="matrix(1,0,0,1,62.18837786347143,261.0629236008092) translate(63.53703703703705 8.888888888888884)"/><use xlink:href="#u" transform="matrix(1,0,0,1,62.18837786347143,261.0629236008092) translate(94.37037037037037 8.888888888888884)"/><use xlink:href="#v" transform="matrix(1,0,0,1,62.18837786347143,261.0629236008092) translate(84.78703703703704 22.222222222222207)"/></g><path d="M53.05 299.5h192.28v11.75H53.05z" fill="none"/><g><use xlink:href="#w" transform="matrix(1,0,0,1,53.049346553736314,299.5) translate(85.11111111111111 8.888888888888884)"/><use xlink:href="#x" transform="matrix(1,0,0,1,53.049346553736314,299.5) translate(64.74074074074076 22.222222222222207)"/><use xlink:href="#y" transform="matrix(1,0,0,1,53.049346553736314,299.5) translate(96.16049382716051 22.222222222222207)"/></g><path d="M202.83 313.35h-33c-3.3 0-6 2.68-6 6v8.85c0 3.3 2.7 6 6 6h15.5" stroke="#5e5e5e" stroke-width="2" fill="none"/><path d="M203.83 314.35h-1.02v-2h1.03z" fill="#5e5e5e"/><path d="M200.6 334.2l-14.27 4.63v-9.27z" stroke="#5e5e5e" stroke-width="2" fill="#5e5e5e"/><defs><path fill="#333" d="M85-194c31 0 48 13 60 33l-1-100h32l1 261h-30c-2-10 0-23-3-31C134-8 116 4 85 4 32 4 16-35 15-94c0-66 23-100 70-100zm9 24c-40 0-46 34-46 75 0 40 6 74 45 74 42 0 51-32 51-76 0-42-9-74-50-73" id="z"/><path fill="#333" d="M100-194c62-1 85 37 85 99 1 63-27 99-86 99S16-35 15-95c0-66 28-99 85-99zM99-20c44 1 53-31 53-75 0-43-8-75-51-75s-53 32-53 75 10 74 51 75" id="A"/><path fill="#333" d="M30-248c87 1 191-15 191 75 0 78-77 80-158 76V0H30v-248zm33 125c57 0 124 11 124-50 0-59-68-47-124-48v98" id="B"/><path fill="#333" d="M135-143c-3-34-86-38-87 0 15 53 115 12 119 90S17 21 10-45l28-5c4 36 97 45 98 0-10-56-113-15-118-90-4-57 82-63 122-42 12 7 21 19 24 35" id="C"/><path fill="#333" d="M59-47c-2 24 18 29 38 22v24C64 9 27 4 27-40v-127H5v-23h24l9-43h21v43h35v23H59v120" id="D"/><g id="a"><use transform="matrix(0.04320987654320987,0,0,0.04320987654320987,0,0)" xlink:href="#z"/><use transform="matrix(0.04320987654320987,0,0,0.04320987654320987,8.641975308641973,0)" xlink:href="#A"/><use transform="matrix(0.04320987654320987,0,0,0.04320987654320987,17.283950617283946,0)" xlink:href="#B"/><use transform="matrix(0.04320987654320987,0,0,0.04320987654320987,27.654320987654316,0)" xlink:href="#A"/><use transform="matrix(0.04320987654320987,0,0,0.04320987654320987,36.29629629629629,0)" xlink:href="#C"/><use transform="matrix(0.04320987654320987,0,0,0.04320987654320987,44.07407407407407,0)" xlink:href="#D"/></g><path fill="#333" d="M0 4l72-265h28L28 4H0" id="E"/><path fill="#333" d="M212-179c-10-28-35-45-73-45-59 0-87 40-87 99 0 60 29 101 89 101 43 0 62-24 78-52l27 14C228-24 195 4 139 4 59 4 22-46 18-125c-6-104 99-153 187-111 19 9 31 26 39 46" id="F"/><path fill="#333" d="M24 0v-261h32V0H24" id="G"/><path fill="#333" d="M100-194c63 0 86 42 84 106H49c0 40 14 67 53 68 26 1 43-12 49-29l28 8c-11 28-37 45-77 45C44 4 14-33 15-96c1-61 26-98 85-98zm52 81c6-60-76-77-97-28-3 7-6 17-6 28h103" id="H"/><g id="b"><use transform="matrix(0.04320987654320987,0,0,0.04320987654320987,0,0)" xlink:href="#E"/><use transform="matrix(0.04320987654320987,0,0,0.04320987654320987,4.320987654320986,0)" xlink:href="#F"/><use transform="matrix(0.04320987654320987,0,0,0.04320987654320987,15.512345679012343,0)" xlink:href="#G"/><use transform="matrix(0.04320987654320987,0,0,0.04320987654320987,18.92592592592592,0)" xlink:href="#A"/><use transform="matrix(0.04320987654320987,0,0,0.04320987654320987,27.56790123456789,0)" xlink:href="#C"/><use transform="matrix(0.04320987654320987,0,0,0.04320987654320987,35.34567901234567,0)" xlink:href="#H"/></g><path fill="#333" d="M140-251c81 0 123 46 123 126C263-46 219 4 140 4 59 4 17-45 17-125s42-126 123-126zm0 227c63 0 89-41 89-101s-29-99-89-99c-61 0-89 39-89 99S79-25 140-24" id="I"/><path fill="#333" d="M185-189c-5-48-123-54-124 2 14 75 158 14 163 119 3 78-121 87-175 55-17-10-28-26-33-46l33-7c5 56 141 63 141-1 0-78-155-14-162-118-5-82 145-84 179-34 5 7 8 16 11 25" id="J"/><path fill="#333" d="M127-220V0H93v-220H8v-28h204v28h-85" id="K"/><g id="c"><use transform="matrix(0.04320987654320987,0,0,0.04320987654320987,0,0)" xlink:href="#B"/><use transform="matrix(0.04320987654320987,0,0,0.04320987654320987,10.370370370370368,0)" xlink:href="#I"/><use transform="matrix(0.04320987654320987,0,0,0.04320987654320987,22.469135802469133,0)" xlink:href="#J"/><use transform="matrix(0.04320987654320987,0,0,0.04320987654320987,32.8395061728395,0)" xlink:href="#K"/></g><path fill="#333" d="M141-36C126-15 110 5 73 4 37 3 15-17 15-53c-1-64 63-63 125-63 3-35-9-54-41-54-24 1-41 7-42 31l-33-3c5-37 33-52 76-52 45 0 72 20 72 64v82c-1 20 7 32 28 27v20c-31 9-61-2-59-35zM48-53c0 20 12 33 32 33 41-3 63-29 60-74-43 2-92-5-92 41" id="L"/><path fill="#333" d="M84 4C-5 8 30-112 23-190h32v120c0 31 7 50 39 49 72-2 45-101 50-169h31l1 190h-30c-1-10 1-25-2-33-11 22-28 36-60 37" id="M"/><path fill="#333" d="M96-169c-40 0-48 33-48 73s9 75 48 75c24 0 41-14 43-38l32 2c-6 37-31 61-74 61-59 0-76-41-82-99-10-93 101-131 147-64 4 7 5 14 7 22l-32 3c-4-21-16-35-41-35" id="N"/><path fill="#333" d="M24-231v-30h32v30H24zM24 0v-190h32V0H24" id="O"/><path fill="#333" d="M117-194c89-4 53 116 60 194h-32v-121c0-31-8-49-39-48C34-167 62-67 57 0H25l-1-190h30c1 10-1 24 2 32 11-22 29-35 61-36" id="P"/><g id="d"><use transform="matrix(0.04320987654320987,0,0,0.04320987654320987,0,0)" xlink:href="#L"/><use transform="matrix(0.04320987654320987,0,0,0.04320987654320987,8.641975308641973,0)" xlink:href="#M"/><use transform="matrix(0.04320987654320987,0,0,0.04320987654320987,17.283950617283946,0)" xlink:href="#N"/><use transform="matrix(0.04320987654320987,0,0,0.04320987654320987,25.061728395061724,0)" xlink:href="#D"/><use transform="matrix(0.04320987654320987,0,0,0.04320987654320987,29.382716049382708,0)" xlink:href="#O"/><use transform="matrix(0.04320987654320987,0,0,0.04320987654320987,32.79629629629629,0)" xlink:href="#A"/><use transform="matrix(0.04320987654320987,0,0,0.04320987654320987,41.438271604938265,0)" xlink:href="#P"/><use transform="matrix(0.04320987654320987,0,0,0.04320987654320987,50.08024691358023,0)" xlink:href="#O"/><use transform="matrix(0.04320987654320987,0,0,0.04320987654320987,53.49382716049382,0)" xlink:href="#z"/></g><path fill="#333" d="M205 0l-28-72H64L36 0H1l101-248h38L239 0h-34zm-38-99l-47-123c-12 45-31 82-46 123h93" id="Q"/><path fill="#333" d="M87 75C49 33 22-17 22-94c0-76 28-126 65-167h31c-38 41-64 92-64 168S80 34 118 75H87" id="R"/><path fill="#333" d="M33-261c38 41 65 92 65 168S71 34 33 75H2C39 34 66-17 66-93S39-220 2-261h31" id="S"/><g id="e"><use transform="matrix(0.043209876543209874,0,0,0.043209876543209874,0,0)" xlink:href="#C"/><use transform="matrix(0.043209876543209874,0,0,0.043209876543209874,7.777777777777778,0)" xlink:href="#H"/><use transform="matrix(0.043209876543209874,0,0,0.043209876543209874,16.419753086419753,0)" xlink:href="#D"/><use transform="matrix(0.043209876543209874,0,0,0.043209876543209874,20.74074074074074,0)" xlink:href="#Q"/><use transform="matrix(0.043209876543209874,0,0,0.043209876543209874,31.11111111111111,0)" xlink:href="#M"/><use transform="matrix(0.043209876543209874,0,0,0.043209876543209874,39.75308641975309,0)" xlink:href="#N"/><use transform="matrix(0.043209876543209874,0,0,0.043209876543209874,47.530864197530875,0)" xlink:href="#D"/><use transform="matrix(0.043209876543209874,0,0,0.043209876543209874,51.85185185185186,0)" xlink:href="#O"/><use transform="matrix(0.043209876543209874,0,0,0.043209876543209874,55.26543209876544,0)" xlink:href="#A"/><use transform="matrix(0.043209876543209874,0,0,0.043209876543209874,63.90740740740741,0)" xlink:href="#P"/><use transform="matrix(0.043209876543209874,0,0,0.043209876543209874,72.5493827160494,0)" xlink:href="#F"/><use transform="matrix(0.043209876543209874,0,0,0.043209876543209874,83.74074074074075,0)" xlink:href="#G"/><use transform="matrix(0.043209876543209874,0,0,0.043209876543209874,87.15432098765433,0)" xlink:href="#A"/><use transform="matrix(0.043209876543209874,0,0,0.043209876543209874,95.7962962962963,0)" xlink:href="#C"/><use transform="matrix(0.043209876543209874,0,0,0.043209876543209874,103.57407407407406,0)" xlink:href="#H"/><use transform="matrix(0.043209876543209874,0,0,0.043209876543209874,112.21604938271604,0)" xlink:href="#z"/><use transform="matrix(0.043209876543209874,0,0,0.043209876543209874,120.85802469135801,0)" xlink:href="#R"/><use transform="matrix(0.043209876543209874,0,0,0.043209876543209874,126,0)" xlink:href="#O"/><use transform="matrix(0.043209876543209874,0,0,0.043209876543209874,129.41358024691357,0)" xlink:href="#z"/><use transform="matrix(0.043209876543209874,0,0,0.043209876543209874,138.05555555555554,0)" xlink:href="#S"/></g><path fill="#333" d="M143 0L79-87 56-68V0H24v-261h32v163l83-92h37l-77 82L181 0h-38" id="T"/><g id="f"><use transform="matrix(0.030864197530864182,0,0,0.030864197530864182,0,0)" xlink:href="#F"/><use transform="matrix(0.030864197530864182,0,0,0.030864197530864182,7.993827160493823,0)" xlink:href="#G"/><use transform="matrix(0.030864197530864182,0,0,0.030864197530864182,10.432098765432094,0)" xlink:href="#O"/><use transform="matrix(0.030864197530864182,0,0,0.030864197530864182,12.870370370370365,0)" xlink:href="#N"/><use transform="matrix(0.030864197530864182,0,0,0.030864197530864182,18.425925925925917,0)" xlink:href="#T"/></g><path fill="#333" d="M160-131c35 5 61 23 61 61C221 17 115-2 30 0v-248c76 3 177-17 177 60 0 33-19 50-47 57zm-97-11c50-1 110 9 110-42 0-47-63-36-110-37v79zm0 115c55-2 124 14 124-45 0-56-70-42-124-44v89" id="U"/><g id="g"><use transform="matrix(0.030864197530864182,0,0,0.030864197530864182,0,0)" xlink:href="#U"/><use transform="matrix(0.030864197530864182,0,0,0.030864197530864182,7.407407407407404,0)" xlink:href="#M"/><use transform="matrix(0.030864197530864182,0,0,0.030864197530864182,13.58024691358024,0)" xlink:href="#D"/><use transform="matrix(0.030864197530864182,0,0,0.030864197530864182,16.666666666666657,0)" xlink:href="#D"/><use transform="matrix(0.030864197530864182,0,0,0.030864197530864182,19.753086419753075,0)" xlink:href="#A"/><use transform="matrix(0.030864197530864182,0,0,0.030864197530864182,25.92592592592591,0)" xlink:href="#P"/></g><g id="h"><use transform="matrix(0.030864197530864182,0,0,0.030864197530864182,0,0)" xlink:href="#F"/><use transform="matrix(0.030864197530864182,0,0,0.030864197530864182,7.993827160493823,0)" xlink:href="#G"/><use transform="matrix(0.030864197530864182,0,0,0.030864197530864182,10.432098765432094,0)" xlink:href="#A"/><use transform="matrix(0.030864197530864182,0,0,0.030864197530864182,16.60493827160493,0)" xlink:href="#C"/><use transform="matrix(0.030864197530864182,0,0,0.030864197530864182,22.160493827160483,0)" xlink:href="#H"/></g><g id="i"><use transform="matrix(0.030864197530864182,0,0,0.030864197530864182,0,0)" xlink:href="#Q"/><use transform="matrix(0.030864197530864182,0,0,0.030864197530864182,7.407407407407404,0)" xlink:href="#M"/><use transform="matrix(0.030864197530864182,0,0,0.030864197530864182,13.58024691358024,0)" xlink:href="#N"/><use transform="matrix(0.030864197530864182,0,0,0.030864197530864182,19.135802469135793,0)" xlink:href="#D"/><use transform="matrix(0.030864197530864182,0,0,0.030864197530864182,22.22222222222221,0)" xlink:href="#O"/><use transform="matrix(0.030864197530864182,0,0,0.030864197530864182,24.66049382716048,0)" xlink:href="#A"/><use transform="matrix(0.030864197530864182,0,0,0.030864197530864182,30.833333333333314,0)" xlink:href="#P"/></g><path fill="#c92d39" d="M26 75v-336h71v23H56V52h41v23H26" id="V"/><path fill="#c92d39" d="M96-169c-40 0-48 33-48 73s9 75 48 75c24 0 41-14 43-38l32 2c-6 37-31 61-74 61-59 0-76-41-82-99-10-93 101-131 147-64 4 7 5 14 7 22l-32 3c-4-21-16-35-41-35" id="W"/><path fill="#c92d39" d="M141-36C126-15 110 5 73 4 37 3 15-17 15-53c-1-64 63-63 125-63 3-35-9-54-41-54-24 1-41 7-42 31l-33-3c5-37 33-52 76-52 45 0 72 20 72 64v82c-1 20 7 32 28 27v20c-31 9-61-2-59-35zM48-53c0 20 12 33 32 33 41-3 63-29 60-74-43 2-92-5-92 41" id="X"/><path fill="#c92d39" d="M117-194c89-4 53 116 60 194h-32v-121c0-31-8-49-39-48C34-167 62-67 57 0H25l-1-190h30c1 10-1 24 2 32 11-22 29-35 61-36" id="Y"/><path fill="#c92d39" d="M59-47c-2 24 18 29 38 22v24C64 9 27 4 27-40v-127H5v-23h24l9-43h21v43h35v23H59v120" id="Z"/><g id="j"><use transform="matrix(0.030864197530864182,0,0,0.030864197530864182,0,0)" xlink:href="#V"/><use transform="matrix(0.030864197530864182,0,0,0.030864197530864182,3.0864197530864184,0)" xlink:href="#W"/><use transform="matrix(0.030864197530864182,0,0,0.030864197530864182,8.641975308641971,0)" xlink:href="#X"/><use transform="matrix(0.030864197530864182,0,0,0.030864197530864182,14.814814814814808,0)" xlink:href="#Y"/><use transform="matrix(0.030864197530864182,0,0,0.030864197530864182,20.987654320987644,0)" xlink:href="#Z"/></g><path fill="#c92d39" d="M24 0v-261h32V0H24" id="aa"/><path fill="#c92d39" d="M100-194c62-1 85 37 85 99 1 63-27 99-86 99S16-35 15-95c0-66 28-99 85-99zM99-20c44 1 53-31 53-75 0-43-8-75-51-75s-53 32-53 75 10 74 51 75" id="ab"/><path fill="#c92d39" d="M135-143c-3-34-86-38-87 0 15 53 115 12 119 90S17 21 10-45l28-5c4 36 97 45 98 0-10-56-113-15-118-90-4-57 82-63 122-42 12 7 21 19 24 35" id="ac"/><path fill="#c92d39" d="M100-194c63 0 86 42 84 106H49c0 40 14 67 53 68 26 1 43-12 49-29l28 8c-11 28-37 45-77 45C44 4 14-33 15-96c1-61 26-98 85-98zm52 81c6-60-76-77-97-28-3 7-6 17-6 28h103" id="ad"/><g id="k"><use transform="matrix(0.030864197530864182,0,0,0.030864197530864182,0,0)" xlink:href="#W"/><use transform="matrix(0.030864197530864182,0,0,0.030864197530864182,5.555555555555553,0)" xlink:href="#aa"/><use transform="matrix(0.030864197530864182,0,0,0.030864197530864182,7.993827160493823,0)" xlink:href="#ab"/><use transform="matrix(0.030864197530864182,0,0,0.030864197530864182,14.16666666666666,0)" xlink:href="#ac"/><use transform="matrix(0.030864197530864182,0,0,0.030864197530864182,19.722222222222214,0)" xlink:href="#ad"/></g><path fill="#c92d39" d="M155-56V0h-30v-56H8v-25l114-167h33v167h35v25h-35zm-30-156c-27 46-58 90-88 131h88v-131" id="ae"/><path fill="#c92d39" d="M101-251c68 0 85 55 85 127S166 4 100 4C33 4 14-52 14-124c0-73 17-127 87-127zm-1 229c47 0 54-49 54-102s-4-102-53-102c-51 0-55 48-55 102 0 53 5 102 54 102" id="af"/><path fill="#c92d39" d="M3 75V52h41v-290H3v-23h71V75H3" id="ag"/><g id="l"><use transform="matrix(0.030864197530864182,0,0,0.030864197530864182,0,0)" xlink:href="#ae"/><use transform="matrix(0.030864197530864182,0,0,0.030864197530864182,6.172839506172837,0)" xlink:href="#af"/><use transform="matrix(0.030864197530864182,0,0,0.030864197530864182,12.345679012345673,0)" xlink:href="#af"/><use transform="matrix(0.030864197530864182,0,0,0.030864197530864182,18.518518518518512,0)" xlink:href="#ag"/></g><path fill="#333" d="M106-169C34-169 62-67 57 0H25v-261h32l-1 103c12-21 28-36 61-36 89 0 53 116 60 194h-32v-121c2-32-8-49-39-48" id="ah"/><path fill="#333" d="M210-169c-67 3-38 105-44 169h-31v-121c0-29-5-50-35-48C34-165 62-65 56 0H25l-1-190h30c1 10-1 24 2 32 10-44 99-50 107 0 11-21 27-35 58-36 85-2 47 119 55 194h-31v-121c0-29-5-49-35-48" id="ai"/><path fill="#333" d="M33 0v-38h34V0H33" id="aj"/><g id="m"><use transform="matrix(0.06172839506172839,0,0,0.06172839506172839,0,0)" xlink:href="#ah"/><use transform="matrix(0.06172839506172839,0,0,0.06172839506172839,12.345679012345679,0)" xlink:href="#A"/><use transform="matrix(0.06172839506172839,0,0,0.06172839506172839,24.691358024691358,0)" xlink:href="#ai"/><use transform="matrix(0.06172839506172839,0,0,0.06172839506172839,43.148148148148145,0)" xlink:href="#H"/><use transform="matrix(0.06172839506172839,0,0,0.06172839506172839,55.49382716049382,0)" xlink:href="#aj"/><use transform="matrix(0.06172839506172839,0,0,0.06172839506172839,61.666666666666664,0)" xlink:href="#ah"/><use transform="matrix(0.06172839506172839,0,0,0.06172839506172839,74.01234567901234,0)" xlink:href="#D"/><use transform="matrix(0.06172839506172839,0,0,0.06172839506172839,80.18518518518518,0)" xlink:href="#ai"/><use transform="matrix(0.06172839506172839,0,0,0.06172839506172839,98.64197530864196,0)" xlink:href="#G"/></g><g id="n"><use transform="matrix(0.06172839506172839,0,0,0.06172839506172839,0,0)" xlink:href="#F"/><use transform="matrix(0.06172839506172839,0,0,0.06172839506172839,15.987654320987653,0)" xlink:href="#G"/><use transform="matrix(0.06172839506172839,0,0,0.06172839506172839,20.864197530864196,0)" xlink:href="#A"/><use transform="matrix(0.06172839506172839,0,0,0.06172839506172839,33.20987654320987,0)" xlink:href="#C"/><use transform="matrix(0.06172839506172839,0,0,0.06172839506172839,44.32098765432099,0)" xlink:href="#H"/><use transform="matrix(0.06172839506172839,0,0,0.06172839506172839,56.666666666666664,0)" xlink:href="#Q"/><use transform="matrix(0.06172839506172839,0,0,0.06172839506172839,71.48148148148148,0)" xlink:href="#M"/><use transform="matrix(0.06172839506172839,0,0,0.06172839506172839,83.82716049382717,0)" xlink:href="#N"/><use transform="matrix(0.06172839506172839,0,0,0.06172839506172839,94.93827160493828,0)" xlink:href="#D"/><use transform="matrix(0.06172839506172839,0,0,0.06172839506172839,101.11111111111111,0)" xlink:href="#O"/><use transform="matrix(0.06172839506172839,0,0,0.06172839506172839,105.98765432098766,0)" xlink:href="#A"/><use transform="matrix(0.06172839506172839,0,0,0.06172839506172839,118.33333333333334,0)" xlink:href="#P"/></g><path fill="#333" d="M30-248c118-7 216 8 213 122C240-48 200 0 122 0H30v-248zM63-27c89 8 146-16 146-99s-60-101-146-95v194" id="ak"/><g id="o"><use transform="matrix(0.06172839506172839,0,0,0.06172839506172839,0,0)" xlink:href="#Q"/><use transform="matrix(0.06172839506172839,0,0,0.06172839506172839,14.814814814814813,0)" xlink:href="#M"/><use transform="matrix(0.06172839506172839,0,0,0.06172839506172839,27.160493827160494,0)" xlink:href="#N"/><use transform="matrix(0.06172839506172839,0,0,0.06172839506172839,38.27160493827161,0)" xlink:href="#D"/><use transform="matrix(0.06172839506172839,0,0,0.06172839506172839,44.44444444444445,0)" xlink:href="#O"/><use transform="matrix(0.06172839506172839,0,0,0.06172839506172839,49.320987654320994,0)" xlink:href="#A"/><use transform="matrix(0.06172839506172839,0,0,0.06172839506172839,61.66666666666667,0)" xlink:href="#P"/><use transform="matrix(0.06172839506172839,0,0,0.06172839506172839,74.01234567901236,0)" xlink:href="#ak"/><use transform="matrix(0.06172839506172839,0,0,0.06172839506172839,90.00000000000001,0)" xlink:href="#L"/><use transform="matrix(0.06172839506172839,0,0,0.06172839506172839,102.3456790123457,0)" xlink:href="#A"/></g><path fill="#ef8d22" d="M205 0l-28-72H64L36 0H1l101-248h38L239 0h-34zm-38-99l-47-123c-12 45-31 82-46 123h93" id="al"/><path fill="#ef8d22" d="M84 4C-5 8 30-112 23-190h32v120c0 31 7 50 39 49 72-2 45-101 50-169h31l1 190h-30c-1-10 1-25-2-33-11 22-28 36-60 37" id="am"/><path fill="#ef8d22" d="M96-169c-40 0-48 33-48 73s9 75 48 75c24 0 41-14 43-38l32 2c-6 37-31 61-74 61-59 0-76-41-82-99-10-93 101-131 147-64 4 7 5 14 7 22l-32 3c-4-21-16-35-41-35" id="an"/><path fill="#ef8d22" d="M59-47c-2 24 18 29 38 22v24C64 9 27 4 27-40v-127H5v-23h24l9-43h21v43h35v23H59v120" id="ao"/><path fill="#ef8d22" d="M24-231v-30h32v30H24zM24 0v-190h32V0H24" id="ap"/><path fill="#ef8d22" d="M100-194c62-1 85 37 85 99 1 63-27 99-86 99S16-35 15-95c0-66 28-99 85-99zM99-20c44 1 53-31 53-75 0-43-8-75-51-75s-53 32-53 75 10 74 51 75" id="aq"/><path fill="#ef8d22" d="M117-194c89-4 53 116 60 194h-32v-121c0-31-8-49-39-48C34-167 62-67 57 0H25l-1-190h30c1 10-1 24 2 32 11-22 29-35 61-36" id="ar"/><path fill="#ef8d22" d="M30-248c118-7 216 8 213 122C240-48 200 0 122 0H30v-248zM63-27c89 8 146-16 146-99s-60-101-146-95v194" id="as"/><path fill="#ef8d22" d="M100-194c63 0 86 42 84 106H49c0 40 14 67 53 68 26 1 43-12 49-29l28 8c-11 28-37 45-77 45C44 4 14-33 15-96c1-61 26-98 85-98zm52 81c6-60-76-77-97-28-3 7-6 17-6 28h103" id="at"/><path fill="#ef8d22" d="M141-36C126-15 110 5 73 4 37 3 15-17 15-53c-1-64 63-63 125-63 3-35-9-54-41-54-24 1-41 7-42 31l-33-3c5-37 33-52 76-52 45 0 72 20 72 64v82c-1 20 7 32 28 27v20c-31 9-61-2-59-35zM48-53c0 20 12 33 32 33 41-3 63-29 60-74-43 2-92-5-92 41" id="au"/><path fill="#ef8d22" d="M24 0v-261h32V0H24" id="av"/><path fill="#ef8d22" d="M135-143c-3-34-86-38-87 0 15 53 115 12 119 90S17 21 10-45l28-5c4 36 97 45 98 0-10-56-113-15-118-90-4-57 82-63 122-42 12 7 21 19 24 35" id="aw"/><path fill="#ef8d22" d="M33 0v-38h34V0H33" id="ax"/><path fill="#ef8d22" d="M24-231v-30h32v30H24zM-9 49c24 4 33-6 33-30v-209h32V24c2 40-23 58-65 49V49" id="ay"/><g id="p"><use transform="matrix(0.04320987654320987,0,0,0.04320987654320987,0,0)" xlink:href="#al"/><use transform="matrix(0.04320987654320987,0,0,0.04320987654320987,10.370370370370368,0)" xlink:href="#am"/><use transform="matrix(0.04320987654320987,0,0,0.04320987654320987,19.01234567901234,0)" xlink:href="#an"/><use transform="matrix(0.04320987654320987,0,0,0.04320987654320987,26.790123456790116,0)" xlink:href="#ao"/><use transform="matrix(0.04320987654320987,0,0,0.04320987654320987,31.111111111111104,0)" xlink:href="#ap"/><use transform="matrix(0.04320987654320987,0,0,0.04320987654320987,34.52469135802468,0)" xlink:href="#aq"/><use transform="matrix(0.04320987654320987,0,0,0.04320987654320987,43.16666666666666,0)" xlink:href="#ar"/><use transform="matrix(0.04320987654320987,0,0,0.04320987654320987,51.80864197530863,0)" xlink:href="#as"/><use transform="matrix(0.04320987654320987,0,0,0.04320987654320987,62.999999999999986,0)" xlink:href="#at"/><use transform="matrix(0.04320987654320987,0,0,0.04320987654320987,71.64197530864196,0)" xlink:href="#ao"/><use transform="matrix(0.04320987654320987,0,0,0.04320987654320987,75.96296296296295,0)" xlink:href="#au"/><use transform="matrix(0.04320987654320987,0,0,0.04320987654320987,84.60493827160492,0)" xlink:href="#ap"/><use transform="matrix(0.04320987654320987,0,0,0.04320987654320987,88.0185185185185,0)" xlink:href="#av"/><use transform="matrix(0.04320987654320987,0,0,0.04320987654320987,91.43209876543207,0)" xlink:href="#aw"/><use transform="matrix(0.04320987654320987,0,0,0.04320987654320987,99.20987654320986,0)" xlink:href="#ax"/><use transform="matrix(0.04320987654320987,0,0,0.04320987654320987,103.53086419753085,0)" xlink:href="#ay"/><use transform="matrix(0.04320987654320987,0,0,0.04320987654320987,106.94444444444441,0)" xlink:href="#aw"/></g><path fill="#19967d" d="M26 75v-336h71v23H56V52h41v23H26" id="az"/><path fill="#19967d" d="M135-143c-3-34-86-38-87 0 15 53 115 12 119 90S17 21 10-45l28-5c4 36 97 45 98 0-10-56-113-15-118-90-4-57 82-63 122-42 12 7 21 19 24 35" id="aA"/><path fill="#19967d" d="M59-47c-2 24 18 29 38 22v24C64 9 27 4 27-40v-127H5v-23h24l9-43h21v43h35v23H59v120" id="aB"/><path fill="#19967d" d="M141-36C126-15 110 5 73 4 37 3 15-17 15-53c-1-64 63-63 125-63 3-35-9-54-41-54-24 1-41 7-42 31l-33-3c5-37 33-52 76-52 45 0 72 20 72 64v82c-1 20 7 32 28 27v20c-31 9-61-2-59-35zM48-53c0 20 12 33 32 33 41-3 63-29 60-74-43 2-92-5-92 41" id="aC"/><path fill="#19967d" d="M84 4C-5 8 30-112 23-190h32v120c0 31 7 50 39 49 72-2 45-101 50-169h31l1 190h-30c-1-10 1-25-2-33-11 22-28 36-60 37" id="aD"/><g id="q"><use transform="matrix(0.030864197530864182,0,0,0.030864197530864182,0,0)" xlink:href="#az"/><use transform="matrix(0.030864197530864182,0,0,0.030864197530864182,3.0864197530864184,0)" xlink:href="#aA"/><use transform="matrix(0.030864197530864182,0,0,0.030864197530864182,8.641975308641971,0)" xlink:href="#aB"/><use transform="matrix(0.030864197530864182,0,0,0.030864197530864182,11.728395061728389,0)" xlink:href="#aC"/><use transform="matrix(0.030864197530864182,0,0,0.030864197530864182,17.901234567901227,0)" xlink:href="#aB"/><use transform="matrix(0.030864197530864182,0,0,0.030864197530864182,20.987654320987644,0)" xlink:href="#aD"/><use transform="matrix(0.030864197530864182,0,0,0.030864197530864182,27.16049382716048,0)" xlink:href="#aA"/></g><path fill="#19967d" d="M101-251c82-7 93 87 43 132L82-64C71-53 59-42 53-27h129V0H18c2-99 128-94 128-182 0-28-16-43-45-43s-46 15-49 41l-32-3c6-41 34-60 81-64" id="aE"/><path fill="#19967d" d="M101-251c68 0 85 55 85 127S166 4 100 4C33 4 14-52 14-124c0-73 17-127 87-127zm-1 229c47 0 54-49 54-102s-4-102-53-102c-51 0-55 48-55 102 0 53 5 102 54 102" id="aF"/><path fill="#19967d" d="M3 75V52h41v-290H3v-23h71V75H3" id="aG"/><g id="r"><use transform="matrix(0.030864197530864182,0,0,0.030864197530864182,0,0)" xlink:href="#aE"/><use transform="matrix(0.030864197530864182,0,0,0.030864197530864182,6.172839506172837,0)" xlink:href="#aF"/><use transform="matrix(0.030864197530864182,0,0,0.030864197530864182,12.345679012345673,0)" xlink:href="#aF"/><use transform="matrix(0.030864197530864182,0,0,0.030864197530864182,18.518518518518512,0)" xlink:href="#aG"/></g><path fill="#c92d39" d="M114-163C36-179 61-72 57 0H25l-1-190h30c1 12-1 29 2 39 6-27 23-49 58-41v29" id="aH"/><path fill="#c92d39" d="M240 0l2-218c-23 76-54 145-80 218h-23L58-218 59 0H30v-248h44l77 211c21-75 51-140 76-211h43V0h-30" id="aI"/><path fill="#c92d39" d="M177-190C167-65 218 103 67 71c-23-6-38-20-44-43l32-5c15 47 100 32 89-28v-30C133-14 115 1 83 1 29 1 15-40 15-95c0-56 16-97 71-98 29-1 48 16 59 35 1-10 0-23 2-32h30zM94-22c36 0 50-32 50-73 0-42-14-75-50-75-39 0-46 34-46 75s6 73 46 73" id="aJ"/><g id="s"><use transform="matrix(0.030864197530864182,0,0,0.030864197530864182,0,0)" xlink:href="#ad"/><use transform="matrix(0.030864197530864182,0,0,0.030864197530864182,6.172839506172837,0)" xlink:href="#aH"/><use transform="matrix(0.030864197530864182,0,0,0.030864197530864182,9.845679012345673,0)" xlink:href="#aH"/><use transform="matrix(0.030864197530864182,0,0,0.030864197530864182,13.518518518518512,0)" xlink:href="#ab"/><use transform="matrix(0.030864197530864182,0,0,0.030864197530864182,19.691358024691347,0)" xlink:href="#aH"/><use transform="matrix(0.030864197530864182,0,0,0.030864197530864182,23.364197530864185,0)" xlink:href="#aI"/><use transform="matrix(0.030864197530864182,0,0,0.030864197530864182,32.592592592592574,0)" xlink:href="#ac"/><use transform="matrix(0.030864197530864182,0,0,0.030864197530864182,38.148148148148124,0)" xlink:href="#aJ"/></g><path fill="#19967d" d="M185-189c-5-48-123-54-124 2 14 75 158 14 163 119 3 78-121 87-175 55-17-10-28-26-33-46l33-7c5 56 141 63 141-1 0-78-155-14-162-118-5-82 145-84 179-34 5 7 8 16 11 25" id="aK"/><path fill="#19967d" d="M106-169C34-169 62-67 57 0H25v-261h32l-1 103c12-21 28-36 61-36 89 0 53 116 60 194h-32v-121c2-32-8-49-39-48" id="aL"/><path fill="#19967d" d="M100-194c62-1 85 37 85 99 1 63-27 99-86 99S16-35 15-95c0-66 28-99 85-99zM99-20c44 1 53-31 53-75 0-43-8-75-51-75s-53 32-53 75 10 74 51 75" id="aM"/><path fill="#19967d" d="M206 0h-36l-40-164L89 0H53L-1-190h32L70-26l43-164h34l41 164 42-164h31" id="aN"/><g id="t"><use transform="matrix(0.030864197530864182,0,0,0.030864197530864182,0,0)" xlink:href="#aK"/><use transform="matrix(0.030864197530864182,0,0,0.030864197530864182,7.407407407407404,0)" xlink:href="#aL"/><use transform="matrix(0.030864197530864182,0,0,0.030864197530864182,13.58024691358024,0)" xlink:href="#aM"/><use transform="matrix(0.030864197530864182,0,0,0.030864197530864182,19.753086419753075,0)" xlink:href="#aN"/></g><path fill="#19967d" d="M266 0h-40l-56-210L115 0H75L2-248h35L96-30l15-64 43-154h32l59 218 59-218h35" id="aO"/><path fill="#19967d" d="M24-231v-30h32v30H24zM24 0v-190h32V0H24" id="aP"/><path fill="#19967d" d="M117-194c89-4 53 116 60 194h-32v-121c0-31-8-49-39-48C34-167 62-67 57 0H25l-1-190h30c1 10-1 24 2 32 11-22 29-35 61-36" id="aQ"/><path fill="#19967d" d="M100-194c63 0 86 42 84 106H49c0 40 14 67 53 68 26 1 43-12 49-29l28 8c-11 28-37 45-77 45C44 4 14-33 15-96c1-61 26-98 85-98zm52 81c6-60-76-77-97-28-3 7-6 17-6 28h103" id="aR"/><path fill="#19967d" d="M114-163C36-179 61-72 57 0H25l-1-190h30c1 12-1 29 2 39 6-27 23-49 58-41v29" id="aS"/><g id="u"><use transform="matrix(0.030864197530864182,0,0,0.030864197530864182,0,0)" xlink:href="#aO"/><use transform="matrix(0.030864197530864182,0,0,0.030864197530864182,10.462962962962958,0)" xlink:href="#aP"/><use transform="matrix(0.030864197530864182,0,0,0.030864197530864182,12.901234567901229,0)" xlink:href="#aQ"/><use transform="matrix(0.030864197530864182,0,0,0.030864197530864182,19.074074074074066,0)" xlink:href="#aQ"/><use transform="matrix(0.030864197530864182,0,0,0.030864197530864182,25.246913580246904,0)" xlink:href="#aR"/><use transform="matrix(0.030864197530864182,0,0,0.030864197530864182,31.41975308641974,0)" xlink:href="#aS"/></g><path fill="#19967d" d="M30-248c118-7 216 8 213 122C240-48 200 0 122 0H30v-248zM63-27c89 8 146-16 146-99s-60-101-146-95v194" id="aT"/><g id="v"><use transform="matrix(0.030864197530864182,0,0,0.030864197530864182,0,0)" xlink:href="#aT"/><use transform="matrix(0.030864197530864182,0,0,0.030864197530864182,7.993827160493823,0)" xlink:href="#aC"/><use transform="matrix(0.030864197530864182,0,0,0.030864197530864182,14.16666666666666,0)" xlink:href="#aB"/><use transform="matrix(0.030864197530864182,0,0,0.030864197530864182,17.253086419753078,0)" xlink:href="#aC"/></g><path fill="#19967d" d="M197 0v-115H63V0H30v-248h33v105h134v-105h34V0h-34" id="aU"/><path fill="#19967d" d="M85-194c31 0 48 13 60 33l-1-100h32l1 261h-30c-2-10 0-23-3-31C134-8 116 4 85 4 32 4 16-35 15-94c0-66 23-100 70-100zm9 24c-40 0-46 34-46 75 0 40 6 74 45 74 42 0 51-32 51-76 0-42-9-74-50-73" id="aV"/><g id="w"><use transform="matrix(0.030864197530864182,0,0,0.030864197530864182,0,0)" xlink:href="#aU"/><use transform="matrix(0.030864197530864182,0,0,0.030864197530864182,7.993827160493823,0)" xlink:href="#aP"/><use transform="matrix(0.030864197530864182,0,0,0.030864197530864182,10.432098765432094,0)" xlink:href="#aV"/><use transform="matrix(0.030864197530864182,0,0,0.030864197530864182,16.60493827160493,0)" xlink:href="#aR"/></g><path fill="#19967d" d="M212-179c-10-28-35-45-73-45-59 0-87 40-87 99 0 60 29 101 89 101 43 0 62-24 78-52l27 14C228-24 195 4 139 4 59 4 22-46 18-125c-6-104 99-153 187-111 19 9 31 26 39 46" id="aW"/><path fill="#19967d" d="M24 0v-261h32V0H24" id="aX"/><g id="x"><use transform="matrix(0.030864197530864182,0,0,0.030864197530864182,0,0)" xlink:href="#aW"/><use transform="matrix(0.030864197530864182,0,0,0.030864197530864182,7.993827160493823,0)" xlink:href="#aX"/><use transform="matrix(0.030864197530864182,0,0,0.030864197530864182,10.432098765432094,0)" xlink:href="#aM"/><use transform="matrix(0.030864197530864182,0,0,0.030864197530864182,16.60493827160493,0)" xlink:href="#aA"/><use transform="matrix(0.030864197530864182,0,0,0.030864197530864182,22.160493827160483,0)" xlink:href="#aR"/></g><path fill="#19967d" d="M160-131c35 5 61 23 61 61C221 17 115-2 30 0v-248c76 3 177-17 177 60 0 33-19 50-47 57zm-97-11c50-1 110 9 110-42 0-47-63-36-110-37v79zm0 115c55-2 124 14 124-45 0-56-70-42-124-44v89" id="aY"/><g id="y"><use transform="matrix(0.030864197530864182,0,0,0.030864197530864182,0,0)" xlink:href="#aY"/><use transform="matrix(0.030864197530864182,0,0,0.030864197530864182,7.407407407407404,0)" xlink:href="#aD"/><use transform="matrix(0.030864197530864182,0,0,0.030864197530864182,13.58024691358024,0)" xlink:href="#aB"/><use transform="matrix(0.030864197530864182,0,0,0.030864197530864182,16.666666666666657,0)" xlink:href="#aB"/><use transform="matrix(0.030864197530864182,0,0,0.030864197530864182,19.753086419753075,0)" xlink:href="#aM"/><use transform="matrix(0.030864197530864182,0,0,0.030864197530864182,25.92592592592591,0)" xlink:href="#aQ"/></g></defs></g></svg>