<svg xmlns="http://www.w3.org/2000/svg" xmlns:xlink="http://www.w3.org/1999/xlink" xmlns:lucid="lucid" width="1160" height="551"><g transform="translate(20 7.105427357601002e-15)" lucid:page-tab-id="0_0"><path d="M60 426c0-3.3 2.7-6 6-6h1048c3.3 0 6 2.7 6 6v68c0 3.3-2.7 6-6 6H66c-3.3 0-6-2.7-6-6z" fill="#fff"/><path d="M95.36 420h2.93m14.67 0h29.35m14.68 0h2.94m14.68 0h29.35m14.68 0h2.94m14.66 0h29.36m14.68 0h2.93m14.68 0h29.37m14.67 0h2.94m14.68 0h29.35m14.7 0h2.93m14.67 0h29.36m14.68 0h2.93m14.68 0h29.36m14.7 0h2.92m14.68 0h29.35m14.68 0h2.94m14.68 0h29.35m14.68 0h2.93m14.7 0h29.35m14.68 0h2.93m14.68 0h29.36m14.67 0h2.94m14.7 0h29.34m14.68 0h2.94m14.67 0h29.36m14.67 0h2.93m14.68 0h29.36m14.67 0h2.95m14.68 0h29.35m14.68 0h2.94m14.68 0h29.35m14.68 0h2.94m14.68 0H1114l3.03.82 2.15 2.15.82 3.03v16.2m0 16.18v3.24m0 16.2V494l-.82 3.03-2.15 2.15-3.03.82h-14.68m-14.68 0h-2.93m-14.67 0h-29.35m-14.68 0h-2.94m-14.68 0h-29.35m-14.68 0h-2.94m-14.66 0h-29.36m-14.68 0h-2.93m-14.68 0h-29.37m-14.67 0h-2.94m-14.68 0H791.1m-14.7 0h-2.93m-14.67 0h-29.36m-14.68 0h-2.93m-14.68 0H667.8m-14.7 0h-2.92m-14.68 0h-29.35m-14.68 0h-2.94m-14.68 0H544.5m-14.68 0h-2.93m-14.7 0h-29.35m-14.68 0h-2.93m-14.68 0H421.2m-14.67 0h-2.94m-14.7 0h-29.34m-14.68 0h-2.94m-14.67 0H297.9m-14.67 0h-2.93m-14.68 0h-29.36m-14.67 0h-2.95m-14.68 0h-29.35m-14.68 0H157m-14.68 0h-29.35m-14.68 0h-2.94m-14.68 0H66l-3.03-.82-2.15-2.15L60 494v-16.2m0-16.18v-3.24m0-16.2V426l.82-3.03 2.15-2.15L66 420h14.68" stroke="#19967d" stroke-width="3" fill="none"/><path d="M620 400h240v60H620z" fill="none"/><use xlink:href="#a" transform="matrix(1,0,0,1,620,400) translate(32.11111111111114 33.111111111111114)"/><path d="M100 120h240v60H100z" fill="none"/><use xlink:href="#b" transform="matrix(1,0,0,1,100,120) translate(95.80246913580247 12.444444444444443)"/><use xlink:href="#c" transform="matrix(1,0,0,1,100,120) translate(97.55246913580248 31.111111111111107)"/><use xlink:href="#d" transform="matrix(1,0,0,1,100,120) translate(83.31481481481482 49.77777777777777)"/><use xlink:href="#e" transform="matrix(1,0,0,1,100,120) translate(86.77160493827162 68.44444444444443)"/><path d="M0 260h123.97v20H0z" fill="none"/><use xlink:href="#f" transform="matrix(1,0,0,1,0,260) translate(42.543209876543216 11.777777777777777)"/><use xlink:href="#g" transform="matrix(1,0,0,1,0,260) translate(64.69135802469135 11.777777777777777)"/><path d="M140 220h154.06v30.87H140z" fill="none"/><use xlink:href="#h" transform="matrix(1,0,0,1,140,220) translate(26.15432098765436 11.944444444444446)"/><use xlink:href="#i" transform="matrix(1,0,0,1,140,220) translate(52.2530864197531 11.944444444444446)"/><use xlink:href="#j" transform="matrix(1,0,0,1,140,220) translate(59.31481481481483 11.944444444444446)"/><use xlink:href="#k" transform="matrix(1,0,0,1,140,220) translate(102.22839506172838 11.944444444444446)"/><use xlink:href="#l" transform="matrix(1,0,0,1,140,220) translate(115.06790123456787 11.944444444444446)"/><use xlink:href="#m" transform="matrix(1,0,0,1,140,220) translate(59.51234567901236 22.611111111111107)"/><use xlink:href="#n" transform="matrix(1,0,0,1,140,220) translate(80.67283950617283 22.611111111111107)"/><path d="M33.06 20h173.88v60H33.06z" fill="none"/><use xlink:href="#o" transform="matrix(1,0,0,1,33.06148488989257,19.999999999999993) translate(11.90123456790127 33.111111111111114)"/><path d="M300 220h240v60H300z" fill="none"/><use xlink:href="#p" transform="matrix(1,0,0,1,300,220) translate(84.50308641975309 33.111111111111114)"/><use xlink:href="#q" transform="matrix(1,0,0,1,300,220) translate(119.02777777777777 33.111111111111114)"/><use xlink:href="#r" transform="matrix(1,0,0,1,300,220) translate(131.3858024691358 33.111111111111114)"/><path d="M760 480h240v20H760z" fill="none"/><use xlink:href="#s" transform="matrix(1,0,0,1,760,480) translate(16.253086419753117 13.11111111111111)"/><use xlink:href="#t" transform="matrix(1,0,0,1,760,480) translate(133.5679012345679 13.11111111111111)"/><use xlink:href="#u" transform="matrix(1,0,0,1,760,480) translate(146.96296296296296 13.11111111111111)"/><path d="M300 140h240v60H300z" fill="none"/><use xlink:href="#v" transform="matrix(1,0,0,1,300,140) translate(64.32407407407408 19.77777777777778)"/><use xlink:href="#w" transform="matrix(1,0,0,1,300,140) translate(79.27469135802468 43.77777777777778)"/><path d="M40 66c0-3.3 2.7-6 6-6h148c3.3 0 6 2.7 6 6v28c0 3.3-2.7 6-6 6H46c-3.3 0-6-2.7-6-6z" stroke="#5e5e5e" stroke-width="3" fill="#fff"/><use xlink:href="#x" transform="matrix(1,0,0,1,52,72) translate(17.475308641975317 17.77777777777778)"/><path d="M440 66c0-3.3 2.7-6 6-6h188c3.3 0 6 2.7 6 6v28c0 3.3-2.7 6-6 6H446c-3.3 0-6-2.7-6-6z" stroke="#99d2f2" stroke-width="3" fill="#fff"/><use xlink:href="#y" transform="matrix(1,0,0,1,452,72) translate(44.26543209876543 17.77777777777778)"/><path d="M660 66c0-3.3 2.7-6 6-6h188c3.3 0 6 2.7 6 6v28c0 3.3-2.7 6-6 6H666c-3.3 0-6-2.7-6-6z" stroke="#99d2f2" stroke-width="3" fill="#fff"/><use xlink:href="#z" transform="matrix(1,0,0,1,672,72) translate(48.52469135802468 17.77777777777778)"/><path d="M780 126c0-3.3 2.7-6 6-6h188c3.3 0 6 2.7 6 6v28c0 3.3-2.7 6-6 6H786c-3.3 0-6-2.7-6-6z" stroke="#5e5e5e" stroke-width="3" fill="#fff"/><use xlink:href="#A" transform="matrix(1,0,0,1,792,132) translate(9.666666666666671 17.77777777777778)"/><path d="M120 482.5v19" stroke="#5e5e5e" stroke-width="2" fill="none"/><path d="M121 482.53h-2v-1.03h2z" fill="#5e5e5e"/><path d="M120 516.76l-4.64-14.26h9.28z" stroke="#5e5e5e" stroke-width="2" fill="#5e5e5e"/><path d="M120 102.5V115m0 12.5V140" stroke="#5e5e5e" stroke-width="2" fill="none"/><path d="M121 102.53h-2v-1.03h2z" fill="#5e5e5e"/><path d="M120 155.26L115.36 141h9.28z" stroke="#5e5e5e" stroke-width="2" fill="#5e5e5e"/><path d="M540 293.37v9.84m0 9.85v19.68m0 9.84v19.68m0 9.84v19.66m0 9.84v19.68m0 9.84v19.68m0 9.84v19.68m0 9.84V500" stroke="#5e5e5e" stroke-width="2" fill="none"/><path d="M541 293.4h-2v-1.03h2z" fill="#5e5e5e"/><path d="M540 515.26L535.36 501h9.28z" stroke="#5e5e5e" stroke-width="2" fill="#5e5e5e"/><path d="M540 102.5v9.17m0 9.16V140" stroke="#5e5e5e" stroke-width="2" fill="none"/><path d="M541 102.53h-2v-1.03h2z" fill="#5e5e5e"/><path d="M540 155.26L535.36 141h9.28z" stroke="#5e5e5e" stroke-width="2" fill="#5e5e5e"/><path d="M760 102.5v9.35m0 9.36v18.72m0 9.35v18.7m0 9.36v18.7m0 9.36v18.7m0 9.35v18.7m0 9.36v9.37" stroke="#5e5e5e" stroke-width="2" fill="none"/><path d="M761 102.53h-2v-1.03h2z" fill="#5e5e5e"/><path d="M760 286.13l-4.64-14.26h9.28z" stroke="#5e5e5e" stroke-width="2" fill="#5e5e5e"/><path d="M760 353.37v9.68m0 9.67v19.35m0 9.68v19.35m0 9.67v19.35m0 9.68v19.35m0 9.67v9.68" stroke="#5e5e5e" stroke-width="2" fill="none"/><path d="M761 353.4h-2v-1.03h2z" fill="#5e5e5e"/><path d="M760 513.76l-4.64-14.26h9.28z" stroke="#5e5e5e" stroke-width="2" fill="#5e5e5e"/><path d="M880 162.5v9.4m0 9.4v18.82m0 9.4v18.8m0 9.42v18.8m0 9.4v18.82m0 9.4v18.8m0 9.42v18.8m0 9.4V360" stroke="#5e5e5e" stroke-width="2" fill="none"/><path d="M881 162.53h-2v-1.03h2z" fill="#5e5e5e"/><path d="M880 375.26L875.36 361h9.28z" stroke="#5e5e5e" stroke-width="2" fill="#5e5e5e"/><path d="M880 442.5v9.83m0 9.84v19.66m0 9.84v9.83" stroke="#5e5e5e" stroke-width="2" fill="none"/><path d="M881 442.53h-2v-1.03h2z" fill="#5e5e5e"/><path d="M880 516.76l-4.64-14.26h9.28z" stroke="#5e5e5e" stroke-width="2" fill="#5e5e5e"/><path d="M100 166c0-3.3 2.7-6 6-6h28c3.3 0 6 2.7 6 6v308c0 3.3-2.7 6-6 6h-28c-3.3 0-6-2.7-6-6z" stroke="#5e5e5e" stroke-width="3" fill="#fff"/><path d="M520 166c0-3.3 2.7-6 6-6h28c3.3 0 6 2.7 6 6v118.87c0 3.3-2.7 6-6 6h-28c-3.3 0-6-2.7-6-6zM740 296.87c0-3.3 2.7-6 6-6h28c3.3 0 6 2.7 6 6v48c0 3.3-2.7 6-6 6h-28c-3.3 0-6-2.7-6-6z" stroke="#99d2f2" stroke-width="3" fill="#fff"/><path d="M860 386c0-3.3 2.7-6 6-6h28c3.3 0 6 2.7 6 6v48c0 3.3-2.7 6-6 6h-28c-3.3 0-6-2.7-6-6z" stroke="#5e5e5e" stroke-width="3" fill="#fff"/><path d="M220 66c0-3.3 2.7-6 6-6h188c3.3 0 6 2.7 6 6v28c0 3.3-2.7 6-6 6H226c-3.3 0-6-2.7-6-6z" stroke="#99d2f2" stroke-width="3" fill="#fff"/><use xlink:href="#B" transform="matrix(1,0,0,1,232,72) translate(5.993827160493822 17.77777777777778)"/><path d="M320 382.5v9.92m0 9.9v19.85m0 9.9v19.85m0 9.9v19.85m0 9.9v9.93" stroke="#5e5e5e" stroke-width="2" fill="none"/><path d="M321 382.53h-2v-1.03h2z" fill="#5e5e5e"/><path d="M320 516.76l-4.64-14.26h9.28z" stroke="#5e5e5e" stroke-width="2" fill="#5e5e5e"/><path d="M320 102.5V115m0 12.5V140" stroke="#5e5e5e" stroke-width="2" fill="none"/><path d="M321 102.53h-2v-1.03h2z" fill="#5e5e5e"/><path d="M320 155.26L315.36 141h9.28z" stroke="#5e5e5e" stroke-width="2" fill="#5e5e5e"/><path d="M300 166c0-3.3 2.7-6 6-6h28c3.3 0 6 2.7 6 6v208c0 3.3-2.7 6-6 6h-28c-3.3 0-6-2.7-6-6z" stroke="#99d2f2" stroke-width="3" fill="#fff"/><path d="M142.5 192.56H280" stroke="#5e5e5e" stroke-width="2" fill="none"/><path d="M142.53 193.56h-1.03v-2h1.03z" fill="#5e5e5e"/><path d="M295.26 192.56L281 197.2v-9.28z" stroke="#5e5e5e" stroke-width="2" fill="#5e5e5e"/><path d="M341 174.67h159" stroke="#5e5e5e" stroke-width="2" fill="none"/><path d="M341.03 175.67H340v-2h1.03z" fill="#5e5e5e"/><path d="M515.26 174.67L501 179.3v-9.26z" stroke="#5e5e5e" stroke-width="2" fill="#5e5e5e"/><path d="M517.5 226.3H360" stroke="#5e5e5e" stroke-width="2" fill="none"/><path d="M518.5 227.3h-1.03v-2h1.03z" fill="#5e5e5e"/><path d="M344.74 226.3l14.26-4.64v9.27z" stroke="#5e5e5e" stroke-width="2" fill="#5e5e5e"/><path d="M297.5 224.7h-9.17m-9.16 0h-18.34m-9.16 0h-18.34m-9.16 0h-18.34m-9.16 0h-18.34m-9.16 0H160" stroke="#5e5e5e" stroke-width="2" fill="none"/><path d="M298.5 225.7h-1.03v-2h1.03z" fill="#5e5e5e"/><path d="M144.74 224.7L159 220.1v9.27z" stroke="#5e5e5e" stroke-width="2" fill="#5e5e5e"/><path d="M297.5 271.94h-9.17m-9.16 0h-18.34m-9.16 0h-18.34m-9.16 0h-18.34m-9.16 0h-18.34m-9.16 0H160" stroke="#5e5e5e" stroke-width="2" fill="none"/><path d="M298.5 272.94h-1.03v-2h1.03z" fill="#5e5e5e"/><path d="M144.74 271.94L159 267.3v9.27z" stroke="#5e5e5e" stroke-width="2" fill="#5e5e5e"/><path d="M297.5 326.76h-8.6m-8.62 0h-17.22m-8.62 0h-17.22m-8.6 0H210m-10 0h-20m-10 0h-10" stroke="#5e5e5e" stroke-width="2" fill="none"/><path d="M298.5 327.76h-1.03v-2h1.03z" fill="#5e5e5e"/><path d="M144.74 326.76l14.26-4.64v9.27z" stroke="#5e5e5e" stroke-width="2" fill="#5e5e5e"/><path d="M140 280h154.06v10.87H140z" fill="none"/><use xlink:href="#C" transform="matrix(1,0,0,1,140,280) translate(32.63580246913584 7.111111111111106)"/><use xlink:href="#k" transform="matrix(1,0,0,1,140,280) translate(54.83333333333335 7.111111111111106)"/><use xlink:href="#D" transform="matrix(1,0,0,1,140,280) translate(67.67283950617285 7.111111111111106)"/><use xlink:href="#E" transform="matrix(1,0,0,1,140,280) translate(86.38888888888889 7.111111111111106)"/><use xlink:href="#F" transform="matrix(1,0,0,1,140,280) translate(107.54938271604937 7.111111111111106)"/><use xlink:href="#G" transform="matrix(1,0,0,1,140,280) translate(77.5 17.777777777777764)"/><path d="M140 340h154.06v20H140z" fill="none"/><use xlink:href="#C" transform="matrix(1,0,0,1,140,340) translate(53.21604938271607 7.111111111111106)"/><use xlink:href="#H" transform="matrix(1,0,0,1,140,340) translate(75.41358024691358 7.111111111111106)"/><use xlink:href="#I" transform="matrix(1,0,0,1,140,340) translate(85.53703703703704 7.111111111111106)"/><use xlink:href="#J" transform="matrix(1,0,0,1,140,340) translate(57.00617283950619 17.777777777777764)"/><use xlink:href="#K" transform="matrix(1,0,0,1,140,340) translate(83.17901234567901 17.777777777777764)"/><use xlink:href="#L" transform="matrix(1,0,0,1,140,340) translate(77.5 28.444444444444425)"/><path d="M97.5 276.82h-33c-3.3 0-6 2.7-6 6v14.6c0 3.3 2.7 6 6 6H80" stroke="#5e5e5e" stroke-width="2" fill="none"/><path d="M98.5 277.82h-1.03v-2h1.03z" fill="#5e5e5e"/><path d="M95.26 303.42L81 308.05v-9.27z" stroke="#5e5e5e" stroke-width="2" fill="#5e5e5e"/><path d="M97.5 341.4h-33c-3.3 0-6 2.7-6 6v16.24c0 3.3 2.7 6 6 6H80" stroke="#5e5e5e" stroke-width="2" fill="none"/><path d="M98.5 342.4h-1.03v-2h1.03z" fill="#5e5e5e"/><path d="M95.26 369.64L81 374.27V365z" stroke="#5e5e5e" stroke-width="2" fill="#5e5e5e"/><path d="M0 320h123.97v20H0z" fill="none"/><g><use xlink:href="#M" transform="matrix(1,0,0,1,1.4210854715202004e-14,320) translate(33.64197530864199 11.777777777777777)"/><use xlink:href="#N" transform="matrix(1,0,0,1,1.4210854715202004e-14,320) translate(49.44444444444445 11.777777777777777)"/></g><path d="M342.5 324H720" stroke="#5e5e5e" stroke-width="2" fill="none"/><path d="M342.53 325h-1.03v-2h1.03z" fill="#5e5e5e"/><path d="M735.26 324L721 328.64v-9.28z" stroke="#5e5e5e" stroke-width="2" fill="#5e5e5e"/><path d="M340 300h154.06v20H340z" fill="none"/><g><use xlink:href="#C" transform="matrix(1,0,0,1,340,300) translate(53.21604938271607 7.111111111111106)"/><use xlink:href="#H" transform="matrix(1,0,0,1,340,300) translate(75.41358024691358 7.111111111111106)"/><use xlink:href="#I" transform="matrix(1,0,0,1,340,300) translate(85.53703703703704 7.111111111111106)"/><use xlink:href="#O" transform="matrix(1,0,0,1,340,300) translate(15.956790123456848 17.777777777777764)"/></g><path d="M920 186c0-3.3 2.7-6 6-6h188c3.3 0 6 2.7 6 6v28c0 3.3-2.7 6-6 6H926c-3.3 0-6-2.7-6-6z" stroke="#5e5e5e" stroke-width="3" fill="#fff"/><g><use xlink:href="#P" transform="matrix(1,0,0,1,932,192) translate(48.586419753086425 17.77777777777778)"/></g><path d="M1020 222.5v9.17m0 9.16v18.34m0 9.16v18.34m0 9.16v18.34m0 9.16v18.34m0 9.16V360" stroke="#5e5e5e" stroke-width="2" fill="none"/><path d="M1021 222.53h-2v-1.03h2z" fill="#5e5e5e"/><path d="M1020 375.26l-4.64-14.26h9.28z" stroke="#5e5e5e" stroke-width="2" fill="#5e5e5e"/><path d="M1020 482.5v19" stroke="#5e5e5e" stroke-width="2" fill="none"/><path d="M1021 482.53h-2v-1.03h2z" fill="#5e5e5e"/><path d="M1020 516.76l-4.64-14.26h9.28z" stroke="#5e5e5e" stroke-width="2" fill="#5e5e5e"/><path d="M1000 386c0-3.3 2.7-6 6-6h28c3.3 0 6 2.7 6 6v88c0 3.3-2.7 6-6 6h-28c-3.3 0-6-2.7-6-6zM160 415.13c0-3.3 2.7-6 6-6h68c3.3 0 6 2.7 6 6v8c0 3.3-2.7 6-6 6h-68c-3.3 0-6-2.7-6-6z" stroke="#5e5e5e" stroke-width="3" fill="#fff"/><g><use xlink:href="#Q" transform="matrix(1,0,0,1,165,414.1295282597642) translate(8.456790123456802 8.888888888888884)"/><use xlink:href="#R" transform="matrix(1,0,0,1,165,414.1295282597642) translate(43.02469135802468 8.888888888888884)"/></g><path d="M142.5 436h697.98" stroke="#5e5e5e" stroke-width="2" fill="none"/><path d="M142.53 437h-1.03v-2h1.03z" fill="#5e5e5e"/><path d="M855.75 436l-14.27 4.64v-9.28z" stroke="#5e5e5e" stroke-width="2" fill="#5e5e5e"/><path d="M142.5 464H980" stroke="#5e5e5e" stroke-width="2" fill="none"/><path d="M142.53 465h-1.03v-2h1.03z" fill="#5e5e5e"/><path d="M995.26 464L981 468.64v-9.28z" stroke="#5e5e5e" stroke-width="2" fill="#5e5e5e"/><defs><path fill="#333" d="M135-143c-3-34-86-38-87 0 15 53 115 12 119 90S17 21 10-45l28-5c4 36 97 45 98 0-10-56-113-15-118-90-4-57 82-63 122-42 12 7 21 19 24 35" id="S"/><path fill="#333" d="M100-194c63 0 86 42 84 106H49c0 40 14 67 53 68 26 1 43-12 49-29l28 8c-11 28-37 45-77 45C44 4 14-33 15-96c1-61 26-98 85-98zm52 81c6-60-76-77-97-28-3 7-6 17-6 28h103" id="T"/><path fill="#333" d="M59-47c-2 24 18 29 38 22v24C64 9 27 4 27-40v-127H5v-23h24l9-43h21v43h35v23H59v120" id="U"/><path fill="#333" d="M33 0v-248h34V0H33" id="V"/><path fill="#333" d="M210-169c-67 3-38 105-44 169h-31v-121c0-29-5-50-35-48C34-165 62-65 56 0H25l-1-190h30c1 10-1 24 2 32 10-44 99-50 107 0 11-21 27-35 58-36 85-2 47 119 55 194h-31v-121c0-29-5-49-35-48" id="W"/><path fill="#333" d="M87 75C49 33 22-17 22-94c0-76 28-126 65-167h31c-38 41-64 92-64 168S80 34 118 75H87" id="X"/><path fill="#333" d="M109-170H84l-4-78h32zm-65 0H19l-4-78h33" id="Y"/><path fill="#333" d="M84 4C-5 8 30-112 23-190h32v120c0 31 7 50 39 49 72-2 45-101 50-169h31l1 190h-30c-1-10 1-25-2-33-11 22-28 36-60 37" id="Z"/><path fill="#333" d="M114-163C36-179 61-72 57 0H25l-1-190h30c1 12-1 29 2 39 6-27 23-49 58-41v29" id="aa"/><path fill="#333" d="M117-194c89-4 53 116 60 194h-32v-121c0-31-8-49-39-48C34-167 62-67 57 0H25l-1-190h30c1 10-1 24 2 32 11-22 29-35 61-36" id="ab"/><path fill="#333" d="M141-36C126-15 110 5 73 4 37 3 15-17 15-53c-1-64 63-63 125-63 3-35-9-54-41-54-24 1-41 7-42 31l-33-3c5-37 33-52 76-52 45 0 72 20 72 64v82c-1 20 7 32 28 27v20c-31 9-61-2-59-35zM48-53c0 20 12 33 32 33 41-3 63-29 60-74-43 2-92-5-92 41" id="ac"/><path fill="#333" d="M68-38c1 34 0 65-14 84H32c9-13 17-26 17-46H33v-38h35" id="ad"/><path fill="#333" d="M33-261c38 41 65 92 65 168S71 34 33 75H2C39 34 66-17 66-93S39-220 2-261h31" id="ae"/><g id="a"><use transform="matrix(0.04320987654320987,0,0,0.04320987654320987,0,0)" xlink:href="#S"/><use transform="matrix(0.04320987654320987,0,0,0.04320987654320987,7.777777777777776,0)" xlink:href="#T"/><use transform="matrix(0.04320987654320987,0,0,0.04320987654320987,16.41975308641975,0)" xlink:href="#U"/><use transform="matrix(0.04320987654320987,0,0,0.04320987654320987,20.740740740740737,0)" xlink:href="#V"/><use transform="matrix(0.04320987654320987,0,0,0.04320987654320987,25.061728395061724,0)" xlink:href="#U"/><use transform="matrix(0.04320987654320987,0,0,0.04320987654320987,29.382716049382708,0)" xlink:href="#T"/><use transform="matrix(0.04320987654320987,0,0,0.04320987654320987,38.02469135802468,0)" xlink:href="#W"/><use transform="matrix(0.04320987654320987,0,0,0.04320987654320987,50.944444444444436,0)" xlink:href="#X"/><use transform="matrix(0.04320987654320987,0,0,0.04320987654320987,56.08641975308641,0)" xlink:href="#Y"/><use transform="matrix(0.04320987654320987,0,0,0.04320987654320987,61.57407407407405,0)" xlink:href="#Z"/><use transform="matrix(0.04320987654320987,0,0,0.04320987654320987,70.21604938271602,0)" xlink:href="#S"/><use transform="matrix(0.04320987654320987,0,0,0.04320987654320987,77.9938271604938,0)" xlink:href="#T"/><use transform="matrix(0.04320987654320987,0,0,0.04320987654320987,86.63580246913577,0)" xlink:href="#aa"/><use transform="matrix(0.04320987654320987,0,0,0.04320987654320987,91.77777777777774,0)" xlink:href="#ab"/><use transform="matrix(0.04320987654320987,0,0,0.04320987654320987,100.41975308641972,0)" xlink:href="#ac"/><use transform="matrix(0.04320987654320987,0,0,0.04320987654320987,109.06172839506169,0)" xlink:href="#W"/><use transform="matrix(0.04320987654320987,0,0,0.04320987654320987,121.98148148148144,0)" xlink:href="#T"/><use transform="matrix(0.04320987654320987,0,0,0.04320987654320987,130.6234567901234,0)" xlink:href="#Y"/><use transform="matrix(0.04320987654320987,0,0,0.04320987654320987,136.11111111111106,0)" xlink:href="#ad"/><use transform="matrix(0.04320987654320987,0,0,0.04320987654320987,140.43209876543204,0)" xlink:href="#Z"/><use transform="matrix(0.04320987654320987,0,0,0.04320987654320987,149.07407407407402,0)" xlink:href="#S"/><use transform="matrix(0.04320987654320987,0,0,0.04320987654320987,156.8518518518518,0)" xlink:href="#T"/><use transform="matrix(0.04320987654320987,0,0,0.04320987654320987,165.49382716049377,0)" xlink:href="#aa"/><use transform="matrix(0.04320987654320987,0,0,0.04320987654320987,170.63580246913574,0)" xlink:href="#ae"/></g><path fill="#333" d="M85-194c31 0 48 13 60 33l-1-100h32l1 261h-30c-2-10 0-23-3-31C134-8 116 4 85 4 32 4 16-35 15-94c0-66 23-100 70-100zm9 24c-40 0-46 34-46 75 0 40 6 74 45 74 42 0 51-32 51-76 0-42-9-74-50-73" id="af"/><path fill="#333" d="M100-194c62-1 85 37 85 99 1 63-27 99-86 99S16-35 15-95c0-66 28-99 85-99zM99-20c44 1 53-31 53-75 0-43-8-75-51-75s-53 32-53 75 10 74 51 75" id="ag"/><path fill="#333" d="M30-248c87 1 191-15 191 75 0 78-77 80-158 76V0H30v-248zm33 125c57 0 124 11 124-50 0-59-68-47-124-48v98" id="ah"/><g id="b"><use transform="matrix(0.04320987654320987,0,0,0.04320987654320987,0,0)" xlink:href="#af"/><use transform="matrix(0.04320987654320987,0,0,0.04320987654320987,8.641975308641973,0)" xlink:href="#ag"/><use transform="matrix(0.04320987654320987,0,0,0.04320987654320987,17.283950617283946,0)" xlink:href="#ah"/><use transform="matrix(0.04320987654320987,0,0,0.04320987654320987,27.654320987654316,0)" xlink:href="#ag"/><use transform="matrix(0.04320987654320987,0,0,0.04320987654320987,36.29629629629629,0)" xlink:href="#S"/><use transform="matrix(0.04320987654320987,0,0,0.04320987654320987,44.07407407407407,0)" xlink:href="#U"/></g><path fill="#333" d="M140-251c81 0 123 46 123 126C263-46 219 4 140 4 59 4 17-45 17-125s42-126 123-126zm0 227c63 0 89-41 89-101s-29-99-89-99c-61 0-89 39-89 99S79-25 140-24" id="ai"/><path fill="#333" d="M185-189c-5-48-123-54-124 2 14 75 158 14 163 119 3 78-121 87-175 55-17-10-28-26-33-46l33-7c5 56 141 63 141-1 0-78-155-14-162-118-5-82 145-84 179-34 5 7 8 16 11 25" id="aj"/><path fill="#333" d="M127-220V0H93v-220H8v-28h204v28h-85" id="ak"/><path fill="#333" d="M33-154v-36h34v36H33zM33 0v-36h34V0H33" id="al"/><g id="c"><use transform="matrix(0.04320987654320987,0,0,0.04320987654320987,0,0)" xlink:href="#ah"/><use transform="matrix(0.04320987654320987,0,0,0.04320987654320987,10.370370370370368,0)" xlink:href="#ai"/><use transform="matrix(0.04320987654320987,0,0,0.04320987654320987,22.469135802469133,0)" xlink:href="#aj"/><use transform="matrix(0.04320987654320987,0,0,0.04320987654320987,32.8395061728395,0)" xlink:href="#ak"/><use transform="matrix(0.04320987654320987,0,0,0.04320987654320987,40.57407407407406,0)" xlink:href="#al"/></g><g id="d"><use transform="matrix(0.04320987654320987,0,0,0.04320987654320987,0,0)" xlink:href="#Z"/><use transform="matrix(0.04320987654320987,0,0,0.04320987654320987,8.641975308641973,0)" xlink:href="#S"/><use transform="matrix(0.04320987654320987,0,0,0.04320987654320987,16.41975308641975,0)" xlink:href="#T"/><use transform="matrix(0.04320987654320987,0,0,0.04320987654320987,25.061728395061724,0)" xlink:href="#aa"/><use transform="matrix(0.04320987654320987,0,0,0.04320987654320987,30.2037037037037,0)" xlink:href="#ab"/><use transform="matrix(0.04320987654320987,0,0,0.04320987654320987,38.84567901234567,0)" xlink:href="#ac"/><use transform="matrix(0.04320987654320987,0,0,0.04320987654320987,47.487654320987644,0)" xlink:href="#W"/><use transform="matrix(0.04320987654320987,0,0,0.04320987654320987,60.4074074074074,0)" xlink:href="#T"/><use transform="matrix(0.04320987654320987,0,0,0.04320987654320987,69.04938271604937,0)" xlink:href="#ad"/></g><path fill="#333" d="M115-194c55 1 70 41 70 98S169 2 115 4C84 4 66-9 55-30l1 105H24l-1-265h31l2 30c10-21 28-34 59-34zm-8 174c40 0 45-34 45-75s-6-73-45-74c-42 0-51 32-51 76 0 43 10 73 51 73" id="am"/><path fill="#333" d="M206 0h-36l-40-164L89 0H53L-1-190h32L70-26l43-164h34l41 164 42-164h31" id="an"/><g id="e"><use transform="matrix(0.04320987654320987,0,0,0.04320987654320987,0,0)" xlink:href="#am"/><use transform="matrix(0.04320987654320987,0,0,0.04320987654320987,8.641975308641973,0)" xlink:href="#ac"/><use transform="matrix(0.04320987654320987,0,0,0.04320987654320987,17.283950617283946,0)" xlink:href="#S"/><use transform="matrix(0.04320987654320987,0,0,0.04320987654320987,25.061728395061724,0)" xlink:href="#S"/><use transform="matrix(0.04320987654320987,0,0,0.04320987654320987,32.8395061728395,0)" xlink:href="#an"/><use transform="matrix(0.04320987654320987,0,0,0.04320987654320987,44.03086419753085,0)" xlink:href="#ag"/><use transform="matrix(0.04320987654320987,0,0,0.04320987654320987,52.67283950617283,0)" xlink:href="#aa"/><use transform="matrix(0.04320987654320987,0,0,0.04320987654320987,57.8148148148148,0)" xlink:href="#af"/></g><path fill="#c92d39" d="M30 0v-248h187v28H63v79h144v27H63v87h162V0H30" id="ao"/><path fill="#c92d39" d="M114-163C36-179 61-72 57 0H25l-1-190h30c1 12-1 29 2 39 6-27 23-49 58-41v29" id="ap"/><path fill="#c92d39" d="M100-194c62-1 85 37 85 99 1 63-27 99-86 99S16-35 15-95c0-66 28-99 85-99zM99-20c44 1 53-31 53-75 0-43-8-75-51-75s-53 32-53 75 10 74 51 75" id="aq"/><g id="f"><use transform="matrix(0.024691358024691343,0,0,0.024691358024691343,0,0)" xlink:href="#ao"/><use transform="matrix(0.024691358024691343,0,0,0.024691358024691343,5.925925925925922,0)" xlink:href="#ap"/><use transform="matrix(0.024691358024691343,0,0,0.024691358024691343,8.864197530864192,0)" xlink:href="#ap"/><use transform="matrix(0.024691358024691343,0,0,0.024691358024691343,11.802469135802463,0)" xlink:href="#aq"/><use transform="matrix(0.024691358024691343,0,0,0.024691358024691343,16.740740740740733,0)" xlink:href="#ap"/></g><path fill="#c92d39" d="M240 0l2-218c-23 76-54 145-80 218h-23L58-218 59 0H30v-248h44l77 211c21-75 51-140 76-211h43V0h-30" id="ar"/><path fill="#c92d39" d="M135-143c-3-34-86-38-87 0 15 53 115 12 119 90S17 21 10-45l28-5c4 36 97 45 98 0-10-56-113-15-118-90-4-57 82-63 122-42 12 7 21 19 24 35" id="as"/><path fill="#c92d39" d="M177-190C167-65 218 103 67 71c-23-6-38-20-44-43l32-5c15 47 100 32 89-28v-30C133-14 115 1 83 1 29 1 15-40 15-95c0-56 16-97 71-98 29-1 48 16 59 35 1-10 0-23 2-32h30zM94-22c36 0 50-32 50-73 0-42-14-75-50-75-39 0-46 34-46 75s6 73 46 73" id="at"/><g id="g"><use transform="matrix(0.024691358024691343,0,0,0.024691358024691343,0,0)" xlink:href="#ar"/><use transform="matrix(0.024691358024691343,0,0,0.024691358024691343,7.3827160493827115,0)" xlink:href="#as"/><use transform="matrix(0.024691358024691343,0,0,0.024691358024691343,11.827160493827154,0)" xlink:href="#at"/></g><path fill="#333" d="M26 75v-336h71v23H56V52h41v23H26" id="au"/><path fill="#333" d="M24-231v-30h32v30H24zM24 0v-190h32V0H24" id="av"/><path fill="#333" d="M24 0v-261h32V0H24" id="aw"/><g id="h"><use transform="matrix(0.02469135802469134,0,0,0.02469135802469134,0,0)" xlink:href="#au"/><use transform="matrix(0.02469135802469134,0,0,0.02469135802469134,2.469135802469134,0)" xlink:href="#T"/><use transform="matrix(0.02469135802469134,0,0,0.02469135802469134,7.407407407407402,0)" xlink:href="#W"/><use transform="matrix(0.02469135802469134,0,0,0.02469135802469134,14.790123456790113,0)" xlink:href="#ac"/><use transform="matrix(0.02469135802469134,0,0,0.02469135802469134,19.72839506172838,0)" xlink:href="#av"/><use transform="matrix(0.02469135802469134,0,0,0.02469135802469134,21.679012345679,0)" xlink:href="#aw"/></g><path fill="#333" d="M32 76v-337h29V76H32" id="ax"/><g id="i"><use transform="matrix(0.02469135802469134,0,0,0.02469135802469134,0,0)" xlink:href="#ax"/><use transform="matrix(0.02469135802469134,0,0,0.02469135802469134,2.2962962962962945,0)" xlink:href="#ax"/></g><path fill="#333" d="M3 75V52h41v-290H3v-23h71V75H3" id="ay"/><g id="j"><use transform="matrix(0.02469135802469134,0,0,0.02469135802469134,0,0)" xlink:href="#am"/><use transform="matrix(0.02469135802469134,0,0,0.02469135802469134,4.938271604938268,0)" xlink:href="#ac"/><use transform="matrix(0.02469135802469134,0,0,0.02469135802469134,9.876543209876536,0)" xlink:href="#S"/><use transform="matrix(0.02469135802469134,0,0,0.02469135802469134,14.320987654320977,0)" xlink:href="#S"/><use transform="matrix(0.02469135802469134,0,0,0.02469135802469134,18.765432098765416,0)" xlink:href="#an"/><use transform="matrix(0.02469135802469134,0,0,0.02469135802469134,25.160493827160472,0)" xlink:href="#ag"/><use transform="matrix(0.02469135802469134,0,0,0.02469135802469134,30.09876543209874,0)" xlink:href="#aa"/><use transform="matrix(0.02469135802469134,0,0,0.02469135802469134,33.03703703703701,0)" xlink:href="#af"/><use transform="matrix(0.02469135802469134,0,0,0.02469135802469134,37.975308641975275,0)" xlink:href="#ay"/></g><path fill="#333" d="M18-150v-26h174v26H18zm0 90v-26h174v26H18" id="az"/><g id="k"><use transform="matrix(0.02469135802469134,0,0,0.02469135802469134,0,0)" xlink:href="#az"/><use transform="matrix(0.02469135802469134,0,0,0.02469135802469134,5.185185185185182,0)" xlink:href="#az"/></g><g id="l"><use transform="matrix(0.02469135802469134,0,0,0.02469135802469134,0,0)" xlink:href="#ab"/><use transform="matrix(0.02469135802469134,0,0,0.02469135802469134,4.938271604938268,0)" xlink:href="#Z"/><use transform="matrix(0.02469135802469134,0,0,0.02469135802469134,9.876543209876536,0)" xlink:href="#aw"/><use transform="matrix(0.02469135802469134,0,0,0.02469135802469134,11.82716049382715,0)" xlink:href="#aw"/></g><path fill="#c92d39" d="M100-194c63 0 86 42 84 106H49c0 40 14 67 53 68 26 1 43-12 49-29l28 8c-11 28-37 45-77 45C44 4 14-33 15-96c1-61 26-98 85-98zm52 81c6-60-76-77-97-28-3 7-6 17-6 28h103" id="aA"/><g id="m"><use transform="matrix(0.02469135802469134,0,0,0.02469135802469134,0,0)" xlink:href="#aA"/><use transform="matrix(0.02469135802469134,0,0,0.02469135802469134,4.938271604938268,0)" xlink:href="#ap"/><use transform="matrix(0.02469135802469134,0,0,0.02469135802469134,7.876543209876537,0)" xlink:href="#ap"/><use transform="matrix(0.02469135802469134,0,0,0.02469135802469134,10.814814814814806,0)" xlink:href="#aq"/><use transform="matrix(0.02469135802469134,0,0,0.02469135802469134,15.753086419753075,0)" xlink:href="#ap"/></g><path fill="#c92d39" d="M155-56V0h-30v-56H8v-25l114-167h33v167h35v25h-35zm-30-156c-27 46-58 90-88 131h88v-131" id="aB"/><path fill="#c92d39" d="M101-251c68 0 85 55 85 127S166 4 100 4C33 4 14-52 14-124c0-73 17-127 87-127zm-1 229c47 0 54-49 54-102s-4-102-53-102c-51 0-55 48-55 102 0 53 5 102 54 102" id="aC"/><g id="n"><use transform="matrix(0.02469135802469134,0,0,0.02469135802469134,0,0)" xlink:href="#aB"/><use transform="matrix(0.02469135802469134,0,0,0.02469135802469134,4.938271604938268,0)" xlink:href="#aC"/><use transform="matrix(0.02469135802469134,0,0,0.02469135802469134,9.876543209876536,0)" xlink:href="#aC"/></g><path fill="#ef8d22" d="M30 0v-248h33v221h125V0H30" id="aD"/><path fill="#ef8d22" d="M100-194c62-1 85 37 85 99 1 63-27 99-86 99S16-35 15-95c0-66 28-99 85-99zM99-20c44 1 53-31 53-75 0-43-8-75-51-75s-53 32-53 75 10 74 51 75" id="aE"/><path fill="#ef8d22" d="M177-190C167-65 218 103 67 71c-23-6-38-20-44-43l32-5c15 47 100 32 89-28v-30C133-14 115 1 83 1 29 1 15-40 15-95c0-56 16-97 71-98 29-1 48 16 59 35 1-10 0-23 2-32h30zM94-22c36 0 50-32 50-73 0-42-14-75-50-75-39 0-46 34-46 75s6 73 46 73" id="aF"/><path fill="#ef8d22" d="M24-231v-30h32v30H24zM24 0v-190h32V0H24" id="aG"/><path fill="#ef8d22" d="M117-194c89-4 53 116 60 194h-32v-121c0-31-8-49-39-48C34-167 62-67 57 0H25l-1-190h30c1 10-1 24 2 32 11-22 29-35 61-36" id="aH"/><path fill="#ef8d22" d="M30-248c87 1 191-15 191 75 0 78-77 80-158 76V0H30v-248zm33 125c57 0 124 11 124-50 0-59-68-47-124-48v98" id="aI"/><path fill="#ef8d22" d="M141-36C126-15 110 5 73 4 37 3 15-17 15-53c-1-64 63-63 125-63 3-35-9-54-41-54-24 1-41 7-42 31l-33-3c5-37 33-52 76-52 45 0 72 20 72 64v82c-1 20 7 32 28 27v20c-31 9-61-2-59-35zM48-53c0 20 12 33 32 33 41-3 63-29 60-74-43 2-92-5-92 41" id="aJ"/><path fill="#ef8d22" d="M100-194c63 0 86 42 84 106H49c0 40 14 67 53 68 26 1 43-12 49-29l28 8c-11 28-37 45-77 45C44 4 14-33 15-96c1-61 26-98 85-98zm52 81c6-60-76-77-97-28-3 7-6 17-6 28h103" id="aK"/><path fill="#ef8d22" d="M240 0l2-218c-23 76-54 145-80 218h-23L58-218 59 0H30v-248h44l77 211c21-75 51-140 76-211h43V0h-30" id="aL"/><path fill="#ef8d22" d="M114-163C36-179 61-72 57 0H25l-1-190h30c1 12-1 29 2 39 6-27 23-49 58-41v29" id="aM"/><path fill="#ef8d22" d="M33 0v-38h34V0H33" id="aN"/><path fill="#ef8d22" d="M24-231v-30h32v30H24zM-9 49c24 4 33-6 33-30v-209h32V24c2 40-23 58-65 49V49" id="aO"/><path fill="#ef8d22" d="M135-143c-3-34-86-38-87 0 15 53 115 12 119 90S17 21 10-45l28-5c4 36 97 45 98 0-10-56-113-15-118-90-4-57 82-63 122-42 12 7 21 19 24 35" id="aP"/><g id="o"><use transform="matrix(0.04320987654320987,0,0,0.04320987654320987,0,0)" xlink:href="#aD"/><use transform="matrix(0.04320987654320987,0,0,0.04320987654320987,8.641975308641973,0)" xlink:href="#aE"/><use transform="matrix(0.04320987654320987,0,0,0.04320987654320987,17.283950617283946,0)" xlink:href="#aF"/><use transform="matrix(0.04320987654320987,0,0,0.04320987654320987,25.925925925925917,0)" xlink:href="#aG"/><use transform="matrix(0.04320987654320987,0,0,0.04320987654320987,29.339506172839496,0)" xlink:href="#aH"/><use transform="matrix(0.04320987654320987,0,0,0.04320987654320987,37.98148148148147,0)" xlink:href="#aI"/><use transform="matrix(0.04320987654320987,0,0,0.04320987654320987,48.35185185185183,0)" xlink:href="#aJ"/><use transform="matrix(0.04320987654320987,0,0,0.04320987654320987,56.99382716049381,0)" xlink:href="#aF"/><use transform="matrix(0.04320987654320987,0,0,0.04320987654320987,65.63580246913578,0)" xlink:href="#aK"/><use transform="matrix(0.04320987654320987,0,0,0.04320987654320987,74.27777777777776,0)" xlink:href="#aL"/><use transform="matrix(0.04320987654320987,0,0,0.04320987654320987,87.1975308641975,0)" xlink:href="#aJ"/><use transform="matrix(0.04320987654320987,0,0,0.04320987654320987,95.83950617283949,0)" xlink:href="#aH"/><use transform="matrix(0.04320987654320987,0,0,0.04320987654320987,104.48148148148145,0)" xlink:href="#aJ"/><use transform="matrix(0.04320987654320987,0,0,0.04320987654320987,113.12345679012343,0)" xlink:href="#aF"/><use transform="matrix(0.04320987654320987,0,0,0.04320987654320987,121.7654320987654,0)" xlink:href="#aK"/><use transform="matrix(0.04320987654320987,0,0,0.04320987654320987,130.40740740740736,0)" xlink:href="#aM"/><use transform="matrix(0.04320987654320987,0,0,0.04320987654320987,134.68518518518513,0)" xlink:href="#aN"/><use transform="matrix(0.04320987654320987,0,0,0.04320987654320987,139.00617283950612,0)" xlink:href="#aO"/><use transform="matrix(0.04320987654320987,0,0,0.04320987654320987,142.4197530864197,0)" xlink:href="#aP"/></g><g id="p"><use transform="matrix(0.04320987654320987,0,0,0.04320987654320987,0,0)" xlink:href="#Z"/><use transform="matrix(0.04320987654320987,0,0,0.04320987654320987,8.641975308641973,0)" xlink:href="#S"/><use transform="matrix(0.04320987654320987,0,0,0.04320987654320987,16.41975308641975,0)" xlink:href="#T"/><use transform="matrix(0.04320987654320987,0,0,0.04320987654320987,25.061728395061724,0)" xlink:href="#aa"/></g><g id="q"><use transform="matrix(0.04320987654320987,0,0,0.04320987654320987,0,0)" xlink:href="#ax"/><use transform="matrix(0.04320987654320987,0,0,0.04320987654320987,4.018518518518517,0)" xlink:href="#ax"/></g><g id="r"><use transform="matrix(0.04320987654320987,0,0,0.04320987654320987,0,0)" xlink:href="#ab"/><use transform="matrix(0.04320987654320987,0,0,0.04320987654320987,8.641975308641973,0)" xlink:href="#Z"/><use transform="matrix(0.04320987654320987,0,0,0.04320987654320987,17.283950617283946,0)" xlink:href="#aw"/><use transform="matrix(0.04320987654320987,0,0,0.04320987654320987,20.697530864197525,0)" xlink:href="#aw"/></g><path fill="#333" d="M33 0v-38h34V0H33" id="aQ"/><path fill="#333" d="M96-169c-40 0-48 33-48 73s9 75 48 75c24 0 41-14 43-38l32 2c-6 37-31 61-74 61-59 0-76-41-82-99-10-93 101-131 147-64 4 7 5 14 7 22l-32 3c-4-21-16-35-41-35" id="aR"/><g id="s"><use transform="matrix(0.04320987654320987,0,0,0.04320987654320987,0,0)" xlink:href="#au"/><use transform="matrix(0.04320987654320987,0,0,0.04320987654320987,4.320987654320986,0)" xlink:href="#an"/><use transform="matrix(0.04320987654320987,0,0,0.04320987654320987,15.512345679012343,0)" xlink:href="#av"/><use transform="matrix(0.04320987654320987,0,0,0.04320987654320987,18.92592592592592,0)" xlink:href="#ab"/><use transform="matrix(0.04320987654320987,0,0,0.04320987654320987,27.56790123456789,0)" xlink:href="#af"/><use transform="matrix(0.04320987654320987,0,0,0.04320987654320987,36.209876543209866,0)" xlink:href="#ag"/><use transform="matrix(0.04320987654320987,0,0,0.04320987654320987,44.85185185185184,0)" xlink:href="#an"/><use transform="matrix(0.04320987654320987,0,0,0.04320987654320987,55.179012345679,0)" xlink:href="#aQ"/><use transform="matrix(0.04320987654320987,0,0,0.04320987654320987,59.499999999999986,0)" xlink:href="#aw"/><use transform="matrix(0.04320987654320987,0,0,0.04320987654320987,62.91358024691357,0)" xlink:href="#ag"/><use transform="matrix(0.04320987654320987,0,0,0.04320987654320987,71.55555555555554,0)" xlink:href="#aR"/><use transform="matrix(0.04320987654320987,0,0,0.04320987654320987,79.33333333333331,0)" xlink:href="#ac"/><use transform="matrix(0.04320987654320987,0,0,0.04320987654320987,87.97530864197529,0)" xlink:href="#U"/><use transform="matrix(0.04320987654320987,0,0,0.04320987654320987,92.29629629629628,0)" xlink:href="#av"/><use transform="matrix(0.04320987654320987,0,0,0.04320987654320987,95.70987654320986,0)" xlink:href="#ag"/><use transform="matrix(0.04320987654320987,0,0,0.04320987654320987,104.35185185185183,0)" xlink:href="#ab"/></g><use transform="matrix(0.04320987654320987,0,0,0.04320987654320987,0,0)" xlink:href="#az" id="t"/><path fill="#333" d="M106-169C34-169 62-67 57 0H25v-261h32l-1 103c12-21 28-36 61-36 89 0 53 116 60 194h-32v-121c2-32-8-49-39-48" id="aS"/><g id="u"><use transform="matrix(0.04320987654320987,0,0,0.04320987654320987,0,0)" xlink:href="#aS"/><use transform="matrix(0.04320987654320987,0,0,0.04320987654320987,8.641975308641973,0)" xlink:href="#ag"/><use transform="matrix(0.04320987654320987,0,0,0.04320987654320987,17.283950617283946,0)" xlink:href="#W"/><use transform="matrix(0.04320987654320987,0,0,0.04320987654320987,30.2037037037037,0)" xlink:href="#T"/><use transform="matrix(0.04320987654320987,0,0,0.04320987654320987,38.84567901234567,0)" xlink:href="#aQ"/><use transform="matrix(0.04320987654320987,0,0,0.04320987654320987,43.16666666666666,0)" xlink:href="#aS"/><use transform="matrix(0.04320987654320987,0,0,0.04320987654320987,51.80864197530863,0)" xlink:href="#U"/><use transform="matrix(0.04320987654320987,0,0,0.04320987654320987,56.12962962962962,0)" xlink:href="#W"/><use transform="matrix(0.04320987654320987,0,0,0.04320987654320987,69.04938271604937,0)" xlink:href="#aw"/><use transform="matrix(0.04320987654320987,0,0,0.04320987654320987,72.46296296296295,0)" xlink:href="#ay"/></g><path fill="#333" d="M143 0L79-87 56-68V0H24v-261h32v163l83-92h37l-77 82L181 0h-38" id="aT"/><path fill="#333" d="M232-93c-1 65-40 97-104 97C67 4 28-28 28-90v-158h33c8 89-33 224 67 224 102 0 64-133 71-224h33v155" id="aU"/><path fill="#333" d="M30 0v-248h33v221h125V0H30" id="aV"/><path fill="#333" d="M177-190C167-65 218 103 67 71c-23-6-38-20-44-43l32-5c15 47 100 32 89-28v-30C133-14 115 1 83 1 29 1 15-40 15-95c0-56 16-97 71-98 29-1 48 16 59 35 1-10 0-23 2-32h30zM94-22c36 0 50-32 50-73 0-42-14-75-50-75-39 0-46 34-46 75s6 73 46 73" id="aW"/><g id="v"><use transform="matrix(0.04320987654320987,0,0,0.04320987654320987,0,0)" xlink:href="#aR"/><use transform="matrix(0.04320987654320987,0,0,0.04320987654320987,7.777777777777776,0)" xlink:href="#aS"/><use transform="matrix(0.04320987654320987,0,0,0.04320987654320987,16.41975308641975,0)" xlink:href="#T"/><use transform="matrix(0.04320987654320987,0,0,0.04320987654320987,25.061728395061724,0)" xlink:href="#aR"/><use transform="matrix(0.04320987654320987,0,0,0.04320987654320987,32.8395061728395,0)" xlink:href="#aT"/><use transform="matrix(0.04320987654320987,0,0,0.04320987654320987,40.61728395061728,0)" xlink:href="#aU"/><use transform="matrix(0.04320987654320987,0,0,0.04320987654320987,51.80864197530863,0)" xlink:href="#S"/><use transform="matrix(0.04320987654320987,0,0,0.04320987654320987,59.58641975308641,0)" xlink:href="#T"/><use transform="matrix(0.04320987654320987,0,0,0.04320987654320987,68.22839506172838,0)" xlink:href="#aa"/><use transform="matrix(0.04320987654320987,0,0,0.04320987654320987,73.37037037037035,0)" xlink:href="#aV"/><use transform="matrix(0.04320987654320987,0,0,0.04320987654320987,82.01234567901233,0)" xlink:href="#ag"/><use transform="matrix(0.04320987654320987,0,0,0.04320987654320987,90.6543209876543,0)" xlink:href="#aW"/><use transform="matrix(0.04320987654320987,0,0,0.04320987654320987,99.29629629629628,0)" xlink:href="#av"/><use transform="matrix(0.04320987654320987,0,0,0.04320987654320987,102.70987654320986,0)" xlink:href="#ab"/></g><g id="w"><use transform="matrix(0.04320987654320987,0,0,0.04320987654320987,0,0)" xlink:href="#X"/><use transform="matrix(0.04320987654320987,0,0,0.04320987654320987,5.141975308641975,0)" xlink:href="#T"/><use transform="matrix(0.04320987654320987,0,0,0.04320987654320987,13.783950617283947,0)" xlink:href="#W"/><use transform="matrix(0.04320987654320987,0,0,0.04320987654320987,26.70370370370369,0)" xlink:href="#ac"/><use transform="matrix(0.04320987654320987,0,0,0.04320987654320987,35.34567901234567,0)" xlink:href="#av"/><use transform="matrix(0.04320987654320987,0,0,0.04320987654320987,38.75925925925925,0)" xlink:href="#aw"/><use transform="matrix(0.04320987654320987,0,0,0.04320987654320987,42.172839506172835,0)" xlink:href="#ad"/><use transform="matrix(0.04320987654320987,0,0,0.04320987654320987,46.49382716049383,0)" xlink:href="#am"/><use transform="matrix(0.04320987654320987,0,0,0.04320987654320987,55.1358024691358,0)" xlink:href="#S"/><use transform="matrix(0.04320987654320987,0,0,0.04320987654320987,62.913580246913575,0)" xlink:href="#an"/><use transform="matrix(0.06172839506172839,0,0,0.06172839506172839,74.10493827160494,0)" xlink:href="#ae"/></g><path fill="#333" d="M141 0L90-78 38 0H4l68-98-65-92h35l48 74 47-74h35l-64 92 68 98h-35" id="aX"/><g id="x"><use transform="matrix(0.06172839506172839,0,0,0.06172839506172839,0,0)" xlink:href="#av"/><use transform="matrix(0.06172839506172839,0,0,0.06172839506172839,4.876543209876543,0)" xlink:href="#ab"/><use transform="matrix(0.06172839506172839,0,0,0.06172839506172839,17.22222222222222,0)" xlink:href="#af"/><use transform="matrix(0.06172839506172839,0,0,0.06172839506172839,29.5679012345679,0)" xlink:href="#T"/><use transform="matrix(0.06172839506172839,0,0,0.06172839506172839,41.913580246913575,0)" xlink:href="#aX"/><use transform="matrix(0.06172839506172839,0,0,0.06172839506172839,53.02469135802468,0)" xlink:href="#aQ"/><use transform="matrix(0.06172839506172839,0,0,0.06172839506172839,59.197530864197525,0)" xlink:href="#aS"/><use transform="matrix(0.06172839506172839,0,0,0.06172839506172839,71.5432098765432,0)" xlink:href="#U"/><use transform="matrix(0.06172839506172839,0,0,0.06172839506172839,77.71604938271604,0)" xlink:href="#W"/><use transform="matrix(0.06172839506172839,0,0,0.06172839506172839,96.17283950617282,0)" xlink:href="#aw"/></g><path fill="#333" d="M30-248c118-7 216 8 213 122C240-48 200 0 122 0H30v-248zM63-27c89 8 146-16 146-99s-60-101-146-95v194" id="aY"/><g id="y"><use transform="matrix(0.06172839506172839,0,0,0.06172839506172839,0,0)" xlink:href="#aU"/><use transform="matrix(0.06172839506172839,0,0,0.06172839506172839,15.987654320987653,0)" xlink:href="#S"/><use transform="matrix(0.06172839506172839,0,0,0.06172839506172839,27.098765432098766,0)" xlink:href="#T"/><use transform="matrix(0.06172839506172839,0,0,0.06172839506172839,39.44444444444444,0)" xlink:href="#aa"/><use transform="matrix(0.06172839506172839,0,0,0.06172839506172839,46.79012345679012,0)" xlink:href="#aY"/><use transform="matrix(0.06172839506172839,0,0,0.06172839506172839,62.77777777777777,0)" xlink:href="#ac"/><use transform="matrix(0.06172839506172839,0,0,0.06172839506172839,75.12345679012346,0)" xlink:href="#ag"/></g><g id="z"><use transform="matrix(0.06172839506172839,0,0,0.06172839506172839,0,0)" xlink:href="#aj"/><use transform="matrix(0.06172839506172839,0,0,0.06172839506172839,14.814814814814813,0)" xlink:href="#T"/><use transform="matrix(0.06172839506172839,0,0,0.06172839506172839,27.160493827160494,0)" xlink:href="#S"/><use transform="matrix(0.06172839506172839,0,0,0.06172839506172839,38.27160493827161,0)" xlink:href="#S"/><use transform="matrix(0.06172839506172839,0,0,0.06172839506172839,49.38271604938272,0)" xlink:href="#av"/><use transform="matrix(0.06172839506172839,0,0,0.06172839506172839,54.25925925925927,0)" xlink:href="#ag"/><use transform="matrix(0.06172839506172839,0,0,0.06172839506172839,66.60493827160495,0)" xlink:href="#ab"/></g><g id="A"><use transform="matrix(0.06172839506172839,0,0,0.06172839506172839,0,0)" xlink:href="#aj"/><use transform="matrix(0.06172839506172839,0,0,0.06172839506172839,14.814814814814813,0)" xlink:href="#T"/><use transform="matrix(0.06172839506172839,0,0,0.06172839506172839,27.160493827160494,0)" xlink:href="#S"/><use transform="matrix(0.06172839506172839,0,0,0.06172839506172839,38.27160493827161,0)" xlink:href="#S"/><use transform="matrix(0.06172839506172839,0,0,0.06172839506172839,49.38271604938272,0)" xlink:href="#av"/><use transform="matrix(0.06172839506172839,0,0,0.06172839506172839,54.25925925925927,0)" xlink:href="#ag"/><use transform="matrix(0.06172839506172839,0,0,0.06172839506172839,66.60493827160495,0)" xlink:href="#ab"/><use transform="matrix(0.06172839506172839,0,0,0.06172839506172839,78.95061728395063,0)" xlink:href="#aj"/><use transform="matrix(0.06172839506172839,0,0,0.06172839506172839,93.76543209876544,0)" xlink:href="#U"/><use transform="matrix(0.06172839506172839,0,0,0.06172839506172839,99.93827160493828,0)" xlink:href="#ag"/><use transform="matrix(0.06172839506172839,0,0,0.06172839506172839,112.28395061728396,0)" xlink:href="#aa"/><use transform="matrix(0.06172839506172839,0,0,0.06172839506172839,119.62962962962965,0)" xlink:href="#ac"/><use transform="matrix(0.06172839506172839,0,0,0.06172839506172839,131.97530864197532,0)" xlink:href="#aW"/><use transform="matrix(0.06172839506172839,0,0,0.06172839506172839,144.320987654321,0)" xlink:href="#T"/></g><path fill="#333" d="M212-179c-10-28-35-45-73-45-59 0-87 40-87 99 0 60 29 101 89 101 43 0 62-24 78-52l27 14C228-24 195 4 139 4 59 4 22-46 18-125c-6-104 99-153 187-111 19 9 31 26 39 46" id="aZ"/><g id="B"><use transform="matrix(0.06172839506172839,0,0,0.06172839506172839,0,0)" xlink:href="#aZ"/><use transform="matrix(0.06172839506172839,0,0,0.06172839506172839,15.987654320987653,0)" xlink:href="#aS"/><use transform="matrix(0.06172839506172839,0,0,0.06172839506172839,28.333333333333332,0)" xlink:href="#T"/><use transform="matrix(0.06172839506172839,0,0,0.06172839506172839,40.67901234567901,0)" xlink:href="#aR"/><use transform="matrix(0.06172839506172839,0,0,0.06172839506172839,51.79012345679013,0)" xlink:href="#aT"/><use transform="matrix(0.06172839506172839,0,0,0.06172839506172839,62.90123456790124,0)" xlink:href="#aV"/><use transform="matrix(0.06172839506172839,0,0,0.06172839506172839,75.24691358024693,0)" xlink:href="#ag"/><use transform="matrix(0.06172839506172839,0,0,0.06172839506172839,87.59259259259261,0)" xlink:href="#aW"/><use transform="matrix(0.06172839506172839,0,0,0.06172839506172839,99.9382716049383,0)" xlink:href="#av"/><use transform="matrix(0.06172839506172839,0,0,0.06172839506172839,104.81481481481484,0)" xlink:href="#ab"/><use transform="matrix(0.06172839506172839,0,0,0.06172839506172839,117.16049382716052,0)" xlink:href="#aY"/><use transform="matrix(0.06172839506172839,0,0,0.06172839506172839,133.14814814814818,0)" xlink:href="#ac"/><use transform="matrix(0.06172839506172839,0,0,0.06172839506172839,145.49382716049385,0)" xlink:href="#U"/><use transform="matrix(0.06172839506172839,0,0,0.06172839506172839,151.66666666666669,0)" xlink:href="#ac"/></g><g id="C"><use transform="matrix(0.02469135802469134,0,0,0.02469135802469134,0,0)" xlink:href="#au"/><use transform="matrix(0.02469135802469134,0,0,0.02469135802469134,2.469135802469134,0)" xlink:href="#Z"/><use transform="matrix(0.02469135802469134,0,0,0.02469135802469134,7.407407407407402,0)" xlink:href="#S"/><use transform="matrix(0.02469135802469134,0,0,0.02469135802469134,11.851851851851842,0)" xlink:href="#T"/><use transform="matrix(0.02469135802469134,0,0,0.02469135802469134,16.79012345679011,0)" xlink:href="#aa"/></g><g id="D"><use transform="matrix(0.02469135802469134,0,0,0.02469135802469134,0,0)" xlink:href="#ab"/><use transform="matrix(0.02469135802469134,0,0,0.02469135802469134,4.938271604938268,0)" xlink:href="#Z"/><use transform="matrix(0.02469135802469134,0,0,0.02469135802469134,9.876543209876536,0)" xlink:href="#aw"/><use transform="matrix(0.02469135802469134,0,0,0.02469135802469134,11.82716049382715,0)" xlink:href="#aw"/><use transform="matrix(0.02469135802469134,0,0,0.02469135802469134,13.777777777777768,0)" xlink:href="#ay"/></g><g id="E"><use transform="matrix(0.02469135802469134,0,0,0.02469135802469134,0,0)" xlink:href="#aA"/><use transform="matrix(0.02469135802469134,0,0,0.02469135802469134,4.938271604938268,0)" xlink:href="#ap"/><use transform="matrix(0.02469135802469134,0,0,0.02469135802469134,7.876543209876537,0)" xlink:href="#ap"/><use transform="matrix(0.02469135802469134,0,0,0.02469135802469134,10.814814814814806,0)" xlink:href="#aq"/><use transform="matrix(0.02469135802469134,0,0,0.02469135802469134,15.753086419753075,0)" xlink:href="#ap"/></g><path fill="#c92d39" d="M27 0v-27h64v-190l-56 39v-29l58-41h29v221h61V0H27" id="ba"/><g id="F"><use transform="matrix(0.02469135802469134,0,0,0.02469135802469134,0,0)" xlink:href="#aB"/><use transform="matrix(0.02469135802469134,0,0,0.02469135802469134,4.938271604938268,0)" xlink:href="#aC"/><use transform="matrix(0.02469135802469134,0,0,0.02469135802469134,9.876543209876536,0)" xlink:href="#ba"/></g><path fill="#333" d="M63-70H37l-4-178h34zM33 0v-35h34V0H33" id="bb"/><g id="H"><use transform="matrix(0.02469135802469134,0,0,0.02469135802469134,0,0)" xlink:href="#bb"/><use transform="matrix(0.02469135802469134,0,0,0.02469135802469134,2.469135802469134,0)" xlink:href="#az"/></g><g id="I"><use transform="matrix(0.02469135802469134,0,0,0.02469135802469134,0,0)" xlink:href="#ab"/><use transform="matrix(0.02469135802469134,0,0,0.02469135802469134,4.938271604938268,0)" xlink:href="#Z"/><use transform="matrix(0.02469135802469134,0,0,0.02469135802469134,9.876543209876536,0)" xlink:href="#aw"/><use transform="matrix(0.02469135802469134,0,0,0.02469135802469134,11.82716049382715,0)" xlink:href="#aw"/><use transform="matrix(0.02469135802469134,0,0,0.02469135802469134,13.777777777777768,0)" xlink:href="#ay"/></g><path fill="#19967d" d="M135-143c-3-34-86-38-87 0 15 53 115 12 119 90S17 21 10-45l28-5c4 36 97 45 98 0-10-56-113-15-118-90-4-57 82-63 122-42 12 7 21 19 24 35" id="bc"/><path fill="#19967d" d="M59-47c-2 24 18 29 38 22v24C64 9 27 4 27-40v-127H5v-23h24l9-43h21v43h35v23H59v120" id="bd"/><path fill="#19967d" d="M141-36C126-15 110 5 73 4 37 3 15-17 15-53c-1-64 63-63 125-63 3-35-9-54-41-54-24 1-41 7-42 31l-33-3c5-37 33-52 76-52 45 0 72 20 72 64v82c-1 20 7 32 28 27v20c-31 9-61-2-59-35zM48-53c0 20 12 33 32 33 41-3 63-29 60-74-43 2-92-5-92 41" id="be"/><path fill="#19967d" d="M84 4C-5 8 30-112 23-190h32v120c0 31 7 50 39 49 72-2 45-101 50-169h31l1 190h-30c-1-10 1-25-2-33-11 22-28 36-60 37" id="bf"/><g id="J"><use transform="matrix(0.02469135802469134,0,0,0.02469135802469134,0,0)" xlink:href="#bc"/><use transform="matrix(0.02469135802469134,0,0,0.02469135802469134,4.444444444444441,0)" xlink:href="#bd"/><use transform="matrix(0.02469135802469134,0,0,0.02469135802469134,6.913580246913575,0)" xlink:href="#be"/><use transform="matrix(0.02469135802469134,0,0,0.02469135802469134,11.851851851851844,0)" xlink:href="#bd"/><use transform="matrix(0.02469135802469134,0,0,0.02469135802469134,14.32098765432098,0)" xlink:href="#bf"/><use transform="matrix(0.02469135802469134,0,0,0.02469135802469134,19.259259259259245,0)" xlink:href="#bc"/></g><path fill="#19967d" d="M101-251c82-7 93 87 43 132L82-64C71-53 59-42 53-27h129V0H18c2-99 128-94 128-182 0-28-16-43-45-43s-46 15-49 41l-32-3c6-41 34-60 81-64" id="bg"/><path fill="#19967d" d="M101-251c68 0 85 55 85 127S166 4 100 4C33 4 14-52 14-124c0-73 17-127 87-127zm-1 229c47 0 54-49 54-102s-4-102-53-102c-51 0-55 48-55 102 0 53 5 102 54 102" id="bh"/><g id="K"><use transform="matrix(0.02469135802469134,0,0,0.02469135802469134,0,0)" xlink:href="#bg"/><use transform="matrix(0.02469135802469134,0,0,0.02469135802469134,4.938271604938268,0)" xlink:href="#bh"/><use transform="matrix(0.02469135802469134,0,0,0.02469135802469134,9.876543209876536,0)" xlink:href="#bh"/></g><path fill="#19967d" d="M185-189c-5-48-123-54-124 2 14 75 158 14 163 119 3 78-121 87-175 55-17-10-28-26-33-46l33-7c5 56 141 63 141-1 0-78-155-14-162-118-5-82 145-84 179-34 5 7 8 16 11 25" id="bi"/><path fill="#19967d" d="M100-194c63 0 86 42 84 106H49c0 40 14 67 53 68 26 1 43-12 49-29l28 8c-11 28-37 45-77 45C44 4 14-33 15-96c1-61 26-98 85-98zm52 81c6-60-76-77-97-28-3 7-6 17-6 28h103" id="bj"/><g id="M"><use transform="matrix(0.024691358024691343,0,0,0.024691358024691343,0,0)" xlink:href="#bi"/><use transform="matrix(0.024691358024691343,0,0,0.024691358024691343,5.925925925925922,0)" xlink:href="#bj"/><use transform="matrix(0.024691358024691343,0,0,0.024691358024691343,10.86419753086419,0)" xlink:href="#bd"/></g><path fill="#19967d" d="M232-93c-1 65-40 97-104 97C67 4 28-28 28-90v-158h33c8 89-33 224 67 224 102 0 64-133 71-224h33v155" id="bk"/><path fill="#19967d" d="M114-163C36-179 61-72 57 0H25l-1-190h30c1 12-1 29 2 39 6-27 23-49 58-41v29" id="bl"/><path fill="#19967d" d="M117-194c89-4 53 116 60 194h-32v-121c0-31-8-49-39-48C34-167 62-67 57 0H25l-1-190h30c1 10-1 24 2 32 11-22 29-35 61-36" id="bm"/><path fill="#19967d" d="M210-169c-67 3-38 105-44 169h-31v-121c0-29-5-50-35-48C34-165 62-65 56 0H25l-1-190h30c1 10-1 24 2 32 10-44 99-50 107 0 11-21 27-35 58-36 85-2 47 119 55 194h-31v-121c0-29-5-49-35-48" id="bn"/><g id="N"><use transform="matrix(0.024691358024691343,0,0,0.024691358024691343,0,0)" xlink:href="#bk"/><use transform="matrix(0.024691358024691343,0,0,0.024691358024691343,6.395061728395058,0)" xlink:href="#bc"/><use transform="matrix(0.024691358024691343,0,0,0.024691358024691343,10.8395061728395,0)" xlink:href="#bj"/><use transform="matrix(0.024691358024691343,0,0,0.024691358024691343,15.777777777777768,0)" xlink:href="#bl"/><use transform="matrix(0.024691358024691343,0,0,0.024691358024691343,18.716049382716037,0)" xlink:href="#bm"/><use transform="matrix(0.024691358024691343,0,0,0.024691358024691343,23.654320987654305,0)" xlink:href="#be"/><use transform="matrix(0.024691358024691343,0,0,0.024691358024691343,28.592592592592574,0)" xlink:href="#bn"/><use transform="matrix(0.024691358024691343,0,0,0.024691358024691343,35.97530864197529,0)" xlink:href="#bj"/></g><path fill="#333" d="M205 0l-28-72H64L36 0H1l101-248h38L239 0h-34zm-38-99l-47-123c-12 45-31 82-46 123h93" id="bo"/><path fill="#333" d="M115-194c53 0 69 39 70 98 0 66-23 100-70 100C84 3 66-7 56-30L54 0H23l1-261h32v101c10-23 28-34 59-34zm-8 174c40 0 45-34 45-75 0-40-5-75-45-74-42 0-51 32-51 76 0 43 10 73 51 73" id="bp"/><g id="O"><use transform="matrix(0.02469135802469134,0,0,0.02469135802469134,0,0)" xlink:href="#S"/><use transform="matrix(0.02469135802469134,0,0,0.02469135802469134,4.444444444444441,0)" xlink:href="#T"/><use transform="matrix(0.02469135802469134,0,0,0.02469135802469134,9.382716049382708,0)" xlink:href="#U"/><use transform="matrix(0.02469135802469134,0,0,0.02469135802469134,11.851851851851842,0)" xlink:href="#bo"/><use transform="matrix(0.02469135802469134,0,0,0.02469135802469134,17.777777777777764,0)" xlink:href="#U"/><use transform="matrix(0.02469135802469134,0,0,0.02469135802469134,20.246913580246897,0)" xlink:href="#U"/><use transform="matrix(0.02469135802469134,0,0,0.02469135802469134,22.71604938271603,0)" xlink:href="#aa"/><use transform="matrix(0.02469135802469134,0,0,0.02469135802469134,25.654320987654295,0)" xlink:href="#av"/><use transform="matrix(0.02469135802469134,0,0,0.02469135802469134,27.60493827160492,0)" xlink:href="#bp"/><use transform="matrix(0.02469135802469134,0,0,0.02469135802469134,32.54320987654318,0)" xlink:href="#Z"/><use transform="matrix(0.02469135802469134,0,0,0.02469135802469134,37.481481481481445,0)" xlink:href="#U"/><use transform="matrix(0.02469135802469134,0,0,0.02469135802469134,39.95061728395058,0)" xlink:href="#T"/><use transform="matrix(0.02469135802469134,0,0,0.02469135802469134,44.88888888888884,0)" xlink:href="#X"/><use transform="matrix(0.02469135802469134,0,0,0.02469135802469134,47.827160493827115,0)" xlink:href="#Y"/><use transform="matrix(0.02469135802469134,0,0,0.02469135802469134,50.96296296296291,0)" xlink:href="#aR"/><use transform="matrix(0.02469135802469134,0,0,0.02469135802469134,55.407407407407355,0)" xlink:href="#Z"/><use transform="matrix(0.02469135802469134,0,0,0.02469135802469134,60.34567901234562,0)" xlink:href="#aa"/><use transform="matrix(0.02469135802469134,0,0,0.02469135802469134,63.28395061728389,0)" xlink:href="#aa"/><use transform="matrix(0.02469135802469134,0,0,0.02469135802469134,66.22222222222216,0)" xlink:href="#T"/><use transform="matrix(0.02469135802469134,0,0,0.02469135802469134,71.16049382716042,0)" xlink:href="#ab"/><use transform="matrix(0.02469135802469134,0,0,0.02469135802469134,76.09876543209869,0)" xlink:href="#U"/><use transform="matrix(0.02469135802469134,0,0,0.02469135802469134,78.56790123456783,0)" xlink:href="#aU"/><use transform="matrix(0.02469135802469134,0,0,0.02469135802469134,84.96296296296289,0)" xlink:href="#S"/><use transform="matrix(0.02469135802469134,0,0,0.02469135802469134,89.40740740740733,0)" xlink:href="#T"/><use transform="matrix(0.02469135802469134,0,0,0.02469135802469134,94.3456790123456,0)" xlink:href="#aa"/><use transform="matrix(0.02469135802469134,0,0,0.02469135802469134,97.28395061728386,0)" xlink:href="#Y"/><use transform="matrix(0.02469135802469134,0,0,0.02469135802469134,100.41975308641966,0)" xlink:href="#ad"/><use transform="matrix(0.02469135802469134,0,0,0.02469135802469134,102.88888888888881,0)" xlink:href="#Z"/><use transform="matrix(0.02469135802469134,0,0,0.02469135802469134,107.82716049382705,0)" xlink:href="#S"/><use transform="matrix(0.02469135802469134,0,0,0.02469135802469134,112.2716049382715,0)" xlink:href="#T"/><use transform="matrix(0.02469135802469134,0,0,0.02469135802469134,117.20987654320976,0)" xlink:href="#aa"/><use transform="matrix(0.02469135802469134,0,0,0.02469135802469134,120.14814814814804,0)" xlink:href="#ae"/></g><path fill="#333" d="M266 0h-40l-56-210L115 0H75L2-248h35L96-30l15-64 43-154h32l59 218 59-218h35" id="bq"/><g id="P"><use transform="matrix(0.06172839506172839,0,0,0.06172839506172839,0,0)" xlink:href="#bq"/><use transform="matrix(0.06172839506172839,0,0,0.06172839506172839,20.925925925925924,0)" xlink:href="#av"/><use transform="matrix(0.06172839506172839,0,0,0.06172839506172839,25.80246913580247,0)" xlink:href="#ab"/><use transform="matrix(0.06172839506172839,0,0,0.06172839506172839,38.148148148148145,0)" xlink:href="#af"/><use transform="matrix(0.06172839506172839,0,0,0.06172839506172839,50.49382716049382,0)" xlink:href="#ag"/><use transform="matrix(0.06172839506172839,0,0,0.06172839506172839,62.8395061728395,0)" xlink:href="#an"/></g><g id="Q"><use transform="matrix(0.030864197530864182,0,0,0.030864197530864182,0,0)" xlink:href="#aj"/><use transform="matrix(0.030864197530864182,0,0,0.030864197530864182,7.407407407407404,0)" xlink:href="#U"/><use transform="matrix(0.030864197530864182,0,0,0.030864197530864182,10.493827160493822,0)" xlink:href="#ac"/><use transform="matrix(0.030864197530864182,0,0,0.030864197530864182,16.666666666666657,0)" xlink:href="#U"/><use transform="matrix(0.030864197530864182,0,0,0.030864197530864182,19.753086419753075,0)" xlink:href="#Z"/><use transform="matrix(0.030864197530864182,0,0,0.030864197530864182,25.92592592592591,0)" xlink:href="#S"/></g><path fill="#333" d="M101-251c82-7 93 87 43 132L82-64C71-53 59-42 53-27h129V0H18c2-99 128-94 128-182 0-28-16-43-45-43s-46 15-49 41l-32-3c6-41 34-60 81-64" id="br"/><path fill="#333" d="M101-251c68 0 85 55 85 127S166 4 100 4C33 4 14-52 14-124c0-73 17-127 87-127zm-1 229c47 0 54-49 54-102s-4-102-53-102c-51 0-55 48-55 102 0 53 5 102 54 102" id="bs"/><g id="R"><use transform="matrix(0.030864197530864182,0,0,0.030864197530864182,0,0)" xlink:href="#br"/><use transform="matrix(0.030864197530864182,0,0,0.030864197530864182,6.172839506172837,0)" xlink:href="#bs"/><use transform="matrix(0.030864197530864182,0,0,0.030864197530864182,12.345679012345673,0)" xlink:href="#bs"/></g></defs></g></svg>